<?xml version="1.0" encoding="UTF-8" standalone="no"?>
<!DOCTYPE svg PUBLIC "-//W3C//DTD SVG 1.1//EN"
 "http://www.w3.org/Graphics/SVG/1.1/DTD/svg11.dtd">
<!-- Generated by graphviz version 14.1.2 (20260124.0452)
 -->
<!-- Title: V17ReleaseBlockers Pages: 1 -->
<svg width="1248pt" height="1286pt"
 viewBox="14.00 14.00 1234.00 1271.00" xmlns="http://www.w3.org/2000/svg" xmlns:xlink="http://www.w3.org/1999/xlink">
<g id="graph0" class="graph" transform="scale(1 1) rotate(0) translate(18.4 1267.4)">
<title>V17ReleaseBlockers</title>
<polygon fill="white" stroke="none" points="-4,4 -4,-1253 1215.2,-1253 1215.2,4 -4,4"/>
<text xml:space="preserve" text-anchor="middle" x="605.6" y="-1227.9" font-family="Helvetica,sans-Serif" font-size="18.00">v17.0.0 Release Blocker DAG</text>
<!-- SPEC_consumer&#45;typecheck&#45;materialize&#45;residue -->
<g id="node1" class="node">
<title>SPEC_consumer&#45;typecheck&#45;materialize&#45;residue</title>
<path fill="#bbf7d0" stroke="#15803d" stroke-width="2.4" d="M458.45,-1169.83C458.45,-1169.83 344.3,-1169.83 344.3,-1169.83 338.3,-1169.83 332.3,-1163.83 332.3,-1157.83 332.3,-1157.83 332.3,-1138 332.3,-1138 332.3,-1132 338.3,-1126 344.3,-1126 344.3,-1126 458.45,-1126 458.45,-1126 464.45,-1126 470.45,-1132 470.45,-1138 470.45,-1138 470.45,-1157.83 470.45,-1157.83 470.45,-1163.83 464.45,-1169.83 458.45,-1169.83"/>
<text xml:space="preserve" text-anchor="middle" x="401.38" y="-1155.29" font-family="Helvetica,sans-Serif" font-size="10.00">DONE</text>
<text xml:space="preserve" text-anchor="middle" x="401.38" y="-1144.04" font-family="Helvetica,sans-Serif" font-size="10.00">SPEC_consumer&#45;typecheck</text>
<text xml:space="preserve" text-anchor="middle" x="401.38" y="-1132.79" font-family="Helvetica,sans-Serif" font-size="10.00">materialize residue</text>
</g>
<!-- SPEC_materialize&#45;spy&#45;test&#45;clusters -->
<g id="node9" class="node">
<title>SPEC_materialize&#45;spy&#45;test&#45;clusters</title>
<path fill="#bbf7d0" stroke="#15803d" stroke-width="2.4" d="M632.1,-822.83C632.1,-822.83 542.7,-822.83 542.7,-822.83 536.7,-822.83 530.7,-816.83 530.7,-810.83 530.7,-810.83 530.7,-791 530.7,-791 530.7,-785 536.7,-779 542.7,-779 542.7,-779 632.1,-779 632.1,-779 638.1,-779 644.1,-785 644.1,-791 644.1,-791 644.1,-810.83 644.1,-810.83 644.1,-816.83 638.1,-822.83 632.1,-822.83"/>
<text xml:space="preserve" text-anchor="middle" x="587.4" y="-808.29" font-family="Helvetica,sans-Serif" font-size="10.00">DONE</text>
<text xml:space="preserve" text-anchor="middle" x="587.4" y="-797.04" font-family="Helvetica,sans-Serif" font-size="10.00">SPEC_materialize&#45;spy</text>
<text xml:space="preserve" text-anchor="middle" x="587.4" y="-785.79" font-family="Helvetica,sans-Serif" font-size="10.00">test clusters</text>
</g>
<!-- SPEC_consumer&#45;typecheck&#45;materialize&#45;residue&#45;&gt;SPEC_materialize&#45;spy&#45;test&#45;clusters -->
<g id="edge4" class="edge">
<title>SPEC_consumer&#45;typecheck&#45;materialize&#45;residue&#45;&gt;SPEC_materialize&#45;spy&#45;test&#45;clusters</title>
<path fill="none" stroke="#4b5563" stroke-width="1.1" d="M455.47,-1124.85C461.83,-1120.54 467.79,-1115.58 472.7,-1109.91 482.29,-1098.84 549.45,-907.3 575.81,-831.47"/>
<polygon fill="#4b5563" stroke="#4b5563" stroke-width="1.1" points="578,-832.64 577.98,-825.23 573.37,-831.04 578,-832.64"/>
</g>
<!-- REL_full&#45;gate&#45;matrix&#45;green -->
<g id="node18" class="node">
<title>REL_full&#45;gate&#45;matrix&#45;green</title>
<path fill="#bbf7d0" stroke="#15803d" stroke-width="2.4" d="M763.75,-677.83C763.75,-677.83 714.1,-677.83 714.1,-677.83 708.1,-677.83 702.1,-671.83 702.1,-665.83 702.1,-665.83 702.1,-646 702.1,-646 702.1,-640 708.1,-634 714.1,-634 714.1,-634 763.75,-634 763.75,-634 769.75,-634 775.75,-640 775.75,-646 775.75,-646 775.75,-665.83 775.75,-665.83 775.75,-671.83 769.75,-677.83 763.75,-677.83"/>
<text xml:space="preserve" text-anchor="middle" x="738.93" y="-663.29" font-family="Helvetica,sans-Serif" font-size="10.00">DONE</text>
<text xml:space="preserve" text-anchor="middle" x="738.93" y="-652.04" font-family="Helvetica,sans-Serif" font-size="10.00">REL_full gate</text>
<text xml:space="preserve" text-anchor="middle" x="738.93" y="-640.79" font-family="Helvetica,sans-Serif" font-size="10.00">matrix green</text>
</g>
<!-- SPEC_consumer&#45;typecheck&#45;materialize&#45;residue&#45;&gt;REL_full&#45;gate&#45;matrix&#45;green -->
<g id="edge25" class="edge">
<title>SPEC_consumer&#45;typecheck&#45;materialize&#45;residue&#45;&gt;REL_full&#45;gate&#45;matrix&#45;green</title>
<path fill="none" stroke="#4b5563" stroke-width="1.1" d="M471.39,-1148.45C525.78,-1145.02 599.62,-1131.19 644.1,-1084.91 699.45,-1027.32 727.05,-776.56 735.25,-687.47"/>
<polygon fill="#4b5563" stroke="#4b5563" stroke-width="1.1" points="737.68,-687.73 735.87,-680.53 732.8,-687.28 737.68,-687.73"/>
</g>
<!-- SPEC_docs&#45;materialize&#45;frontdoor&#45;drift -->
<g id="node2" class="node">
<title>SPEC_docs&#45;materialize&#45;frontdoor&#45;drift</title>
<path fill="#bbf7d0" stroke="#15803d" stroke-width="2.4" d="M260.05,-1093.83C260.05,-1093.83 161.65,-1093.83 161.65,-1093.83 155.65,-1093.83 149.65,-1087.83 149.65,-1081.83 149.65,-1081.83 149.65,-1062 149.65,-1062 149.65,-1056 155.65,-1050 161.65,-1050 161.65,-1050 260.05,-1050 260.05,-1050 266.05,-1050 272.05,-1056 272.05,-1062 272.05,-1062 272.05,-1081.83 272.05,-1081.83 272.05,-1087.83 266.05,-1093.83 260.05,-1093.83"/>
<text xml:space="preserve" text-anchor="middle" x="210.85" y="-1079.29" font-family="Helvetica,sans-Serif" font-size="10.00">DONE</text>
<text xml:space="preserve" text-anchor="middle" x="210.85" y="-1068.04" font-family="Helvetica,sans-Serif" font-size="10.00">SPEC_docs</text>
<text xml:space="preserve" text-anchor="middle" x="210.85" y="-1056.79" font-family="Helvetica,sans-Serif" font-size="10.00">materialize frontdoor drift</text>
</g>
<!-- SPEC_runtime&#45;error&#45;reading&#45;basis&#45;guidance -->
<g id="node3" class="node">
<title>SPEC_runtime&#45;error&#45;reading&#45;basis&#45;guidance</title>
<path fill="#bbf7d0" stroke="#15803d" stroke-width="2.4" d="M446.45,-1093.83C446.45,-1093.83 356.3,-1093.83 356.3,-1093.83 350.3,-1093.83 344.3,-1087.83 344.3,-1081.83 344.3,-1081.83 344.3,-1062 344.3,-1062 344.3,-1056 350.3,-1050 356.3,-1050 356.3,-1050 446.45,-1050 446.45,-1050 452.45,-1050 458.45,-1056 458.45,-1062 458.45,-1062 458.45,-1081.83 458.45,-1081.83 458.45,-1087.83 452.45,-1093.83 446.45,-1093.83"/>
<text xml:space="preserve" text-anchor="middle" x="401.38" y="-1079.29" font-family="Helvetica,sans-Serif" font-size="10.00">DONE</text>
<text xml:space="preserve" text-anchor="middle" x="401.38" y="-1068.04" font-family="Helvetica,sans-Serif" font-size="10.00">SPEC_runtime&#45;error</text>
<text xml:space="preserve" text-anchor="middle" x="401.38" y="-1056.79" font-family="Helvetica,sans-Serif" font-size="10.00">reading&#45;basis guidance</text>
</g>
<!-- SPEC_docs&#45;materialize&#45;frontdoor&#45;drift&#45;&gt;SPEC_runtime&#45;error&#45;reading&#45;basis&#45;guidance -->
<g id="edge1" class="edge">
<title>SPEC_docs&#45;materialize&#45;frontdoor&#45;drift&#45;&gt;SPEC_runtime&#45;error&#45;reading&#45;basis&#45;guidance</title>
<path fill="none" stroke="#4b5563" stroke-width="1.1" d="M273.06,-1071.91C292.81,-1071.91 314.79,-1071.91 334.84,-1071.91"/>
<polygon fill="#4b5563" stroke="#4b5563" stroke-width="1.1" points="334.64,-1074.37 341.64,-1071.92 334.64,-1069.47 334.64,-1074.37"/>
</g>
<!-- SPEC_docs&#45;materialize&#45;frontdoor&#45;drift&#45;&gt;SPEC_materialize&#45;spy&#45;test&#45;clusters -->
<g id="edge5" class="edge">
<title>SPEC_docs&#45;materialize&#45;frontdoor&#45;drift&#45;&gt;SPEC_materialize&#45;spy&#45;test&#45;clusters</title>
<path fill="none" stroke="#4b5563" stroke-width="1.1" d="M243.78,-1048.81C312.34,-999.21 473.37,-882.69 547.64,-828.96"/>
<polygon fill="#4b5563" stroke="#4b5563" stroke-width="1.1" points="548.96,-831.03 553.2,-824.94 546.09,-827.06 548.96,-831.03"/>
</g>
<!-- SPEC_docs&#45;materialize&#45;frontdoor&#45;drift&#45;&gt;REL_full&#45;gate&#45;matrix&#45;green -->
<g id="edge26" class="edge">
<title>SPEC_docs&#45;materialize&#45;frontdoor&#45;drift&#45;&gt;REL_full&#45;gate&#45;matrix&#45;green</title>
<path fill="none" stroke="#4b5563" stroke-width="1.1" d="M226.99,-1094.75C246.85,-1122.41 284.58,-1167.56 330.05,-1185.91 460.98,-1238.77 548.37,-1241.71 644.1,-1137.91 705.47,-1071.37 729.59,-783.53 736.03,-687.35"/>
<polygon fill="#4b5563" stroke="#4b5563" stroke-width="1.1" points="738.46,-687.72 736.47,-680.57 733.57,-687.4 738.46,-687.72"/>
</g>
<!-- SPEC_runtime&#45;error&#45;reading&#45;basis&#45;guidance&#45;&gt;SPEC_materialize&#45;spy&#45;test&#45;clusters -->
<g id="edge6" class="edge">
<title>SPEC_runtime&#45;error&#45;reading&#45;basis&#45;guidance&#45;&gt;SPEC_materialize&#45;spy&#45;test&#45;clusters</title>
<path fill="none" stroke="#4b5563" stroke-width="1.1" d="M418.06,-1048.81C451.34,-999.81 528.96,-885.5 566.01,-830.94"/>
<polygon fill="#4b5563" stroke="#4b5563" stroke-width="1.1" points="567.91,-832.51 569.81,-825.34 563.86,-829.75 567.91,-832.51"/>
</g>
<!-- SPEC_runtime&#45;error&#45;reading&#45;basis&#45;guidance&#45;&gt;REL_full&#45;gate&#45;matrix&#45;green -->
<g id="edge27" class="edge">
<title>SPEC_runtime&#45;error&#45;reading&#45;basis&#45;guidance&#45;&gt;REL_full&#45;gate&#45;matrix&#45;green</title>
<path fill="none" stroke="#4b5563" stroke-width="1.1" d="M459.4,-1080.77C513.69,-1085.78 594.29,-1083.77 644.1,-1038.91 696.74,-991.51 725.59,-770.44 734.71,-687.48"/>
<polygon fill="#4b5563" stroke="#4b5563" stroke-width="1.1" points="737.13,-687.85 735.45,-680.63 732.26,-687.32 737.13,-687.85"/>
</g>
<!-- BND_checkpoint&#45;schema&#45;contract&#45;drift -->
<g id="node4" class="node">
<title>BND_checkpoint&#45;schema&#45;contract&#45;drift</title>
<path fill="#bbf7d0" stroke="#15803d" stroke-width="2.4" d="M252.18,-854.83C252.18,-854.83 169.53,-854.83 169.53,-854.83 163.53,-854.83 157.53,-848.83 157.53,-842.83 157.53,-842.83 157.53,-823 157.53,-823 157.53,-817 163.53,-811 169.53,-811 169.53,-811 252.18,-811 252.18,-811 258.18,-811 264.18,-817 264.18,-823 264.18,-823 264.18,-842.83 264.18,-842.83 264.18,-848.83 258.18,-854.83 252.18,-854.83"/>
<text xml:space="preserve" text-anchor="middle" x="210.85" y="-840.29" font-family="Helvetica,sans-Serif" font-size="10.00">DONE</text>
<text xml:space="preserve" text-anchor="middle" x="210.85" y="-829.04" font-family="Helvetica,sans-Serif" font-size="10.00">BND_checkpoint</text>
<text xml:space="preserve" text-anchor="middle" x="210.85" y="-817.79" font-family="Helvetica,sans-Serif" font-size="10.00">schema contract drift</text>
</g>
<!-- PORT_checkpoint&#45;controller&#45;reading&#45;basis -->
<g id="node6" class="node">
<title>PORT_checkpoint&#45;controller&#45;reading&#45;basis</title>
<path fill="#bbf7d0" stroke="#15803d" stroke-width="2.4" d="M458.08,-753.83C458.08,-753.83 344.68,-753.83 344.68,-753.83 338.68,-753.83 332.68,-747.83 332.68,-741.83 332.68,-741.83 332.68,-722 332.68,-722 332.68,-716 338.68,-710 344.68,-710 344.68,-710 458.08,-710 458.08,-710 464.08,-710 470.08,-716 470.08,-722 470.08,-722 470.08,-741.83 470.08,-741.83 470.08,-747.83 464.08,-753.83 458.08,-753.83"/>
<text xml:space="preserve" text-anchor="middle" x="401.38" y="-739.29" font-family="Helvetica,sans-Serif" font-size="10.00">DONE</text>
<text xml:space="preserve" text-anchor="middle" x="401.38" y="-728.04" font-family="Helvetica,sans-Serif" font-size="10.00">PORT_checkpoint&#45;controller</text>
<text xml:space="preserve" text-anchor="middle" x="401.38" y="-716.79" font-family="Helvetica,sans-Serif" font-size="10.00">reading basis</text>
</g>
<!-- BND_checkpoint&#45;schema&#45;contract&#45;drift&#45;&gt;PORT_checkpoint&#45;controller&#45;reading&#45;basis -->
<g id="edge2" class="edge">
<title>BND_checkpoint&#45;schema&#45;contract&#45;drift&#45;&gt;PORT_checkpoint&#45;controller&#45;reading&#45;basis</title>
<path fill="none" stroke="#4b5563" stroke-width="1.1" d="M254.63,-810C282.97,-794.81 320.27,-774.83 350.04,-758.88"/>
<polygon fill="#4b5563" stroke="#4b5563" stroke-width="1.1" points="350.96,-761.17 355.97,-755.7 348.64,-756.85 350.96,-761.17"/>
</g>
<!-- SPEC_checkpoint&#45;materialize&#45;test&#45;drift -->
<g id="node11" class="node">
<title>SPEC_checkpoint&#45;materialize&#45;test&#45;drift</title>
<path fill="#bbf7d0" stroke="#15803d" stroke-width="2.4" d="M625.73,-1022.83C625.73,-1022.83 549.08,-1022.83 549.08,-1022.83 543.08,-1022.83 537.08,-1016.83 537.08,-1010.83 537.08,-1010.83 537.08,-991 537.08,-991 537.08,-985 543.08,-979 549.08,-979 549.08,-979 625.73,-979 625.73,-979 631.73,-979 637.73,-985 637.73,-991 637.73,-991 637.73,-1010.83 637.73,-1010.83 637.73,-1016.83 631.73,-1022.83 625.73,-1022.83"/>
<text xml:space="preserve" text-anchor="middle" x="587.4" y="-1008.29" font-family="Helvetica,sans-Serif" font-size="10.00">DONE</text>
<text xml:space="preserve" text-anchor="middle" x="587.4" y="-997.04" font-family="Helvetica,sans-Serif" font-size="10.00">SPEC_checkpoint</text>
<text xml:space="preserve" text-anchor="middle" x="587.4" y="-985.79" font-family="Helvetica,sans-Serif" font-size="10.00">materialize test drift</text>
</g>
<!-- BND_checkpoint&#45;schema&#45;contract&#45;drift&#45;&gt;SPEC_checkpoint&#45;materialize&#45;test&#45;drift -->
<g id="edge11" class="edge">
<title>BND_checkpoint&#45;schema&#45;contract&#45;drift&#45;&gt;SPEC_checkpoint&#45;materialize&#45;test&#45;drift</title>
<path fill="none" stroke="#4b5563" stroke-width="1.1" d="M226.06,-855.81C245.6,-885.16 283.67,-935.18 330.05,-959.91 391.96,-992.93 473.37,-1000.95 527.67,-1002.17"/>
<polygon fill="#4b5563" stroke="#4b5563" stroke-width="1.1" points="527.44,-1004.62 534.48,-1002.28 527.52,-999.72 527.44,-1004.62"/>
</g>
<!-- REL_quarantine&#45;graduate&#45;clean -->
<g id="node17" class="node">
<title>REL_quarantine&#45;graduate&#45;clean</title>
<path fill="#bbf7d0" stroke="#15803d" stroke-width="2.4" d="M617.48,-429.83C617.48,-429.83 557.33,-429.83 557.33,-429.83 551.33,-429.83 545.33,-423.83 545.33,-417.83 545.33,-417.83 545.33,-398 545.33,-398 545.33,-392 551.33,-386 557.33,-386 557.33,-386 617.48,-386 617.48,-386 623.48,-386 629.48,-392 629.48,-398 629.48,-398 629.48,-417.83 629.48,-417.83 629.48,-423.83 623.48,-429.83 617.48,-429.83"/>
<text xml:space="preserve" text-anchor="middle" x="587.4" y="-415.29" font-family="Helvetica,sans-Serif" font-size="10.00">DONE</text>
<text xml:space="preserve" text-anchor="middle" x="587.4" y="-404.04" font-family="Helvetica,sans-Serif" font-size="10.00">REL_quarantine</text>
<text xml:space="preserve" text-anchor="middle" x="587.4" y="-392.79" font-family="Helvetica,sans-Serif" font-size="10.00">graduate clean</text>
</g>
<!-- BND_checkpoint&#45;schema&#45;contract&#45;drift&#45;&gt;REL_quarantine&#45;graduate&#45;clean -->
<g id="edge15" class="edge">
<title>BND_checkpoint&#45;schema&#45;contract&#45;drift&#45;&gt;REL_quarantine&#45;graduate&#45;clean</title>
<path fill="none" stroke="#4b5563" stroke-width="1.1" d="M215.59,-810.02C225.36,-756.83 256.17,-623.24 330.05,-541.91 386.7,-479.56 479.18,-441.39 536.21,-422.48"/>
<polygon fill="#4b5563" stroke="#4b5563" stroke-width="1.1" points="536.87,-424.84 542.77,-420.34 535.36,-420.18 536.87,-424.84"/>
</g>
<!-- BND_checkpoint&#45;schema&#45;contract&#45;drift&#45;&gt;REL_full&#45;gate&#45;matrix&#45;green -->
<g id="edge28" class="edge">
<title>BND_checkpoint&#45;schema&#45;contract&#45;drift&#45;&gt;REL_full&#45;gate&#45;matrix&#45;green</title>
<path fill="none" stroke="#4b5563" stroke-width="1.1" d="M265.11,-850.55C351.71,-875.75 525.3,-911.51 644.1,-838.91 698.4,-805.74 722.57,-730.06 732.24,-687.14"/>
<polygon fill="#4b5563" stroke="#4b5563" stroke-width="1.1" points="734.62,-687.75 733.69,-680.39 729.83,-686.72 734.62,-687.75"/>
</g>
<!-- PORT_patch&#45;controller&#45;reading&#45;basis -->
<g id="node5" class="node">
<title>PORT_patch&#45;controller&#45;reading&#45;basis</title>
<path fill="#bbf7d0" stroke="#15803d" stroke-width="2.4" d="M255.93,-565.83C255.93,-565.83 165.78,-565.83 165.78,-565.83 159.78,-565.83 153.78,-559.83 153.78,-553.83 153.78,-553.83 153.78,-534 153.78,-534 153.78,-528 159.78,-522 165.78,-522 165.78,-522 255.93,-522 255.93,-522 261.93,-522 267.93,-528 267.93,-534 267.93,-534 267.93,-553.83 267.93,-553.83 267.93,-559.83 261.93,-565.83 255.93,-565.83"/>
<text xml:space="preserve" text-anchor="middle" x="210.85" y="-551.29" font-family="Helvetica,sans-Serif" font-size="10.00">DONE</text>
<text xml:space="preserve" text-anchor="middle" x="210.85" y="-540.04" font-family="Helvetica,sans-Serif" font-size="10.00">PORT_patch&#45;controller</text>
<text xml:space="preserve" text-anchor="middle" x="210.85" y="-528.79" font-family="Helvetica,sans-Serif" font-size="10.00">reading basis</text>
</g>
<!-- PORT_subscription&#45;controller&#45;reading&#45;basis -->
<g id="node7" class="node">
<title>PORT_subscription&#45;controller&#45;reading&#45;basis</title>
<path fill="#bbf7d0" stroke="#15803d" stroke-width="2.4" d="M460.7,-601.83C460.7,-601.83 342.05,-601.83 342.05,-601.83 336.05,-601.83 330.05,-595.83 330.05,-589.83 330.05,-589.83 330.05,-570 330.05,-570 330.05,-564 336.05,-558 342.05,-558 342.05,-558 460.7,-558 460.7,-558 466.7,-558 472.7,-564 472.7,-570 472.7,-570 472.7,-589.83 472.7,-589.83 472.7,-595.83 466.7,-601.83 460.7,-601.83"/>
<text xml:space="preserve" text-anchor="middle" x="401.38" y="-587.29" font-family="Helvetica,sans-Serif" font-size="10.00">DONE</text>
<text xml:space="preserve" text-anchor="middle" x="401.38" y="-576.04" font-family="Helvetica,sans-Serif" font-size="10.00">PORT_subscription&#45;controller</text>
<text xml:space="preserve" text-anchor="middle" x="401.38" y="-564.79" font-family="Helvetica,sans-Serif" font-size="10.00">reading basis</text>
</g>
<!-- PORT_patch&#45;controller&#45;reading&#45;basis&#45;&gt;PORT_subscription&#45;controller&#45;reading&#45;basis -->
<g id="edge3" class="edge">
<title>PORT_patch&#45;controller&#45;reading&#45;basis&#45;&gt;PORT_subscription&#45;controller&#45;reading&#45;basis</title>
<path fill="none" stroke="#4b5563" stroke-width="1.1" d="M268.93,-554.81C285.22,-557.93 303.29,-561.38 320.68,-564.7"/>
<polygon fill="#4b5563" stroke="#4b5563" stroke-width="1.1" points="320.18,-567.09 327.51,-566 321.1,-562.28 320.18,-567.09"/>
</g>
<!-- PORT_patch&#45;controller&#45;reading&#45;basis&#45;&gt;SPEC_materialize&#45;spy&#45;test&#45;clusters -->
<g id="edge7" class="edge">
<title>PORT_patch&#45;controller&#45;reading&#45;basis&#45;&gt;SPEC_materialize&#45;spy&#45;test&#45;clusters</title>
<path fill="none" stroke="#4b5563" stroke-width="1.1" d="M216.44,-566.85C227.13,-613.77 258.47,-720.46 330.05,-769.91 386,-808.58 465.67,-812.3 521.29,-808.92"/>
<polygon fill="#4b5563" stroke="#4b5563" stroke-width="1.1" points="521.18,-811.38 528,-808.46 520.85,-806.5 521.18,-811.38"/>
</g>
<!-- PORT_patch&#45;controller&#45;reading&#45;basis&#45;&gt;REL_quarantine&#45;graduate&#45;clean -->
<g id="edge16" class="edge">
<title>PORT_patch&#45;controller&#45;reading&#45;basis&#45;&gt;REL_quarantine&#45;graduate&#45;clean</title>
<path fill="none" stroke="#4b5563" stroke-width="1.1" d="M225.36,-520.86C244.38,-490.88 282.16,-439.77 330.05,-417.91 396.2,-387.72 482.24,-391.97 535.9,-399.02"/>
<polygon fill="#4b5563" stroke="#4b5563" stroke-width="1.1" points="535.3,-401.41 542.57,-399.94 535.97,-396.55 535.3,-401.41"/>
</g>
<!-- PORT_patch&#45;controller&#45;reading&#45;basis&#45;&gt;REL_full&#45;gate&#45;matrix&#45;green -->
<g id="edge29" class="edge">
<title>PORT_patch&#45;controller&#45;reading&#45;basis&#45;&gt;REL_full&#45;gate&#45;matrix&#45;green</title>
<path fill="none" stroke="#4b5563" stroke-width="1.1" d="M268.96,-542.75C288.35,-542.41 310.14,-542.08 330.05,-541.91 393.45,-541.38 410.22,-531.13 472.7,-541.91 552.38,-555.67 570.54,-569.35 644.1,-602.91 660.77,-610.52 678.43,-620.07 693.87,-628.96"/>
<polygon fill="#4b5563" stroke="#4b5563" stroke-width="1.1" points="692.53,-631.02 699.82,-632.42 695,-626.78 692.53,-631.02"/>
</g>
<!-- PORT_checkpoint&#45;controller&#45;reading&#45;basis&#45;&gt;SPEC_materialize&#45;spy&#45;test&#45;clusters -->
<g id="edge8" class="edge">
<title>PORT_checkpoint&#45;controller&#45;reading&#45;basis&#45;&gt;SPEC_materialize&#45;spy&#45;test&#45;clusters</title>
<path fill="none" stroke="#4b5563" stroke-width="1.1" d="M463.91,-754.99C482.47,-761.95 502.89,-769.6 521.65,-776.64"/>
<polygon fill="#4b5563" stroke="#4b5563" stroke-width="1.1" points="520.61,-778.86 528.02,-779.03 522.33,-774.28 520.61,-778.86"/>
</g>
<!-- PORT_checkpoint&#45;controller&#45;reading&#45;basis&#45;&gt;REL_quarantine&#45;graduate&#45;clean -->
<g id="edge17" class="edge">
<title>PORT_checkpoint&#45;controller&#45;reading&#45;basis&#45;&gt;REL_quarantine&#45;graduate&#45;clean</title>
<path fill="none" stroke="#4b5563" stroke-width="1.1" d="M454.98,-708.97C461.49,-704.63 467.63,-699.62 472.7,-693.91 540.59,-617.58 570.49,-495.75 581.28,-438.95"/>
<polygon fill="#4b5563" stroke="#4b5563" stroke-width="1.1" points="583.63,-439.7 582.49,-432.37 578.82,-438.81 583.63,-439.7"/>
</g>
<!-- PORT_checkpoint&#45;controller&#45;reading&#45;basis&#45;&gt;REL_full&#45;gate&#45;matrix&#45;green -->
<g id="edge30" class="edge">
<title>PORT_checkpoint&#45;controller&#45;reading&#45;basis&#45;&gt;REL_full&#45;gate&#45;matrix&#45;green</title>
<path fill="none" stroke="#4b5563" stroke-width="1.1" d="M471.1,-718.42C519.59,-708.64 586.01,-694.77 644.1,-680.91 660.01,-677.12 677.34,-672.61 692.73,-668.47"/>
<polygon fill="#4b5563" stroke="#4b5563" stroke-width="1.1" points="693.33,-670.85 699.44,-666.65 692.05,-666.12 693.33,-670.85"/>
</g>
<!-- PORT_subscription&#45;controller&#45;reading&#45;basis&#45;&gt;SPEC_materialize&#45;spy&#45;test&#45;clusters -->
<g id="edge9" class="edge">
<title>PORT_subscription&#45;controller&#45;reading&#45;basis&#45;&gt;SPEC_materialize&#45;spy&#45;test&#45;clusters</title>
<path fill="none" stroke="#4b5563" stroke-width="1.1" d="M452.62,-602.82C459.79,-607.26 466.74,-612.3 472.7,-617.91 520.19,-662.62 555.74,-731.33 573.58,-770.6"/>
<polygon fill="#4b5563" stroke="#4b5563" stroke-width="1.1" points="571.13,-771.14 576.23,-776.53 575.61,-769.14 571.13,-771.14"/>
</g>
<!-- PORT_subscription&#45;controller&#45;reading&#45;basis&#45;&gt;REL_quarantine&#45;graduate&#45;clean -->
<g id="edge18" class="edge">
<title>PORT_subscription&#45;controller&#45;reading&#45;basis&#45;&gt;REL_quarantine&#45;graduate&#45;clean</title>
<path fill="none" stroke="#4b5563" stroke-width="1.1" d="M426.81,-557.07C460.08,-525.98 519.63,-470.32 555.82,-436.49"/>
<polygon fill="#4b5563" stroke="#4b5563" stroke-width="1.1" points="557.2,-438.56 560.65,-431.99 553.86,-434.98 557.2,-438.56"/>
</g>
<!-- PORT_subscription&#45;controller&#45;reading&#45;basis&#45;&gt;REL_full&#45;gate&#45;matrix&#45;green -->
<g id="edge31" class="edge">
<title>PORT_subscription&#45;controller&#45;reading&#45;basis&#45;&gt;REL_full&#45;gate&#45;matrix&#45;green</title>
<path fill="none" stroke="#4b5563" stroke-width="1.1" d="M473.54,-596.03C539.78,-611.04 636.5,-632.94 692.74,-645.68"/>
<polygon fill="#4b5563" stroke="#4b5563" stroke-width="1.1" points="692.08,-648.04 699.45,-647.2 693.17,-643.27 692.08,-648.04"/>
</g>
<!-- PORT_sync&#45;controller&#45;reading&#45;basis -->
<g id="node8" class="node">
<title>PORT_sync&#45;controller&#45;reading&#45;basis</title>
<path fill="#bbf7d0" stroke="#15803d" stroke-width="2.4" d="M444.95,-677.83C444.95,-677.83 357.8,-677.83 357.8,-677.83 351.8,-677.83 345.8,-671.83 345.8,-665.83 345.8,-665.83 345.8,-646 345.8,-646 345.8,-640 351.8,-634 357.8,-634 357.8,-634 444.95,-634 444.95,-634 450.95,-634 456.95,-640 456.95,-646 456.95,-646 456.95,-665.83 456.95,-665.83 456.95,-671.83 450.95,-677.83 444.95,-677.83"/>
<text xml:space="preserve" text-anchor="middle" x="401.38" y="-663.29" font-family="Helvetica,sans-Serif" font-size="10.00">DONE</text>
<text xml:space="preserve" text-anchor="middle" x="401.38" y="-652.04" font-family="Helvetica,sans-Serif" font-size="10.00">PORT_sync&#45;controller</text>
<text xml:space="preserve" text-anchor="middle" x="401.38" y="-640.79" font-family="Helvetica,sans-Serif" font-size="10.00">reading basis</text>
</g>
<!-- PORT_sync&#45;controller&#45;reading&#45;basis&#45;&gt;SPEC_materialize&#45;spy&#45;test&#45;clusters -->
<g id="edge10" class="edge">
<title>PORT_sync&#45;controller&#45;reading&#45;basis&#45;&gt;SPEC_materialize&#45;spy&#45;test&#45;clusters</title>
<path fill="none" stroke="#4b5563" stroke-width="1.1" d="M449.19,-678.99C457.25,-683.59 465.39,-688.64 472.7,-693.91 505.04,-717.26 537.78,-749.13 559.76,-772"/>
<polygon fill="#4b5563" stroke="#4b5563" stroke-width="1.1" points="557.92,-773.62 564.52,-776.99 561.46,-770.24 557.92,-773.62"/>
</g>
<!-- PORT_sync&#45;controller&#45;reading&#45;basis&#45;&gt;REL_quarantine&#45;graduate&#45;clean -->
<g id="edge19" class="edge">
<title>PORT_sync&#45;controller&#45;reading&#45;basis&#45;&gt;REL_quarantine&#45;graduate&#45;clean</title>
<path fill="none" stroke="#4b5563" stroke-width="1.1" d="M453.65,-632.86C460.51,-628.49 467.1,-623.51 472.7,-617.91 525.33,-565.33 560.04,-483.29 576.09,-438.92"/>
<polygon fill="#4b5563" stroke="#4b5563" stroke-width="1.1" points="578.38,-439.82 578.41,-432.4 573.76,-438.18 578.38,-439.82"/>
</g>
<!-- PORT_sync&#45;controller&#45;reading&#45;basis&#45;&gt;REL_full&#45;gate&#45;matrix&#45;green -->
<g id="edge32" class="edge">
<title>PORT_sync&#45;controller&#45;reading&#45;basis&#45;&gt;REL_full&#45;gate&#45;matrix&#45;green</title>
<path fill="none" stroke="#4b5563" stroke-width="1.1" d="M457.78,-655.91C523.43,-655.91 631.55,-655.91 692.49,-655.91"/>
<polygon fill="#4b5563" stroke="#4b5563" stroke-width="1.1" points="692.46,-658.37 699.46,-655.92 692.46,-653.47 692.46,-658.37"/>
</g>
<!-- SPEC_materialize&#45;spy&#45;test&#45;clusters&#45;&gt;REL_full&#45;gate&#45;matrix&#45;green -->
<g id="edge33" class="edge">
<title>SPEC_materialize&#45;spy&#45;test&#45;clusters&#45;&gt;REL_full&#45;gate&#45;matrix&#45;green</title>
<path fill="none" stroke="#4b5563" stroke-width="1.1" d="M615.4,-777.89C624.64,-769.82 634.94,-760.6 644.1,-751.91 667.13,-730.06 692.23,-704.27 710.66,-684.93"/>
<polygon fill="#4b5563" stroke="#4b5563" stroke-width="1.1" points="712.21,-686.86 715.26,-680.1 708.66,-683.48 712.21,-686.86"/>
</g>
<!-- SPEC_observer&#45;coordinate&#45;pinning -->
<g id="node10" class="node">
<title>SPEC_observer&#45;coordinate&#45;pinning</title>
<path fill="#bbf7d0" stroke="#15803d" stroke-width="2.4" d="M435.95,-119.83C435.95,-119.83 366.8,-119.83 366.8,-119.83 360.8,-119.83 354.8,-113.83 354.8,-107.83 354.8,-107.83 354.8,-88 354.8,-88 354.8,-82 360.8,-76 366.8,-76 366.8,-76 435.95,-76 435.95,-76 441.95,-76 447.95,-82 447.95,-88 447.95,-88 447.95,-107.83 447.95,-107.83 447.95,-113.83 441.95,-119.83 435.95,-119.83"/>
<text xml:space="preserve" text-anchor="middle" x="401.38" y="-105.29" font-family="Helvetica,sans-Serif" font-size="10.00">DONE</text>
<text xml:space="preserve" text-anchor="middle" x="401.38" y="-94.04" font-family="Helvetica,sans-Serif" font-size="10.00">SPEC_observer</text>
<text xml:space="preserve" text-anchor="middle" x="401.38" y="-82.79" font-family="Helvetica,sans-Serif" font-size="10.00">coordinate pinning</text>
</g>
<!-- SPEC_observer&#45;coordinate&#45;pinning&#45;&gt;REL_quarantine&#45;graduate&#45;clean -->
<g id="edge20" class="edge">
<title>SPEC_observer&#45;coordinate&#45;pinning&#45;&gt;REL_quarantine&#45;graduate&#45;clean</title>
<path fill="none" stroke="#4b5563" stroke-width="1.1" d="M449.03,-116.86C457.76,-122.03 466.17,-128.35 472.7,-135.91 522.09,-193.2 500.92,-226.38 530.7,-295.91 542.78,-324.13 558.5,-355.33 570.16,-377.62"/>
<polygon fill="#4b5563" stroke="#4b5563" stroke-width="1.1" points="567.9,-378.58 573.33,-383.64 572.23,-376.3 567.9,-378.58"/>
</g>
<!-- SPEC_observer&#45;coordinate&#45;pinning&#45;&gt;REL_full&#45;gate&#45;matrix&#45;green -->
<g id="edge34" class="edge">
<title>SPEC_observer&#45;coordinate&#45;pinning&#45;&gt;REL_full&#45;gate&#45;matrix&#45;green</title>
<path fill="none" stroke="#4b5563" stroke-width="1.1" d="M448.98,-118.6C457.42,-123.55 465.74,-129.34 472.7,-135.91 508.39,-169.62 495.09,-196.13 530.7,-229.91 572.37,-269.45 608.82,-246.59 644.1,-291.91 723.7,-394.19 736.26,-556.82 737.89,-624.63"/>
<polygon fill="#4b5563" stroke="#4b5563" stroke-width="1.1" points="735.44,-624.56 738.02,-631.51 740.34,-624.47 735.44,-624.56"/>
</g>
<!-- SPEC_checkpoint&#45;materialize&#45;test&#45;drift&#45;&gt;REL_full&#45;gate&#45;matrix&#45;green -->
<g id="edge35" class="edge">
<title>SPEC_checkpoint&#45;materialize&#45;test&#45;drift&#45;&gt;REL_full&#45;gate&#45;matrix&#45;green</title>
<path fill="none" stroke="#4b5563" stroke-width="1.1" d="M622.66,-977.88C630.58,-971.23 638.36,-963.45 644.1,-954.91 702.17,-868.62 725.83,-744.45 734.09,-687.11"/>
<polygon fill="#4b5563" stroke="#4b5563" stroke-width="1.1" points="736.48,-687.74 735.02,-680.47 731.63,-687.07 736.48,-687.74"/>
</g>
<!-- SPEC_uniform&#45;git&#45;cas&#45;upgrade&#45;contract&#45;drift -->
<g id="node12" class="node">
<title>SPEC_uniform&#45;git&#45;cas&#45;upgrade&#45;contract&#45;drift</title>
<path fill="#bbf7d0" stroke="#15803d" stroke-width="2.4" d="M631.35,-155.83C631.35,-155.83 543.45,-155.83 543.45,-155.83 537.45,-155.83 531.45,-149.83 531.45,-143.83 531.45,-143.83 531.45,-124 531.45,-124 531.45,-118 537.45,-112 543.45,-112 543.45,-112 631.35,-112 631.35,-112 637.35,-112 643.35,-118 643.35,-124 643.35,-124 643.35,-143.83 643.35,-143.83 643.35,-149.83 637.35,-155.83 631.35,-155.83"/>
<text xml:space="preserve" text-anchor="middle" x="587.4" y="-141.29" font-family="Helvetica,sans-Serif" font-size="10.00">DONE</text>
<text xml:space="preserve" text-anchor="middle" x="587.4" y="-130.04" font-family="Helvetica,sans-Serif" font-size="10.00">SPEC_uniform&#45;git&#45;cas</text>
<text xml:space="preserve" text-anchor="middle" x="587.4" y="-118.79" font-family="Helvetica,sans-Serif" font-size="10.00">upgrade contract drift</text>
</g>
<!-- SPEC_uniform&#45;git&#45;cas&#45;upgrade&#45;contract&#45;drift&#45;&gt;REL_full&#45;gate&#45;matrix&#45;green -->
<g id="edge36" class="edge">
<title>SPEC_uniform&#45;git&#45;cas&#45;upgrade&#45;contract&#45;drift&#45;&gt;REL_full&#45;gate&#45;matrix&#45;green</title>
<path fill="none" stroke="#4b5563" stroke-width="1.1" d="M623.9,-157.03C631.6,-163.57 638.96,-171.3 644.1,-179.91 732.63,-328.43 739.51,-544.82 738.76,-624.74"/>
<polygon fill="#4b5563" stroke="#4b5563" stroke-width="1.1" points="736.32,-624.23 738.67,-631.26 741.22,-624.3 736.32,-624.23"/>
</g>
<!-- HEX_sync&#45;secret&#45;plain&#45;string -->
<g id="node13" class="node">
<title>HEX_sync&#45;secret&#45;plain&#45;string</title>
<path fill="#bbf7d0" stroke="#15803d" stroke-width="2.4" d="M79.65,-263.83C79.65,-263.83 12,-263.83 12,-263.83 6,-263.83 0,-257.83 0,-251.83 0,-251.83 0,-232 0,-232 0,-226 6,-220 12,-220 12,-220 79.65,-220 79.65,-220 85.65,-220 91.65,-226 91.65,-232 91.65,-232 91.65,-251.83 91.65,-251.83 91.65,-257.83 85.65,-263.83 79.65,-263.83"/>
<text xml:space="preserve" text-anchor="middle" x="45.83" y="-249.29" font-family="Helvetica,sans-Serif" font-size="10.00">DONE</text>
<text xml:space="preserve" text-anchor="middle" x="45.83" y="-238.04" font-family="Helvetica,sans-Serif" font-size="10.00">HEX_sync&#45;secret</text>
<text xml:space="preserve" text-anchor="middle" x="45.83" y="-226.79" font-family="Helvetica,sans-Serif" font-size="10.00">plain string</text>
</g>
<!-- HEX_sync&#45;production&#45;auth&#45;defaults -->
<g id="node14" class="node">
<title>HEX_sync&#45;production&#45;auth&#45;defaults</title>
<path fill="#bbf7d0" stroke="#15803d" stroke-width="2.4" d="M253.68,-228.83C253.68,-228.83 168.03,-228.83 168.03,-228.83 162.03,-228.83 156.03,-222.83 156.03,-216.83 156.03,-216.83 156.03,-197 156.03,-197 156.03,-191 162.03,-185 168.03,-185 168.03,-185 253.68,-185 253.68,-185 259.68,-185 265.68,-191 265.68,-197 265.68,-197 265.68,-216.83 265.68,-216.83 265.68,-222.83 259.68,-228.83 253.68,-228.83"/>
<text xml:space="preserve" text-anchor="middle" x="210.85" y="-214.29" font-family="Helvetica,sans-Serif" font-size="10.00">DONE</text>
<text xml:space="preserve" text-anchor="middle" x="210.85" y="-203.04" font-family="Helvetica,sans-Serif" font-size="10.00">HEX_sync&#45;production</text>
<text xml:space="preserve" text-anchor="middle" x="210.85" y="-191.79" font-family="Helvetica,sans-Serif" font-size="10.00">auth defaults</text>
</g>
<!-- HEX_sync&#45;secret&#45;plain&#45;string&#45;&gt;HEX_sync&#45;production&#45;auth&#45;defaults -->
<g id="edge12" class="edge">
<title>HEX_sync&#45;secret&#45;plain&#45;string&#45;&gt;HEX_sync&#45;production&#45;auth&#45;defaults</title>
<path fill="none" stroke="#4b5563" stroke-width="1.1" d="M92.67,-232.07C109.49,-228.46 128.84,-224.31 146.91,-220.43"/>
<polygon fill="#4b5563" stroke="#4b5563" stroke-width="1.1" points="147.15,-222.88 153.47,-219.02 146.12,-218.09 147.15,-222.88"/>
</g>
<!-- HEX_sync&#45;secret&#45;plain&#45;string&#45;&gt;REL_quarantine&#45;graduate&#45;clean -->
<g id="edge21" class="edge">
<title>HEX_sync&#45;secret&#45;plain&#45;string&#45;&gt;REL_quarantine&#45;graduate&#45;clean</title>
<path fill="none" stroke="#4b5563" stroke-width="1.1" d="M92.83,-256.07C193.32,-286.98 431.78,-360.35 536.09,-392.44"/>
<polygon fill="#4b5563" stroke="#4b5563" stroke-width="1.1" points="535.26,-394.75 542.67,-394.46 536.7,-390.06 535.26,-394.75"/>
</g>
<!-- HEX_sync&#45;no&#45;rate&#45;limiting -->
<g id="node15" class="node">
<title>HEX_sync&#45;no&#45;rate&#45;limiting</title>
<path fill="#bbf7d0" stroke="#15803d" stroke-width="2.4" d="M428.45,-195.83C428.45,-195.83 374.3,-195.83 374.3,-195.83 368.3,-195.83 362.3,-189.83 362.3,-183.83 362.3,-183.83 362.3,-164 362.3,-164 362.3,-158 368.3,-152 374.3,-152 374.3,-152 428.45,-152 428.45,-152 434.45,-152 440.45,-158 440.45,-164 440.45,-164 440.45,-183.83 440.45,-183.83 440.45,-189.83 434.45,-195.83 428.45,-195.83"/>
<text xml:space="preserve" text-anchor="middle" x="401.38" y="-181.29" font-family="Helvetica,sans-Serif" font-size="10.00">DONE</text>
<text xml:space="preserve" text-anchor="middle" x="401.38" y="-170.04" font-family="Helvetica,sans-Serif" font-size="10.00">HEX_sync</text>
<text xml:space="preserve" text-anchor="middle" x="401.38" y="-158.79" font-family="Helvetica,sans-Serif" font-size="10.00">no rate limiting</text>
</g>
<!-- HEX_sync&#45;production&#45;auth&#45;defaults&#45;&gt;HEX_sync&#45;no&#45;rate&#45;limiting -->
<g id="edge13" class="edge">
<title>HEX_sync&#45;production&#45;auth&#45;defaults&#45;&gt;HEX_sync&#45;no&#45;rate&#45;limiting</title>
<path fill="none" stroke="#4b5563" stroke-width="1.1" d="M266.63,-197.33C294,-192.53 326.79,-186.8 353.05,-182.2"/>
<polygon fill="#4b5563" stroke="#4b5563" stroke-width="1.1" points="353.22,-184.66 359.7,-181.04 352.38,-179.83 353.22,-184.66"/>
</g>
<!-- HEX_sync&#45;500&#45;sanitization -->
<g id="node16" class="node">
<title>HEX_sync&#45;500&#45;sanitization</title>
<path fill="#bbf7d0" stroke="#15803d" stroke-width="2.4" d="M430.7,-43.83C430.7,-43.83 372.05,-43.83 372.05,-43.83 366.05,-43.83 360.05,-37.83 360.05,-31.83 360.05,-31.83 360.05,-12 360.05,-12 360.05,-6 366.05,0 372.05,0 372.05,0 430.7,0 430.7,0 436.7,0 442.7,-6 442.7,-12 442.7,-12 442.7,-31.83 442.7,-31.83 442.7,-37.83 436.7,-43.83 430.7,-43.83"/>
<text xml:space="preserve" text-anchor="middle" x="401.38" y="-29.29" font-family="Helvetica,sans-Serif" font-size="10.00">DONE</text>
<text xml:space="preserve" text-anchor="middle" x="401.38" y="-18.04" font-family="Helvetica,sans-Serif" font-size="10.00">HEX_sync</text>
<text xml:space="preserve" text-anchor="middle" x="401.38" y="-6.79" font-family="Helvetica,sans-Serif" font-size="10.00">500 sanitization</text>
</g>
<!-- HEX_sync&#45;production&#45;auth&#45;defaults&#45;&gt;HEX_sync&#45;500&#45;sanitization -->
<g id="edge14" class="edge">
<title>HEX_sync&#45;production&#45;auth&#45;defaults&#45;&gt;HEX_sync&#45;500&#45;sanitization</title>
<path fill="none" stroke="#4b5563" stroke-width="1.1" d="M226.12,-183.89C246.28,-152.77 285.64,-96.91 330.05,-59.91 336.74,-54.34 344.39,-49.21 352.1,-44.65"/>
<polygon fill="#4b5563" stroke="#4b5563" stroke-width="1.1" points="352.87,-47.03 357.74,-41.45 350.45,-42.77 352.87,-47.03"/>
</g>
<!-- HEX_sync&#45;production&#45;auth&#45;defaults&#45;&gt;REL_quarantine&#45;graduate&#45;clean -->
<g id="edge22" class="edge">
<title>HEX_sync&#45;production&#45;auth&#45;defaults&#45;&gt;REL_quarantine&#45;graduate&#45;clean</title>
<path fill="none" stroke="#4b5563" stroke-width="1.1" d="M266.83,-213.5C322.8,-222.38 410.01,-242.42 472.7,-285.91 507.61,-310.13 501.24,-331.3 530.7,-361.91 536.5,-367.95 543.07,-373.96 549.6,-379.56"/>
<polygon fill="#4b5563" stroke="#4b5563" stroke-width="1.1" points="547.88,-381.31 554.82,-383.93 551.03,-377.55 547.88,-381.31"/>
</g>
<!-- HEX_sync&#45;no&#45;rate&#45;limiting&#45;&gt;REL_quarantine&#45;graduate&#45;clean -->
<g id="edge23" class="edge">
<title>HEX_sync&#45;no&#45;rate&#45;limiting&#45;&gt;REL_quarantine&#45;graduate&#45;clean</title>
<path fill="none" stroke="#4b5563" stroke-width="1.1" d="M441.47,-193.61C452.68,-200.71 464.16,-209.56 472.7,-219.91 516.08,-272.51 490.31,-307 530.7,-361.91 535.28,-368.15 540.89,-374.05 546.77,-379.41"/>
<polygon fill="#4b5563" stroke="#4b5563" stroke-width="1.1" points="545.06,-381.18 551.95,-383.92 548.28,-377.48 545.06,-381.18"/>
</g>
<!-- HEX_sync&#45;no&#45;rate&#45;limiting&#45;&gt;REL_full&#45;gate&#45;matrix&#45;green -->
<g id="edge37" class="edge">
<title>HEX_sync&#45;no&#45;rate&#45;limiting&#45;&gt;REL_full&#45;gate&#45;matrix&#45;green</title>
<path fill="none" stroke="#4b5563" stroke-width="1.1" d="M441.39,-195.42C452.11,-202.22 463.34,-210.25 472.7,-218.91 504.13,-248.03 499.4,-266.66 530.7,-295.91 574.66,-337.01 607.45,-322.18 644.1,-369.91 704.67,-448.8 727.04,-568.46 734.53,-624.67"/>
<polygon fill="#4b5563" stroke="#4b5563" stroke-width="1.1" points="732.08,-624.85 735.39,-631.48 736.94,-624.23 732.08,-624.85"/>
</g>
<!-- HEX_sync&#45;500&#45;sanitization&#45;&gt;REL_quarantine&#45;graduate&#45;clean -->
<g id="edge24" class="edge">
<title>HEX_sync&#45;500&#45;sanitization&#45;&gt;REL_quarantine&#45;graduate&#45;clean</title>
<path fill="none" stroke="#4b5563" stroke-width="1.1" d="M443.74,-37.61C454.36,-43.29 464.96,-50.65 472.7,-59.91 478,-66.27 549.98,-292.78 576.6,-376.89"/>
<polygon fill="#4b5563" stroke="#4b5563" stroke-width="1.1" points="574.23,-377.51 578.67,-383.45 578.9,-376.03 574.23,-377.51"/>
</g>
<!-- HEX_sync&#45;500&#45;sanitization&#45;&gt;REL_full&#45;gate&#45;matrix&#45;green -->
<g id="edge38" class="edge">
<title>HEX_sync&#45;500&#45;sanitization&#45;&gt;REL_full&#45;gate&#45;matrix&#45;green</title>
<path fill="none" stroke="#4b5563" stroke-width="1.1" d="M443.89,-39.07C454.15,-44.65 464.53,-51.6 472.7,-59.91 511.99,-99.9 490.41,-132.94 530.7,-171.91 570.83,-210.72 609.41,-182.18 644.1,-225.91 693.8,-288.56 724.95,-536.22 734.66,-624.48"/>
<polygon fill="#4b5563" stroke="#4b5563" stroke-width="1.1" points="732.21,-624.64 735.4,-631.34 737.08,-624.11 732.21,-624.64"/>
</g>
<!-- REL_quarantine&#45;graduate&#45;clean&#45;&gt;REL_full&#45;gate&#45;matrix&#45;green -->
<g id="edge39" class="edge">
<title>REL_quarantine&#45;graduate&#45;clean&#45;&gt;REL_full&#45;gate&#45;matrix&#45;green</title>
<path fill="none" stroke="#4b5563" stroke-width="1.1" d="M606.54,-430.97C617.86,-445.75 632.43,-465.55 644.1,-483.91 674.54,-531.83 705.16,-590.36 722.8,-625.31"/>
<polygon fill="#4b5563" stroke="#4b5563" stroke-width="1.1" points="720.49,-626.18 725.82,-631.34 724.87,-623.98 720.49,-626.18"/>
</g>
<!-- REL_release&#45;cut&#45;version&#45;changelog -->
<g id="node19" class="node">
<title>REL_release&#45;cut&#45;version&#45;changelog</title>
<path fill="#bbf7d0" stroke="#15803d" stroke-width="2.4" d="M923.9,-677.83C923.9,-677.83 845.75,-677.83 845.75,-677.83 839.75,-677.83 833.75,-671.83 833.75,-665.83 833.75,-665.83 833.75,-646 833.75,-646 833.75,-640 839.75,-634 845.75,-634 845.75,-634 923.9,-634 923.9,-634 929.9,-634 935.9,-640 935.9,-646 935.9,-646 935.9,-665.83 935.9,-665.83 935.9,-671.83 929.9,-677.83 923.9,-677.83"/>
<text xml:space="preserve" text-anchor="middle" x="884.83" y="-663.29" font-family="Helvetica,sans-Serif" font-size="10.00">DONE</text>
<text xml:space="preserve" text-anchor="middle" x="884.83" y="-652.04" font-family="Helvetica,sans-Serif" font-size="10.00">REL_release cut</text>
<text xml:space="preserve" text-anchor="middle" x="884.83" y="-640.79" font-family="Helvetica,sans-Serif" font-size="10.00">version + changelog</text>
</g>
<!-- REL_full&#45;gate&#45;matrix&#45;green&#45;&gt;REL_release&#45;cut&#45;version&#45;changelog -->
<g id="edge40" class="edge">
<title>REL_full&#45;gate&#45;matrix&#45;green&#45;&gt;REL_release&#45;cut&#45;version&#45;changelog</title>
<path fill="none" stroke="#4b5563" stroke-width="1.1" d="M776.61,-655.91C791.15,-655.91 808.23,-655.91 824.44,-655.91"/>
<polygon fill="#4b5563" stroke="#4b5563" stroke-width="1.1" points="824.16,-658.37 831.16,-655.92 824.16,-653.47 824.16,-658.37"/>
</g>
<!-- REL_release&#45;preflight&#45;and&#45;rc -->
<g id="node20" class="node">
<title>REL_release&#45;preflight&#45;and&#45;rc</title>
<path fill="#bbf7d0" stroke="#15803d" stroke-width="2.4" d="M1057.8,-677.83C1057.8,-677.83 1005.9,-677.83 1005.9,-677.83 999.9,-677.83 993.9,-671.83 993.9,-665.83 993.9,-665.83 993.9,-646 993.9,-646 993.9,-640 999.9,-634 1005.9,-634 1005.9,-634 1057.8,-634 1057.8,-634 1063.8,-634 1069.8,-640 1069.8,-646 1069.8,-646 1069.8,-665.83 1069.8,-665.83 1069.8,-671.83 1063.8,-677.83 1057.8,-677.83"/>
<text xml:space="preserve" text-anchor="middle" x="1031.85" y="-663.29" font-family="Helvetica,sans-Serif" font-size="10.00">DONE</text>
<text xml:space="preserve" text-anchor="middle" x="1031.85" y="-652.04" font-family="Helvetica,sans-Serif" font-size="10.00">REL_release</text>
<text xml:space="preserve" text-anchor="middle" x="1031.85" y="-640.79" font-family="Helvetica,sans-Serif" font-size="10.00">preflight + RC</text>
</g>
<!-- REL_release&#45;cut&#45;version&#45;changelog&#45;&gt;REL_release&#45;preflight&#45;and&#45;rc -->
<g id="edge41" class="edge">
<title>REL_release&#45;cut&#45;version&#45;changelog&#45;&gt;REL_release&#45;preflight&#45;and&#45;rc</title>
<path fill="none" stroke="#4b5563" stroke-width="1.1" d="M936.96,-655.91C952.36,-655.91 969.18,-655.91 984.28,-655.91"/>
<polygon fill="#4b5563" stroke="#4b5563" stroke-width="1.1" points="984.28,-658.37 991.28,-655.92 984.28,-653.47 984.28,-658.37"/>
</g>
<!-- REL_push&#45;pr&#45;review&#45;merge -->
<g id="node21" class="node">
<title>REL_push&#45;pr&#45;review&#45;merge</title>
<path fill="#fee2e2" stroke="#4b5563" stroke-width="1.2" d="M1199.2,-677.83C1199.2,-677.83 1139.8,-677.83 1139.8,-677.83 1133.8,-677.83 1127.8,-671.83 1127.8,-665.83 1127.8,-665.83 1127.8,-646 1127.8,-646 1127.8,-640 1133.8,-634 1139.8,-634 1139.8,-634 1199.2,-634 1199.2,-634 1205.2,-634 1211.2,-640 1211.2,-646 1211.2,-646 1211.2,-665.83 1211.2,-665.83 1211.2,-671.83 1205.2,-677.83 1199.2,-677.83"/>
<text xml:space="preserve" text-anchor="middle" x="1169.5" y="-663.29" font-family="Helvetica,sans-Serif" font-size="10.00">OPEN</text>
<text xml:space="preserve" text-anchor="middle" x="1169.5" y="-652.04" font-family="Helvetica,sans-Serif" font-size="10.00">REL_push / PR</text>
<text xml:space="preserve" text-anchor="middle" x="1169.5" y="-640.79" font-family="Helvetica,sans-Serif" font-size="10.00">review / merge</text>
</g>
<!-- REL_release&#45;preflight&#45;and&#45;rc&#45;&gt;REL_push&#45;pr&#45;review&#45;merge -->
<g id="edge42" class="edge">
<title>REL_release&#45;preflight&#45;and&#45;rc&#45;&gt;REL_push&#45;pr&#45;review&#45;merge</title>
<path fill="none" stroke="#4b5563" stroke-width="1.1" d="M1071,-655.91C1085.81,-655.91 1102.97,-655.91 1118.73,-655.91"/>
<polygon fill="#4b5563" stroke="#4b5563" stroke-width="1.1" points="1118.65,-658.37 1125.65,-655.92 1118.65,-653.47 1118.65,-658.37"/>
</g>
</g>
</svg>
