<?xml version="1.0" encoding="UTF-8" standalone="no"?>
<!DOCTYPE svg PUBLIC "-//W3C//DTD SVG 1.1//EN"
 "http://www.w3.org/Graphics/SVG/1.1/DTD/svg11.dtd">
<!-- Generated by graphviz version 14.1.2 (20260124.0452)
 -->
<!-- Title: V17ReleaseBlockers Pages: 1 -->
<svg width="1248pt" height="1270pt"
 viewBox="14.00 14.00 1234.00 1255.00" xmlns="http://www.w3.org/2000/svg" xmlns:xlink="http://www.w3.org/1999/xlink">
<g id="graph0" class="graph" transform="scale(1 1) rotate(0) translate(18.4 1251.48)">
<title>V17ReleaseBlockers</title>
<polygon fill="white" stroke="none" points="-4,4 -4,-1237.08 1215.2,-1237.08 1215.2,4 -4,4"/>
<text xml:space="preserve" text-anchor="middle" x="605.6" y="-1211.98" font-family="Helvetica,sans-Serif" font-size="18.00">v17.0.0 Release Blocker DAG</text>
<!-- SPEC_consumer&#45;typecheck&#45;materialize&#45;residue -->
<g id="node1" class="node">
<title>SPEC_consumer&#45;typecheck&#45;materialize&#45;residue</title>
<path fill="#bbf7d0" stroke="#15803d" stroke-width="2.4" d="M458.45,-1153.91C458.45,-1153.91 344.3,-1153.91 344.3,-1153.91 338.3,-1153.91 332.3,-1147.91 332.3,-1141.91 332.3,-1141.91 332.3,-1122.09 332.3,-1122.09 332.3,-1116.09 338.3,-1110.09 344.3,-1110.09 344.3,-1110.09 458.45,-1110.09 458.45,-1110.09 464.45,-1110.09 470.45,-1116.09 470.45,-1122.09 470.45,-1122.09 470.45,-1141.91 470.45,-1141.91 470.45,-1147.91 464.45,-1153.91 458.45,-1153.91"/>
<text xml:space="preserve" text-anchor="middle" x="401.38" y="-1139.38" font-family="Helvetica,sans-Serif" font-size="10.00">DONE</text>
<text xml:space="preserve" text-anchor="middle" x="401.38" y="-1128.12" font-family="Helvetica,sans-Serif" font-size="10.00">SPEC_consumer&#45;typecheck</text>
<text xml:space="preserve" text-anchor="middle" x="401.38" y="-1116.88" font-family="Helvetica,sans-Serif" font-size="10.00">materialize residue</text>
</g>
<!-- SPEC_materialize&#45;spy&#45;test&#45;clusters -->
<g id="node9" class="node">
<title>SPEC_materialize&#45;spy&#45;test&#45;clusters</title>
<path fill="#bbf7d0" stroke="#15803d" stroke-width="2.4" d="M632.1,-806.91C632.1,-806.91 542.7,-806.91 542.7,-806.91 536.7,-806.91 530.7,-800.91 530.7,-794.91 530.7,-794.91 530.7,-775.09 530.7,-775.09 530.7,-769.09 536.7,-763.09 542.7,-763.09 542.7,-763.09 632.1,-763.09 632.1,-763.09 638.1,-763.09 644.1,-769.09 644.1,-775.09 644.1,-775.09 644.1,-794.91 644.1,-794.91 644.1,-800.91 638.1,-806.91 632.1,-806.91"/>
<text xml:space="preserve" text-anchor="middle" x="587.4" y="-792.38" font-family="Helvetica,sans-Serif" font-size="10.00">DONE</text>
<text xml:space="preserve" text-anchor="middle" x="587.4" y="-781.12" font-family="Helvetica,sans-Serif" font-size="10.00">SPEC_materialize&#45;spy</text>
<text xml:space="preserve" text-anchor="middle" x="587.4" y="-769.88" font-family="Helvetica,sans-Serif" font-size="10.00">test clusters</text>
</g>
<!-- SPEC_consumer&#45;typecheck&#45;materialize&#45;residue&#45;&gt;SPEC_materialize&#45;spy&#45;test&#45;clusters -->
<g id="edge4" class="edge">
<title>SPEC_consumer&#45;typecheck&#45;materialize&#45;residue&#45;&gt;SPEC_materialize&#45;spy&#45;test&#45;clusters</title>
<path fill="none" stroke="#4b5563" stroke-width="1.1" d="M455.47,-1108.94C461.83,-1104.63 467.79,-1099.66 472.7,-1094 482.29,-1082.93 549.45,-891.39 575.81,-815.55"/>
<polygon fill="#4b5563" stroke="#4b5563" stroke-width="1.1" points="578,-816.73 577.98,-809.31 573.37,-815.12 578,-816.73"/>
</g>
<!-- REL_full&#45;gate&#45;matrix&#45;green -->
<g id="node18" class="node">
<title>REL_full&#45;gate&#45;matrix&#45;green</title>
<path fill="#dcfce7" stroke="#4b5563" stroke-width="1.2" d="M763.75,-658C763.75,-658 714.1,-658 714.1,-658 708.1,-658 702.1,-652 702.1,-646 702.1,-646 702.1,-634 702.1,-634 702.1,-628 708.1,-622 714.1,-622 714.1,-622 763.75,-622 763.75,-622 769.75,-622 775.75,-628 775.75,-634 775.75,-634 775.75,-646 775.75,-646 775.75,-652 769.75,-658 763.75,-658"/>
<text xml:space="preserve" text-anchor="middle" x="738.93" y="-641.75" font-family="Helvetica,sans-Serif" font-size="10.00">REL_full gate</text>
<text xml:space="preserve" text-anchor="middle" x="738.93" y="-630.5" font-family="Helvetica,sans-Serif" font-size="10.00">matrix green</text>
</g>
<!-- SPEC_consumer&#45;typecheck&#45;materialize&#45;residue&#45;&gt;REL_full&#45;gate&#45;matrix&#45;green -->
<g id="edge25" class="edge">
<title>SPEC_consumer&#45;typecheck&#45;materialize&#45;residue&#45;&gt;REL_full&#45;gate&#45;matrix&#45;green</title>
<path fill="none" stroke="#4b5563" stroke-width="1.1" d="M471.39,-1132.53C525.78,-1129.1 599.62,-1115.28 644.1,-1069 700.43,-1010.4 728.01,-751.79 735.66,-667.01"/>
<polygon fill="#4b5563" stroke="#4b5563" stroke-width="1.1" points="738.09,-667.31 736.27,-660.12 733.21,-666.87 738.09,-667.31"/>
</g>
<!-- SPEC_docs&#45;materialize&#45;frontdoor&#45;drift -->
<g id="node2" class="node">
<title>SPEC_docs&#45;materialize&#45;frontdoor&#45;drift</title>
<path fill="#bbf7d0" stroke="#15803d" stroke-width="2.4" d="M260.05,-1077.91C260.05,-1077.91 161.65,-1077.91 161.65,-1077.91 155.65,-1077.91 149.65,-1071.91 149.65,-1065.91 149.65,-1065.91 149.65,-1046.09 149.65,-1046.09 149.65,-1040.09 155.65,-1034.09 161.65,-1034.09 161.65,-1034.09 260.05,-1034.09 260.05,-1034.09 266.05,-1034.09 272.05,-1040.09 272.05,-1046.09 272.05,-1046.09 272.05,-1065.91 272.05,-1065.91 272.05,-1071.91 266.05,-1077.91 260.05,-1077.91"/>
<text xml:space="preserve" text-anchor="middle" x="210.85" y="-1063.38" font-family="Helvetica,sans-Serif" font-size="10.00">DONE</text>
<text xml:space="preserve" text-anchor="middle" x="210.85" y="-1052.12" font-family="Helvetica,sans-Serif" font-size="10.00">SPEC_docs</text>
<text xml:space="preserve" text-anchor="middle" x="210.85" y="-1040.88" font-family="Helvetica,sans-Serif" font-size="10.00">materialize frontdoor drift</text>
</g>
<!-- SPEC_runtime&#45;error&#45;reading&#45;basis&#45;guidance -->
<g id="node3" class="node">
<title>SPEC_runtime&#45;error&#45;reading&#45;basis&#45;guidance</title>
<path fill="#bbf7d0" stroke="#15803d" stroke-width="2.4" d="M446.45,-1077.91C446.45,-1077.91 356.3,-1077.91 356.3,-1077.91 350.3,-1077.91 344.3,-1071.91 344.3,-1065.91 344.3,-1065.91 344.3,-1046.09 344.3,-1046.09 344.3,-1040.09 350.3,-1034.09 356.3,-1034.09 356.3,-1034.09 446.45,-1034.09 446.45,-1034.09 452.45,-1034.09 458.45,-1040.09 458.45,-1046.09 458.45,-1046.09 458.45,-1065.91 458.45,-1065.91 458.45,-1071.91 452.45,-1077.91 446.45,-1077.91"/>
<text xml:space="preserve" text-anchor="middle" x="401.38" y="-1063.38" font-family="Helvetica,sans-Serif" font-size="10.00">DONE</text>
<text xml:space="preserve" text-anchor="middle" x="401.38" y="-1052.12" font-family="Helvetica,sans-Serif" font-size="10.00">SPEC_runtime&#45;error</text>
<text xml:space="preserve" text-anchor="middle" x="401.38" y="-1040.88" font-family="Helvetica,sans-Serif" font-size="10.00">reading&#45;basis guidance</text>
</g>
<!-- SPEC_docs&#45;materialize&#45;frontdoor&#45;drift&#45;&gt;SPEC_runtime&#45;error&#45;reading&#45;basis&#45;guidance -->
<g id="edge1" class="edge">
<title>SPEC_docs&#45;materialize&#45;frontdoor&#45;drift&#45;&gt;SPEC_runtime&#45;error&#45;reading&#45;basis&#45;guidance</title>
<path fill="none" stroke="#4b5563" stroke-width="1.1" d="M273.06,-1056C292.81,-1056 314.79,-1056 334.84,-1056"/>
<polygon fill="#4b5563" stroke="#4b5563" stroke-width="1.1" points="334.64,-1058.45 341.64,-1056 334.64,-1053.55 334.64,-1058.45"/>
</g>
<!-- SPEC_docs&#45;materialize&#45;frontdoor&#45;drift&#45;&gt;SPEC_materialize&#45;spy&#45;test&#45;clusters -->
<g id="edge5" class="edge">
<title>SPEC_docs&#45;materialize&#45;frontdoor&#45;drift&#45;&gt;SPEC_materialize&#45;spy&#45;test&#45;clusters</title>
<path fill="none" stroke="#4b5563" stroke-width="1.1" d="M243.78,-1032.89C312.34,-983.3 473.37,-866.78 547.64,-813.05"/>
<polygon fill="#4b5563" stroke="#4b5563" stroke-width="1.1" points="548.96,-815.11 553.2,-809.02 546.09,-811.14 548.96,-815.11"/>
</g>
<!-- SPEC_docs&#45;materialize&#45;frontdoor&#45;drift&#45;&gt;REL_full&#45;gate&#45;matrix&#45;green -->
<g id="edge26" class="edge">
<title>SPEC_docs&#45;materialize&#45;frontdoor&#45;drift&#45;&gt;REL_full&#45;gate&#45;matrix&#45;green</title>
<path fill="none" stroke="#4b5563" stroke-width="1.1" d="M226.99,-1078.84C246.85,-1106.49 284.58,-1151.64 330.05,-1170 460.98,-1222.85 548.37,-1225.79 644.1,-1122 706.47,-1054.38 730.36,-758.22 736.33,-666.9"/>
<polygon fill="#4b5563" stroke="#4b5563" stroke-width="1.1" points="738.76,-667.28 736.76,-660.14 733.87,-666.97 738.76,-667.28"/>
</g>
<!-- SPEC_runtime&#45;error&#45;reading&#45;basis&#45;guidance&#45;&gt;SPEC_materialize&#45;spy&#45;test&#45;clusters -->
<g id="edge6" class="edge">
<title>SPEC_runtime&#45;error&#45;reading&#45;basis&#45;guidance&#45;&gt;SPEC_materialize&#45;spy&#45;test&#45;clusters</title>
<path fill="none" stroke="#4b5563" stroke-width="1.1" d="M418.06,-1032.89C451.34,-983.9 528.96,-869.59 566.01,-815.02"/>
<polygon fill="#4b5563" stroke="#4b5563" stroke-width="1.1" points="567.91,-816.59 569.81,-809.42 563.86,-813.84 567.91,-816.59"/>
</g>
<!-- SPEC_runtime&#45;error&#45;reading&#45;basis&#45;guidance&#45;&gt;REL_full&#45;gate&#45;matrix&#45;green -->
<g id="edge27" class="edge">
<title>SPEC_runtime&#45;error&#45;reading&#45;basis&#45;guidance&#45;&gt;REL_full&#45;gate&#45;matrix&#45;green</title>
<path fill="none" stroke="#4b5563" stroke-width="1.1" d="M459.4,-1064.86C513.69,-1069.86 594.29,-1067.85 644.1,-1023 697.74,-974.7 726.67,-746.1 735.21,-667"/>
<polygon fill="#4b5563" stroke="#4b5563" stroke-width="1.1" points="737.63,-667.42 735.93,-660.2 732.75,-666.9 737.63,-667.42"/>
</g>
<!-- BND_checkpoint&#45;schema&#45;contract&#45;drift -->
<g id="node4" class="node">
<title>BND_checkpoint&#45;schema&#45;contract&#45;drift</title>
<path fill="#bbf7d0" stroke="#15803d" stroke-width="2.4" d="M252.18,-838.91C252.18,-838.91 169.53,-838.91 169.53,-838.91 163.53,-838.91 157.53,-832.91 157.53,-826.91 157.53,-826.91 157.53,-807.09 157.53,-807.09 157.53,-801.09 163.53,-795.09 169.53,-795.09 169.53,-795.09 252.18,-795.09 252.18,-795.09 258.18,-795.09 264.18,-801.09 264.18,-807.09 264.18,-807.09 264.18,-826.91 264.18,-826.91 264.18,-832.91 258.18,-838.91 252.18,-838.91"/>
<text xml:space="preserve" text-anchor="middle" x="210.85" y="-824.38" font-family="Helvetica,sans-Serif" font-size="10.00">DONE</text>
<text xml:space="preserve" text-anchor="middle" x="210.85" y="-813.12" font-family="Helvetica,sans-Serif" font-size="10.00">BND_checkpoint</text>
<text xml:space="preserve" text-anchor="middle" x="210.85" y="-801.88" font-family="Helvetica,sans-Serif" font-size="10.00">schema contract drift</text>
</g>
<!-- PORT_checkpoint&#45;controller&#45;reading&#45;basis -->
<g id="node6" class="node">
<title>PORT_checkpoint&#45;controller&#45;reading&#45;basis</title>
<path fill="#bbf7d0" stroke="#15803d" stroke-width="2.4" d="M458.08,-737.91C458.08,-737.91 344.68,-737.91 344.68,-737.91 338.68,-737.91 332.68,-731.91 332.68,-725.91 332.68,-725.91 332.68,-706.09 332.68,-706.09 332.68,-700.09 338.68,-694.09 344.68,-694.09 344.68,-694.09 458.08,-694.09 458.08,-694.09 464.08,-694.09 470.08,-700.09 470.08,-706.09 470.08,-706.09 470.08,-725.91 470.08,-725.91 470.08,-731.91 464.08,-737.91 458.08,-737.91"/>
<text xml:space="preserve" text-anchor="middle" x="401.38" y="-723.38" font-family="Helvetica,sans-Serif" font-size="10.00">DONE</text>
<text xml:space="preserve" text-anchor="middle" x="401.38" y="-712.12" font-family="Helvetica,sans-Serif" font-size="10.00">PORT_checkpoint&#45;controller</text>
<text xml:space="preserve" text-anchor="middle" x="401.38" y="-700.88" font-family="Helvetica,sans-Serif" font-size="10.00">reading basis</text>
</g>
<!-- BND_checkpoint&#45;schema&#45;contract&#45;drift&#45;&gt;PORT_checkpoint&#45;controller&#45;reading&#45;basis -->
<g id="edge2" class="edge">
<title>BND_checkpoint&#45;schema&#45;contract&#45;drift&#45;&gt;PORT_checkpoint&#45;controller&#45;reading&#45;basis</title>
<path fill="none" stroke="#4b5563" stroke-width="1.1" d="M254.63,-794.08C282.97,-778.9 320.27,-758.91 350.04,-742.96"/>
<polygon fill="#4b5563" stroke="#4b5563" stroke-width="1.1" points="350.96,-745.25 355.97,-739.79 348.64,-740.93 350.96,-745.25"/>
</g>
<!-- SPEC_checkpoint&#45;materialize&#45;test&#45;drift -->
<g id="node11" class="node">
<title>SPEC_checkpoint&#45;materialize&#45;test&#45;drift</title>
<path fill="#bbf7d0" stroke="#15803d" stroke-width="2.4" d="M625.73,-1006.91C625.73,-1006.91 549.08,-1006.91 549.08,-1006.91 543.08,-1006.91 537.08,-1000.91 537.08,-994.91 537.08,-994.91 537.08,-975.09 537.08,-975.09 537.08,-969.09 543.08,-963.09 549.08,-963.09 549.08,-963.09 625.73,-963.09 625.73,-963.09 631.73,-963.09 637.73,-969.09 637.73,-975.09 637.73,-975.09 637.73,-994.91 637.73,-994.91 637.73,-1000.91 631.73,-1006.91 625.73,-1006.91"/>
<text xml:space="preserve" text-anchor="middle" x="587.4" y="-992.38" font-family="Helvetica,sans-Serif" font-size="10.00">DONE</text>
<text xml:space="preserve" text-anchor="middle" x="587.4" y="-981.12" font-family="Helvetica,sans-Serif" font-size="10.00">SPEC_checkpoint</text>
<text xml:space="preserve" text-anchor="middle" x="587.4" y="-969.88" font-family="Helvetica,sans-Serif" font-size="10.00">materialize test drift</text>
</g>
<!-- BND_checkpoint&#45;schema&#45;contract&#45;drift&#45;&gt;SPEC_checkpoint&#45;materialize&#45;test&#45;drift -->
<g id="edge11" class="edge">
<title>BND_checkpoint&#45;schema&#45;contract&#45;drift&#45;&gt;SPEC_checkpoint&#45;materialize&#45;test&#45;drift</title>
<path fill="none" stroke="#4b5563" stroke-width="1.1" d="M226.06,-839.9C245.6,-869.24 283.67,-919.27 330.05,-944 391.96,-977.02 473.37,-985.04 527.67,-986.26"/>
<polygon fill="#4b5563" stroke="#4b5563" stroke-width="1.1" points="527.44,-988.7 534.48,-986.37 527.52,-983.8 527.44,-988.7"/>
</g>
<!-- REL_quarantine&#45;graduate&#45;clean -->
<g id="node17" class="node">
<title>REL_quarantine&#45;graduate&#45;clean</title>
<path fill="#e5e7eb" stroke="#4b5563" stroke-width="1.2" d="M617.48,-412C617.48,-412 557.33,-412 557.33,-412 551.33,-412 545.33,-406 545.33,-400 545.33,-400 545.33,-388 545.33,-388 545.33,-382 551.33,-376 557.33,-376 557.33,-376 617.48,-376 617.48,-376 623.48,-376 629.48,-382 629.48,-388 629.48,-388 629.48,-400 629.48,-400 629.48,-406 623.48,-412 617.48,-412"/>
<text xml:space="preserve" text-anchor="middle" x="587.4" y="-395.75" font-family="Helvetica,sans-Serif" font-size="10.00">REL_quarantine</text>
<text xml:space="preserve" text-anchor="middle" x="587.4" y="-384.5" font-family="Helvetica,sans-Serif" font-size="10.00">graduate clean</text>
</g>
<!-- BND_checkpoint&#45;schema&#45;contract&#45;drift&#45;&gt;REL_quarantine&#45;graduate&#45;clean -->
<g id="edge15" class="edge">
<title>BND_checkpoint&#45;schema&#45;contract&#45;drift&#45;&gt;REL_quarantine&#45;graduate&#45;clean</title>
<path fill="none" stroke="#4b5563" stroke-width="1.1" d="M215.56,-794.08C225.26,-740.82 255.92,-607.1 330.05,-526 386.87,-463.84 479.71,-426.38 536.7,-407.99"/>
<polygon fill="#4b5563" stroke="#4b5563" stroke-width="1.1" points="537.31,-410.37 543.25,-405.92 535.83,-405.69 537.31,-410.37"/>
</g>
<!-- BND_checkpoint&#45;schema&#45;contract&#45;drift&#45;&gt;REL_full&#45;gate&#45;matrix&#45;green -->
<g id="edge28" class="edge">
<title>BND_checkpoint&#45;schema&#45;contract&#45;drift&#45;&gt;REL_full&#45;gate&#45;matrix&#45;green</title>
<path fill="none" stroke="#4b5563" stroke-width="1.1" d="M265.11,-834.63C351.71,-859.83 525.3,-895.59 644.1,-823 700.27,-788.67 724.2,-708.86 733.19,-666.89"/>
<polygon fill="#4b5563" stroke="#4b5563" stroke-width="1.1" points="735.57,-667.52 734.56,-660.17 730.76,-666.54 735.57,-667.52"/>
</g>
<!-- PORT_patch&#45;controller&#45;reading&#45;basis -->
<g id="node5" class="node">
<title>PORT_patch&#45;controller&#45;reading&#45;basis</title>
<path fill="#bbf7d0" stroke="#15803d" stroke-width="2.4" d="M255.93,-549.91C255.93,-549.91 165.78,-549.91 165.78,-549.91 159.78,-549.91 153.78,-543.91 153.78,-537.91 153.78,-537.91 153.78,-518.08 153.78,-518.08 153.78,-512.09 159.78,-506.08 165.78,-506.08 165.78,-506.08 255.93,-506.08 255.93,-506.08 261.93,-506.08 267.93,-512.08 267.93,-518.08 267.93,-518.08 267.93,-537.91 267.93,-537.91 267.93,-543.91 261.93,-549.91 255.93,-549.91"/>
<text xml:space="preserve" text-anchor="middle" x="210.85" y="-535.38" font-family="Helvetica,sans-Serif" font-size="10.00">DONE</text>
<text xml:space="preserve" text-anchor="middle" x="210.85" y="-524.12" font-family="Helvetica,sans-Serif" font-size="10.00">PORT_patch&#45;controller</text>
<text xml:space="preserve" text-anchor="middle" x="210.85" y="-512.88" font-family="Helvetica,sans-Serif" font-size="10.00">reading basis</text>
</g>
<!-- PORT_subscription&#45;controller&#45;reading&#45;basis -->
<g id="node7" class="node">
<title>PORT_subscription&#45;controller&#45;reading&#45;basis</title>
<path fill="#bbf7d0" stroke="#15803d" stroke-width="2.4" d="M460.7,-585.91C460.7,-585.91 342.05,-585.91 342.05,-585.91 336.05,-585.91 330.05,-579.91 330.05,-573.91 330.05,-573.91 330.05,-554.09 330.05,-554.09 330.05,-548.09 336.05,-542.09 342.05,-542.09 342.05,-542.09 460.7,-542.09 460.7,-542.09 466.7,-542.09 472.7,-548.09 472.7,-554.09 472.7,-554.09 472.7,-573.91 472.7,-573.91 472.7,-579.91 466.7,-585.91 460.7,-585.91"/>
<text xml:space="preserve" text-anchor="middle" x="401.38" y="-571.38" font-family="Helvetica,sans-Serif" font-size="10.00">DONE</text>
<text xml:space="preserve" text-anchor="middle" x="401.38" y="-560.12" font-family="Helvetica,sans-Serif" font-size="10.00">PORT_subscription&#45;controller</text>
<text xml:space="preserve" text-anchor="middle" x="401.38" y="-548.88" font-family="Helvetica,sans-Serif" font-size="10.00">reading basis</text>
</g>
<!-- PORT_patch&#45;controller&#45;reading&#45;basis&#45;&gt;PORT_subscription&#45;controller&#45;reading&#45;basis -->
<g id="edge3" class="edge">
<title>PORT_patch&#45;controller&#45;reading&#45;basis&#45;&gt;PORT_subscription&#45;controller&#45;reading&#45;basis</title>
<path fill="none" stroke="#4b5563" stroke-width="1.1" d="M268.93,-538.9C285.22,-542.01 303.29,-545.46 320.68,-548.78"/>
<polygon fill="#4b5563" stroke="#4b5563" stroke-width="1.1" points="320.18,-551.18 327.51,-550.09 321.1,-546.37 320.18,-551.18"/>
</g>
<!-- PORT_patch&#45;controller&#45;reading&#45;basis&#45;&gt;SPEC_materialize&#45;spy&#45;test&#45;clusters -->
<g id="edge7" class="edge">
<title>PORT_patch&#45;controller&#45;reading&#45;basis&#45;&gt;SPEC_materialize&#45;spy&#45;test&#45;clusters</title>
<path fill="none" stroke="#4b5563" stroke-width="1.1" d="M216.44,-550.94C227.13,-597.86 258.47,-704.54 330.05,-754 386,-792.66 465.67,-796.39 521.29,-793.01"/>
<polygon fill="#4b5563" stroke="#4b5563" stroke-width="1.1" points="521.18,-795.47 528,-792.55 520.85,-790.58 521.18,-795.47"/>
</g>
<!-- PORT_patch&#45;controller&#45;reading&#45;basis&#45;&gt;REL_quarantine&#45;graduate&#45;clean -->
<g id="edge16" class="edge">
<title>PORT_patch&#45;controller&#45;reading&#45;basis&#45;&gt;REL_quarantine&#45;graduate&#45;clean</title>
<path fill="none" stroke="#4b5563" stroke-width="1.1" d="M225.33,-504.89C244.33,-474.84 282.08,-423.67 330.05,-402 396.69,-371.9 483.32,-377.12 536.87,-384.74"/>
<polygon fill="#4b5563" stroke="#4b5563" stroke-width="1.1" points="536.24,-387.12 543.52,-385.73 536.96,-382.28 536.24,-387.12"/>
</g>
<!-- PORT_patch&#45;controller&#45;reading&#45;basis&#45;&gt;REL_full&#45;gate&#45;matrix&#45;green -->
<g id="edge29" class="edge">
<title>PORT_patch&#45;controller&#45;reading&#45;basis&#45;&gt;REL_full&#45;gate&#45;matrix&#45;green</title>
<path fill="none" stroke="#4b5563" stroke-width="1.1" d="M268.96,-526.84C288.35,-526.5 310.14,-526.17 330.05,-526 393.45,-525.46 410.22,-515.21 472.7,-526 552.38,-539.76 570.54,-553.44 644.1,-587 663.46,-595.83 684.14,-607.28 701.14,-617.28"/>
<polygon fill="#4b5563" stroke="#4b5563" stroke-width="1.1" points="699.49,-619.14 706.76,-620.61 701.99,-614.93 699.49,-619.14"/>
</g>
<!-- PORT_checkpoint&#45;controller&#45;reading&#45;basis&#45;&gt;SPEC_materialize&#45;spy&#45;test&#45;clusters -->
<g id="edge8" class="edge">
<title>PORT_checkpoint&#45;controller&#45;reading&#45;basis&#45;&gt;SPEC_materialize&#45;spy&#45;test&#45;clusters</title>
<path fill="none" stroke="#4b5563" stroke-width="1.1" d="M463.91,-739.07C482.47,-746.03 502.89,-753.69 521.65,-760.72"/>
<polygon fill="#4b5563" stroke="#4b5563" stroke-width="1.1" points="520.61,-762.95 528.02,-763.11 522.33,-758.36 520.61,-762.95"/>
</g>
<!-- PORT_checkpoint&#45;controller&#45;reading&#45;basis&#45;&gt;REL_quarantine&#45;graduate&#45;clean -->
<g id="edge17" class="edge">
<title>PORT_checkpoint&#45;controller&#45;reading&#45;basis&#45;&gt;REL_quarantine&#45;graduate&#45;clean</title>
<path fill="none" stroke="#4b5563" stroke-width="1.1" d="M454.96,-693.05C461.48,-688.7 467.62,-683.7 472.7,-678 541.83,-600.45 571.7,-475.6 581.95,-421.01"/>
<polygon fill="#4b5563" stroke="#4b5563" stroke-width="1.1" points="584.34,-421.53 583.18,-414.2 579.52,-420.65 584.34,-421.53"/>
</g>
<!-- PORT_checkpoint&#45;controller&#45;reading&#45;basis&#45;&gt;REL_full&#45;gate&#45;matrix&#45;green -->
<g id="edge30" class="edge">
<title>PORT_checkpoint&#45;controller&#45;reading&#45;basis&#45;&gt;REL_full&#45;gate&#45;matrix&#45;green</title>
<path fill="none" stroke="#4b5563" stroke-width="1.1" d="M471.1,-702.5C519.59,-692.73 586.01,-678.86 644.1,-665 660.3,-661.14 677.96,-656.53 693.56,-652.33"/>
<polygon fill="#4b5563" stroke="#4b5563" stroke-width="1.1" points="693.78,-654.81 699.89,-650.62 692.5,-650.08 693.78,-654.81"/>
</g>
<!-- PORT_subscription&#45;controller&#45;reading&#45;basis&#45;&gt;SPEC_materialize&#45;spy&#45;test&#45;clusters -->
<g id="edge9" class="edge">
<title>PORT_subscription&#45;controller&#45;reading&#45;basis&#45;&gt;SPEC_materialize&#45;spy&#45;test&#45;clusters</title>
<path fill="none" stroke="#4b5563" stroke-width="1.1" d="M452.62,-586.91C459.79,-591.34 466.74,-596.39 472.7,-602 520.19,-646.7 555.74,-715.41 573.58,-754.68"/>
<polygon fill="#4b5563" stroke="#4b5563" stroke-width="1.1" points="571.13,-755.22 576.23,-760.61 575.61,-753.22 571.13,-755.22"/>
</g>
<!-- PORT_subscription&#45;controller&#45;reading&#45;basis&#45;&gt;REL_quarantine&#45;graduate&#45;clean -->
<g id="edge18" class="edge">
<title>PORT_subscription&#45;controller&#45;reading&#45;basis&#45;&gt;REL_quarantine&#45;graduate&#45;clean</title>
<path fill="none" stroke="#4b5563" stroke-width="1.1" d="M427.19,-541.07C461.92,-508.99 524.72,-450.97 560.19,-418.22"/>
<polygon fill="#4b5563" stroke="#4b5563" stroke-width="1.1" points="561.77,-420.08 565.25,-413.53 558.45,-416.49 561.77,-420.08"/>
</g>
<!-- PORT_subscription&#45;controller&#45;reading&#45;basis&#45;&gt;REL_full&#45;gate&#45;matrix&#45;green -->
<g id="edge31" class="edge">
<title>PORT_subscription&#45;controller&#45;reading&#45;basis&#45;&gt;REL_full&#45;gate&#45;matrix&#45;green</title>
<path fill="none" stroke="#4b5563" stroke-width="1.1" d="M473.54,-580.12C539.96,-595.16 637.03,-617.15 693.21,-629.87"/>
<polygon fill="#4b5563" stroke="#4b5563" stroke-width="1.1" points="692.53,-632.23 699.9,-631.39 693.62,-627.45 692.53,-632.23"/>
</g>
<!-- PORT_sync&#45;controller&#45;reading&#45;basis -->
<g id="node8" class="node">
<title>PORT_sync&#45;controller&#45;reading&#45;basis</title>
<path fill="#bbf7d0" stroke="#15803d" stroke-width="2.4" d="M444.95,-661.91C444.95,-661.91 357.8,-661.91 357.8,-661.91 351.8,-661.91 345.8,-655.91 345.8,-649.91 345.8,-649.91 345.8,-630.09 345.8,-630.09 345.8,-624.09 351.8,-618.09 357.8,-618.09 357.8,-618.09 444.95,-618.09 444.95,-618.09 450.95,-618.09 456.95,-624.09 456.95,-630.09 456.95,-630.09 456.95,-649.91 456.95,-649.91 456.95,-655.91 450.95,-661.91 444.95,-661.91"/>
<text xml:space="preserve" text-anchor="middle" x="401.38" y="-647.38" font-family="Helvetica,sans-Serif" font-size="10.00">DONE</text>
<text xml:space="preserve" text-anchor="middle" x="401.38" y="-636.12" font-family="Helvetica,sans-Serif" font-size="10.00">PORT_sync&#45;controller</text>
<text xml:space="preserve" text-anchor="middle" x="401.38" y="-624.88" font-family="Helvetica,sans-Serif" font-size="10.00">reading basis</text>
</g>
<!-- PORT_sync&#45;controller&#45;reading&#45;basis&#45;&gt;SPEC_materialize&#45;spy&#45;test&#45;clusters -->
<g id="edge10" class="edge">
<title>PORT_sync&#45;controller&#45;reading&#45;basis&#45;&gt;SPEC_materialize&#45;spy&#45;test&#45;clusters</title>
<path fill="none" stroke="#4b5563" stroke-width="1.1" d="M449.19,-663.08C457.25,-667.67 465.39,-672.72 472.7,-678 505.04,-701.35 537.78,-733.21 559.76,-756.08"/>
<polygon fill="#4b5563" stroke="#4b5563" stroke-width="1.1" points="557.92,-757.7 564.52,-761.08 561.46,-754.32 557.92,-757.7"/>
</g>
<!-- PORT_sync&#45;controller&#45;reading&#45;basis&#45;&gt;REL_quarantine&#45;graduate&#45;clean -->
<g id="edge19" class="edge">
<title>PORT_sync&#45;controller&#45;reading&#45;basis&#45;&gt;REL_quarantine&#45;graduate&#45;clean</title>
<path fill="none" stroke="#4b5563" stroke-width="1.1" d="M453.63,-616.93C460.5,-612.56 467.09,-607.58 472.7,-602 526.85,-548.11 562.25,-463.01 577.62,-420.3"/>
<polygon fill="#4b5563" stroke="#4b5563" stroke-width="1.1" points="579.86,-421.33 579.88,-413.91 575.24,-419.7 579.86,-421.33"/>
</g>
<!-- PORT_sync&#45;controller&#45;reading&#45;basis&#45;&gt;REL_full&#45;gate&#45;matrix&#45;green -->
<g id="edge32" class="edge">
<title>PORT_sync&#45;controller&#45;reading&#45;basis&#45;&gt;REL_full&#45;gate&#45;matrix&#45;green</title>
<path fill="none" stroke="#4b5563" stroke-width="1.1" d="M457.78,-640C523.61,-640 632.13,-640 692.98,-640"/>
<polygon fill="#4b5563" stroke="#4b5563" stroke-width="1.1" points="692.94,-642.45 699.94,-640 692.94,-637.55 692.94,-642.45"/>
</g>
<!-- SPEC_materialize&#45;spy&#45;test&#45;clusters&#45;&gt;REL_full&#45;gate&#45;matrix&#45;green -->
<g id="edge33" class="edge">
<title>SPEC_materialize&#45;spy&#45;test&#45;clusters&#45;&gt;REL_full&#45;gate&#45;matrix&#45;green</title>
<path fill="none" stroke="#4b5563" stroke-width="1.1" d="M615.4,-761.97C624.64,-753.9 634.94,-744.69 644.1,-736 668.96,-712.41 696.23,-684.23 714.93,-664.53"/>
<polygon fill="#4b5563" stroke="#4b5563" stroke-width="1.1" points="716.51,-666.43 719.54,-659.66 712.95,-663.06 716.51,-666.43"/>
</g>
<!-- SPEC_observer&#45;coordinate&#45;pinning -->
<g id="node10" class="node">
<title>SPEC_observer&#45;coordinate&#45;pinning</title>
<path fill="#bbf7d0" stroke="#15803d" stroke-width="2.4" d="M435.95,-111.91C435.95,-111.91 366.8,-111.91 366.8,-111.91 360.8,-111.91 354.8,-105.91 354.8,-99.91 354.8,-99.91 354.8,-80.09 354.8,-80.09 354.8,-74.09 360.8,-68.09 366.8,-68.09 366.8,-68.09 435.95,-68.09 435.95,-68.09 441.95,-68.09 447.95,-74.09 447.95,-80.09 447.95,-80.09 447.95,-99.91 447.95,-99.91 447.95,-105.91 441.95,-111.91 435.95,-111.91"/>
<text xml:space="preserve" text-anchor="middle" x="401.38" y="-97.38" font-family="Helvetica,sans-Serif" font-size="10.00">DONE</text>
<text xml:space="preserve" text-anchor="middle" x="401.38" y="-86.12" font-family="Helvetica,sans-Serif" font-size="10.00">SPEC_observer</text>
<text xml:space="preserve" text-anchor="middle" x="401.38" y="-74.88" font-family="Helvetica,sans-Serif" font-size="10.00">coordinate pinning</text>
</g>
<!-- SPEC_observer&#45;coordinate&#45;pinning&#45;&gt;REL_quarantine&#45;graduate&#45;clean -->
<g id="edge20" class="edge">
<title>SPEC_observer&#45;coordinate&#45;pinning&#45;&gt;REL_quarantine&#45;graduate&#45;clean</title>
<path fill="none" stroke="#4b5563" stroke-width="1.1" d="M449,-108.97C457.74,-114.14 466.16,-120.45 472.7,-128 521.66,-184.55 500.61,-217.52 530.7,-286 543.32,-314.73 560.08,-346.53 571.91,-368.14"/>
<polygon fill="#4b5563" stroke="#4b5563" stroke-width="1.1" points="569.7,-369.2 575.22,-374.15 573.99,-366.84 569.7,-369.2"/>
</g>
<!-- SPEC_observer&#45;coordinate&#45;pinning&#45;&gt;REL_full&#45;gate&#45;matrix&#45;green -->
<g id="edge34" class="edge">
<title>SPEC_observer&#45;coordinate&#45;pinning&#45;&gt;REL_full&#45;gate&#45;matrix&#45;green</title>
<path fill="none" stroke="#4b5563" stroke-width="1.1" d="M448.93,-110.74C457.37,-115.68 465.71,-121.46 472.7,-128 508.01,-161.01 495.48,-186.9 530.7,-220 572.56,-259.34 608.73,-236.74 644.1,-282 724.21,-384.5 736.29,-548.81 737.84,-613.04"/>
<polygon fill="#4b5563" stroke="#4b5563" stroke-width="1.1" points="735.39,-612.8 737.97,-619.76 740.29,-612.71 735.39,-612.8"/>
</g>
<!-- SPEC_checkpoint&#45;materialize&#45;test&#45;drift&#45;&gt;REL_full&#45;gate&#45;matrix&#45;green -->
<g id="edge35" class="edge">
<title>SPEC_checkpoint&#45;materialize&#45;test&#45;drift&#45;&gt;REL_full&#45;gate&#45;matrix&#45;green</title>
<path fill="none" stroke="#4b5563" stroke-width="1.1" d="M622.66,-961.96C630.58,-955.32 638.36,-947.53 644.1,-939 703.65,-850.49 727.02,-722.15 734.7,-666.92"/>
<polygon fill="#4b5563" stroke="#4b5563" stroke-width="1.1" points="737.12,-667.31 735.62,-660.05 732.26,-666.66 737.12,-667.31"/>
</g>
<!-- SPEC_uniform&#45;git&#45;cas&#45;upgrade&#45;contract&#45;drift -->
<g id="node12" class="node">
<title>SPEC_uniform&#45;git&#45;cas&#45;upgrade&#45;contract&#45;drift</title>
<path fill="#bbf7d0" stroke="#15803d" stroke-width="2.4" d="M631.35,-145.91C631.35,-145.91 543.45,-145.91 543.45,-145.91 537.45,-145.91 531.45,-139.91 531.45,-133.91 531.45,-133.91 531.45,-114.09 531.45,-114.09 531.45,-108.09 537.45,-102.09 543.45,-102.09 543.45,-102.09 631.35,-102.09 631.35,-102.09 637.35,-102.09 643.35,-108.09 643.35,-114.09 643.35,-114.09 643.35,-133.91 643.35,-133.91 643.35,-139.91 637.35,-145.91 631.35,-145.91"/>
<text xml:space="preserve" text-anchor="middle" x="587.4" y="-131.38" font-family="Helvetica,sans-Serif" font-size="10.00">DONE</text>
<text xml:space="preserve" text-anchor="middle" x="587.4" y="-120.12" font-family="Helvetica,sans-Serif" font-size="10.00">SPEC_uniform&#45;git&#45;cas</text>
<text xml:space="preserve" text-anchor="middle" x="587.4" y="-108.88" font-family="Helvetica,sans-Serif" font-size="10.00">upgrade contract drift</text>
</g>
<!-- SPEC_uniform&#45;git&#45;cas&#45;upgrade&#45;contract&#45;drift&#45;&gt;REL_full&#45;gate&#45;matrix&#45;green -->
<g id="edge36" class="edge">
<title>SPEC_uniform&#45;git&#45;cas&#45;upgrade&#45;contract&#45;drift&#45;&gt;REL_full&#45;gate&#45;matrix&#45;green</title>
<path fill="none" stroke="#4b5563" stroke-width="1.1" d="M623.59,-146.87C631.4,-153.47 638.89,-161.28 644.1,-170 733.33,-319.27 739.4,-538.08 738.62,-613.39"/>
<polygon fill="#4b5563" stroke="#4b5563" stroke-width="1.1" points="736.17,-613.15 738.52,-620.18 741.07,-613.22 736.17,-613.15"/>
</g>
<!-- HEX_sync&#45;secret&#45;plain&#45;string -->
<g id="node13" class="node">
<title>HEX_sync&#45;secret&#45;plain&#45;string</title>
<path fill="#bbf7d0" stroke="#15803d" stroke-width="2.4" d="M79.65,-249.91C79.65,-249.91 12,-249.91 12,-249.91 6,-249.91 0,-243.91 0,-237.91 0,-237.91 0,-218.09 0,-218.09 0,-212.09 6,-206.09 12,-206.09 12,-206.09 79.65,-206.09 79.65,-206.09 85.65,-206.09 91.65,-212.09 91.65,-218.09 91.65,-218.09 91.65,-237.91 91.65,-237.91 91.65,-243.91 85.65,-249.91 79.65,-249.91"/>
<text xml:space="preserve" text-anchor="middle" x="45.83" y="-235.38" font-family="Helvetica,sans-Serif" font-size="10.00">DONE</text>
<text xml:space="preserve" text-anchor="middle" x="45.83" y="-224.12" font-family="Helvetica,sans-Serif" font-size="10.00">HEX_sync&#45;secret</text>
<text xml:space="preserve" text-anchor="middle" x="45.83" y="-212.88" font-family="Helvetica,sans-Serif" font-size="10.00">plain string</text>
</g>
<!-- HEX_sync&#45;production&#45;auth&#45;defaults -->
<g id="node14" class="node">
<title>HEX_sync&#45;production&#45;auth&#45;defaults</title>
<path fill="#bbf7d0" stroke="#15803d" stroke-width="2.4" d="M253.68,-214.91C253.68,-214.91 168.03,-214.91 168.03,-214.91 162.03,-214.91 156.03,-208.91 156.03,-202.91 156.03,-202.91 156.03,-183.09 156.03,-183.09 156.03,-177.09 162.03,-171.09 168.03,-171.09 168.03,-171.09 253.68,-171.09 253.68,-171.09 259.68,-171.09 265.68,-177.09 265.68,-183.09 265.68,-183.09 265.68,-202.91 265.68,-202.91 265.68,-208.91 259.68,-214.91 253.68,-214.91"/>
<text xml:space="preserve" text-anchor="middle" x="210.85" y="-200.38" font-family="Helvetica,sans-Serif" font-size="10.00">DONE</text>
<text xml:space="preserve" text-anchor="middle" x="210.85" y="-189.12" font-family="Helvetica,sans-Serif" font-size="10.00">HEX_sync&#45;production</text>
<text xml:space="preserve" text-anchor="middle" x="210.85" y="-177.88" font-family="Helvetica,sans-Serif" font-size="10.00">auth defaults</text>
</g>
<!-- HEX_sync&#45;secret&#45;plain&#45;string&#45;&gt;HEX_sync&#45;production&#45;auth&#45;defaults -->
<g id="edge12" class="edge">
<title>HEX_sync&#45;secret&#45;plain&#45;string&#45;&gt;HEX_sync&#45;production&#45;auth&#45;defaults</title>
<path fill="none" stroke="#4b5563" stroke-width="1.1" d="M92.67,-218.16C109.49,-214.55 128.84,-210.39 146.91,-206.51"/>
<polygon fill="#4b5563" stroke="#4b5563" stroke-width="1.1" points="147.15,-208.97 153.47,-205.1 146.12,-204.18 147.15,-208.97"/>
</g>
<!-- HEX_sync&#45;secret&#45;plain&#45;string&#45;&gt;REL_quarantine&#45;graduate&#45;clean -->
<g id="edge21" class="edge">
<title>HEX_sync&#45;secret&#45;plain&#45;string&#45;&gt;REL_quarantine&#45;graduate&#45;clean</title>
<path fill="none" stroke="#4b5563" stroke-width="1.1" d="M92.83,-242.15C193.57,-273.15 432.96,-346.79 536.86,-378.76"/>
<polygon fill="#4b5563" stroke="#4b5563" stroke-width="1.1" points="536,-381.06 543.41,-380.77 537.44,-376.37 536,-381.06"/>
</g>
<!-- HEX_sync&#45;no&#45;rate&#45;limiting -->
<g id="node15" class="node">
<title>HEX_sync&#45;no&#45;rate&#45;limiting</title>
<path fill="#fee2e2" stroke="#4b5563" stroke-width="1.2" d="M428.45,-180C428.45,-180 374.3,-180 374.3,-180 368.3,-180 362.3,-174 362.3,-168 362.3,-168 362.3,-156 362.3,-156 362.3,-150 368.3,-144 374.3,-144 374.3,-144 428.45,-144 428.45,-144 434.45,-144 440.45,-150 440.45,-156 440.45,-156 440.45,-168 440.45,-168 440.45,-174 434.45,-180 428.45,-180"/>
<text xml:space="preserve" text-anchor="middle" x="401.38" y="-163.75" font-family="Helvetica,sans-Serif" font-size="10.00">HEX_sync</text>
<text xml:space="preserve" text-anchor="middle" x="401.38" y="-152.5" font-family="Helvetica,sans-Serif" font-size="10.00">no rate limiting</text>
</g>
<!-- HEX_sync&#45;production&#45;auth&#45;defaults&#45;&gt;HEX_sync&#45;no&#45;rate&#45;limiting -->
<g id="edge13" class="edge">
<title>HEX_sync&#45;production&#45;auth&#45;defaults&#45;&gt;HEX_sync&#45;no&#45;rate&#45;limiting</title>
<path fill="none" stroke="#4b5563" stroke-width="1.1" d="M266.63,-183.99C294.2,-179.46 327.26,-174.02 353.62,-169.69"/>
<polygon fill="#4b5563" stroke="#4b5563" stroke-width="1.1" points="353.77,-172.15 360.28,-168.59 352.98,-167.31 353.77,-172.15"/>
</g>
<!-- HEX_sync&#45;500&#45;sanitization -->
<g id="node16" class="node">
<title>HEX_sync&#45;500&#45;sanitization</title>
<path fill="#fee2e2" stroke="#4b5563" stroke-width="1.2" d="M430.7,-36C430.7,-36 372.05,-36 372.05,-36 366.05,-36 360.05,-30 360.05,-24 360.05,-24 360.05,-12 360.05,-12 360.05,-6 366.05,0 372.05,0 372.05,0 430.7,0 430.7,0 436.7,0 442.7,-6 442.7,-12 442.7,-12 442.7,-24 442.7,-24 442.7,-30 436.7,-36 430.7,-36"/>
<text xml:space="preserve" text-anchor="middle" x="401.38" y="-19.75" font-family="Helvetica,sans-Serif" font-size="10.00">HEX_sync</text>
<text xml:space="preserve" text-anchor="middle" x="401.38" y="-8.5" font-family="Helvetica,sans-Serif" font-size="10.00">500 sanitization</text>
</g>
<!-- HEX_sync&#45;production&#45;auth&#45;defaults&#45;&gt;HEX_sync&#45;500&#45;sanitization -->
<g id="edge14" class="edge">
<title>HEX_sync&#45;production&#45;auth&#45;defaults&#45;&gt;HEX_sync&#45;500&#45;sanitization</title>
<path fill="none" stroke="#4b5563" stroke-width="1.1" d="M226.62,-169.9C246.91,-139.63 285.95,-86.35 330.05,-52 336.71,-46.81 344.29,-42.14 351.95,-38.03"/>
<polygon fill="#4b5563" stroke="#4b5563" stroke-width="1.1" points="353,-40.25 358.12,-34.88 350.77,-35.88 353,-40.25"/>
</g>
<!-- HEX_sync&#45;production&#45;auth&#45;defaults&#45;&gt;REL_quarantine&#45;graduate&#45;clean -->
<g id="edge22" class="edge">
<title>HEX_sync&#45;production&#45;auth&#45;defaults&#45;&gt;REL_quarantine&#45;graduate&#45;clean</title>
<path fill="none" stroke="#4b5563" stroke-width="1.1" d="M266.63,-198.55C322.83,-206.53 410.59,-225.55 472.7,-270 509,-295.98 499.62,-319.96 530.7,-352 537.03,-358.52 544.43,-364.83 551.73,-370.49"/>
<polygon fill="#4b5563" stroke="#4b5563" stroke-width="1.1" points="549.98,-372.24 557.05,-374.49 552.93,-368.32 549.98,-372.24"/>
</g>
<!-- HEX_sync&#45;no&#45;rate&#45;limiting&#45;&gt;REL_quarantine&#45;graduate&#45;clean -->
<g id="edge23" class="edge">
<title>HEX_sync&#45;no&#45;rate&#45;limiting&#45;&gt;REL_quarantine&#45;graduate&#45;clean</title>
<path fill="none" stroke="#4b5563" stroke-width="1.1" d="M440.84,-178.92C452.28,-185.43 464.06,-193.8 472.7,-204 518.37,-257.9 487.99,-295.72 530.7,-352 535.81,-358.73 542.26,-364.91 548.96,-370.34"/>
<polygon fill="#4b5563" stroke="#4b5563" stroke-width="1.1" points="547.33,-372.18 554.37,-374.5 550.31,-368.29 547.33,-372.18"/>
</g>
<!-- HEX_sync&#45;no&#45;rate&#45;limiting&#45;&gt;REL_full&#45;gate&#45;matrix&#45;green -->
<g id="edge37" class="edge">
<title>HEX_sync&#45;no&#45;rate&#45;limiting&#45;&gt;REL_full&#45;gate&#45;matrix&#45;green</title>
<path fill="none" stroke="#4b5563" stroke-width="1.1" d="M440.93,-180.49C451.88,-186.76 463.34,-194.38 472.7,-203 505.8,-233.49 498.38,-254.69 530.7,-286 573.92,-327.87 607.3,-312.38 644.1,-360 705.15,-438.99 727.61,-559.83 734.87,-613.14"/>
<polygon fill="#4b5563" stroke="#4b5563" stroke-width="1.1" points="732.43,-613.41 735.76,-620.04 737.29,-612.78 732.43,-613.41"/>
</g>
<!-- HEX_sync&#45;500&#45;sanitization&#45;&gt;REL_quarantine&#45;graduate&#45;clean -->
<g id="edge24" class="edge">
<title>HEX_sync&#45;500&#45;sanitization&#45;&gt;REL_quarantine&#45;graduate&#45;clean</title>
<path fill="none" stroke="#4b5563" stroke-width="1.1" d="M442.94,-30.95C453.81,-36.06 464.74,-42.93 472.7,-52 478.17,-58.22 552.4,-288.21 577.88,-367.47"/>
<polygon fill="#4b5563" stroke="#4b5563" stroke-width="1.1" points="575.49,-368.02 579.96,-373.93 580.15,-366.52 575.49,-368.02"/>
</g>
<!-- HEX_sync&#45;500&#45;sanitization&#45;&gt;REL_full&#45;gate&#45;matrix&#45;green -->
<g id="edge38" class="edge">
<title>HEX_sync&#45;500&#45;sanitization&#45;&gt;REL_full&#45;gate&#45;matrix&#45;green</title>
<path fill="none" stroke="#4b5563" stroke-width="1.1" d="M443.12,-32.35C453.62,-37.4 464.31,-43.9 472.7,-52 512.46,-90.39 490.83,-123.72 530.7,-162 570.97,-200.66 609.34,-172.32 644.1,-216 694.03,-278.76 725.77,-530.04 735.07,-613.15"/>
<polygon fill="#4b5563" stroke="#4b5563" stroke-width="1.1" points="732.61,-613.21 735.82,-619.9 737.48,-612.67 732.61,-613.21"/>
</g>
<!-- REL_quarantine&#45;graduate&#45;clean&#45;&gt;REL_full&#45;gate&#45;matrix&#45;green -->
<g id="edge39" class="edge">
<title>REL_quarantine&#45;graduate&#45;clean&#45;&gt;REL_full&#45;gate&#45;matrix&#45;green</title>
<path fill="none" stroke="#4b5563" stroke-width="1.1" d="M603.37,-412.32C615.06,-426.97 631.39,-448.26 644.1,-468 676.16,-517.77 708,-579.37 725.09,-613.71"/>
<polygon fill="#4b5563" stroke="#4b5563" stroke-width="1.1" points="722.87,-614.74 728.17,-619.93 727.26,-612.57 722.87,-614.74"/>
</g>
<!-- REL_release&#45;cut&#45;version&#45;changelog -->
<g id="node19" class="node">
<title>REL_release&#45;cut&#45;version&#45;changelog</title>
<path fill="#dcfce7" stroke="#4b5563" stroke-width="1.2" d="M923.9,-658C923.9,-658 845.75,-658 845.75,-658 839.75,-658 833.75,-652 833.75,-646 833.75,-646 833.75,-634 833.75,-634 833.75,-628 839.75,-622 845.75,-622 845.75,-622 923.9,-622 923.9,-622 929.9,-622 935.9,-628 935.9,-634 935.9,-634 935.9,-646 935.9,-646 935.9,-652 929.9,-658 923.9,-658"/>
<text xml:space="preserve" text-anchor="middle" x="884.83" y="-641.75" font-family="Helvetica,sans-Serif" font-size="10.00">REL_release cut</text>
<text xml:space="preserve" text-anchor="middle" x="884.83" y="-630.5" font-family="Helvetica,sans-Serif" font-size="10.00">version + changelog</text>
</g>
<!-- REL_full&#45;gate&#45;matrix&#45;green&#45;&gt;REL_release&#45;cut&#45;version&#45;changelog -->
<g id="edge40" class="edge">
<title>REL_full&#45;gate&#45;matrix&#45;green&#45;&gt;REL_release&#45;cut&#45;version&#45;changelog</title>
<path fill="none" stroke="#4b5563" stroke-width="1.1" d="M776.24,-640C790.98,-640 808.4,-640 824.88,-640"/>
<polygon fill="#4b5563" stroke="#4b5563" stroke-width="1.1" points="824.73,-642.45 831.73,-640 824.73,-637.55 824.73,-642.45"/>
</g>
<!-- REL_release&#45;preflight&#45;and&#45;rc -->
<g id="node20" class="node">
<title>REL_release&#45;preflight&#45;and&#45;rc</title>
<path fill="#dcfce7" stroke="#4b5563" stroke-width="1.2" d="M1057.8,-658C1057.8,-658 1005.9,-658 1005.9,-658 999.9,-658 993.9,-652 993.9,-646 993.9,-646 993.9,-634 993.9,-634 993.9,-628 999.9,-622 1005.9,-622 1005.9,-622 1057.8,-622 1057.8,-622 1063.8,-622 1069.8,-628 1069.8,-634 1069.8,-634 1069.8,-646 1069.8,-646 1069.8,-652 1063.8,-658 1057.8,-658"/>
<text xml:space="preserve" text-anchor="middle" x="1031.85" y="-641.75" font-family="Helvetica,sans-Serif" font-size="10.00">REL_release</text>
<text xml:space="preserve" text-anchor="middle" x="1031.85" y="-630.5" font-family="Helvetica,sans-Serif" font-size="10.00">preflight + RC</text>
</g>
<!-- REL_release&#45;cut&#45;version&#45;changelog&#45;&gt;REL_release&#45;preflight&#45;and&#45;rc -->
<g id="edge41" class="edge">
<title>REL_release&#45;cut&#45;version&#45;changelog&#45;&gt;REL_release&#45;preflight&#45;and&#45;rc</title>
<path fill="none" stroke="#4b5563" stroke-width="1.1" d="M936.14,-640C952.02,-640 969.46,-640 985.01,-640"/>
<polygon fill="#4b5563" stroke="#4b5563" stroke-width="1.1" points="984.77,-642.45 991.77,-640 984.77,-637.55 984.77,-642.45"/>
</g>
<!-- REL_push&#45;pr&#45;review&#45;merge -->
<g id="node21" class="node">
<title>REL_push&#45;pr&#45;review&#45;merge</title>
<path fill="#dcfce7" stroke="#4b5563" stroke-width="1.2" d="M1199.2,-658C1199.2,-658 1139.8,-658 1139.8,-658 1133.8,-658 1127.8,-652 1127.8,-646 1127.8,-646 1127.8,-634 1127.8,-634 1127.8,-628 1133.8,-622 1139.8,-622 1139.8,-622 1199.2,-622 1199.2,-622 1205.2,-622 1211.2,-628 1211.2,-634 1211.2,-634 1211.2,-646 1211.2,-646 1211.2,-652 1205.2,-658 1199.2,-658"/>
<text xml:space="preserve" text-anchor="middle" x="1169.5" y="-641.75" font-family="Helvetica,sans-Serif" font-size="10.00">REL_push / PR</text>
<text xml:space="preserve" text-anchor="middle" x="1169.5" y="-630.5" font-family="Helvetica,sans-Serif" font-size="10.00">review / merge</text>
</g>
<!-- REL_release&#45;preflight&#45;and&#45;rc&#45;&gt;REL_push&#45;pr&#45;review&#45;merge -->
<g id="edge42" class="edge">
<title>REL_release&#45;preflight&#45;and&#45;rc&#45;&gt;REL_push&#45;pr&#45;review&#45;merge</title>
<path fill="none" stroke="#4b5563" stroke-width="1.1" d="M1070.28,-640C1085.37,-640 1102.99,-640 1119.11,-640"/>
<polygon fill="#4b5563" stroke="#4b5563" stroke-width="1.1" points="1118.72,-642.45 1125.72,-640 1118.72,-637.55 1118.72,-642.45"/>
</g>
</g>
</svg>
