<?xml version="1.0" encoding="UTF-8" standalone="no"?>
<!DOCTYPE svg PUBLIC "-//W3C//DTD SVG 1.1//EN"
 "http://www.w3.org/Graphics/SVG/1.1/DTD/svg11.dtd">
<!-- Generated by graphviz version 14.1.2 (20260124.0452)
 -->
<!-- Title: V17ReleaseBlockers Pages: 1 -->
<svg width="1248pt" height="1177pt"
 viewBox="14.00 14.00 1234.00 1162.00" xmlns="http://www.w3.org/2000/svg" xmlns:xlink="http://www.w3.org/1999/xlink">
<g id="graph0" class="graph" transform="scale(1 1) rotate(0) translate(18.4 1158.1)">
<title>V17ReleaseBlockers</title>
<polygon fill="white" stroke="none" points="-4,4 -4,-1143.7 1215.2,-1143.7 1215.2,4 -4,4"/>
<text xml:space="preserve" text-anchor="middle" x="605.6" y="-1118.6" font-family="Helvetica,sans-Serif" font-size="18.00">v17.0.0 Release Blocker DAG</text>
<!-- SPEC_consumer&#45;typecheck&#45;materialize&#45;residue -->
<g id="node1" class="node">
<title>SPEC_consumer&#45;typecheck&#45;materialize&#45;residue</title>
<path fill="#bbf7d0" stroke="#15803d" stroke-width="2.4" d="M458.45,-929.91C458.45,-929.91 344.3,-929.91 344.3,-929.91 338.3,-929.91 332.3,-923.91 332.3,-917.91 332.3,-917.91 332.3,-898.09 332.3,-898.09 332.3,-892.09 338.3,-886.09 344.3,-886.09 344.3,-886.09 458.45,-886.09 458.45,-886.09 464.45,-886.09 470.45,-892.09 470.45,-898.09 470.45,-898.09 470.45,-917.91 470.45,-917.91 470.45,-923.91 464.45,-929.91 458.45,-929.91"/>
<text xml:space="preserve" text-anchor="middle" x="401.38" y="-915.38" font-family="Helvetica,sans-Serif" font-size="10.00">DONE</text>
<text xml:space="preserve" text-anchor="middle" x="401.38" y="-904.12" font-family="Helvetica,sans-Serif" font-size="10.00">SPEC_consumer&#45;typecheck</text>
<text xml:space="preserve" text-anchor="middle" x="401.38" y="-892.88" font-family="Helvetica,sans-Serif" font-size="10.00">materialize residue</text>
</g>
<!-- SPEC_materialize&#45;spy&#45;test&#45;clusters -->
<g id="node9" class="node">
<title>SPEC_materialize&#45;spy&#45;test&#45;clusters</title>
<path fill="#dbeafe" stroke="#4b5563" stroke-width="1.2" d="M632.1,-786C632.1,-786 542.7,-786 542.7,-786 536.7,-786 530.7,-780 530.7,-774 530.7,-774 530.7,-762 530.7,-762 530.7,-756 536.7,-750 542.7,-750 542.7,-750 632.1,-750 632.1,-750 638.1,-750 644.1,-756 644.1,-762 644.1,-762 644.1,-774 644.1,-774 644.1,-780 638.1,-786 632.1,-786"/>
<text xml:space="preserve" text-anchor="middle" x="587.4" y="-769.75" font-family="Helvetica,sans-Serif" font-size="10.00">SPEC_materialize&#45;spy</text>
<text xml:space="preserve" text-anchor="middle" x="587.4" y="-758.5" font-family="Helvetica,sans-Serif" font-size="10.00">test clusters</text>
</g>
<!-- SPEC_consumer&#45;typecheck&#45;materialize&#45;residue&#45;&gt;SPEC_materialize&#45;spy&#45;test&#45;clusters -->
<g id="edge4" class="edge">
<title>SPEC_consumer&#45;typecheck&#45;materialize&#45;residue&#45;&gt;SPEC_materialize&#45;spy&#45;test&#45;clusters</title>
<path fill="none" stroke="#4b5563" stroke-width="1.1" d="M439.04,-885.12C450.04,-877.96 462.01,-869.88 472.7,-862 503.29,-839.46 536.61,-811.48 559.22,-791.93"/>
<polygon fill="#4b5563" stroke="#4b5563" stroke-width="1.1" points="560.65,-793.93 564.34,-787.49 557.44,-790.23 560.65,-793.93"/>
</g>
<!-- REL_full&#45;gate&#45;matrix&#45;green -->
<g id="node17" class="node">
<title>REL_full&#45;gate&#45;matrix&#45;green</title>
<path fill="#dcfce7" stroke="#4b5563" stroke-width="1.2" d="M763.75,-612C763.75,-612 714.1,-612 714.1,-612 708.1,-612 702.1,-606 702.1,-600 702.1,-600 702.1,-588 702.1,-588 702.1,-582 708.1,-576 714.1,-576 714.1,-576 763.75,-576 763.75,-576 769.75,-576 775.75,-582 775.75,-588 775.75,-588 775.75,-600 775.75,-600 775.75,-606 769.75,-612 763.75,-612"/>
<text xml:space="preserve" text-anchor="middle" x="738.93" y="-595.75" font-family="Helvetica,sans-Serif" font-size="10.00">REL_full gate</text>
<text xml:space="preserve" text-anchor="middle" x="738.93" y="-584.5" font-family="Helvetica,sans-Serif" font-size="10.00">matrix green</text>
</g>
<!-- SPEC_consumer&#45;typecheck&#45;materialize&#45;residue&#45;&gt;REL_full&#45;gate&#45;matrix&#45;green -->
<g id="edge24" class="edge">
<title>SPEC_consumer&#45;typecheck&#45;materialize&#45;residue&#45;&gt;REL_full&#45;gate&#45;matrix&#45;green</title>
<path fill="none" stroke="#4b5563" stroke-width="1.1" d="M471.57,-892.17C524.61,-876.92 596.55,-849.06 644.1,-802 696.39,-750.25 722.19,-664.13 732.42,-620.73"/>
<polygon fill="#4b5563" stroke="#4b5563" stroke-width="1.1" points="734.78,-621.39 733.94,-614.02 730,-620.3 734.78,-621.39"/>
</g>
<!-- SPEC_docs&#45;materialize&#45;frontdoor&#45;drift -->
<g id="node2" class="node">
<title>SPEC_docs&#45;materialize&#45;frontdoor&#45;drift</title>
<path fill="#bbf7d0" stroke="#15803d" stroke-width="2.4" d="M260.05,-1071.91C260.05,-1071.91 161.65,-1071.91 161.65,-1071.91 155.65,-1071.91 149.65,-1065.91 149.65,-1059.91 149.65,-1059.91 149.65,-1040.09 149.65,-1040.09 149.65,-1034.09 155.65,-1028.09 161.65,-1028.09 161.65,-1028.09 260.05,-1028.09 260.05,-1028.09 266.05,-1028.09 272.05,-1034.09 272.05,-1040.09 272.05,-1040.09 272.05,-1059.91 272.05,-1059.91 272.05,-1065.91 266.05,-1071.91 260.05,-1071.91"/>
<text xml:space="preserve" text-anchor="middle" x="210.85" y="-1057.38" font-family="Helvetica,sans-Serif" font-size="10.00">DONE</text>
<text xml:space="preserve" text-anchor="middle" x="210.85" y="-1046.12" font-family="Helvetica,sans-Serif" font-size="10.00">SPEC_docs</text>
<text xml:space="preserve" text-anchor="middle" x="210.85" y="-1034.88" font-family="Helvetica,sans-Serif" font-size="10.00">materialize frontdoor drift</text>
</g>
<!-- SPEC_runtime&#45;error&#45;reading&#45;basis&#45;guidance -->
<g id="node3" class="node">
<title>SPEC_runtime&#45;error&#45;reading&#45;basis&#45;guidance</title>
<path fill="#bbf7d0" stroke="#15803d" stroke-width="2.4" d="M446.45,-1071.91C446.45,-1071.91 356.3,-1071.91 356.3,-1071.91 350.3,-1071.91 344.3,-1065.91 344.3,-1059.91 344.3,-1059.91 344.3,-1040.09 344.3,-1040.09 344.3,-1034.09 350.3,-1028.09 356.3,-1028.09 356.3,-1028.09 446.45,-1028.09 446.45,-1028.09 452.45,-1028.09 458.45,-1034.09 458.45,-1040.09 458.45,-1040.09 458.45,-1059.91 458.45,-1059.91 458.45,-1065.91 452.45,-1071.91 446.45,-1071.91"/>
<text xml:space="preserve" text-anchor="middle" x="401.38" y="-1057.38" font-family="Helvetica,sans-Serif" font-size="10.00">DONE</text>
<text xml:space="preserve" text-anchor="middle" x="401.38" y="-1046.12" font-family="Helvetica,sans-Serif" font-size="10.00">SPEC_runtime&#45;error</text>
<text xml:space="preserve" text-anchor="middle" x="401.38" y="-1034.88" font-family="Helvetica,sans-Serif" font-size="10.00">reading&#45;basis guidance</text>
</g>
<!-- SPEC_docs&#45;materialize&#45;frontdoor&#45;drift&#45;&gt;SPEC_runtime&#45;error&#45;reading&#45;basis&#45;guidance -->
<g id="edge1" class="edge">
<title>SPEC_docs&#45;materialize&#45;frontdoor&#45;drift&#45;&gt;SPEC_runtime&#45;error&#45;reading&#45;basis&#45;guidance</title>
<path fill="none" stroke="#4b5563" stroke-width="1.1" d="M273.06,-1050C292.81,-1050 314.79,-1050 334.84,-1050"/>
<polygon fill="#4b5563" stroke="#4b5563" stroke-width="1.1" points="334.64,-1052.45 341.64,-1050 334.64,-1047.55 334.64,-1052.45"/>
</g>
<!-- SPEC_docs&#45;materialize&#45;frontdoor&#45;drift&#45;&gt;SPEC_materialize&#45;spy&#45;test&#45;clusters -->
<g id="edge5" class="edge">
<title>SPEC_docs&#45;materialize&#45;frontdoor&#45;drift&#45;&gt;SPEC_materialize&#45;spy&#45;test&#45;clusters</title>
<path fill="none" stroke="#4b5563" stroke-width="1.1" d="M221.31,-1027.15C237.98,-989.46 276.02,-914.07 330.05,-870 386.54,-823.92 466.46,-796.58 521.99,-781.99"/>
<polygon fill="#4b5563" stroke="#4b5563" stroke-width="1.1" points="522.56,-784.37 528.73,-780.25 521.34,-779.62 522.56,-784.37"/>
</g>
<!-- SPEC_docs&#45;materialize&#45;frontdoor&#45;drift&#45;&gt;REL_full&#45;gate&#45;matrix&#45;green -->
<g id="edge25" class="edge">
<title>SPEC_docs&#45;materialize&#45;frontdoor&#45;drift&#45;&gt;REL_full&#45;gate&#45;matrix&#45;green</title>
<path fill="none" stroke="#4b5563" stroke-width="1.1" d="M270.12,-1073.08C363.41,-1105.76 545.79,-1151.29 644.1,-1053 705.9,-991.22 730.05,-709.79 736.22,-620.95"/>
<polygon fill="#4b5563" stroke="#4b5563" stroke-width="1.1" points="738.65,-621.31 736.68,-614.16 733.77,-620.98 738.65,-621.31"/>
</g>
<!-- SPEC_runtime&#45;error&#45;reading&#45;basis&#45;guidance&#45;&gt;SPEC_materialize&#45;spy&#45;test&#45;clusters -->
<g id="edge6" class="edge">
<title>SPEC_runtime&#45;error&#45;reading&#45;basis&#45;guidance&#45;&gt;SPEC_materialize&#45;spy&#45;test&#45;clusters</title>
<path fill="none" stroke="#4b5563" stroke-width="1.1" d="M418.19,-1026.98C432.56,-1005.99 454.26,-974.05 472.7,-946 508.15,-892.08 548.59,-828.17 570.41,-793.49"/>
<polygon fill="#4b5563" stroke="#4b5563" stroke-width="1.1" points="572.24,-795.19 573.89,-787.96 568.09,-792.58 572.24,-795.19"/>
</g>
<!-- SPEC_runtime&#45;error&#45;reading&#45;basis&#45;guidance&#45;&gt;REL_full&#45;gate&#45;matrix&#45;green -->
<g id="edge26" class="edge">
<title>SPEC_runtime&#45;error&#45;reading&#45;basis&#45;guidance&#45;&gt;REL_full&#45;gate&#45;matrix&#45;green</title>
<path fill="none" stroke="#4b5563" stroke-width="1.1" d="M459.64,-1055.51C514.3,-1057.42 595.35,-1050.99 644.1,-1004 699.97,-950.15 727.74,-703.13 735.56,-620.79"/>
<polygon fill="#4b5563" stroke="#4b5563" stroke-width="1.1" points="737.99,-621.1 736.2,-613.9 733.11,-620.64 737.99,-621.1"/>
</g>
<!-- BND_checkpoint&#45;schema&#45;contract&#45;drift -->
<g id="node4" class="node">
<title>BND_checkpoint&#45;schema&#45;contract&#45;drift</title>
<path fill="#bbf7d0" stroke="#15803d" stroke-width="2.4" d="M252.18,-721.91C252.18,-721.91 169.53,-721.91 169.53,-721.91 163.53,-721.91 157.53,-715.91 157.53,-709.91 157.53,-709.91 157.53,-690.09 157.53,-690.09 157.53,-684.09 163.53,-678.09 169.53,-678.09 169.53,-678.09 252.18,-678.09 252.18,-678.09 258.18,-678.09 264.18,-684.09 264.18,-690.09 264.18,-690.09 264.18,-709.91 264.18,-709.91 264.18,-715.91 258.18,-721.91 252.18,-721.91"/>
<text xml:space="preserve" text-anchor="middle" x="210.85" y="-707.38" font-family="Helvetica,sans-Serif" font-size="10.00">DONE</text>
<text xml:space="preserve" text-anchor="middle" x="210.85" y="-696.12" font-family="Helvetica,sans-Serif" font-size="10.00">BND_checkpoint</text>
<text xml:space="preserve" text-anchor="middle" x="210.85" y="-684.88" font-family="Helvetica,sans-Serif" font-size="10.00">schema contract drift</text>
</g>
<!-- PORT_checkpoint&#45;controller&#45;reading&#45;basis -->
<g id="node6" class="node">
<title>PORT_checkpoint&#45;controller&#45;reading&#45;basis</title>
<path fill="#bbf7d0" stroke="#15803d" stroke-width="2.4" d="M458.08,-721.91C458.08,-721.91 344.68,-721.91 344.68,-721.91 338.68,-721.91 332.68,-715.91 332.68,-709.91 332.68,-709.91 332.68,-690.09 332.68,-690.09 332.68,-684.09 338.68,-678.09 344.68,-678.09 344.68,-678.09 458.08,-678.09 458.08,-678.09 464.08,-678.09 470.08,-684.09 470.08,-690.09 470.08,-690.09 470.08,-709.91 470.08,-709.91 470.08,-715.91 464.08,-721.91 458.08,-721.91"/>
<text xml:space="preserve" text-anchor="middle" x="401.38" y="-707.38" font-family="Helvetica,sans-Serif" font-size="10.00">DONE</text>
<text xml:space="preserve" text-anchor="middle" x="401.38" y="-696.12" font-family="Helvetica,sans-Serif" font-size="10.00">PORT_checkpoint&#45;controller</text>
<text xml:space="preserve" text-anchor="middle" x="401.38" y="-684.88" font-family="Helvetica,sans-Serif" font-size="10.00">reading basis</text>
</g>
<!-- BND_checkpoint&#45;schema&#45;contract&#45;drift&#45;&gt;PORT_checkpoint&#45;controller&#45;reading&#45;basis -->
<g id="edge2" class="edge">
<title>BND_checkpoint&#45;schema&#45;contract&#45;drift&#45;&gt;PORT_checkpoint&#45;controller&#45;reading&#45;basis</title>
<path fill="none" stroke="#4b5563" stroke-width="1.1" d="M265.37,-700C283.29,-700 303.65,-700 323.02,-700"/>
<polygon fill="#4b5563" stroke="#4b5563" stroke-width="1.1" points="322.88,-702.45 329.88,-700 322.88,-697.55 322.88,-702.45"/>
</g>
<!-- REL_quarantine&#45;graduate&#45;clean -->
<g id="node16" class="node">
<title>REL_quarantine&#45;graduate&#45;clean</title>
<path fill="#e5e7eb" stroke="#4b5563" stroke-width="1.2" d="M617.48,-404C617.48,-404 557.33,-404 557.33,-404 551.33,-404 545.33,-398 545.33,-392 545.33,-392 545.33,-380 545.33,-380 545.33,-374 551.33,-368 557.33,-368 557.33,-368 617.48,-368 617.48,-368 623.48,-368 629.48,-374 629.48,-380 629.48,-380 629.48,-392 629.48,-392 629.48,-398 623.48,-404 617.48,-404"/>
<text xml:space="preserve" text-anchor="middle" x="587.4" y="-387.75" font-family="Helvetica,sans-Serif" font-size="10.00">REL_quarantine</text>
<text xml:space="preserve" text-anchor="middle" x="587.4" y="-376.5" font-family="Helvetica,sans-Serif" font-size="10.00">graduate clean</text>
</g>
<!-- BND_checkpoint&#45;schema&#45;contract&#45;drift&#45;&gt;REL_quarantine&#45;graduate&#45;clean -->
<g id="edge14" class="edge">
<title>BND_checkpoint&#45;schema&#45;contract&#45;drift&#45;&gt;REL_quarantine&#45;graduate&#45;clean</title>
<path fill="none" stroke="#4b5563" stroke-width="1.1" d="M222.14,-677.08C249.12,-617.15 320.52,-459.85 330.05,-452 361.33,-426.24 471.14,-404.65 536.46,-393.71"/>
<polygon fill="#4b5563" stroke="#4b5563" stroke-width="1.1" points="536.83,-396.14 543.34,-392.58 536.03,-391.3 536.83,-396.14"/>
</g>
<!-- BND_checkpoint&#45;schema&#45;contract&#45;drift&#45;&gt;REL_full&#45;gate&#45;matrix&#45;green -->
<g id="edge27" class="edge">
<title>BND_checkpoint&#45;schema&#45;contract&#45;drift&#45;&gt;REL_full&#45;gate&#45;matrix&#45;green</title>
<path fill="none" stroke="#4b5563" stroke-width="1.1" d="M214.83,-722.92C222.81,-773.78 249.83,-895.55 330.05,-946 383.72,-979.75 410.97,-960.47 472.7,-946 555.49,-926.6 587.77,-924.69 644.1,-861 707.18,-789.68 728.52,-673.34 735.17,-621"/>
<polygon fill="#4b5563" stroke="#4b5563" stroke-width="1.1" points="737.58,-621.48 735.98,-614.24 732.72,-620.9 737.58,-621.48"/>
</g>
<!-- PORT_patch&#45;controller&#45;reading&#45;basis -->
<g id="node5" class="node">
<title>PORT_patch&#45;controller&#45;reading&#45;basis</title>
<path fill="#bbf7d0" stroke="#15803d" stroke-width="2.4" d="M255.93,-546.91C255.93,-546.91 165.78,-546.91 165.78,-546.91 159.78,-546.91 153.78,-540.91 153.78,-534.91 153.78,-534.91 153.78,-515.08 153.78,-515.08 153.78,-509.08 159.78,-503.08 165.78,-503.08 165.78,-503.08 255.93,-503.08 255.93,-503.08 261.93,-503.08 267.93,-509.08 267.93,-515.08 267.93,-515.08 267.93,-534.91 267.93,-534.91 267.93,-540.91 261.93,-546.91 255.93,-546.91"/>
<text xml:space="preserve" text-anchor="middle" x="210.85" y="-532.38" font-family="Helvetica,sans-Serif" font-size="10.00">DONE</text>
<text xml:space="preserve" text-anchor="middle" x="210.85" y="-521.12" font-family="Helvetica,sans-Serif" font-size="10.00">PORT_patch&#45;controller</text>
<text xml:space="preserve" text-anchor="middle" x="210.85" y="-509.88" font-family="Helvetica,sans-Serif" font-size="10.00">reading basis</text>
</g>
<!-- PORT_subscription&#45;controller&#45;reading&#45;basis -->
<g id="node7" class="node">
<title>PORT_subscription&#45;controller&#45;reading&#45;basis</title>
<path fill="#bbf7d0" stroke="#15803d" stroke-width="2.4" d="M460.7,-511.92C460.7,-511.92 342.05,-511.92 342.05,-511.92 336.05,-511.92 330.05,-505.92 330.05,-499.92 330.05,-499.92 330.05,-480.08 330.05,-480.08 330.05,-474.08 336.05,-468.08 342.05,-468.08 342.05,-468.08 460.7,-468.08 460.7,-468.08 466.7,-468.08 472.7,-474.08 472.7,-480.08 472.7,-480.08 472.7,-499.92 472.7,-499.92 472.7,-505.92 466.7,-511.92 460.7,-511.92"/>
<text xml:space="preserve" text-anchor="middle" x="401.38" y="-497.38" font-family="Helvetica,sans-Serif" font-size="10.00">DONE</text>
<text xml:space="preserve" text-anchor="middle" x="401.38" y="-486.12" font-family="Helvetica,sans-Serif" font-size="10.00">PORT_subscription&#45;controller</text>
<text xml:space="preserve" text-anchor="middle" x="401.38" y="-474.88" font-family="Helvetica,sans-Serif" font-size="10.00">reading basis</text>
</g>
<!-- PORT_patch&#45;controller&#45;reading&#45;basis&#45;&gt;PORT_subscription&#45;controller&#45;reading&#45;basis -->
<g id="edge3" class="edge">
<title>PORT_patch&#45;controller&#45;reading&#45;basis&#45;&gt;PORT_subscription&#45;controller&#45;reading&#45;basis</title>
<path fill="none" stroke="#4b5563" stroke-width="1.1" d="M268.93,-514.4C285.22,-511.38 303.29,-508.02 320.68,-504.8"/>
<polygon fill="#4b5563" stroke="#4b5563" stroke-width="1.1" points="321.07,-507.21 327.51,-503.53 320.18,-502.4 321.07,-507.21"/>
</g>
<!-- PORT_patch&#45;controller&#45;reading&#45;basis&#45;&gt;SPEC_materialize&#45;spy&#45;test&#45;clusters -->
<g id="edge7" class="edge">
<title>PORT_patch&#45;controller&#45;reading&#45;basis&#45;&gt;SPEC_materialize&#45;spy&#45;test&#45;clusters</title>
<path fill="none" stroke="#4b5563" stroke-width="1.1" d="M221.46,-548.11C242.8,-598.28 295,-714.52 330.05,-738 386.61,-775.9 466.34,-779.38 521.81,-775.94"/>
<polygon fill="#4b5563" stroke="#4b5563" stroke-width="1.1" points="521.68,-778.41 528.49,-775.48 521.34,-773.52 521.68,-778.41"/>
</g>
<!-- PORT_patch&#45;controller&#45;reading&#45;basis&#45;&gt;REL_quarantine&#45;graduate&#45;clean -->
<g id="edge15" class="edge">
<title>PORT_patch&#45;controller&#45;reading&#45;basis&#45;&gt;REL_quarantine&#45;graduate&#45;clean</title>
<path fill="none" stroke="#4b5563" stroke-width="1.1" d="M224.46,-502.05C242.97,-471 280.72,-416.86 330.05,-394 396.39,-363.26 483.1,-368.66 536.75,-376.49"/>
<polygon fill="#4b5563" stroke="#4b5563" stroke-width="1.1" points="536.14,-378.88 543.43,-377.51 536.88,-374.03 536.14,-378.88"/>
</g>
<!-- PORT_patch&#45;controller&#45;reading&#45;basis&#45;&gt;REL_full&#45;gate&#45;matrix&#45;green -->
<g id="edge28" class="edge">
<title>PORT_patch&#45;controller&#45;reading&#45;basis&#45;&gt;REL_full&#45;gate&#45;matrix&#45;green</title>
<path fill="none" stroke="#4b5563" stroke-width="1.1" d="M268.9,-532.48C374.4,-546.32 597.9,-575.63 693.28,-588.14"/>
<polygon fill="#4b5563" stroke="#4b5563" stroke-width="1.1" points="692.92,-590.57 700.18,-589.05 693.55,-585.71 692.92,-590.57"/>
</g>
<!-- PORT_checkpoint&#45;controller&#45;reading&#45;basis&#45;&gt;SPEC_materialize&#45;spy&#45;test&#45;clusters -->
<g id="edge8" class="edge">
<title>PORT_checkpoint&#45;controller&#45;reading&#45;basis&#45;&gt;SPEC_materialize&#45;spy&#45;test&#45;clusters</title>
<path fill="none" stroke="#4b5563" stroke-width="1.1" d="M464.68,-723.02C485.3,-730.64 508.15,-739.08 528.43,-746.58"/>
<polygon fill="#4b5563" stroke="#4b5563" stroke-width="1.1" points="527.38,-748.8 534.8,-748.93 529.08,-744.21 527.38,-748.8"/>
</g>
<!-- PORT_checkpoint&#45;controller&#45;reading&#45;basis&#45;&gt;REL_quarantine&#45;graduate&#45;clean -->
<g id="edge16" class="edge">
<title>PORT_checkpoint&#45;controller&#45;reading&#45;basis&#45;&gt;REL_quarantine&#45;graduate&#45;clean</title>
<path fill="none" stroke="#4b5563" stroke-width="1.1" d="M454.91,-677C461.43,-672.66 467.59,-667.67 472.7,-662 540.37,-586.85 570.94,-465.9 581.65,-412.64"/>
<polygon fill="#4b5563" stroke="#4b5563" stroke-width="1.1" points="584,-413.37 582.94,-406.03 579.2,-412.43 584,-413.37"/>
</g>
<!-- PORT_checkpoint&#45;controller&#45;reading&#45;basis&#45;&gt;REL_full&#45;gate&#45;matrix&#45;green -->
<g id="edge29" class="edge">
<title>PORT_checkpoint&#45;controller&#45;reading&#45;basis&#45;&gt;REL_full&#45;gate&#45;matrix&#45;green</title>
<path fill="none" stroke="#4b5563" stroke-width="1.1" d="M471.12,-683.89C519.92,-671.81 586.68,-653.97 644.1,-634 660.62,-628.25 678.36,-620.99 693.92,-614.23"/>
<polygon fill="#4b5563" stroke="#4b5563" stroke-width="1.1" points="694.89,-616.48 700.32,-611.42 692.92,-611.99 694.89,-616.48"/>
</g>
<!-- PORT_subscription&#45;controller&#45;reading&#45;basis&#45;&gt;SPEC_materialize&#45;spy&#45;test&#45;clusters -->
<g id="edge9" class="edge">
<title>PORT_subscription&#45;controller&#45;reading&#45;basis&#45;&gt;SPEC_materialize&#45;spy&#45;test&#45;clusters</title>
<path fill="none" stroke="#4b5563" stroke-width="1.1" d="M418.12,-513.06C432.44,-534.09 454.12,-566.05 472.7,-594 507.62,-646.52 547.85,-708.44 569.87,-742.43"/>
<polygon fill="#4b5563" stroke="#4b5563" stroke-width="1.1" points="567.78,-743.71 573.64,-748.25 571.89,-741.04 567.78,-743.71"/>
</g>
<!-- PORT_subscription&#45;controller&#45;reading&#45;basis&#45;&gt;REL_quarantine&#45;graduate&#45;clean -->
<g id="edge17" class="edge">
<title>PORT_subscription&#45;controller&#45;reading&#45;basis&#45;&gt;REL_quarantine&#45;graduate&#45;clean</title>
<path fill="none" stroke="#4b5563" stroke-width="1.1" d="M443.22,-466.92C473.87,-449.6 515.63,-426 546.14,-408.75"/>
<polygon fill="#4b5563" stroke="#4b5563" stroke-width="1.1" points="547.3,-410.91 552.19,-405.33 544.89,-406.64 547.3,-410.91"/>
</g>
<!-- PORT_subscription&#45;controller&#45;reading&#45;basis&#45;&gt;REL_full&#45;gate&#45;matrix&#45;green -->
<g id="edge30" class="edge">
<title>PORT_subscription&#45;controller&#45;reading&#45;basis&#45;&gt;REL_full&#45;gate&#45;matrix&#45;green</title>
<path fill="none" stroke="#4b5563" stroke-width="1.1" d="M473.81,-496.66C522.97,-502.89 589.06,-514.6 644.1,-536 666.47,-544.7 689.43,-558.79 707.04,-570.9"/>
<polygon fill="#4b5563" stroke="#4b5563" stroke-width="1.1" points="705.25,-572.64 712.39,-574.65 708.06,-568.62 705.25,-572.64"/>
</g>
<!-- PORT_sync&#45;controller&#45;reading&#45;basis -->
<g id="node8" class="node">
<title>PORT_sync&#45;controller&#45;reading&#45;basis</title>
<path fill="#fef3c7" stroke="#4b5563" stroke-width="1.2" d="M444.95,-646C444.95,-646 357.8,-646 357.8,-646 351.8,-646 345.8,-640 345.8,-634 345.8,-634 345.8,-622 345.8,-622 345.8,-616 351.8,-610 357.8,-610 357.8,-610 444.95,-610 444.95,-610 450.95,-610 456.95,-616 456.95,-622 456.95,-622 456.95,-634 456.95,-634 456.95,-640 450.95,-646 444.95,-646"/>
<text xml:space="preserve" text-anchor="middle" x="401.38" y="-629.75" font-family="Helvetica,sans-Serif" font-size="10.00">PORT_sync&#45;controller</text>
<text xml:space="preserve" text-anchor="middle" x="401.38" y="-618.5" font-family="Helvetica,sans-Serif" font-size="10.00">reading basis</text>
</g>
<!-- PORT_sync&#45;controller&#45;reading&#45;basis&#45;&gt;SPEC_materialize&#45;spy&#45;test&#45;clusters -->
<g id="edge10" class="edge">
<title>PORT_sync&#45;controller&#45;reading&#45;basis&#45;&gt;SPEC_materialize&#45;spy&#45;test&#45;clusters</title>
<path fill="none" stroke="#4b5563" stroke-width="1.1" d="M445.91,-646.52C455.05,-651.1 464.42,-656.33 472.7,-662 507.71,-685.97 542.6,-720.48 564.32,-743.54"/>
<polygon fill="#4b5563" stroke="#4b5563" stroke-width="1.1" points="562.38,-745.05 568.94,-748.5 565.96,-741.71 562.38,-745.05"/>
</g>
<!-- PORT_sync&#45;controller&#45;reading&#45;basis&#45;&gt;REL_quarantine&#45;graduate&#45;clean -->
<g id="edge18" class="edge">
<title>PORT_sync&#45;controller&#45;reading&#45;basis&#45;&gt;REL_quarantine&#45;graduate&#45;clean</title>
<path fill="none" stroke="#4b5563" stroke-width="1.1" d="M416.51,-609.41C449.24,-566.37 530.26,-459.83 567.33,-411.08"/>
<polygon fill="#4b5563" stroke="#4b5563" stroke-width="1.1" points="569.17,-412.7 571.46,-405.64 565.27,-409.73 569.17,-412.7"/>
</g>
<!-- PORT_sync&#45;controller&#45;reading&#45;basis&#45;&gt;REL_full&#45;gate&#45;matrix&#45;green -->
<g id="edge31" class="edge">
<title>PORT_sync&#45;controller&#45;reading&#45;basis&#45;&gt;REL_full&#45;gate&#45;matrix&#45;green</title>
<path fill="none" stroke="#4b5563" stroke-width="1.1" d="M457.41,-622.42C523.29,-615.75 632.34,-604.7 693.25,-598.53"/>
<polygon fill="#4b5563" stroke="#4b5563" stroke-width="1.1" points="693.14,-601 699.86,-597.86 692.65,-596.13 693.14,-601"/>
</g>
<!-- SPEC_materialize&#45;spy&#45;test&#45;clusters&#45;&gt;REL_full&#45;gate&#45;matrix&#45;green -->
<g id="edge32" class="edge">
<title>SPEC_materialize&#45;spy&#45;test&#45;clusters&#45;&gt;REL_full&#45;gate&#45;matrix&#45;green</title>
<path fill="none" stroke="#4b5563" stroke-width="1.1" d="M613.4,-749.53C623.44,-741.58 634.8,-731.85 644.1,-722 674.87,-689.4 704.43,-646.53 721.88,-619.62"/>
<polygon fill="#4b5563" stroke="#4b5563" stroke-width="1.1" points="723.85,-621.09 725.58,-613.87 719.73,-618.44 723.85,-621.09"/>
</g>
<!-- SPEC_observer&#45;coordinate&#45;pinning -->
<g id="node10" class="node">
<title>SPEC_observer&#45;coordinate&#45;pinning</title>
<path fill="#dbeafe" stroke="#4b5563" stroke-width="1.2" d="M435.95,-36C435.95,-36 366.8,-36 366.8,-36 360.8,-36 354.8,-30 354.8,-24 354.8,-24 354.8,-12 354.8,-12 354.8,-6 360.8,0 366.8,0 366.8,0 435.95,0 435.95,0 441.95,0 447.95,-6 447.95,-12 447.95,-12 447.95,-24 447.95,-24 447.95,-30 441.95,-36 435.95,-36"/>
<text xml:space="preserve" text-anchor="middle" x="401.38" y="-19.75" font-family="Helvetica,sans-Serif" font-size="10.00">SPEC_observer</text>
<text xml:space="preserve" text-anchor="middle" x="401.38" y="-8.5" font-family="Helvetica,sans-Serif" font-size="10.00">coordinate pinning</text>
</g>
<!-- SPEC_observer&#45;coordinate&#45;pinning&#45;&gt;REL_quarantine&#45;graduate&#45;clean -->
<g id="edge19" class="edge">
<title>SPEC_observer&#45;coordinate&#45;pinning&#45;&gt;REL_quarantine&#45;graduate&#45;clean</title>
<path fill="none" stroke="#4b5563" stroke-width="1.1" d="M448.39,-33.72C457.37,-38.47 466.05,-44.48 472.7,-52 483.4,-64.09 553.58,-282.78 578.02,-359.59"/>
<polygon fill="#4b5563" stroke="#4b5563" stroke-width="1.1" points="575.55,-359.89 580,-365.82 580.22,-358.41 575.55,-359.89"/>
</g>
<!-- SPEC_observer&#45;coordinate&#45;pinning&#45;&gt;REL_full&#45;gate&#45;matrix&#45;green -->
<g id="edge33" class="edge">
<title>SPEC_observer&#45;coordinate&#45;pinning&#45;&gt;REL_full&#45;gate&#45;matrix&#45;green</title>
<path fill="none" stroke="#4b5563" stroke-width="1.1" d="M448.46,-35.3C457.13,-39.88 465.67,-45.42 472.7,-52 510.78,-87.63 492.51,-118.49 530.7,-154 571.58,-192.01 608.89,-164.68 644.1,-208 689.96,-264.43 723.93,-489.8 734.48,-567.51"/>
<polygon fill="#4b5563" stroke="#4b5563" stroke-width="1.1" points="732.02,-567.55 735.37,-574.16 736.87,-566.9 732.02,-567.55"/>
</g>
<!-- SPEC_uniform&#45;git&#45;cas&#45;upgrade&#45;contract&#45;drift -->
<g id="node11" class="node">
<title>SPEC_uniform&#45;git&#45;cas&#45;upgrade&#45;contract&#45;drift</title>
<path fill="#bbf7d0" stroke="#15803d" stroke-width="2.4" d="M631.35,-137.91C631.35,-137.91 543.45,-137.91 543.45,-137.91 537.45,-137.91 531.45,-131.91 531.45,-125.91 531.45,-125.91 531.45,-106.09 531.45,-106.09 531.45,-100.09 537.45,-94.09 543.45,-94.09 543.45,-94.09 631.35,-94.09 631.35,-94.09 637.35,-94.09 643.35,-100.09 643.35,-106.09 643.35,-106.09 643.35,-125.91 643.35,-125.91 643.35,-131.91 637.35,-137.91 631.35,-137.91"/>
<text xml:space="preserve" text-anchor="middle" x="587.4" y="-123.38" font-family="Helvetica,sans-Serif" font-size="10.00">DONE</text>
<text xml:space="preserve" text-anchor="middle" x="587.4" y="-112.12" font-family="Helvetica,sans-Serif" font-size="10.00">SPEC_uniform&#45;git&#45;cas</text>
<text xml:space="preserve" text-anchor="middle" x="587.4" y="-100.88" font-family="Helvetica,sans-Serif" font-size="10.00">upgrade contract drift</text>
</g>
<!-- SPEC_uniform&#45;git&#45;cas&#45;upgrade&#45;contract&#45;drift&#45;&gt;REL_full&#45;gate&#45;matrix&#45;green -->
<g id="edge34" class="edge">
<title>SPEC_uniform&#45;git&#45;cas&#45;upgrade&#45;contract&#45;drift&#45;&gt;REL_full&#45;gate&#45;matrix&#45;green</title>
<path fill="none" stroke="#4b5563" stroke-width="1.1" d="M623.49,-138.94C631.3,-145.53 638.81,-153.32 644.1,-162 726.62,-297.45 737.05,-495.74 738.01,-567.14"/>
<polygon fill="#4b5563" stroke="#4b5563" stroke-width="1.1" points="735.56,-566.95 738.07,-573.92 740.46,-566.9 735.56,-566.95"/>
</g>
<!-- HEX_sync&#45;secret&#45;plain&#45;string -->
<g id="node12" class="node">
<title>HEX_sync&#45;secret&#45;plain&#45;string</title>
<path fill="#fee2e2" stroke="#4b5563" stroke-width="1.2" d="M79.65,-238C79.65,-238 12,-238 12,-238 6,-238 0,-232 0,-226 0,-226 0,-214 0,-214 0,-208 6,-202 12,-202 12,-202 79.65,-202 79.65,-202 85.65,-202 91.65,-208 91.65,-214 91.65,-214 91.65,-226 91.65,-226 91.65,-232 85.65,-238 79.65,-238"/>
<text xml:space="preserve" text-anchor="middle" x="45.83" y="-221.75" font-family="Helvetica,sans-Serif" font-size="10.00">HEX_sync&#45;secret</text>
<text xml:space="preserve" text-anchor="middle" x="45.83" y="-210.5" font-family="Helvetica,sans-Serif" font-size="10.00">plain string</text>
</g>
<!-- HEX_sync&#45;production&#45;auth&#45;defaults -->
<g id="node13" class="node">
<title>HEX_sync&#45;production&#45;auth&#45;defaults</title>
<path fill="#fee2e2" stroke="#4b5563" stroke-width="1.2" d="M253.68,-205C253.68,-205 168.03,-205 168.03,-205 162.03,-205 156.03,-199 156.03,-193 156.03,-193 156.03,-181 156.03,-181 156.03,-175 162.03,-169 168.03,-169 168.03,-169 253.68,-169 253.68,-169 259.68,-169 265.68,-175 265.68,-181 265.68,-181 265.68,-193 265.68,-193 265.68,-199 259.68,-205 253.68,-205"/>
<text xml:space="preserve" text-anchor="middle" x="210.85" y="-188.75" font-family="Helvetica,sans-Serif" font-size="10.00">HEX_sync&#45;production</text>
<text xml:space="preserve" text-anchor="middle" x="210.85" y="-177.5" font-family="Helvetica,sans-Serif" font-size="10.00">auth defaults</text>
</g>
<!-- HEX_sync&#45;secret&#45;plain&#45;string&#45;&gt;HEX_sync&#45;production&#45;auth&#45;defaults -->
<g id="edge11" class="edge">
<title>HEX_sync&#45;secret&#45;plain&#45;string&#45;&gt;HEX_sync&#45;production&#45;auth&#45;defaults</title>
<path fill="none" stroke="#4b5563" stroke-width="1.1" d="M92.24,-210.81C109.31,-207.35 129.04,-203.36 147.39,-199.64"/>
<polygon fill="#4b5563" stroke="#4b5563" stroke-width="1.1" points="147.71,-202.08 154.09,-198.29 146.74,-197.28 147.71,-202.08"/>
</g>
<!-- HEX_sync&#45;secret&#45;plain&#45;string&#45;&gt;REL_quarantine&#45;graduate&#45;clean -->
<g id="edge20" class="edge">
<title>HEX_sync&#45;secret&#45;plain&#45;string&#45;&gt;REL_quarantine&#45;graduate&#45;clean</title>
<path fill="none" stroke="#4b5563" stroke-width="1.1" d="M91.9,-233.87C192.02,-264.67 432.3,-338.59 536.64,-370.69"/>
<polygon fill="#4b5563" stroke="#4b5563" stroke-width="1.1" points="535.81,-373 543.22,-372.72 537.25,-368.32 535.81,-373"/>
</g>
<!-- HEX_sync&#45;no&#45;rate&#45;limiting -->
<g id="node14" class="node">
<title>HEX_sync&#45;no&#45;rate&#45;limiting</title>
<path fill="#fee2e2" stroke="#4b5563" stroke-width="1.2" d="M428.45,-104C428.45,-104 374.3,-104 374.3,-104 368.3,-104 362.3,-98 362.3,-92 362.3,-92 362.3,-80 362.3,-80 362.3,-74 368.3,-68 374.3,-68 374.3,-68 428.45,-68 428.45,-68 434.45,-68 440.45,-74 440.45,-80 440.45,-80 440.45,-92 440.45,-92 440.45,-98 434.45,-104 428.45,-104"/>
<text xml:space="preserve" text-anchor="middle" x="401.38" y="-87.75" font-family="Helvetica,sans-Serif" font-size="10.00">HEX_sync</text>
<text xml:space="preserve" text-anchor="middle" x="401.38" y="-76.5" font-family="Helvetica,sans-Serif" font-size="10.00">no rate limiting</text>
</g>
<!-- HEX_sync&#45;production&#45;auth&#45;defaults&#45;&gt;HEX_sync&#45;no&#45;rate&#45;limiting -->
<g id="edge12" class="edge">
<title>HEX_sync&#45;production&#45;auth&#45;defaults&#45;&gt;HEX_sync&#45;no&#45;rate&#45;limiting</title>
<path fill="none" stroke="#4b5563" stroke-width="1.1" d="M243.15,-168.52C266.8,-154.74 300.18,-135.67 330.05,-120 337.87,-115.9 346.25,-111.69 354.41,-107.69"/>
<polygon fill="#4b5563" stroke="#4b5563" stroke-width="1.1" points="355.11,-110.07 360.33,-104.81 352.96,-105.67 355.11,-110.07"/>
</g>
<!-- HEX_sync&#45;500&#45;sanitization -->
<g id="node15" class="node">
<title>HEX_sync&#45;500&#45;sanitization</title>
<path fill="#fee2e2" stroke="#4b5563" stroke-width="1.2" d="M430.7,-172C430.7,-172 372.05,-172 372.05,-172 366.05,-172 360.05,-166 360.05,-160 360.05,-160 360.05,-148 360.05,-148 360.05,-142 366.05,-136 372.05,-136 372.05,-136 430.7,-136 430.7,-136 436.7,-136 442.7,-142 442.7,-148 442.7,-148 442.7,-160 442.7,-160 442.7,-166 436.7,-172 430.7,-172"/>
<text xml:space="preserve" text-anchor="middle" x="401.38" y="-155.75" font-family="Helvetica,sans-Serif" font-size="10.00">HEX_sync</text>
<text xml:space="preserve" text-anchor="middle" x="401.38" y="-144.5" font-family="Helvetica,sans-Serif" font-size="10.00">500 sanitization</text>
</g>
<!-- HEX_sync&#45;production&#45;auth&#45;defaults&#45;&gt;HEX_sync&#45;500&#45;sanitization -->
<g id="edge13" class="edge">
<title>HEX_sync&#45;production&#45;auth&#45;defaults&#45;&gt;HEX_sync&#45;500&#45;sanitization</title>
<path fill="none" stroke="#4b5563" stroke-width="1.1" d="M266.13,-177.5C293.02,-172.79 325.25,-167.15 351.38,-162.58"/>
<polygon fill="#4b5563" stroke="#4b5563" stroke-width="1.1" points="351.53,-165.04 358,-161.42 350.68,-160.21 351.53,-165.04"/>
</g>
<!-- HEX_sync&#45;production&#45;auth&#45;defaults&#45;&gt;REL_quarantine&#45;graduate&#45;clean -->
<g id="edge21" class="edge">
<title>HEX_sync&#45;production&#45;auth&#45;defaults&#45;&gt;REL_quarantine&#45;graduate&#45;clean</title>
<path fill="none" stroke="#4b5563" stroke-width="1.1" d="M266.1,-192C322.27,-199.45 410.37,-217.73 472.7,-262 509.09,-287.85 499.62,-311.96 530.7,-344 537.03,-350.52 544.43,-356.83 551.73,-362.49"/>
<polygon fill="#4b5563" stroke="#4b5563" stroke-width="1.1" points="549.98,-364.24 557.05,-366.49 552.93,-360.32 549.98,-364.24"/>
</g>
<!-- HEX_sync&#45;no&#45;rate&#45;limiting&#45;&gt;REL_quarantine&#45;graduate&#45;clean -->
<g id="edge22" class="edge">
<title>HEX_sync&#45;no&#45;rate&#45;limiting&#45;&gt;REL_quarantine&#45;graduate&#45;clean</title>
<path fill="none" stroke="#4b5563" stroke-width="1.1" d="M440.94,-98.27C452.39,-103.46 464.14,-110.55 472.7,-120 522.93,-175.43 500.61,-209.52 530.7,-278 543.32,-306.73 560.08,-338.53 571.91,-360.14"/>
<polygon fill="#4b5563" stroke="#4b5563" stroke-width="1.1" points="569.7,-361.2 575.22,-366.15 573.99,-358.84 569.7,-361.2"/>
</g>
<!-- HEX_sync&#45;no&#45;rate&#45;limiting&#45;&gt;REL_full&#45;gate&#45;matrix&#45;green -->
<g id="edge35" class="edge">
<title>HEX_sync&#45;no&#45;rate&#45;limiting&#45;&gt;REL_full&#45;gate&#45;matrix&#45;green</title>
<path fill="none" stroke="#4b5563" stroke-width="1.1" d="M440.89,-99.92C451.95,-105.1 463.5,-111.78 472.7,-120 508.74,-152.21 495.48,-178.9 530.7,-212 572.56,-251.34 608.08,-229.26 644.1,-274 716.45,-363.86 733.01,-507.72 736.8,-567.06"/>
<polygon fill="#4b5563" stroke="#4b5563" stroke-width="1.1" points="734.35,-567 737.2,-573.85 739.24,-566.72 734.35,-567"/>
</g>
<!-- HEX_sync&#45;500&#45;sanitization&#45;&gt;REL_quarantine&#45;graduate&#45;clean -->
<g id="edge23" class="edge">
<title>HEX_sync&#45;500&#45;sanitization&#45;&gt;REL_quarantine&#45;graduate&#45;clean</title>
<path fill="none" stroke="#4b5563" stroke-width="1.1" d="M443.03,-172.19C453.77,-178.51 464.61,-186.45 472.7,-196 518.37,-249.9 487.99,-287.72 530.7,-344 535.81,-350.73 542.26,-356.91 548.96,-362.34"/>
<polygon fill="#4b5563" stroke="#4b5563" stroke-width="1.1" points="547.33,-364.18 554.37,-366.5 550.31,-360.29 547.33,-364.18"/>
</g>
<!-- HEX_sync&#45;500&#45;sanitization&#45;&gt;REL_full&#45;gate&#45;matrix&#45;green -->
<g id="edge36" class="edge">
<title>HEX_sync&#45;500&#45;sanitization&#45;&gt;REL_full&#45;gate&#45;matrix&#45;green</title>
<path fill="none" stroke="#4b5563" stroke-width="1.1" d="M439.8,-172.47C451.06,-179.02 462.99,-187.02 472.7,-196 505.46,-226.32 498.55,-247.03 530.7,-278 574.04,-319.75 606.2,-305.25 644.1,-352 698.06,-418.56 723.63,-519.77 733.21,-567.42"/>
<polygon fill="#4b5563" stroke="#4b5563" stroke-width="1.1" points="730.75,-567.64 734.5,-574.04 735.56,-566.7 730.75,-567.64"/>
</g>
<!-- REL_quarantine&#45;graduate&#45;clean&#45;&gt;REL_full&#45;gate&#45;matrix&#45;green -->
<g id="edge37" class="edge">
<title>REL_quarantine&#45;graduate&#45;clean&#45;&gt;REL_full&#45;gate&#45;matrix&#45;green</title>
<path fill="none" stroke="#4b5563" stroke-width="1.1" d="M601.67,-404.46C628.49,-441.77 689.2,-526.22 719.71,-568.66"/>
<polygon fill="#4b5563" stroke="#4b5563" stroke-width="1.1" points="717.64,-569.98 723.71,-574.23 721.62,-567.12 717.64,-569.98"/>
</g>
<!-- REL_release&#45;cut&#45;version&#45;changelog -->
<g id="node18" class="node">
<title>REL_release&#45;cut&#45;version&#45;changelog</title>
<path fill="#dcfce7" stroke="#4b5563" stroke-width="1.2" d="M923.9,-612C923.9,-612 845.75,-612 845.75,-612 839.75,-612 833.75,-606 833.75,-600 833.75,-600 833.75,-588 833.75,-588 833.75,-582 839.75,-576 845.75,-576 845.75,-576 923.9,-576 923.9,-576 929.9,-576 935.9,-582 935.9,-588 935.9,-588 935.9,-600 935.9,-600 935.9,-606 929.9,-612 923.9,-612"/>
<text xml:space="preserve" text-anchor="middle" x="884.83" y="-595.75" font-family="Helvetica,sans-Serif" font-size="10.00">REL_release cut</text>
<text xml:space="preserve" text-anchor="middle" x="884.83" y="-584.5" font-family="Helvetica,sans-Serif" font-size="10.00">version + changelog</text>
</g>
<!-- REL_full&#45;gate&#45;matrix&#45;green&#45;&gt;REL_release&#45;cut&#45;version&#45;changelog -->
<g id="edge38" class="edge">
<title>REL_full&#45;gate&#45;matrix&#45;green&#45;&gt;REL_release&#45;cut&#45;version&#45;changelog</title>
<path fill="none" stroke="#4b5563" stroke-width="1.1" d="M776.24,-594C790.98,-594 808.4,-594 824.88,-594"/>
<polygon fill="#4b5563" stroke="#4b5563" stroke-width="1.1" points="824.73,-596.45 831.73,-594 824.73,-591.55 824.73,-596.45"/>
</g>
<!-- REL_release&#45;preflight&#45;and&#45;rc -->
<g id="node19" class="node">
<title>REL_release&#45;preflight&#45;and&#45;rc</title>
<path fill="#dcfce7" stroke="#4b5563" stroke-width="1.2" d="M1057.8,-612C1057.8,-612 1005.9,-612 1005.9,-612 999.9,-612 993.9,-606 993.9,-600 993.9,-600 993.9,-588 993.9,-588 993.9,-582 999.9,-576 1005.9,-576 1005.9,-576 1057.8,-576 1057.8,-576 1063.8,-576 1069.8,-582 1069.8,-588 1069.8,-588 1069.8,-600 1069.8,-600 1069.8,-606 1063.8,-612 1057.8,-612"/>
<text xml:space="preserve" text-anchor="middle" x="1031.85" y="-595.75" font-family="Helvetica,sans-Serif" font-size="10.00">REL_release</text>
<text xml:space="preserve" text-anchor="middle" x="1031.85" y="-584.5" font-family="Helvetica,sans-Serif" font-size="10.00">preflight + RC</text>
</g>
<!-- REL_release&#45;cut&#45;version&#45;changelog&#45;&gt;REL_release&#45;preflight&#45;and&#45;rc -->
<g id="edge39" class="edge">
<title>REL_release&#45;cut&#45;version&#45;changelog&#45;&gt;REL_release&#45;preflight&#45;and&#45;rc</title>
<path fill="none" stroke="#4b5563" stroke-width="1.1" d="M936.14,-594C952.02,-594 969.46,-594 985.01,-594"/>
<polygon fill="#4b5563" stroke="#4b5563" stroke-width="1.1" points="984.77,-596.45 991.77,-594 984.77,-591.55 984.77,-596.45"/>
</g>
<!-- REL_push&#45;pr&#45;review&#45;merge -->
<g id="node20" class="node">
<title>REL_push&#45;pr&#45;review&#45;merge</title>
<path fill="#dcfce7" stroke="#4b5563" stroke-width="1.2" d="M1199.2,-612C1199.2,-612 1139.8,-612 1139.8,-612 1133.8,-612 1127.8,-606 1127.8,-600 1127.8,-600 1127.8,-588 1127.8,-588 1127.8,-582 1133.8,-576 1139.8,-576 1139.8,-576 1199.2,-576 1199.2,-576 1205.2,-576 1211.2,-582 1211.2,-588 1211.2,-588 1211.2,-600 1211.2,-600 1211.2,-606 1205.2,-612 1199.2,-612"/>
<text xml:space="preserve" text-anchor="middle" x="1169.5" y="-595.75" font-family="Helvetica,sans-Serif" font-size="10.00">REL_push / PR</text>
<text xml:space="preserve" text-anchor="middle" x="1169.5" y="-584.5" font-family="Helvetica,sans-Serif" font-size="10.00">review / merge</text>
</g>
<!-- REL_release&#45;preflight&#45;and&#45;rc&#45;&gt;REL_push&#45;pr&#45;review&#45;merge -->
<g id="edge40" class="edge">
<title>REL_release&#45;preflight&#45;and&#45;rc&#45;&gt;REL_push&#45;pr&#45;review&#45;merge</title>
<path fill="none" stroke="#4b5563" stroke-width="1.1" d="M1070.28,-594C1085.37,-594 1102.99,-594 1119.11,-594"/>
<polygon fill="#4b5563" stroke="#4b5563" stroke-width="1.1" points="1118.72,-596.45 1125.72,-594 1118.72,-591.55 1118.72,-596.45"/>
</g>
</g>
</svg>
