<?xml version="1.0" encoding="UTF-8" standalone="no"?>
<!DOCTYPE svg PUBLIC "-//W3C//DTD SVG 1.1//EN"
 "http://www.w3.org/Graphics/SVG/1.1/DTD/svg11.dtd">
<!-- Generated by graphviz version 14.1.2 (20260124.0452)
 -->
<!-- Title: V17ReleaseBlockers Pages: 1 -->
<svg width="1248pt" height="1278pt"
 viewBox="14.00 14.00 1234.00 1263.00" xmlns="http://www.w3.org/2000/svg" xmlns:xlink="http://www.w3.org/1999/xlink">
<g id="graph0" class="graph" transform="scale(1 1) rotate(0) translate(18.4 1259.48)">
<title>V17ReleaseBlockers</title>
<polygon fill="white" stroke="none" points="-4,4 -4,-1245.08 1215.2,-1245.08 1215.2,4 -4,4"/>
<text xml:space="preserve" text-anchor="middle" x="605.6" y="-1219.98" font-family="Helvetica,sans-Serif" font-size="18.00">v17.0.0 Release Blocker DAG</text>
<!-- SPEC_consumer&#45;typecheck&#45;materialize&#45;residue -->
<g id="node1" class="node">
<title>SPEC_consumer&#45;typecheck&#45;materialize&#45;residue</title>
<path fill="#bbf7d0" stroke="#15803d" stroke-width="2.4" d="M458.45,-1161.91C458.45,-1161.91 344.3,-1161.91 344.3,-1161.91 338.3,-1161.91 332.3,-1155.91 332.3,-1149.91 332.3,-1149.91 332.3,-1130.09 332.3,-1130.09 332.3,-1124.09 338.3,-1118.09 344.3,-1118.09 344.3,-1118.09 458.45,-1118.09 458.45,-1118.09 464.45,-1118.09 470.45,-1124.09 470.45,-1130.09 470.45,-1130.09 470.45,-1149.91 470.45,-1149.91 470.45,-1155.91 464.45,-1161.91 458.45,-1161.91"/>
<text xml:space="preserve" text-anchor="middle" x="401.38" y="-1147.38" font-family="Helvetica,sans-Serif" font-size="10.00">DONE</text>
<text xml:space="preserve" text-anchor="middle" x="401.38" y="-1136.12" font-family="Helvetica,sans-Serif" font-size="10.00">SPEC_consumer&#45;typecheck</text>
<text xml:space="preserve" text-anchor="middle" x="401.38" y="-1124.88" font-family="Helvetica,sans-Serif" font-size="10.00">materialize residue</text>
</g>
<!-- SPEC_materialize&#45;spy&#45;test&#45;clusters -->
<g id="node9" class="node">
<title>SPEC_materialize&#45;spy&#45;test&#45;clusters</title>
<path fill="#bbf7d0" stroke="#15803d" stroke-width="2.4" d="M632.1,-814.91C632.1,-814.91 542.7,-814.91 542.7,-814.91 536.7,-814.91 530.7,-808.91 530.7,-802.91 530.7,-802.91 530.7,-783.09 530.7,-783.09 530.7,-777.09 536.7,-771.09 542.7,-771.09 542.7,-771.09 632.1,-771.09 632.1,-771.09 638.1,-771.09 644.1,-777.09 644.1,-783.09 644.1,-783.09 644.1,-802.91 644.1,-802.91 644.1,-808.91 638.1,-814.91 632.1,-814.91"/>
<text xml:space="preserve" text-anchor="middle" x="587.4" y="-800.38" font-family="Helvetica,sans-Serif" font-size="10.00">DONE</text>
<text xml:space="preserve" text-anchor="middle" x="587.4" y="-789.12" font-family="Helvetica,sans-Serif" font-size="10.00">SPEC_materialize&#45;spy</text>
<text xml:space="preserve" text-anchor="middle" x="587.4" y="-777.88" font-family="Helvetica,sans-Serif" font-size="10.00">test clusters</text>
</g>
<!-- SPEC_consumer&#45;typecheck&#45;materialize&#45;residue&#45;&gt;SPEC_materialize&#45;spy&#45;test&#45;clusters -->
<g id="edge4" class="edge">
<title>SPEC_consumer&#45;typecheck&#45;materialize&#45;residue&#45;&gt;SPEC_materialize&#45;spy&#45;test&#45;clusters</title>
<path fill="none" stroke="#4b5563" stroke-width="1.1" d="M455.47,-1116.94C461.83,-1112.63 467.79,-1107.66 472.7,-1102 482.29,-1090.93 549.45,-899.39 575.81,-823.55"/>
<polygon fill="#4b5563" stroke="#4b5563" stroke-width="1.1" points="578,-824.73 577.98,-817.31 573.37,-823.12 578,-824.73"/>
</g>
<!-- REL_full&#45;gate&#45;matrix&#45;green -->
<g id="node18" class="node">
<title>REL_full&#45;gate&#45;matrix&#45;green</title>
<path fill="#dcfce7" stroke="#4b5563" stroke-width="1.2" d="M763.75,-666C763.75,-666 714.1,-666 714.1,-666 708.1,-666 702.1,-660 702.1,-654 702.1,-654 702.1,-642 702.1,-642 702.1,-636 708.1,-630 714.1,-630 714.1,-630 763.75,-630 763.75,-630 769.75,-630 775.75,-636 775.75,-642 775.75,-642 775.75,-654 775.75,-654 775.75,-660 769.75,-666 763.75,-666"/>
<text xml:space="preserve" text-anchor="middle" x="738.93" y="-649.75" font-family="Helvetica,sans-Serif" font-size="10.00">REL_full gate</text>
<text xml:space="preserve" text-anchor="middle" x="738.93" y="-638.5" font-family="Helvetica,sans-Serif" font-size="10.00">matrix green</text>
</g>
<!-- SPEC_consumer&#45;typecheck&#45;materialize&#45;residue&#45;&gt;REL_full&#45;gate&#45;matrix&#45;green -->
<g id="edge25" class="edge">
<title>SPEC_consumer&#45;typecheck&#45;materialize&#45;residue&#45;&gt;REL_full&#45;gate&#45;matrix&#45;green</title>
<path fill="none" stroke="#4b5563" stroke-width="1.1" d="M471.39,-1140.53C525.78,-1137.1 599.62,-1123.28 644.1,-1077 700.43,-1018.4 728.01,-759.79 735.66,-675.01"/>
<polygon fill="#4b5563" stroke="#4b5563" stroke-width="1.1" points="738.09,-675.31 736.27,-668.12 733.21,-674.87 738.09,-675.31"/>
</g>
<!-- SPEC_docs&#45;materialize&#45;frontdoor&#45;drift -->
<g id="node2" class="node">
<title>SPEC_docs&#45;materialize&#45;frontdoor&#45;drift</title>
<path fill="#bbf7d0" stroke="#15803d" stroke-width="2.4" d="M260.05,-1085.91C260.05,-1085.91 161.65,-1085.91 161.65,-1085.91 155.65,-1085.91 149.65,-1079.91 149.65,-1073.91 149.65,-1073.91 149.65,-1054.09 149.65,-1054.09 149.65,-1048.09 155.65,-1042.09 161.65,-1042.09 161.65,-1042.09 260.05,-1042.09 260.05,-1042.09 266.05,-1042.09 272.05,-1048.09 272.05,-1054.09 272.05,-1054.09 272.05,-1073.91 272.05,-1073.91 272.05,-1079.91 266.05,-1085.91 260.05,-1085.91"/>
<text xml:space="preserve" text-anchor="middle" x="210.85" y="-1071.38" font-family="Helvetica,sans-Serif" font-size="10.00">DONE</text>
<text xml:space="preserve" text-anchor="middle" x="210.85" y="-1060.12" font-family="Helvetica,sans-Serif" font-size="10.00">SPEC_docs</text>
<text xml:space="preserve" text-anchor="middle" x="210.85" y="-1048.88" font-family="Helvetica,sans-Serif" font-size="10.00">materialize frontdoor drift</text>
</g>
<!-- SPEC_runtime&#45;error&#45;reading&#45;basis&#45;guidance -->
<g id="node3" class="node">
<title>SPEC_runtime&#45;error&#45;reading&#45;basis&#45;guidance</title>
<path fill="#bbf7d0" stroke="#15803d" stroke-width="2.4" d="M446.45,-1085.91C446.45,-1085.91 356.3,-1085.91 356.3,-1085.91 350.3,-1085.91 344.3,-1079.91 344.3,-1073.91 344.3,-1073.91 344.3,-1054.09 344.3,-1054.09 344.3,-1048.09 350.3,-1042.09 356.3,-1042.09 356.3,-1042.09 446.45,-1042.09 446.45,-1042.09 452.45,-1042.09 458.45,-1048.09 458.45,-1054.09 458.45,-1054.09 458.45,-1073.91 458.45,-1073.91 458.45,-1079.91 452.45,-1085.91 446.45,-1085.91"/>
<text xml:space="preserve" text-anchor="middle" x="401.38" y="-1071.38" font-family="Helvetica,sans-Serif" font-size="10.00">DONE</text>
<text xml:space="preserve" text-anchor="middle" x="401.38" y="-1060.12" font-family="Helvetica,sans-Serif" font-size="10.00">SPEC_runtime&#45;error</text>
<text xml:space="preserve" text-anchor="middle" x="401.38" y="-1048.88" font-family="Helvetica,sans-Serif" font-size="10.00">reading&#45;basis guidance</text>
</g>
<!-- SPEC_docs&#45;materialize&#45;frontdoor&#45;drift&#45;&gt;SPEC_runtime&#45;error&#45;reading&#45;basis&#45;guidance -->
<g id="edge1" class="edge">
<title>SPEC_docs&#45;materialize&#45;frontdoor&#45;drift&#45;&gt;SPEC_runtime&#45;error&#45;reading&#45;basis&#45;guidance</title>
<path fill="none" stroke="#4b5563" stroke-width="1.1" d="M273.06,-1064C292.81,-1064 314.79,-1064 334.84,-1064"/>
<polygon fill="#4b5563" stroke="#4b5563" stroke-width="1.1" points="334.64,-1066.45 341.64,-1064 334.64,-1061.55 334.64,-1066.45"/>
</g>
<!-- SPEC_docs&#45;materialize&#45;frontdoor&#45;drift&#45;&gt;SPEC_materialize&#45;spy&#45;test&#45;clusters -->
<g id="edge5" class="edge">
<title>SPEC_docs&#45;materialize&#45;frontdoor&#45;drift&#45;&gt;SPEC_materialize&#45;spy&#45;test&#45;clusters</title>
<path fill="none" stroke="#4b5563" stroke-width="1.1" d="M243.78,-1040.89C312.34,-991.3 473.37,-874.78 547.64,-821.05"/>
<polygon fill="#4b5563" stroke="#4b5563" stroke-width="1.1" points="548.96,-823.11 553.2,-817.02 546.09,-819.14 548.96,-823.11"/>
</g>
<!-- SPEC_docs&#45;materialize&#45;frontdoor&#45;drift&#45;&gt;REL_full&#45;gate&#45;matrix&#45;green -->
<g id="edge26" class="edge">
<title>SPEC_docs&#45;materialize&#45;frontdoor&#45;drift&#45;&gt;REL_full&#45;gate&#45;matrix&#45;green</title>
<path fill="none" stroke="#4b5563" stroke-width="1.1" d="M226.99,-1086.84C246.85,-1114.49 284.58,-1159.64 330.05,-1178 460.98,-1230.85 548.37,-1233.79 644.1,-1130 706.47,-1062.38 730.36,-766.22 736.33,-674.9"/>
<polygon fill="#4b5563" stroke="#4b5563" stroke-width="1.1" points="738.76,-675.28 736.76,-668.14 733.87,-674.97 738.76,-675.28"/>
</g>
<!-- SPEC_runtime&#45;error&#45;reading&#45;basis&#45;guidance&#45;&gt;SPEC_materialize&#45;spy&#45;test&#45;clusters -->
<g id="edge6" class="edge">
<title>SPEC_runtime&#45;error&#45;reading&#45;basis&#45;guidance&#45;&gt;SPEC_materialize&#45;spy&#45;test&#45;clusters</title>
<path fill="none" stroke="#4b5563" stroke-width="1.1" d="M418.06,-1040.89C451.34,-991.9 528.96,-877.59 566.01,-823.02"/>
<polygon fill="#4b5563" stroke="#4b5563" stroke-width="1.1" points="567.91,-824.59 569.81,-817.42 563.86,-821.84 567.91,-824.59"/>
</g>
<!-- SPEC_runtime&#45;error&#45;reading&#45;basis&#45;guidance&#45;&gt;REL_full&#45;gate&#45;matrix&#45;green -->
<g id="edge27" class="edge">
<title>SPEC_runtime&#45;error&#45;reading&#45;basis&#45;guidance&#45;&gt;REL_full&#45;gate&#45;matrix&#45;green</title>
<path fill="none" stroke="#4b5563" stroke-width="1.1" d="M459.4,-1072.86C513.69,-1077.86 594.29,-1075.85 644.1,-1031 697.74,-982.7 726.67,-754.1 735.21,-675"/>
<polygon fill="#4b5563" stroke="#4b5563" stroke-width="1.1" points="737.63,-675.42 735.93,-668.2 732.75,-674.9 737.63,-675.42"/>
</g>
<!-- BND_checkpoint&#45;schema&#45;contract&#45;drift -->
<g id="node4" class="node">
<title>BND_checkpoint&#45;schema&#45;contract&#45;drift</title>
<path fill="#bbf7d0" stroke="#15803d" stroke-width="2.4" d="M252.18,-846.91C252.18,-846.91 169.53,-846.91 169.53,-846.91 163.53,-846.91 157.53,-840.91 157.53,-834.91 157.53,-834.91 157.53,-815.09 157.53,-815.09 157.53,-809.09 163.53,-803.09 169.53,-803.09 169.53,-803.09 252.18,-803.09 252.18,-803.09 258.18,-803.09 264.18,-809.09 264.18,-815.09 264.18,-815.09 264.18,-834.91 264.18,-834.91 264.18,-840.91 258.18,-846.91 252.18,-846.91"/>
<text xml:space="preserve" text-anchor="middle" x="210.85" y="-832.38" font-family="Helvetica,sans-Serif" font-size="10.00">DONE</text>
<text xml:space="preserve" text-anchor="middle" x="210.85" y="-821.12" font-family="Helvetica,sans-Serif" font-size="10.00">BND_checkpoint</text>
<text xml:space="preserve" text-anchor="middle" x="210.85" y="-809.88" font-family="Helvetica,sans-Serif" font-size="10.00">schema contract drift</text>
</g>
<!-- PORT_checkpoint&#45;controller&#45;reading&#45;basis -->
<g id="node6" class="node">
<title>PORT_checkpoint&#45;controller&#45;reading&#45;basis</title>
<path fill="#bbf7d0" stroke="#15803d" stroke-width="2.4" d="M458.08,-745.91C458.08,-745.91 344.68,-745.91 344.68,-745.91 338.68,-745.91 332.68,-739.91 332.68,-733.91 332.68,-733.91 332.68,-714.09 332.68,-714.09 332.68,-708.09 338.68,-702.09 344.68,-702.09 344.68,-702.09 458.08,-702.09 458.08,-702.09 464.08,-702.09 470.08,-708.09 470.08,-714.09 470.08,-714.09 470.08,-733.91 470.08,-733.91 470.08,-739.91 464.08,-745.91 458.08,-745.91"/>
<text xml:space="preserve" text-anchor="middle" x="401.38" y="-731.38" font-family="Helvetica,sans-Serif" font-size="10.00">DONE</text>
<text xml:space="preserve" text-anchor="middle" x="401.38" y="-720.12" font-family="Helvetica,sans-Serif" font-size="10.00">PORT_checkpoint&#45;controller</text>
<text xml:space="preserve" text-anchor="middle" x="401.38" y="-708.88" font-family="Helvetica,sans-Serif" font-size="10.00">reading basis</text>
</g>
<!-- BND_checkpoint&#45;schema&#45;contract&#45;drift&#45;&gt;PORT_checkpoint&#45;controller&#45;reading&#45;basis -->
<g id="edge2" class="edge">
<title>BND_checkpoint&#45;schema&#45;contract&#45;drift&#45;&gt;PORT_checkpoint&#45;controller&#45;reading&#45;basis</title>
<path fill="none" stroke="#4b5563" stroke-width="1.1" d="M254.63,-802.08C282.97,-786.9 320.27,-766.91 350.04,-750.96"/>
<polygon fill="#4b5563" stroke="#4b5563" stroke-width="1.1" points="350.96,-753.25 355.97,-747.79 348.64,-748.93 350.96,-753.25"/>
</g>
<!-- SPEC_checkpoint&#45;materialize&#45;test&#45;drift -->
<g id="node11" class="node">
<title>SPEC_checkpoint&#45;materialize&#45;test&#45;drift</title>
<path fill="#bbf7d0" stroke="#15803d" stroke-width="2.4" d="M625.73,-1014.91C625.73,-1014.91 549.08,-1014.91 549.08,-1014.91 543.08,-1014.91 537.08,-1008.91 537.08,-1002.91 537.08,-1002.91 537.08,-983.09 537.08,-983.09 537.08,-977.09 543.08,-971.09 549.08,-971.09 549.08,-971.09 625.73,-971.09 625.73,-971.09 631.73,-971.09 637.73,-977.09 637.73,-983.09 637.73,-983.09 637.73,-1002.91 637.73,-1002.91 637.73,-1008.91 631.73,-1014.91 625.73,-1014.91"/>
<text xml:space="preserve" text-anchor="middle" x="587.4" y="-1000.38" font-family="Helvetica,sans-Serif" font-size="10.00">DONE</text>
<text xml:space="preserve" text-anchor="middle" x="587.4" y="-989.12" font-family="Helvetica,sans-Serif" font-size="10.00">SPEC_checkpoint</text>
<text xml:space="preserve" text-anchor="middle" x="587.4" y="-977.88" font-family="Helvetica,sans-Serif" font-size="10.00">materialize test drift</text>
</g>
<!-- BND_checkpoint&#45;schema&#45;contract&#45;drift&#45;&gt;SPEC_checkpoint&#45;materialize&#45;test&#45;drift -->
<g id="edge11" class="edge">
<title>BND_checkpoint&#45;schema&#45;contract&#45;drift&#45;&gt;SPEC_checkpoint&#45;materialize&#45;test&#45;drift</title>
<path fill="none" stroke="#4b5563" stroke-width="1.1" d="M226.06,-847.9C245.6,-877.24 283.67,-927.27 330.05,-952 391.96,-985.02 473.37,-993.04 527.67,-994.26"/>
<polygon fill="#4b5563" stroke="#4b5563" stroke-width="1.1" points="527.44,-996.7 534.48,-994.37 527.52,-991.8 527.44,-996.7"/>
</g>
<!-- REL_quarantine&#45;graduate&#45;clean -->
<g id="node17" class="node">
<title>REL_quarantine&#45;graduate&#45;clean</title>
<path fill="#e5e7eb" stroke="#4b5563" stroke-width="1.2" d="M617.48,-420C617.48,-420 557.33,-420 557.33,-420 551.33,-420 545.33,-414 545.33,-408 545.33,-408 545.33,-396 545.33,-396 545.33,-390 551.33,-384 557.33,-384 557.33,-384 617.48,-384 617.48,-384 623.48,-384 629.48,-390 629.48,-396 629.48,-396 629.48,-408 629.48,-408 629.48,-414 623.48,-420 617.48,-420"/>
<text xml:space="preserve" text-anchor="middle" x="587.4" y="-403.75" font-family="Helvetica,sans-Serif" font-size="10.00">REL_quarantine</text>
<text xml:space="preserve" text-anchor="middle" x="587.4" y="-392.5" font-family="Helvetica,sans-Serif" font-size="10.00">graduate clean</text>
</g>
<!-- BND_checkpoint&#45;schema&#45;contract&#45;drift&#45;&gt;REL_quarantine&#45;graduate&#45;clean -->
<g id="edge15" class="edge">
<title>BND_checkpoint&#45;schema&#45;contract&#45;drift&#45;&gt;REL_quarantine&#45;graduate&#45;clean</title>
<path fill="none" stroke="#4b5563" stroke-width="1.1" d="M215.56,-802.08C225.26,-748.82 255.92,-615.1 330.05,-534 386.87,-471.84 479.71,-434.38 536.7,-415.99"/>
<polygon fill="#4b5563" stroke="#4b5563" stroke-width="1.1" points="537.31,-418.37 543.25,-413.92 535.83,-413.69 537.31,-418.37"/>
</g>
<!-- BND_checkpoint&#45;schema&#45;contract&#45;drift&#45;&gt;REL_full&#45;gate&#45;matrix&#45;green -->
<g id="edge28" class="edge">
<title>BND_checkpoint&#45;schema&#45;contract&#45;drift&#45;&gt;REL_full&#45;gate&#45;matrix&#45;green</title>
<path fill="none" stroke="#4b5563" stroke-width="1.1" d="M265.11,-842.63C351.71,-867.83 525.3,-903.59 644.1,-831 700.27,-796.67 724.2,-716.86 733.19,-674.89"/>
<polygon fill="#4b5563" stroke="#4b5563" stroke-width="1.1" points="735.57,-675.52 734.56,-668.17 730.76,-674.54 735.57,-675.52"/>
</g>
<!-- PORT_patch&#45;controller&#45;reading&#45;basis -->
<g id="node5" class="node">
<title>PORT_patch&#45;controller&#45;reading&#45;basis</title>
<path fill="#bbf7d0" stroke="#15803d" stroke-width="2.4" d="M255.93,-557.91C255.93,-557.91 165.78,-557.91 165.78,-557.91 159.78,-557.91 153.78,-551.91 153.78,-545.91 153.78,-545.91 153.78,-526.09 153.78,-526.09 153.78,-520.09 159.78,-514.09 165.78,-514.09 165.78,-514.09 255.93,-514.09 255.93,-514.09 261.93,-514.09 267.93,-520.09 267.93,-526.09 267.93,-526.09 267.93,-545.91 267.93,-545.91 267.93,-551.91 261.93,-557.91 255.93,-557.91"/>
<text xml:space="preserve" text-anchor="middle" x="210.85" y="-543.38" font-family="Helvetica,sans-Serif" font-size="10.00">DONE</text>
<text xml:space="preserve" text-anchor="middle" x="210.85" y="-532.12" font-family="Helvetica,sans-Serif" font-size="10.00">PORT_patch&#45;controller</text>
<text xml:space="preserve" text-anchor="middle" x="210.85" y="-520.88" font-family="Helvetica,sans-Serif" font-size="10.00">reading basis</text>
</g>
<!-- PORT_subscription&#45;controller&#45;reading&#45;basis -->
<g id="node7" class="node">
<title>PORT_subscription&#45;controller&#45;reading&#45;basis</title>
<path fill="#bbf7d0" stroke="#15803d" stroke-width="2.4" d="M460.7,-593.91C460.7,-593.91 342.05,-593.91 342.05,-593.91 336.05,-593.91 330.05,-587.91 330.05,-581.91 330.05,-581.91 330.05,-562.09 330.05,-562.09 330.05,-556.09 336.05,-550.09 342.05,-550.09 342.05,-550.09 460.7,-550.09 460.7,-550.09 466.7,-550.09 472.7,-556.09 472.7,-562.09 472.7,-562.09 472.7,-581.91 472.7,-581.91 472.7,-587.91 466.7,-593.91 460.7,-593.91"/>
<text xml:space="preserve" text-anchor="middle" x="401.38" y="-579.38" font-family="Helvetica,sans-Serif" font-size="10.00">DONE</text>
<text xml:space="preserve" text-anchor="middle" x="401.38" y="-568.12" font-family="Helvetica,sans-Serif" font-size="10.00">PORT_subscription&#45;controller</text>
<text xml:space="preserve" text-anchor="middle" x="401.38" y="-556.88" font-family="Helvetica,sans-Serif" font-size="10.00">reading basis</text>
</g>
<!-- PORT_patch&#45;controller&#45;reading&#45;basis&#45;&gt;PORT_subscription&#45;controller&#45;reading&#45;basis -->
<g id="edge3" class="edge">
<title>PORT_patch&#45;controller&#45;reading&#45;basis&#45;&gt;PORT_subscription&#45;controller&#45;reading&#45;basis</title>
<path fill="none" stroke="#4b5563" stroke-width="1.1" d="M268.93,-546.9C285.22,-550.01 303.29,-553.46 320.68,-556.78"/>
<polygon fill="#4b5563" stroke="#4b5563" stroke-width="1.1" points="320.18,-559.18 327.51,-558.09 321.1,-554.37 320.18,-559.18"/>
</g>
<!-- PORT_patch&#45;controller&#45;reading&#45;basis&#45;&gt;SPEC_materialize&#45;spy&#45;test&#45;clusters -->
<g id="edge7" class="edge">
<title>PORT_patch&#45;controller&#45;reading&#45;basis&#45;&gt;SPEC_materialize&#45;spy&#45;test&#45;clusters</title>
<path fill="none" stroke="#4b5563" stroke-width="1.1" d="M216.44,-558.94C227.13,-605.86 258.47,-712.54 330.05,-762 386,-800.66 465.67,-804.39 521.29,-801.01"/>
<polygon fill="#4b5563" stroke="#4b5563" stroke-width="1.1" points="521.18,-803.47 528,-800.55 520.85,-798.58 521.18,-803.47"/>
</g>
<!-- PORT_patch&#45;controller&#45;reading&#45;basis&#45;&gt;REL_quarantine&#45;graduate&#45;clean -->
<g id="edge16" class="edge">
<title>PORT_patch&#45;controller&#45;reading&#45;basis&#45;&gt;REL_quarantine&#45;graduate&#45;clean</title>
<path fill="none" stroke="#4b5563" stroke-width="1.1" d="M225.33,-512.89C244.33,-482.84 282.08,-431.67 330.05,-410 396.69,-379.9 483.32,-385.12 536.87,-392.74"/>
<polygon fill="#4b5563" stroke="#4b5563" stroke-width="1.1" points="536.24,-395.12 543.52,-393.73 536.96,-390.28 536.24,-395.12"/>
</g>
<!-- PORT_patch&#45;controller&#45;reading&#45;basis&#45;&gt;REL_full&#45;gate&#45;matrix&#45;green -->
<g id="edge29" class="edge">
<title>PORT_patch&#45;controller&#45;reading&#45;basis&#45;&gt;REL_full&#45;gate&#45;matrix&#45;green</title>
<path fill="none" stroke="#4b5563" stroke-width="1.1" d="M268.96,-534.84C288.35,-534.5 310.14,-534.17 330.05,-534 393.45,-533.46 410.22,-523.21 472.7,-534 552.38,-547.76 570.54,-561.44 644.1,-595 663.46,-603.83 684.14,-615.28 701.14,-625.28"/>
<polygon fill="#4b5563" stroke="#4b5563" stroke-width="1.1" points="699.49,-627.14 706.76,-628.61 701.99,-622.93 699.49,-627.14"/>
</g>
<!-- PORT_checkpoint&#45;controller&#45;reading&#45;basis&#45;&gt;SPEC_materialize&#45;spy&#45;test&#45;clusters -->
<g id="edge8" class="edge">
<title>PORT_checkpoint&#45;controller&#45;reading&#45;basis&#45;&gt;SPEC_materialize&#45;spy&#45;test&#45;clusters</title>
<path fill="none" stroke="#4b5563" stroke-width="1.1" d="M463.91,-747.07C482.47,-754.03 502.89,-761.69 521.65,-768.72"/>
<polygon fill="#4b5563" stroke="#4b5563" stroke-width="1.1" points="520.61,-770.95 528.02,-771.11 522.33,-766.36 520.61,-770.95"/>
</g>
<!-- PORT_checkpoint&#45;controller&#45;reading&#45;basis&#45;&gt;REL_quarantine&#45;graduate&#45;clean -->
<g id="edge17" class="edge">
<title>PORT_checkpoint&#45;controller&#45;reading&#45;basis&#45;&gt;REL_quarantine&#45;graduate&#45;clean</title>
<path fill="none" stroke="#4b5563" stroke-width="1.1" d="M454.96,-701.05C461.48,-696.7 467.62,-691.7 472.7,-686 541.83,-608.45 571.7,-483.6 581.95,-429.01"/>
<polygon fill="#4b5563" stroke="#4b5563" stroke-width="1.1" points="584.34,-429.53 583.18,-422.2 579.52,-428.65 584.34,-429.53"/>
</g>
<!-- PORT_checkpoint&#45;controller&#45;reading&#45;basis&#45;&gt;REL_full&#45;gate&#45;matrix&#45;green -->
<g id="edge30" class="edge">
<title>PORT_checkpoint&#45;controller&#45;reading&#45;basis&#45;&gt;REL_full&#45;gate&#45;matrix&#45;green</title>
<path fill="none" stroke="#4b5563" stroke-width="1.1" d="M471.1,-710.5C519.59,-700.73 586.01,-686.86 644.1,-673 660.3,-669.14 677.96,-664.53 693.56,-660.33"/>
<polygon fill="#4b5563" stroke="#4b5563" stroke-width="1.1" points="693.78,-662.81 699.89,-658.62 692.5,-658.08 693.78,-662.81"/>
</g>
<!-- PORT_subscription&#45;controller&#45;reading&#45;basis&#45;&gt;SPEC_materialize&#45;spy&#45;test&#45;clusters -->
<g id="edge9" class="edge">
<title>PORT_subscription&#45;controller&#45;reading&#45;basis&#45;&gt;SPEC_materialize&#45;spy&#45;test&#45;clusters</title>
<path fill="none" stroke="#4b5563" stroke-width="1.1" d="M452.62,-594.91C459.79,-599.34 466.74,-604.39 472.7,-610 520.19,-654.7 555.74,-723.41 573.58,-762.68"/>
<polygon fill="#4b5563" stroke="#4b5563" stroke-width="1.1" points="571.13,-763.22 576.23,-768.61 575.61,-761.22 571.13,-763.22"/>
</g>
<!-- PORT_subscription&#45;controller&#45;reading&#45;basis&#45;&gt;REL_quarantine&#45;graduate&#45;clean -->
<g id="edge18" class="edge">
<title>PORT_subscription&#45;controller&#45;reading&#45;basis&#45;&gt;REL_quarantine&#45;graduate&#45;clean</title>
<path fill="none" stroke="#4b5563" stroke-width="1.1" d="M427.19,-549.07C461.92,-516.99 524.72,-458.97 560.19,-426.22"/>
<polygon fill="#4b5563" stroke="#4b5563" stroke-width="1.1" points="561.77,-428.08 565.25,-421.53 558.45,-424.49 561.77,-428.08"/>
</g>
<!-- PORT_subscription&#45;controller&#45;reading&#45;basis&#45;&gt;REL_full&#45;gate&#45;matrix&#45;green -->
<g id="edge31" class="edge">
<title>PORT_subscription&#45;controller&#45;reading&#45;basis&#45;&gt;REL_full&#45;gate&#45;matrix&#45;green</title>
<path fill="none" stroke="#4b5563" stroke-width="1.1" d="M473.54,-588.12C539.96,-603.16 637.03,-625.15 693.21,-637.87"/>
<polygon fill="#4b5563" stroke="#4b5563" stroke-width="1.1" points="692.53,-640.23 699.9,-639.39 693.62,-635.45 692.53,-640.23"/>
</g>
<!-- PORT_sync&#45;controller&#45;reading&#45;basis -->
<g id="node8" class="node">
<title>PORT_sync&#45;controller&#45;reading&#45;basis</title>
<path fill="#bbf7d0" stroke="#15803d" stroke-width="2.4" d="M444.95,-669.91C444.95,-669.91 357.8,-669.91 357.8,-669.91 351.8,-669.91 345.8,-663.91 345.8,-657.91 345.8,-657.91 345.8,-638.09 345.8,-638.09 345.8,-632.09 351.8,-626.09 357.8,-626.09 357.8,-626.09 444.95,-626.09 444.95,-626.09 450.95,-626.09 456.95,-632.09 456.95,-638.09 456.95,-638.09 456.95,-657.91 456.95,-657.91 456.95,-663.91 450.95,-669.91 444.95,-669.91"/>
<text xml:space="preserve" text-anchor="middle" x="401.38" y="-655.38" font-family="Helvetica,sans-Serif" font-size="10.00">DONE</text>
<text xml:space="preserve" text-anchor="middle" x="401.38" y="-644.12" font-family="Helvetica,sans-Serif" font-size="10.00">PORT_sync&#45;controller</text>
<text xml:space="preserve" text-anchor="middle" x="401.38" y="-632.88" font-family="Helvetica,sans-Serif" font-size="10.00">reading basis</text>
</g>
<!-- PORT_sync&#45;controller&#45;reading&#45;basis&#45;&gt;SPEC_materialize&#45;spy&#45;test&#45;clusters -->
<g id="edge10" class="edge">
<title>PORT_sync&#45;controller&#45;reading&#45;basis&#45;&gt;SPEC_materialize&#45;spy&#45;test&#45;clusters</title>
<path fill="none" stroke="#4b5563" stroke-width="1.1" d="M449.19,-671.08C457.25,-675.67 465.39,-680.72 472.7,-686 505.04,-709.35 537.78,-741.21 559.76,-764.08"/>
<polygon fill="#4b5563" stroke="#4b5563" stroke-width="1.1" points="557.92,-765.7 564.52,-769.08 561.46,-762.32 557.92,-765.7"/>
</g>
<!-- PORT_sync&#45;controller&#45;reading&#45;basis&#45;&gt;REL_quarantine&#45;graduate&#45;clean -->
<g id="edge19" class="edge">
<title>PORT_sync&#45;controller&#45;reading&#45;basis&#45;&gt;REL_quarantine&#45;graduate&#45;clean</title>
<path fill="none" stroke="#4b5563" stroke-width="1.1" d="M453.63,-624.93C460.5,-620.56 467.09,-615.58 472.7,-610 526.85,-556.11 562.25,-471.01 577.62,-428.3"/>
<polygon fill="#4b5563" stroke="#4b5563" stroke-width="1.1" points="579.86,-429.33 579.88,-421.91 575.24,-427.7 579.86,-429.33"/>
</g>
<!-- PORT_sync&#45;controller&#45;reading&#45;basis&#45;&gt;REL_full&#45;gate&#45;matrix&#45;green -->
<g id="edge32" class="edge">
<title>PORT_sync&#45;controller&#45;reading&#45;basis&#45;&gt;REL_full&#45;gate&#45;matrix&#45;green</title>
<path fill="none" stroke="#4b5563" stroke-width="1.1" d="M457.78,-648C523.61,-648 632.13,-648 692.98,-648"/>
<polygon fill="#4b5563" stroke="#4b5563" stroke-width="1.1" points="692.94,-650.45 699.94,-648 692.94,-645.55 692.94,-650.45"/>
</g>
<!-- SPEC_materialize&#45;spy&#45;test&#45;clusters&#45;&gt;REL_full&#45;gate&#45;matrix&#45;green -->
<g id="edge33" class="edge">
<title>SPEC_materialize&#45;spy&#45;test&#45;clusters&#45;&gt;REL_full&#45;gate&#45;matrix&#45;green</title>
<path fill="none" stroke="#4b5563" stroke-width="1.1" d="M615.4,-769.97C624.64,-761.9 634.94,-752.69 644.1,-744 668.96,-720.41 696.23,-692.23 714.93,-672.53"/>
<polygon fill="#4b5563" stroke="#4b5563" stroke-width="1.1" points="716.51,-674.43 719.54,-667.66 712.95,-671.06 716.51,-674.43"/>
</g>
<!-- SPEC_observer&#45;coordinate&#45;pinning -->
<g id="node10" class="node">
<title>SPEC_observer&#45;coordinate&#45;pinning</title>
<path fill="#bbf7d0" stroke="#15803d" stroke-width="2.4" d="M435.95,-111.91C435.95,-111.91 366.8,-111.91 366.8,-111.91 360.8,-111.91 354.8,-105.91 354.8,-99.91 354.8,-99.91 354.8,-80.09 354.8,-80.09 354.8,-74.09 360.8,-68.09 366.8,-68.09 366.8,-68.09 435.95,-68.09 435.95,-68.09 441.95,-68.09 447.95,-74.09 447.95,-80.09 447.95,-80.09 447.95,-99.91 447.95,-99.91 447.95,-105.91 441.95,-111.91 435.95,-111.91"/>
<text xml:space="preserve" text-anchor="middle" x="401.38" y="-97.38" font-family="Helvetica,sans-Serif" font-size="10.00">DONE</text>
<text xml:space="preserve" text-anchor="middle" x="401.38" y="-86.12" font-family="Helvetica,sans-Serif" font-size="10.00">SPEC_observer</text>
<text xml:space="preserve" text-anchor="middle" x="401.38" y="-74.88" font-family="Helvetica,sans-Serif" font-size="10.00">coordinate pinning</text>
</g>
<!-- SPEC_observer&#45;coordinate&#45;pinning&#45;&gt;REL_quarantine&#45;graduate&#45;clean -->
<g id="edge20" class="edge">
<title>SPEC_observer&#45;coordinate&#45;pinning&#45;&gt;REL_quarantine&#45;graduate&#45;clean</title>
<path fill="none" stroke="#4b5563" stroke-width="1.1" d="M449.1,-108.89C457.82,-114.06 466.22,-120.4 472.7,-128 523.39,-187.48 499.82,-222.21 530.7,-294 543.1,-322.83 559.89,-354.61 571.79,-376.19"/>
<polygon fill="#4b5563" stroke="#4b5563" stroke-width="1.1" points="569.58,-377.27 575.12,-382.2 573.87,-374.89 569.58,-377.27"/>
</g>
<!-- SPEC_observer&#45;coordinate&#45;pinning&#45;&gt;REL_full&#45;gate&#45;matrix&#45;green -->
<g id="edge34" class="edge">
<title>SPEC_observer&#45;coordinate&#45;pinning&#45;&gt;REL_full&#45;gate&#45;matrix&#45;green</title>
<path fill="none" stroke="#4b5563" stroke-width="1.1" d="M449.13,-110.53C457.55,-115.5 465.83,-121.33 472.7,-128 509.57,-163.78 493.91,-192.13 530.7,-228 571.83,-268.1 608.73,-244.74 644.1,-290 724.21,-392.5 736.29,-556.81 737.84,-621.04"/>
<polygon fill="#4b5563" stroke="#4b5563" stroke-width="1.1" points="735.39,-620.8 737.97,-627.76 740.29,-620.71 735.39,-620.8"/>
</g>
<!-- SPEC_checkpoint&#45;materialize&#45;test&#45;drift&#45;&gt;REL_full&#45;gate&#45;matrix&#45;green -->
<g id="edge35" class="edge">
<title>SPEC_checkpoint&#45;materialize&#45;test&#45;drift&#45;&gt;REL_full&#45;gate&#45;matrix&#45;green</title>
<path fill="none" stroke="#4b5563" stroke-width="1.1" d="M622.66,-969.96C630.58,-963.32 638.36,-955.53 644.1,-947 703.65,-858.49 727.02,-730.15 734.7,-674.92"/>
<polygon fill="#4b5563" stroke="#4b5563" stroke-width="1.1" points="737.12,-675.31 735.62,-668.05 732.26,-674.66 737.12,-675.31"/>
</g>
<!-- SPEC_uniform&#45;git&#45;cas&#45;upgrade&#45;contract&#45;drift -->
<g id="node12" class="node">
<title>SPEC_uniform&#45;git&#45;cas&#45;upgrade&#45;contract&#45;drift</title>
<path fill="#bbf7d0" stroke="#15803d" stroke-width="2.4" d="M631.35,-153.91C631.35,-153.91 543.45,-153.91 543.45,-153.91 537.45,-153.91 531.45,-147.91 531.45,-141.91 531.45,-141.91 531.45,-122.09 531.45,-122.09 531.45,-116.09 537.45,-110.09 543.45,-110.09 543.45,-110.09 631.35,-110.09 631.35,-110.09 637.35,-110.09 643.35,-116.09 643.35,-122.09 643.35,-122.09 643.35,-141.91 643.35,-141.91 643.35,-147.91 637.35,-153.91 631.35,-153.91"/>
<text xml:space="preserve" text-anchor="middle" x="587.4" y="-139.38" font-family="Helvetica,sans-Serif" font-size="10.00">DONE</text>
<text xml:space="preserve" text-anchor="middle" x="587.4" y="-128.12" font-family="Helvetica,sans-Serif" font-size="10.00">SPEC_uniform&#45;git&#45;cas</text>
<text xml:space="preserve" text-anchor="middle" x="587.4" y="-116.88" font-family="Helvetica,sans-Serif" font-size="10.00">upgrade contract drift</text>
</g>
<!-- SPEC_uniform&#45;git&#45;cas&#45;upgrade&#45;contract&#45;drift&#45;&gt;REL_full&#45;gate&#45;matrix&#45;green -->
<g id="edge36" class="edge">
<title>SPEC_uniform&#45;git&#45;cas&#45;upgrade&#45;contract&#45;drift&#45;&gt;REL_full&#45;gate&#45;matrix&#45;green</title>
<path fill="none" stroke="#4b5563" stroke-width="1.1" d="M623.59,-154.87C631.4,-161.47 638.89,-169.28 644.1,-178 733.33,-327.27 739.4,-546.08 738.62,-621.39"/>
<polygon fill="#4b5563" stroke="#4b5563" stroke-width="1.1" points="736.17,-621.15 738.52,-628.18 741.07,-621.22 736.17,-621.15"/>
</g>
<!-- HEX_sync&#45;secret&#45;plain&#45;string -->
<g id="node13" class="node">
<title>HEX_sync&#45;secret&#45;plain&#45;string</title>
<path fill="#bbf7d0" stroke="#15803d" stroke-width="2.4" d="M79.65,-255.91C79.65,-255.91 12,-255.91 12,-255.91 6,-255.91 0,-249.91 0,-243.91 0,-243.91 0,-224.09 0,-224.09 0,-218.09 6,-212.09 12,-212.09 12,-212.09 79.65,-212.09 79.65,-212.09 85.65,-212.09 91.65,-218.09 91.65,-224.09 91.65,-224.09 91.65,-243.91 91.65,-243.91 91.65,-249.91 85.65,-255.91 79.65,-255.91"/>
<text xml:space="preserve" text-anchor="middle" x="45.83" y="-241.38" font-family="Helvetica,sans-Serif" font-size="10.00">DONE</text>
<text xml:space="preserve" text-anchor="middle" x="45.83" y="-230.12" font-family="Helvetica,sans-Serif" font-size="10.00">HEX_sync&#45;secret</text>
<text xml:space="preserve" text-anchor="middle" x="45.83" y="-218.88" font-family="Helvetica,sans-Serif" font-size="10.00">plain string</text>
</g>
<!-- HEX_sync&#45;production&#45;auth&#45;defaults -->
<g id="node14" class="node">
<title>HEX_sync&#45;production&#45;auth&#45;defaults</title>
<path fill="#bbf7d0" stroke="#15803d" stroke-width="2.4" d="M253.68,-220.91C253.68,-220.91 168.03,-220.91 168.03,-220.91 162.03,-220.91 156.03,-214.91 156.03,-208.91 156.03,-208.91 156.03,-189.09 156.03,-189.09 156.03,-183.09 162.03,-177.09 168.03,-177.09 168.03,-177.09 253.68,-177.09 253.68,-177.09 259.68,-177.09 265.68,-183.09 265.68,-189.09 265.68,-189.09 265.68,-208.91 265.68,-208.91 265.68,-214.91 259.68,-220.91 253.68,-220.91"/>
<text xml:space="preserve" text-anchor="middle" x="210.85" y="-206.38" font-family="Helvetica,sans-Serif" font-size="10.00">DONE</text>
<text xml:space="preserve" text-anchor="middle" x="210.85" y="-195.12" font-family="Helvetica,sans-Serif" font-size="10.00">HEX_sync&#45;production</text>
<text xml:space="preserve" text-anchor="middle" x="210.85" y="-183.88" font-family="Helvetica,sans-Serif" font-size="10.00">auth defaults</text>
</g>
<!-- HEX_sync&#45;secret&#45;plain&#45;string&#45;&gt;HEX_sync&#45;production&#45;auth&#45;defaults -->
<g id="edge12" class="edge">
<title>HEX_sync&#45;secret&#45;plain&#45;string&#45;&gt;HEX_sync&#45;production&#45;auth&#45;defaults</title>
<path fill="none" stroke="#4b5563" stroke-width="1.1" d="M92.67,-224.16C109.49,-220.55 128.84,-216.39 146.91,-212.51"/>
<polygon fill="#4b5563" stroke="#4b5563" stroke-width="1.1" points="147.15,-214.97 153.47,-211.1 146.12,-210.18 147.15,-214.97"/>
</g>
<!-- HEX_sync&#45;secret&#45;plain&#45;string&#45;&gt;REL_quarantine&#45;graduate&#45;clean -->
<g id="edge21" class="edge">
<title>HEX_sync&#45;secret&#45;plain&#45;string&#45;&gt;REL_quarantine&#45;graduate&#45;clean</title>
<path fill="none" stroke="#4b5563" stroke-width="1.1" d="M92.83,-248.32C193.57,-279.69 432.96,-354.23 536.86,-386.58"/>
<polygon fill="#4b5563" stroke="#4b5563" stroke-width="1.1" points="536,-388.87 543.41,-388.61 537.45,-384.19 536,-388.87"/>
</g>
<!-- HEX_sync&#45;no&#45;rate&#45;limiting -->
<g id="node15" class="node">
<title>HEX_sync&#45;no&#45;rate&#45;limiting</title>
<path fill="#bbf7d0" stroke="#15803d" stroke-width="2.4" d="M428.45,-187.91C428.45,-187.91 374.3,-187.91 374.3,-187.91 368.3,-187.91 362.3,-181.91 362.3,-175.91 362.3,-175.91 362.3,-156.09 362.3,-156.09 362.3,-150.09 368.3,-144.09 374.3,-144.09 374.3,-144.09 428.45,-144.09 428.45,-144.09 434.45,-144.09 440.45,-150.09 440.45,-156.09 440.45,-156.09 440.45,-175.91 440.45,-175.91 440.45,-181.91 434.45,-187.91 428.45,-187.91"/>
<text xml:space="preserve" text-anchor="middle" x="401.38" y="-173.38" font-family="Helvetica,sans-Serif" font-size="10.00">DONE</text>
<text xml:space="preserve" text-anchor="middle" x="401.38" y="-162.12" font-family="Helvetica,sans-Serif" font-size="10.00">HEX_sync</text>
<text xml:space="preserve" text-anchor="middle" x="401.38" y="-150.88" font-family="Helvetica,sans-Serif" font-size="10.00">no rate limiting</text>
</g>
<!-- HEX_sync&#45;production&#45;auth&#45;defaults&#45;&gt;HEX_sync&#45;no&#45;rate&#45;limiting -->
<g id="edge13" class="edge">
<title>HEX_sync&#45;production&#45;auth&#45;defaults&#45;&gt;HEX_sync&#45;no&#45;rate&#45;limiting</title>
<path fill="none" stroke="#4b5563" stroke-width="1.1" d="M266.63,-189.41C294,-184.62 326.79,-178.88 353.05,-174.28"/>
<polygon fill="#4b5563" stroke="#4b5563" stroke-width="1.1" points="353.22,-176.74 359.7,-173.12 352.38,-171.91 353.22,-176.74"/>
</g>
<!-- HEX_sync&#45;500&#45;sanitization -->
<g id="node16" class="node">
<title>HEX_sync&#45;500&#45;sanitization</title>
<path fill="#fee2e2" stroke="#4b5563" stroke-width="1.2" d="M430.7,-36C430.7,-36 372.05,-36 372.05,-36 366.05,-36 360.05,-30 360.05,-24 360.05,-24 360.05,-12 360.05,-12 360.05,-6 366.05,0 372.05,0 372.05,0 430.7,0 430.7,0 436.7,0 442.7,-6 442.7,-12 442.7,-12 442.7,-24 442.7,-24 442.7,-30 436.7,-36 430.7,-36"/>
<text xml:space="preserve" text-anchor="middle" x="401.38" y="-19.75" font-family="Helvetica,sans-Serif" font-size="10.00">HEX_sync</text>
<text xml:space="preserve" text-anchor="middle" x="401.38" y="-8.5" font-family="Helvetica,sans-Serif" font-size="10.00">500 sanitization</text>
</g>
<!-- HEX_sync&#45;production&#45;auth&#45;defaults&#45;&gt;HEX_sync&#45;500&#45;sanitization -->
<g id="edge14" class="edge">
<title>HEX_sync&#45;production&#45;auth&#45;defaults&#45;&gt;HEX_sync&#45;500&#45;sanitization</title>
<path fill="none" stroke="#4b5563" stroke-width="1.1" d="M225.71,-175.95C245.55,-144.54 284.69,-88.08 330.05,-52 336.66,-46.74 344.21,-42.03 351.86,-37.92"/>
<polygon fill="#4b5563" stroke="#4b5563" stroke-width="1.1" points="352.91,-40.13 358.02,-34.76 350.67,-35.77 352.91,-40.13"/>
</g>
<!-- HEX_sync&#45;production&#45;auth&#45;defaults&#45;&gt;REL_quarantine&#45;graduate&#45;clean -->
<g id="edge22" class="edge">
<title>HEX_sync&#45;production&#45;auth&#45;defaults&#45;&gt;REL_quarantine&#45;graduate&#45;clean</title>
<path fill="none" stroke="#4b5563" stroke-width="1.1" d="M266.64,-205.04C322.85,-213.51 410.61,-233.24 472.7,-278 508.91,-304.1 499.62,-327.96 530.7,-360 537.03,-366.52 544.43,-372.83 551.73,-378.49"/>
<polygon fill="#4b5563" stroke="#4b5563" stroke-width="1.1" points="549.98,-380.24 557.05,-382.49 552.93,-376.32 549.98,-380.24"/>
</g>
<!-- HEX_sync&#45;no&#45;rate&#45;limiting&#45;&gt;REL_quarantine&#45;graduate&#45;clean -->
<g id="edge23" class="edge">
<title>HEX_sync&#45;no&#45;rate&#45;limiting&#45;&gt;REL_quarantine&#45;graduate&#45;clean</title>
<path fill="none" stroke="#4b5563" stroke-width="1.1" d="M441.56,-185.62C452.77,-192.71 464.23,-201.58 472.7,-212 517.26,-266.82 487.99,-303.72 530.7,-360 535.81,-366.73 542.26,-372.91 548.96,-378.34"/>
<polygon fill="#4b5563" stroke="#4b5563" stroke-width="1.1" points="547.33,-380.18 554.37,-382.5 550.31,-376.29 547.33,-380.18"/>
</g>
<!-- HEX_sync&#45;no&#45;rate&#45;limiting&#45;&gt;REL_full&#45;gate&#45;matrix&#45;green -->
<g id="edge37" class="edge">
<title>HEX_sync&#45;no&#45;rate&#45;limiting&#45;&gt;REL_full&#45;gate&#45;matrix&#45;green</title>
<path fill="none" stroke="#4b5563" stroke-width="1.1" d="M441.65,-186.66C452.36,-193.31 463.54,-201.24 472.7,-210 505.5,-241.35 498.2,-262.34 530.7,-294 573.81,-336 607.3,-320.38 644.1,-368 705.15,-446.99 727.61,-567.83 734.87,-621.14"/>
<polygon fill="#4b5563" stroke="#4b5563" stroke-width="1.1" points="732.43,-621.41 735.76,-628.04 737.29,-620.78 732.43,-621.41"/>
</g>
<!-- HEX_sync&#45;500&#45;sanitization&#45;&gt;REL_quarantine&#45;graduate&#45;clean -->
<g id="edge24" class="edge">
<title>HEX_sync&#45;500&#45;sanitization&#45;&gt;REL_quarantine&#45;graduate&#45;clean</title>
<path fill="none" stroke="#4b5563" stroke-width="1.1" d="M442.98,-30.92C453.85,-36.02 464.77,-42.9 472.7,-52 475.49,-55.2 552.17,-294.81 578,-375.68"/>
<polygon fill="#4b5563" stroke="#4b5563" stroke-width="1.1" points="575.64,-376.36 580.11,-382.28 580.31,-374.87 575.64,-376.36"/>
</g>
<!-- HEX_sync&#45;500&#45;sanitization&#45;&gt;REL_full&#45;gate&#45;matrix&#45;green -->
<g id="edge38" class="edge">
<title>HEX_sync&#45;500&#45;sanitization&#45;&gt;REL_full&#45;gate&#45;matrix&#45;green</title>
<path fill="none" stroke="#4b5563" stroke-width="1.1" d="M443.28,-32.19C453.78,-37.25 464.43,-43.78 472.7,-52 514.16,-93.19 489.12,-128.94 530.7,-170 570.42,-209.23 609.34,-180.32 644.1,-224 694.03,-286.76 725.77,-538.04 735.07,-621.15"/>
<polygon fill="#4b5563" stroke="#4b5563" stroke-width="1.1" points="732.61,-621.21 735.82,-627.9 737.48,-620.67 732.61,-621.21"/>
</g>
<!-- REL_quarantine&#45;graduate&#45;clean&#45;&gt;REL_full&#45;gate&#45;matrix&#45;green -->
<g id="edge39" class="edge">
<title>REL_quarantine&#45;graduate&#45;clean&#45;&gt;REL_full&#45;gate&#45;matrix&#45;green</title>
<path fill="none" stroke="#4b5563" stroke-width="1.1" d="M603.37,-420.32C615.06,-434.97 631.39,-456.26 644.1,-476 676.16,-525.77 708,-587.37 725.09,-621.71"/>
<polygon fill="#4b5563" stroke="#4b5563" stroke-width="1.1" points="722.87,-622.74 728.17,-627.93 727.26,-620.57 722.87,-622.74"/>
</g>
<!-- REL_release&#45;cut&#45;version&#45;changelog -->
<g id="node19" class="node">
<title>REL_release&#45;cut&#45;version&#45;changelog</title>
<path fill="#dcfce7" stroke="#4b5563" stroke-width="1.2" d="M923.9,-666C923.9,-666 845.75,-666 845.75,-666 839.75,-666 833.75,-660 833.75,-654 833.75,-654 833.75,-642 833.75,-642 833.75,-636 839.75,-630 845.75,-630 845.75,-630 923.9,-630 923.9,-630 929.9,-630 935.9,-636 935.9,-642 935.9,-642 935.9,-654 935.9,-654 935.9,-660 929.9,-666 923.9,-666"/>
<text xml:space="preserve" text-anchor="middle" x="884.83" y="-649.75" font-family="Helvetica,sans-Serif" font-size="10.00">REL_release cut</text>
<text xml:space="preserve" text-anchor="middle" x="884.83" y="-638.5" font-family="Helvetica,sans-Serif" font-size="10.00">version + changelog</text>
</g>
<!-- REL_full&#45;gate&#45;matrix&#45;green&#45;&gt;REL_release&#45;cut&#45;version&#45;changelog -->
<g id="edge40" class="edge">
<title>REL_full&#45;gate&#45;matrix&#45;green&#45;&gt;REL_release&#45;cut&#45;version&#45;changelog</title>
<path fill="none" stroke="#4b5563" stroke-width="1.1" d="M776.24,-648C790.98,-648 808.4,-648 824.88,-648"/>
<polygon fill="#4b5563" stroke="#4b5563" stroke-width="1.1" points="824.73,-650.45 831.73,-648 824.73,-645.55 824.73,-650.45"/>
</g>
<!-- REL_release&#45;preflight&#45;and&#45;rc -->
<g id="node20" class="node">
<title>REL_release&#45;preflight&#45;and&#45;rc</title>
<path fill="#dcfce7" stroke="#4b5563" stroke-width="1.2" d="M1057.8,-666C1057.8,-666 1005.9,-666 1005.9,-666 999.9,-666 993.9,-660 993.9,-654 993.9,-654 993.9,-642 993.9,-642 993.9,-636 999.9,-630 1005.9,-630 1005.9,-630 1057.8,-630 1057.8,-630 1063.8,-630 1069.8,-636 1069.8,-642 1069.8,-642 1069.8,-654 1069.8,-654 1069.8,-660 1063.8,-666 1057.8,-666"/>
<text xml:space="preserve" text-anchor="middle" x="1031.85" y="-649.75" font-family="Helvetica,sans-Serif" font-size="10.00">REL_release</text>
<text xml:space="preserve" text-anchor="middle" x="1031.85" y="-638.5" font-family="Helvetica,sans-Serif" font-size="10.00">preflight + RC</text>
</g>
<!-- REL_release&#45;cut&#45;version&#45;changelog&#45;&gt;REL_release&#45;preflight&#45;and&#45;rc -->
<g id="edge41" class="edge">
<title>REL_release&#45;cut&#45;version&#45;changelog&#45;&gt;REL_release&#45;preflight&#45;and&#45;rc</title>
<path fill="none" stroke="#4b5563" stroke-width="1.1" d="M936.14,-648C952.02,-648 969.46,-648 985.01,-648"/>
<polygon fill="#4b5563" stroke="#4b5563" stroke-width="1.1" points="984.77,-650.45 991.77,-648 984.77,-645.55 984.77,-650.45"/>
</g>
<!-- REL_push&#45;pr&#45;review&#45;merge -->
<g id="node21" class="node">
<title>REL_push&#45;pr&#45;review&#45;merge</title>
<path fill="#dcfce7" stroke="#4b5563" stroke-width="1.2" d="M1199.2,-666C1199.2,-666 1139.8,-666 1139.8,-666 1133.8,-666 1127.8,-660 1127.8,-654 1127.8,-654 1127.8,-642 1127.8,-642 1127.8,-636 1133.8,-630 1139.8,-630 1139.8,-630 1199.2,-630 1199.2,-630 1205.2,-630 1211.2,-636 1211.2,-642 1211.2,-642 1211.2,-654 1211.2,-654 1211.2,-660 1205.2,-666 1199.2,-666"/>
<text xml:space="preserve" text-anchor="middle" x="1169.5" y="-649.75" font-family="Helvetica,sans-Serif" font-size="10.00">REL_push / PR</text>
<text xml:space="preserve" text-anchor="middle" x="1169.5" y="-638.5" font-family="Helvetica,sans-Serif" font-size="10.00">review / merge</text>
</g>
<!-- REL_release&#45;preflight&#45;and&#45;rc&#45;&gt;REL_push&#45;pr&#45;review&#45;merge -->
<g id="edge42" class="edge">
<title>REL_release&#45;preflight&#45;and&#45;rc&#45;&gt;REL_push&#45;pr&#45;review&#45;merge</title>
<path fill="none" stroke="#4b5563" stroke-width="1.1" d="M1070.28,-648C1085.37,-648 1102.99,-648 1119.11,-648"/>
<polygon fill="#4b5563" stroke="#4b5563" stroke-width="1.1" points="1118.72,-650.45 1125.72,-648 1118.72,-645.55 1118.72,-650.45"/>
</g>
</g>
</svg>
