<?xml version="1.0" encoding="UTF-8" standalone="no"?>
<!DOCTYPE svg PUBLIC "-//W3C//DTD SVG 1.1//EN"
 "http://www.w3.org/Graphics/SVG/1.1/DTD/svg11.dtd">
<!-- Generated by graphviz version 14.1.2 (20260124.0452)
 -->
<!-- Title: V17ReleaseBlockers Pages: 1 -->
<svg width="1248pt" height="1286pt"
 viewBox="14.00 14.00 1234.00 1271.00" xmlns="http://www.w3.org/2000/svg" xmlns:xlink="http://www.w3.org/1999/xlink">
<g id="graph0" class="graph" transform="scale(1 1) rotate(0) translate(18.4 1267.4)">
<title>V17ReleaseBlockers</title>
<polygon fill="white" stroke="none" points="-4,4 -4,-1253 1215.2,-1253 1215.2,4 -4,4"/>
<text xml:space="preserve" text-anchor="middle" x="605.6" y="-1227.9" font-family="Helvetica,sans-Serif" font-size="18.00">v17.0.0 Release Blocker DAG</text>
<!-- SPEC_consumer&#45;typecheck&#45;materialize&#45;residue -->
<g id="node1" class="node">
<title>SPEC_consumer&#45;typecheck&#45;materialize&#45;residue</title>
<path fill="#bbf7d0" stroke="#15803d" stroke-width="2.4" d="M458.45,-1169.83C458.45,-1169.83 344.3,-1169.83 344.3,-1169.83 338.3,-1169.83 332.3,-1163.83 332.3,-1157.83 332.3,-1157.83 332.3,-1138 332.3,-1138 332.3,-1132 338.3,-1126 344.3,-1126 344.3,-1126 458.45,-1126 458.45,-1126 464.45,-1126 470.45,-1132 470.45,-1138 470.45,-1138 470.45,-1157.83 470.45,-1157.83 470.45,-1163.83 464.45,-1169.83 458.45,-1169.83"/>
<text xml:space="preserve" text-anchor="middle" x="401.38" y="-1155.29" font-family="Helvetica,sans-Serif" font-size="10.00">DONE</text>
<text xml:space="preserve" text-anchor="middle" x="401.38" y="-1144.04" font-family="Helvetica,sans-Serif" font-size="10.00">SPEC_consumer&#45;typecheck</text>
<text xml:space="preserve" text-anchor="middle" x="401.38" y="-1132.79" font-family="Helvetica,sans-Serif" font-size="10.00">materialize residue</text>
</g>
<!-- SPEC_materialize&#45;spy&#45;test&#45;clusters -->
<g id="node9" class="node">
<title>SPEC_materialize&#45;spy&#45;test&#45;clusters</title>
<path fill="#bbf7d0" stroke="#15803d" stroke-width="2.4" d="M632.1,-822.83C632.1,-822.83 542.7,-822.83 542.7,-822.83 536.7,-822.83 530.7,-816.83 530.7,-810.83 530.7,-810.83 530.7,-791 530.7,-791 530.7,-785 536.7,-779 542.7,-779 542.7,-779 632.1,-779 632.1,-779 638.1,-779 644.1,-785 644.1,-791 644.1,-791 644.1,-810.83 644.1,-810.83 644.1,-816.83 638.1,-822.83 632.1,-822.83"/>
<text xml:space="preserve" text-anchor="middle" x="587.4" y="-808.29" font-family="Helvetica,sans-Serif" font-size="10.00">DONE</text>
<text xml:space="preserve" text-anchor="middle" x="587.4" y="-797.04" font-family="Helvetica,sans-Serif" font-size="10.00">SPEC_materialize&#45;spy</text>
<text xml:space="preserve" text-anchor="middle" x="587.4" y="-785.79" font-family="Helvetica,sans-Serif" font-size="10.00">test clusters</text>
</g>
<!-- SPEC_consumer&#45;typecheck&#45;materialize&#45;residue&#45;&gt;SPEC_materialize&#45;spy&#45;test&#45;clusters -->
<g id="edge4" class="edge">
<title>SPEC_consumer&#45;typecheck&#45;materialize&#45;residue&#45;&gt;SPEC_materialize&#45;spy&#45;test&#45;clusters</title>
<path fill="none" stroke="#4b5563" stroke-width="1.1" d="M455.47,-1124.85C461.83,-1120.54 467.79,-1115.58 472.7,-1109.91 482.29,-1098.84 549.45,-907.3 575.81,-831.47"/>
<polygon fill="#4b5563" stroke="#4b5563" stroke-width="1.1" points="578,-832.64 577.98,-825.23 573.37,-831.04 578,-832.64"/>
</g>
<!-- REL_full&#45;gate&#45;matrix&#45;green -->
<g id="node18" class="node">
<title>REL_full&#45;gate&#45;matrix&#45;green</title>
<path fill="#dcfce7" stroke="#4b5563" stroke-width="1.2" d="M763.75,-673.91C763.75,-673.91 714.1,-673.91 714.1,-673.91 708.1,-673.91 702.1,-667.91 702.1,-661.91 702.1,-661.91 702.1,-649.91 702.1,-649.91 702.1,-643.91 708.1,-637.91 714.1,-637.91 714.1,-637.91 763.75,-637.91 763.75,-637.91 769.75,-637.91 775.75,-643.91 775.75,-649.91 775.75,-649.91 775.75,-661.91 775.75,-661.91 775.75,-667.91 769.75,-673.91 763.75,-673.91"/>
<text xml:space="preserve" text-anchor="middle" x="738.93" y="-657.66" font-family="Helvetica,sans-Serif" font-size="10.00">REL_full gate</text>
<text xml:space="preserve" text-anchor="middle" x="738.93" y="-646.41" font-family="Helvetica,sans-Serif" font-size="10.00">matrix green</text>
</g>
<!-- SPEC_consumer&#45;typecheck&#45;materialize&#45;residue&#45;&gt;REL_full&#45;gate&#45;matrix&#45;green -->
<g id="edge25" class="edge">
<title>SPEC_consumer&#45;typecheck&#45;materialize&#45;residue&#45;&gt;REL_full&#45;gate&#45;matrix&#45;green</title>
<path fill="none" stroke="#4b5563" stroke-width="1.1" d="M471.39,-1148.45C525.78,-1145.02 599.62,-1131.19 644.1,-1084.91 700.43,-1026.31 728.01,-767.7 735.66,-682.93"/>
<polygon fill="#4b5563" stroke="#4b5563" stroke-width="1.1" points="738.09,-683.22 736.27,-676.03 733.21,-682.79 738.09,-683.22"/>
</g>
<!-- SPEC_docs&#45;materialize&#45;frontdoor&#45;drift -->
<g id="node2" class="node">
<title>SPEC_docs&#45;materialize&#45;frontdoor&#45;drift</title>
<path fill="#bbf7d0" stroke="#15803d" stroke-width="2.4" d="M260.05,-1093.83C260.05,-1093.83 161.65,-1093.83 161.65,-1093.83 155.65,-1093.83 149.65,-1087.83 149.65,-1081.83 149.65,-1081.83 149.65,-1062 149.65,-1062 149.65,-1056 155.65,-1050 161.65,-1050 161.65,-1050 260.05,-1050 260.05,-1050 266.05,-1050 272.05,-1056 272.05,-1062 272.05,-1062 272.05,-1081.83 272.05,-1081.83 272.05,-1087.83 266.05,-1093.83 260.05,-1093.83"/>
<text xml:space="preserve" text-anchor="middle" x="210.85" y="-1079.29" font-family="Helvetica,sans-Serif" font-size="10.00">DONE</text>
<text xml:space="preserve" text-anchor="middle" x="210.85" y="-1068.04" font-family="Helvetica,sans-Serif" font-size="10.00">SPEC_docs</text>
<text xml:space="preserve" text-anchor="middle" x="210.85" y="-1056.79" font-family="Helvetica,sans-Serif" font-size="10.00">materialize frontdoor drift</text>
</g>
<!-- SPEC_runtime&#45;error&#45;reading&#45;basis&#45;guidance -->
<g id="node3" class="node">
<title>SPEC_runtime&#45;error&#45;reading&#45;basis&#45;guidance</title>
<path fill="#bbf7d0" stroke="#15803d" stroke-width="2.4" d="M446.45,-1093.83C446.45,-1093.83 356.3,-1093.83 356.3,-1093.83 350.3,-1093.83 344.3,-1087.83 344.3,-1081.83 344.3,-1081.83 344.3,-1062 344.3,-1062 344.3,-1056 350.3,-1050 356.3,-1050 356.3,-1050 446.45,-1050 446.45,-1050 452.45,-1050 458.45,-1056 458.45,-1062 458.45,-1062 458.45,-1081.83 458.45,-1081.83 458.45,-1087.83 452.45,-1093.83 446.45,-1093.83"/>
<text xml:space="preserve" text-anchor="middle" x="401.38" y="-1079.29" font-family="Helvetica,sans-Serif" font-size="10.00">DONE</text>
<text xml:space="preserve" text-anchor="middle" x="401.38" y="-1068.04" font-family="Helvetica,sans-Serif" font-size="10.00">SPEC_runtime&#45;error</text>
<text xml:space="preserve" text-anchor="middle" x="401.38" y="-1056.79" font-family="Helvetica,sans-Serif" font-size="10.00">reading&#45;basis guidance</text>
</g>
<!-- SPEC_docs&#45;materialize&#45;frontdoor&#45;drift&#45;&gt;SPEC_runtime&#45;error&#45;reading&#45;basis&#45;guidance -->
<g id="edge1" class="edge">
<title>SPEC_docs&#45;materialize&#45;frontdoor&#45;drift&#45;&gt;SPEC_runtime&#45;error&#45;reading&#45;basis&#45;guidance</title>
<path fill="none" stroke="#4b5563" stroke-width="1.1" d="M273.06,-1071.91C292.81,-1071.91 314.79,-1071.91 334.84,-1071.91"/>
<polygon fill="#4b5563" stroke="#4b5563" stroke-width="1.1" points="334.64,-1074.37 341.64,-1071.92 334.64,-1069.47 334.64,-1074.37"/>
</g>
<!-- SPEC_docs&#45;materialize&#45;frontdoor&#45;drift&#45;&gt;SPEC_materialize&#45;spy&#45;test&#45;clusters -->
<g id="edge5" class="edge">
<title>SPEC_docs&#45;materialize&#45;frontdoor&#45;drift&#45;&gt;SPEC_materialize&#45;spy&#45;test&#45;clusters</title>
<path fill="none" stroke="#4b5563" stroke-width="1.1" d="M243.78,-1048.81C312.34,-999.21 473.37,-882.69 547.64,-828.96"/>
<polygon fill="#4b5563" stroke="#4b5563" stroke-width="1.1" points="548.96,-831.03 553.2,-824.94 546.09,-827.06 548.96,-831.03"/>
</g>
<!-- SPEC_docs&#45;materialize&#45;frontdoor&#45;drift&#45;&gt;REL_full&#45;gate&#45;matrix&#45;green -->
<g id="edge26" class="edge">
<title>SPEC_docs&#45;materialize&#45;frontdoor&#45;drift&#45;&gt;REL_full&#45;gate&#45;matrix&#45;green</title>
<path fill="none" stroke="#4b5563" stroke-width="1.1" d="M226.99,-1094.75C246.85,-1122.41 284.58,-1167.56 330.05,-1185.91 460.98,-1238.77 548.37,-1241.71 644.1,-1137.91 706.47,-1070.29 730.36,-774.13 736.33,-682.82"/>
<polygon fill="#4b5563" stroke="#4b5563" stroke-width="1.1" points="738.76,-683.2 736.76,-676.06 733.87,-682.89 738.76,-683.2"/>
</g>
<!-- SPEC_runtime&#45;error&#45;reading&#45;basis&#45;guidance&#45;&gt;SPEC_materialize&#45;spy&#45;test&#45;clusters -->
<g id="edge6" class="edge">
<title>SPEC_runtime&#45;error&#45;reading&#45;basis&#45;guidance&#45;&gt;SPEC_materialize&#45;spy&#45;test&#45;clusters</title>
<path fill="none" stroke="#4b5563" stroke-width="1.1" d="M418.06,-1048.81C451.34,-999.81 528.96,-885.5 566.01,-830.94"/>
<polygon fill="#4b5563" stroke="#4b5563" stroke-width="1.1" points="567.91,-832.51 569.81,-825.34 563.86,-829.75 567.91,-832.51"/>
</g>
<!-- SPEC_runtime&#45;error&#45;reading&#45;basis&#45;guidance&#45;&gt;REL_full&#45;gate&#45;matrix&#45;green -->
<g id="edge27" class="edge">
<title>SPEC_runtime&#45;error&#45;reading&#45;basis&#45;guidance&#45;&gt;REL_full&#45;gate&#45;matrix&#45;green</title>
<path fill="none" stroke="#4b5563" stroke-width="1.1" d="M459.4,-1080.77C513.69,-1085.78 594.29,-1083.77 644.1,-1038.91 697.74,-990.61 726.67,-762.01 735.21,-682.92"/>
<polygon fill="#4b5563" stroke="#4b5563" stroke-width="1.1" points="737.63,-683.34 735.93,-676.12 732.75,-682.82 737.63,-683.34"/>
</g>
<!-- BND_checkpoint&#45;schema&#45;contract&#45;drift -->
<g id="node4" class="node">
<title>BND_checkpoint&#45;schema&#45;contract&#45;drift</title>
<path fill="#bbf7d0" stroke="#15803d" stroke-width="2.4" d="M252.18,-854.83C252.18,-854.83 169.53,-854.83 169.53,-854.83 163.53,-854.83 157.53,-848.83 157.53,-842.83 157.53,-842.83 157.53,-823 157.53,-823 157.53,-817 163.53,-811 169.53,-811 169.53,-811 252.18,-811 252.18,-811 258.18,-811 264.18,-817 264.18,-823 264.18,-823 264.18,-842.83 264.18,-842.83 264.18,-848.83 258.18,-854.83 252.18,-854.83"/>
<text xml:space="preserve" text-anchor="middle" x="210.85" y="-840.29" font-family="Helvetica,sans-Serif" font-size="10.00">DONE</text>
<text xml:space="preserve" text-anchor="middle" x="210.85" y="-829.04" font-family="Helvetica,sans-Serif" font-size="10.00">BND_checkpoint</text>
<text xml:space="preserve" text-anchor="middle" x="210.85" y="-817.79" font-family="Helvetica,sans-Serif" font-size="10.00">schema contract drift</text>
</g>
<!-- PORT_checkpoint&#45;controller&#45;reading&#45;basis -->
<g id="node6" class="node">
<title>PORT_checkpoint&#45;controller&#45;reading&#45;basis</title>
<path fill="#bbf7d0" stroke="#15803d" stroke-width="2.4" d="M458.08,-753.83C458.08,-753.83 344.68,-753.83 344.68,-753.83 338.68,-753.83 332.68,-747.83 332.68,-741.83 332.68,-741.83 332.68,-722 332.68,-722 332.68,-716 338.68,-710 344.68,-710 344.68,-710 458.08,-710 458.08,-710 464.08,-710 470.08,-716 470.08,-722 470.08,-722 470.08,-741.83 470.08,-741.83 470.08,-747.83 464.08,-753.83 458.08,-753.83"/>
<text xml:space="preserve" text-anchor="middle" x="401.38" y="-739.29" font-family="Helvetica,sans-Serif" font-size="10.00">DONE</text>
<text xml:space="preserve" text-anchor="middle" x="401.38" y="-728.04" font-family="Helvetica,sans-Serif" font-size="10.00">PORT_checkpoint&#45;controller</text>
<text xml:space="preserve" text-anchor="middle" x="401.38" y="-716.79" font-family="Helvetica,sans-Serif" font-size="10.00">reading basis</text>
</g>
<!-- BND_checkpoint&#45;schema&#45;contract&#45;drift&#45;&gt;PORT_checkpoint&#45;controller&#45;reading&#45;basis -->
<g id="edge2" class="edge">
<title>BND_checkpoint&#45;schema&#45;contract&#45;drift&#45;&gt;PORT_checkpoint&#45;controller&#45;reading&#45;basis</title>
<path fill="none" stroke="#4b5563" stroke-width="1.1" d="M254.63,-810C282.97,-794.81 320.27,-774.83 350.04,-758.88"/>
<polygon fill="#4b5563" stroke="#4b5563" stroke-width="1.1" points="350.96,-761.17 355.97,-755.7 348.64,-756.85 350.96,-761.17"/>
</g>
<!-- SPEC_checkpoint&#45;materialize&#45;test&#45;drift -->
<g id="node11" class="node">
<title>SPEC_checkpoint&#45;materialize&#45;test&#45;drift</title>
<path fill="#bbf7d0" stroke="#15803d" stroke-width="2.4" d="M625.73,-1022.83C625.73,-1022.83 549.08,-1022.83 549.08,-1022.83 543.08,-1022.83 537.08,-1016.83 537.08,-1010.83 537.08,-1010.83 537.08,-991 537.08,-991 537.08,-985 543.08,-979 549.08,-979 549.08,-979 625.73,-979 625.73,-979 631.73,-979 637.73,-985 637.73,-991 637.73,-991 637.73,-1010.83 637.73,-1010.83 637.73,-1016.83 631.73,-1022.83 625.73,-1022.83"/>
<text xml:space="preserve" text-anchor="middle" x="587.4" y="-1008.29" font-family="Helvetica,sans-Serif" font-size="10.00">DONE</text>
<text xml:space="preserve" text-anchor="middle" x="587.4" y="-997.04" font-family="Helvetica,sans-Serif" font-size="10.00">SPEC_checkpoint</text>
<text xml:space="preserve" text-anchor="middle" x="587.4" y="-985.79" font-family="Helvetica,sans-Serif" font-size="10.00">materialize test drift</text>
</g>
<!-- BND_checkpoint&#45;schema&#45;contract&#45;drift&#45;&gt;SPEC_checkpoint&#45;materialize&#45;test&#45;drift -->
<g id="edge11" class="edge">
<title>BND_checkpoint&#45;schema&#45;contract&#45;drift&#45;&gt;SPEC_checkpoint&#45;materialize&#45;test&#45;drift</title>
<path fill="none" stroke="#4b5563" stroke-width="1.1" d="M226.06,-855.81C245.6,-885.16 283.67,-935.18 330.05,-959.91 391.96,-992.93 473.37,-1000.95 527.67,-1002.17"/>
<polygon fill="#4b5563" stroke="#4b5563" stroke-width="1.1" points="527.44,-1004.62 534.48,-1002.28 527.52,-999.72 527.44,-1004.62"/>
</g>
<!-- REL_quarantine&#45;graduate&#45;clean -->
<g id="node17" class="node">
<title>REL_quarantine&#45;graduate&#45;clean</title>
<path fill="#fee2e2" stroke="#4b5563" stroke-width="1.2" d="M617.48,-427.91C617.48,-427.91 557.33,-427.91 557.33,-427.91 551.33,-427.91 545.33,-421.91 545.33,-415.91 545.33,-415.91 545.33,-403.91 545.33,-403.91 545.33,-397.91 551.33,-391.91 557.33,-391.91 557.33,-391.91 617.48,-391.91 617.48,-391.91 623.48,-391.91 629.48,-397.91 629.48,-403.91 629.48,-403.91 629.48,-415.91 629.48,-415.91 629.48,-421.91 623.48,-427.91 617.48,-427.91"/>
<text xml:space="preserve" text-anchor="middle" x="587.4" y="-411.66" font-family="Helvetica,sans-Serif" font-size="10.00">REL_quarantine</text>
<text xml:space="preserve" text-anchor="middle" x="587.4" y="-400.41" font-family="Helvetica,sans-Serif" font-size="10.00">graduate clean</text>
</g>
<!-- BND_checkpoint&#45;schema&#45;contract&#45;drift&#45;&gt;REL_quarantine&#45;graduate&#45;clean -->
<g id="edge15" class="edge">
<title>BND_checkpoint&#45;schema&#45;contract&#45;drift&#45;&gt;REL_quarantine&#45;graduate&#45;clean</title>
<path fill="none" stroke="#4b5563" stroke-width="1.1" d="M215.56,-809.99C225.26,-756.73 255.92,-623.01 330.05,-541.91 386.87,-479.76 479.71,-442.29 536.7,-423.91"/>
<polygon fill="#4b5563" stroke="#4b5563" stroke-width="1.1" points="537.31,-426.28 543.25,-421.83 535.83,-421.61 537.31,-426.28"/>
</g>
<!-- BND_checkpoint&#45;schema&#45;contract&#45;drift&#45;&gt;REL_full&#45;gate&#45;matrix&#45;green -->
<g id="edge28" class="edge">
<title>BND_checkpoint&#45;schema&#45;contract&#45;drift&#45;&gt;REL_full&#45;gate&#45;matrix&#45;green</title>
<path fill="none" stroke="#4b5563" stroke-width="1.1" d="M265.11,-850.55C351.71,-875.75 525.3,-911.51 644.1,-838.91 700.27,-804.59 724.2,-724.78 733.19,-682.81"/>
<polygon fill="#4b5563" stroke="#4b5563" stroke-width="1.1" points="735.57,-683.44 734.56,-676.09 730.76,-682.46 735.57,-683.44"/>
</g>
<!-- PORT_patch&#45;controller&#45;reading&#45;basis -->
<g id="node5" class="node">
<title>PORT_patch&#45;controller&#45;reading&#45;basis</title>
<path fill="#bbf7d0" stroke="#15803d" stroke-width="2.4" d="M255.93,-565.83C255.93,-565.83 165.78,-565.83 165.78,-565.83 159.78,-565.83 153.78,-559.83 153.78,-553.83 153.78,-553.83 153.78,-534 153.78,-534 153.78,-528 159.78,-522 165.78,-522 165.78,-522 255.93,-522 255.93,-522 261.93,-522 267.93,-528 267.93,-534 267.93,-534 267.93,-553.83 267.93,-553.83 267.93,-559.83 261.93,-565.83 255.93,-565.83"/>
<text xml:space="preserve" text-anchor="middle" x="210.85" y="-551.29" font-family="Helvetica,sans-Serif" font-size="10.00">DONE</text>
<text xml:space="preserve" text-anchor="middle" x="210.85" y="-540.04" font-family="Helvetica,sans-Serif" font-size="10.00">PORT_patch&#45;controller</text>
<text xml:space="preserve" text-anchor="middle" x="210.85" y="-528.79" font-family="Helvetica,sans-Serif" font-size="10.00">reading basis</text>
</g>
<!-- PORT_subscription&#45;controller&#45;reading&#45;basis -->
<g id="node7" class="node">
<title>PORT_subscription&#45;controller&#45;reading&#45;basis</title>
<path fill="#bbf7d0" stroke="#15803d" stroke-width="2.4" d="M460.7,-601.83C460.7,-601.83 342.05,-601.83 342.05,-601.83 336.05,-601.83 330.05,-595.83 330.05,-589.83 330.05,-589.83 330.05,-570 330.05,-570 330.05,-564 336.05,-558 342.05,-558 342.05,-558 460.7,-558 460.7,-558 466.7,-558 472.7,-564 472.7,-570 472.7,-570 472.7,-589.83 472.7,-589.83 472.7,-595.83 466.7,-601.83 460.7,-601.83"/>
<text xml:space="preserve" text-anchor="middle" x="401.38" y="-587.29" font-family="Helvetica,sans-Serif" font-size="10.00">DONE</text>
<text xml:space="preserve" text-anchor="middle" x="401.38" y="-576.04" font-family="Helvetica,sans-Serif" font-size="10.00">PORT_subscription&#45;controller</text>
<text xml:space="preserve" text-anchor="middle" x="401.38" y="-564.79" font-family="Helvetica,sans-Serif" font-size="10.00">reading basis</text>
</g>
<!-- PORT_patch&#45;controller&#45;reading&#45;basis&#45;&gt;PORT_subscription&#45;controller&#45;reading&#45;basis -->
<g id="edge3" class="edge">
<title>PORT_patch&#45;controller&#45;reading&#45;basis&#45;&gt;PORT_subscription&#45;controller&#45;reading&#45;basis</title>
<path fill="none" stroke="#4b5563" stroke-width="1.1" d="M268.93,-554.81C285.22,-557.93 303.29,-561.38 320.68,-564.7"/>
<polygon fill="#4b5563" stroke="#4b5563" stroke-width="1.1" points="320.18,-567.09 327.51,-566 321.1,-562.28 320.18,-567.09"/>
</g>
<!-- PORT_patch&#45;controller&#45;reading&#45;basis&#45;&gt;SPEC_materialize&#45;spy&#45;test&#45;clusters -->
<g id="edge7" class="edge">
<title>PORT_patch&#45;controller&#45;reading&#45;basis&#45;&gt;SPEC_materialize&#45;spy&#45;test&#45;clusters</title>
<path fill="none" stroke="#4b5563" stroke-width="1.1" d="M216.44,-566.85C227.13,-613.77 258.47,-720.46 330.05,-769.91 386,-808.58 465.67,-812.3 521.29,-808.92"/>
<polygon fill="#4b5563" stroke="#4b5563" stroke-width="1.1" points="521.18,-811.38 528,-808.46 520.85,-806.5 521.18,-811.38"/>
</g>
<!-- PORT_patch&#45;controller&#45;reading&#45;basis&#45;&gt;REL_quarantine&#45;graduate&#45;clean -->
<g id="edge16" class="edge">
<title>PORT_patch&#45;controller&#45;reading&#45;basis&#45;&gt;REL_quarantine&#45;graduate&#45;clean</title>
<path fill="none" stroke="#4b5563" stroke-width="1.1" d="M225.33,-520.8C244.33,-490.76 282.08,-439.58 330.05,-417.91 396.69,-387.82 483.32,-393.04 536.87,-400.65"/>
<polygon fill="#4b5563" stroke="#4b5563" stroke-width="1.1" points="536.24,-403.04 543.52,-401.65 536.96,-398.19 536.24,-403.04"/>
</g>
<!-- PORT_patch&#45;controller&#45;reading&#45;basis&#45;&gt;REL_full&#45;gate&#45;matrix&#45;green -->
<g id="edge29" class="edge">
<title>PORT_patch&#45;controller&#45;reading&#45;basis&#45;&gt;REL_full&#45;gate&#45;matrix&#45;green</title>
<path fill="none" stroke="#4b5563" stroke-width="1.1" d="M268.96,-542.75C288.35,-542.41 310.14,-542.08 330.05,-541.91 393.45,-541.38 410.22,-531.13 472.7,-541.91 552.38,-555.67 570.54,-569.35 644.1,-602.91 663.46,-611.75 684.14,-623.2 701.14,-633.19"/>
<polygon fill="#4b5563" stroke="#4b5563" stroke-width="1.1" points="699.49,-635.06 706.76,-636.52 701.99,-630.84 699.49,-635.06"/>
</g>
<!-- PORT_checkpoint&#45;controller&#45;reading&#45;basis&#45;&gt;SPEC_materialize&#45;spy&#45;test&#45;clusters -->
<g id="edge8" class="edge">
<title>PORT_checkpoint&#45;controller&#45;reading&#45;basis&#45;&gt;SPEC_materialize&#45;spy&#45;test&#45;clusters</title>
<path fill="none" stroke="#4b5563" stroke-width="1.1" d="M463.91,-754.99C482.47,-761.95 502.89,-769.6 521.65,-776.64"/>
<polygon fill="#4b5563" stroke="#4b5563" stroke-width="1.1" points="520.61,-778.86 528.02,-779.03 522.33,-774.28 520.61,-778.86"/>
</g>
<!-- PORT_checkpoint&#45;controller&#45;reading&#45;basis&#45;&gt;REL_quarantine&#45;graduate&#45;clean -->
<g id="edge17" class="edge">
<title>PORT_checkpoint&#45;controller&#45;reading&#45;basis&#45;&gt;REL_quarantine&#45;graduate&#45;clean</title>
<path fill="none" stroke="#4b5563" stroke-width="1.1" d="M454.96,-708.96C461.48,-704.62 467.62,-699.61 472.7,-693.91 541.83,-616.37 571.7,-491.51 581.95,-436.92"/>
<polygon fill="#4b5563" stroke="#4b5563" stroke-width="1.1" points="584.34,-437.44 583.18,-430.12 579.52,-436.57 584.34,-437.44"/>
</g>
<!-- PORT_checkpoint&#45;controller&#45;reading&#45;basis&#45;&gt;REL_full&#45;gate&#45;matrix&#45;green -->
<g id="edge30" class="edge">
<title>PORT_checkpoint&#45;controller&#45;reading&#45;basis&#45;&gt;REL_full&#45;gate&#45;matrix&#45;green</title>
<path fill="none" stroke="#4b5563" stroke-width="1.1" d="M471.1,-718.42C519.59,-708.64 586.01,-694.77 644.1,-680.91 660.3,-677.05 677.96,-672.45 693.56,-668.25"/>
<polygon fill="#4b5563" stroke="#4b5563" stroke-width="1.1" points="693.78,-670.73 699.89,-666.53 692.5,-666 693.78,-670.73"/>
</g>
<!-- PORT_subscription&#45;controller&#45;reading&#45;basis&#45;&gt;SPEC_materialize&#45;spy&#45;test&#45;clusters -->
<g id="edge9" class="edge">
<title>PORT_subscription&#45;controller&#45;reading&#45;basis&#45;&gt;SPEC_materialize&#45;spy&#45;test&#45;clusters</title>
<path fill="none" stroke="#4b5563" stroke-width="1.1" d="M452.62,-602.82C459.79,-607.26 466.74,-612.3 472.7,-617.91 520.19,-662.62 555.74,-731.33 573.58,-770.6"/>
<polygon fill="#4b5563" stroke="#4b5563" stroke-width="1.1" points="571.13,-771.14 576.23,-776.53 575.61,-769.14 571.13,-771.14"/>
</g>
<!-- PORT_subscription&#45;controller&#45;reading&#45;basis&#45;&gt;REL_quarantine&#45;graduate&#45;clean -->
<g id="edge18" class="edge">
<title>PORT_subscription&#45;controller&#45;reading&#45;basis&#45;&gt;REL_quarantine&#45;graduate&#45;clean</title>
<path fill="none" stroke="#4b5563" stroke-width="1.1" d="M427.19,-556.99C461.92,-524.91 524.72,-466.89 560.19,-434.13"/>
<polygon fill="#4b5563" stroke="#4b5563" stroke-width="1.1" points="561.77,-436 565.25,-429.45 558.45,-432.4 561.77,-436"/>
</g>
<!-- PORT_subscription&#45;controller&#45;reading&#45;basis&#45;&gt;REL_full&#45;gate&#45;matrix&#45;green -->
<g id="edge31" class="edge">
<title>PORT_subscription&#45;controller&#45;reading&#45;basis&#45;&gt;REL_full&#45;gate&#45;matrix&#45;green</title>
<path fill="none" stroke="#4b5563" stroke-width="1.1" d="M473.54,-596.03C539.96,-611.08 637.03,-633.06 693.21,-645.79"/>
<polygon fill="#4b5563" stroke="#4b5563" stroke-width="1.1" points="692.53,-648.15 699.9,-647.3 693.62,-643.37 692.53,-648.15"/>
</g>
<!-- PORT_sync&#45;controller&#45;reading&#45;basis -->
<g id="node8" class="node">
<title>PORT_sync&#45;controller&#45;reading&#45;basis</title>
<path fill="#bbf7d0" stroke="#15803d" stroke-width="2.4" d="M444.95,-677.83C444.95,-677.83 357.8,-677.83 357.8,-677.83 351.8,-677.83 345.8,-671.83 345.8,-665.83 345.8,-665.83 345.8,-646 345.8,-646 345.8,-640 351.8,-634 357.8,-634 357.8,-634 444.95,-634 444.95,-634 450.95,-634 456.95,-640 456.95,-646 456.95,-646 456.95,-665.83 456.95,-665.83 456.95,-671.83 450.95,-677.83 444.95,-677.83"/>
<text xml:space="preserve" text-anchor="middle" x="401.38" y="-663.29" font-family="Helvetica,sans-Serif" font-size="10.00">DONE</text>
<text xml:space="preserve" text-anchor="middle" x="401.38" y="-652.04" font-family="Helvetica,sans-Serif" font-size="10.00">PORT_sync&#45;controller</text>
<text xml:space="preserve" text-anchor="middle" x="401.38" y="-640.79" font-family="Helvetica,sans-Serif" font-size="10.00">reading basis</text>
</g>
<!-- PORT_sync&#45;controller&#45;reading&#45;basis&#45;&gt;SPEC_materialize&#45;spy&#45;test&#45;clusters -->
<g id="edge10" class="edge">
<title>PORT_sync&#45;controller&#45;reading&#45;basis&#45;&gt;SPEC_materialize&#45;spy&#45;test&#45;clusters</title>
<path fill="none" stroke="#4b5563" stroke-width="1.1" d="M449.19,-678.99C457.25,-683.59 465.39,-688.64 472.7,-693.91 505.04,-717.26 537.78,-749.13 559.76,-772"/>
<polygon fill="#4b5563" stroke="#4b5563" stroke-width="1.1" points="557.92,-773.62 564.52,-776.99 561.46,-770.24 557.92,-773.62"/>
</g>
<!-- PORT_sync&#45;controller&#45;reading&#45;basis&#45;&gt;REL_quarantine&#45;graduate&#45;clean -->
<g id="edge19" class="edge">
<title>PORT_sync&#45;controller&#45;reading&#45;basis&#45;&gt;REL_quarantine&#45;graduate&#45;clean</title>
<path fill="none" stroke="#4b5563" stroke-width="1.1" d="M453.63,-632.84C460.5,-628.47 467.09,-623.49 472.7,-617.91 526.85,-564.03 562.25,-478.93 577.62,-436.21"/>
<polygon fill="#4b5563" stroke="#4b5563" stroke-width="1.1" points="579.86,-437.24 579.88,-429.83 575.24,-435.61 579.86,-437.24"/>
</g>
<!-- PORT_sync&#45;controller&#45;reading&#45;basis&#45;&gt;REL_full&#45;gate&#45;matrix&#45;green -->
<g id="edge32" class="edge">
<title>PORT_sync&#45;controller&#45;reading&#45;basis&#45;&gt;REL_full&#45;gate&#45;matrix&#45;green</title>
<path fill="none" stroke="#4b5563" stroke-width="1.1" d="M457.78,-655.91C523.61,-655.91 632.13,-655.91 692.98,-655.91"/>
<polygon fill="#4b5563" stroke="#4b5563" stroke-width="1.1" points="692.94,-658.37 699.94,-655.92 692.94,-653.47 692.94,-658.37"/>
</g>
<!-- SPEC_materialize&#45;spy&#45;test&#45;clusters&#45;&gt;REL_full&#45;gate&#45;matrix&#45;green -->
<g id="edge33" class="edge">
<title>SPEC_materialize&#45;spy&#45;test&#45;clusters&#45;&gt;REL_full&#45;gate&#45;matrix&#45;green</title>
<path fill="none" stroke="#4b5563" stroke-width="1.1" d="M615.4,-777.89C624.64,-769.82 634.94,-760.6 644.1,-751.91 668.96,-728.32 696.23,-700.15 714.93,-680.45"/>
<polygon fill="#4b5563" stroke="#4b5563" stroke-width="1.1" points="716.51,-682.34 719.54,-675.58 712.95,-678.98 716.51,-682.34"/>
</g>
<!-- SPEC_observer&#45;coordinate&#45;pinning -->
<g id="node10" class="node">
<title>SPEC_observer&#45;coordinate&#45;pinning</title>
<path fill="#bbf7d0" stroke="#15803d" stroke-width="2.4" d="M435.95,-119.83C435.95,-119.83 366.8,-119.83 366.8,-119.83 360.8,-119.83 354.8,-113.83 354.8,-107.83 354.8,-107.83 354.8,-88 354.8,-88 354.8,-82 360.8,-76 366.8,-76 366.8,-76 435.95,-76 435.95,-76 441.95,-76 447.95,-82 447.95,-88 447.95,-88 447.95,-107.83 447.95,-107.83 447.95,-113.83 441.95,-119.83 435.95,-119.83"/>
<text xml:space="preserve" text-anchor="middle" x="401.38" y="-105.29" font-family="Helvetica,sans-Serif" font-size="10.00">DONE</text>
<text xml:space="preserve" text-anchor="middle" x="401.38" y="-94.04" font-family="Helvetica,sans-Serif" font-size="10.00">SPEC_observer</text>
<text xml:space="preserve" text-anchor="middle" x="401.38" y="-82.79" font-family="Helvetica,sans-Serif" font-size="10.00">coordinate pinning</text>
</g>
<!-- SPEC_observer&#45;coordinate&#45;pinning&#45;&gt;REL_quarantine&#45;graduate&#45;clean -->
<g id="edge20" class="edge">
<title>SPEC_observer&#45;coordinate&#45;pinning&#45;&gt;REL_quarantine&#45;graduate&#45;clean</title>
<path fill="none" stroke="#4b5563" stroke-width="1.1" d="M449.1,-116.8C457.82,-121.98 466.22,-128.31 472.7,-135.91 523.39,-195.4 499.82,-230.12 530.7,-301.91 543.1,-330.74 559.89,-362.53 571.79,-384.1"/>
<polygon fill="#4b5563" stroke="#4b5563" stroke-width="1.1" points="569.58,-385.18 575.12,-390.11 573.87,-382.8 569.58,-385.18"/>
</g>
<!-- SPEC_observer&#45;coordinate&#45;pinning&#45;&gt;REL_full&#45;gate&#45;matrix&#45;green -->
<g id="edge34" class="edge">
<title>SPEC_observer&#45;coordinate&#45;pinning&#45;&gt;REL_full&#45;gate&#45;matrix&#45;green</title>
<path fill="none" stroke="#4b5563" stroke-width="1.1" d="M449.13,-118.45C457.55,-123.41 465.83,-129.25 472.7,-135.91 509.57,-171.69 493.91,-200.05 530.7,-235.91 571.83,-276.02 608.73,-252.66 644.1,-297.91 724.21,-400.42 736.29,-564.73 737.84,-628.95"/>
<polygon fill="#4b5563" stroke="#4b5563" stroke-width="1.1" points="735.39,-628.72 737.97,-635.67 740.29,-628.63 735.39,-628.72"/>
</g>
<!-- SPEC_checkpoint&#45;materialize&#45;test&#45;drift&#45;&gt;REL_full&#45;gate&#45;matrix&#45;green -->
<g id="edge35" class="edge">
<title>SPEC_checkpoint&#45;materialize&#45;test&#45;drift&#45;&gt;REL_full&#45;gate&#45;matrix&#45;green</title>
<path fill="none" stroke="#4b5563" stroke-width="1.1" d="M622.66,-977.88C630.58,-971.23 638.36,-963.45 644.1,-954.91 703.65,-866.41 727.02,-738.07 734.7,-682.84"/>
<polygon fill="#4b5563" stroke="#4b5563" stroke-width="1.1" points="737.12,-683.23 735.62,-675.97 732.26,-682.58 737.12,-683.23"/>
</g>
<!-- SPEC_uniform&#45;git&#45;cas&#45;upgrade&#45;contract&#45;drift -->
<g id="node12" class="node">
<title>SPEC_uniform&#45;git&#45;cas&#45;upgrade&#45;contract&#45;drift</title>
<path fill="#bbf7d0" stroke="#15803d" stroke-width="2.4" d="M631.35,-161.83C631.35,-161.83 543.45,-161.83 543.45,-161.83 537.45,-161.83 531.45,-155.83 531.45,-149.83 531.45,-149.83 531.45,-130 531.45,-130 531.45,-124 537.45,-118 543.45,-118 543.45,-118 631.35,-118 631.35,-118 637.35,-118 643.35,-124 643.35,-130 643.35,-130 643.35,-149.83 643.35,-149.83 643.35,-155.83 637.35,-161.83 631.35,-161.83"/>
<text xml:space="preserve" text-anchor="middle" x="587.4" y="-147.29" font-family="Helvetica,sans-Serif" font-size="10.00">DONE</text>
<text xml:space="preserve" text-anchor="middle" x="587.4" y="-136.04" font-family="Helvetica,sans-Serif" font-size="10.00">SPEC_uniform&#45;git&#45;cas</text>
<text xml:space="preserve" text-anchor="middle" x="587.4" y="-124.79" font-family="Helvetica,sans-Serif" font-size="10.00">upgrade contract drift</text>
</g>
<!-- SPEC_uniform&#45;git&#45;cas&#45;upgrade&#45;contract&#45;drift&#45;&gt;REL_full&#45;gate&#45;matrix&#45;green -->
<g id="edge36" class="edge">
<title>SPEC_uniform&#45;git&#45;cas&#45;upgrade&#45;contract&#45;drift&#45;&gt;REL_full&#45;gate&#45;matrix&#45;green</title>
<path fill="none" stroke="#4b5563" stroke-width="1.1" d="M623.59,-162.79C631.4,-169.39 638.89,-177.2 644.1,-185.91 733.33,-335.19 739.4,-554 738.62,-629.3"/>
<polygon fill="#4b5563" stroke="#4b5563" stroke-width="1.1" points="736.17,-629.06 738.52,-636.1 741.07,-629.13 736.17,-629.06"/>
</g>
<!-- HEX_sync&#45;secret&#45;plain&#45;string -->
<g id="node13" class="node">
<title>HEX_sync&#45;secret&#45;plain&#45;string</title>
<path fill="#bbf7d0" stroke="#15803d" stroke-width="2.4" d="M79.65,-263.83C79.65,-263.83 12,-263.83 12,-263.83 6,-263.83 0,-257.83 0,-251.83 0,-251.83 0,-232 0,-232 0,-226 6,-220 12,-220 12,-220 79.65,-220 79.65,-220 85.65,-220 91.65,-226 91.65,-232 91.65,-232 91.65,-251.83 91.65,-251.83 91.65,-257.83 85.65,-263.83 79.65,-263.83"/>
<text xml:space="preserve" text-anchor="middle" x="45.83" y="-249.29" font-family="Helvetica,sans-Serif" font-size="10.00">DONE</text>
<text xml:space="preserve" text-anchor="middle" x="45.83" y="-238.04" font-family="Helvetica,sans-Serif" font-size="10.00">HEX_sync&#45;secret</text>
<text xml:space="preserve" text-anchor="middle" x="45.83" y="-226.79" font-family="Helvetica,sans-Serif" font-size="10.00">plain string</text>
</g>
<!-- HEX_sync&#45;production&#45;auth&#45;defaults -->
<g id="node14" class="node">
<title>HEX_sync&#45;production&#45;auth&#45;defaults</title>
<path fill="#bbf7d0" stroke="#15803d" stroke-width="2.4" d="M253.68,-228.83C253.68,-228.83 168.03,-228.83 168.03,-228.83 162.03,-228.83 156.03,-222.83 156.03,-216.83 156.03,-216.83 156.03,-197 156.03,-197 156.03,-191 162.03,-185 168.03,-185 168.03,-185 253.68,-185 253.68,-185 259.68,-185 265.68,-191 265.68,-197 265.68,-197 265.68,-216.83 265.68,-216.83 265.68,-222.83 259.68,-228.83 253.68,-228.83"/>
<text xml:space="preserve" text-anchor="middle" x="210.85" y="-214.29" font-family="Helvetica,sans-Serif" font-size="10.00">DONE</text>
<text xml:space="preserve" text-anchor="middle" x="210.85" y="-203.04" font-family="Helvetica,sans-Serif" font-size="10.00">HEX_sync&#45;production</text>
<text xml:space="preserve" text-anchor="middle" x="210.85" y="-191.79" font-family="Helvetica,sans-Serif" font-size="10.00">auth defaults</text>
</g>
<!-- HEX_sync&#45;secret&#45;plain&#45;string&#45;&gt;HEX_sync&#45;production&#45;auth&#45;defaults -->
<g id="edge12" class="edge">
<title>HEX_sync&#45;secret&#45;plain&#45;string&#45;&gt;HEX_sync&#45;production&#45;auth&#45;defaults</title>
<path fill="none" stroke="#4b5563" stroke-width="1.1" d="M92.67,-232.07C109.49,-228.46 128.84,-224.31 146.91,-220.43"/>
<polygon fill="#4b5563" stroke="#4b5563" stroke-width="1.1" points="147.15,-222.88 153.47,-219.02 146.12,-218.09 147.15,-222.88"/>
</g>
<!-- HEX_sync&#45;secret&#45;plain&#45;string&#45;&gt;REL_quarantine&#45;graduate&#45;clean -->
<g id="edge21" class="edge">
<title>HEX_sync&#45;secret&#45;plain&#45;string&#45;&gt;REL_quarantine&#45;graduate&#45;clean</title>
<path fill="none" stroke="#4b5563" stroke-width="1.1" d="M92.83,-256.24C193.57,-287.61 432.96,-362.14 536.86,-394.49"/>
<polygon fill="#4b5563" stroke="#4b5563" stroke-width="1.1" points="536,-396.79 543.41,-396.53 537.45,-392.11 536,-396.79"/>
</g>
<!-- HEX_sync&#45;no&#45;rate&#45;limiting -->
<g id="node15" class="node">
<title>HEX_sync&#45;no&#45;rate&#45;limiting</title>
<path fill="#bbf7d0" stroke="#15803d" stroke-width="2.4" d="M428.45,-195.83C428.45,-195.83 374.3,-195.83 374.3,-195.83 368.3,-195.83 362.3,-189.83 362.3,-183.83 362.3,-183.83 362.3,-164 362.3,-164 362.3,-158 368.3,-152 374.3,-152 374.3,-152 428.45,-152 428.45,-152 434.45,-152 440.45,-158 440.45,-164 440.45,-164 440.45,-183.83 440.45,-183.83 440.45,-189.83 434.45,-195.83 428.45,-195.83"/>
<text xml:space="preserve" text-anchor="middle" x="401.38" y="-181.29" font-family="Helvetica,sans-Serif" font-size="10.00">DONE</text>
<text xml:space="preserve" text-anchor="middle" x="401.38" y="-170.04" font-family="Helvetica,sans-Serif" font-size="10.00">HEX_sync</text>
<text xml:space="preserve" text-anchor="middle" x="401.38" y="-158.79" font-family="Helvetica,sans-Serif" font-size="10.00">no rate limiting</text>
</g>
<!-- HEX_sync&#45;production&#45;auth&#45;defaults&#45;&gt;HEX_sync&#45;no&#45;rate&#45;limiting -->
<g id="edge13" class="edge">
<title>HEX_sync&#45;production&#45;auth&#45;defaults&#45;&gt;HEX_sync&#45;no&#45;rate&#45;limiting</title>
<path fill="none" stroke="#4b5563" stroke-width="1.1" d="M266.63,-197.33C294,-192.53 326.79,-186.8 353.05,-182.2"/>
<polygon fill="#4b5563" stroke="#4b5563" stroke-width="1.1" points="353.22,-184.66 359.7,-181.04 352.38,-179.83 353.22,-184.66"/>
</g>
<!-- HEX_sync&#45;500&#45;sanitization -->
<g id="node16" class="node">
<title>HEX_sync&#45;500&#45;sanitization</title>
<path fill="#bbf7d0" stroke="#15803d" stroke-width="2.4" d="M430.7,-43.83C430.7,-43.83 372.05,-43.83 372.05,-43.83 366.05,-43.83 360.05,-37.83 360.05,-31.83 360.05,-31.83 360.05,-12 360.05,-12 360.05,-6 366.05,0 372.05,0 372.05,0 430.7,0 430.7,0 436.7,0 442.7,-6 442.7,-12 442.7,-12 442.7,-31.83 442.7,-31.83 442.7,-37.83 436.7,-43.83 430.7,-43.83"/>
<text xml:space="preserve" text-anchor="middle" x="401.38" y="-29.29" font-family="Helvetica,sans-Serif" font-size="10.00">DONE</text>
<text xml:space="preserve" text-anchor="middle" x="401.38" y="-18.04" font-family="Helvetica,sans-Serif" font-size="10.00">HEX_sync</text>
<text xml:space="preserve" text-anchor="middle" x="401.38" y="-6.79" font-family="Helvetica,sans-Serif" font-size="10.00">500 sanitization</text>
</g>
<!-- HEX_sync&#45;production&#45;auth&#45;defaults&#45;&gt;HEX_sync&#45;500&#45;sanitization -->
<g id="edge14" class="edge">
<title>HEX_sync&#45;production&#45;auth&#45;defaults&#45;&gt;HEX_sync&#45;500&#45;sanitization</title>
<path fill="none" stroke="#4b5563" stroke-width="1.1" d="M226.12,-183.89C246.28,-152.77 285.64,-96.91 330.05,-59.91 336.74,-54.34 344.39,-49.21 352.1,-44.65"/>
<polygon fill="#4b5563" stroke="#4b5563" stroke-width="1.1" points="352.87,-47.03 357.74,-41.45 350.45,-42.77 352.87,-47.03"/>
</g>
<!-- HEX_sync&#45;production&#45;auth&#45;defaults&#45;&gt;REL_quarantine&#45;graduate&#45;clean -->
<g id="edge22" class="edge">
<title>HEX_sync&#45;production&#45;auth&#45;defaults&#45;&gt;REL_quarantine&#45;graduate&#45;clean</title>
<path fill="none" stroke="#4b5563" stroke-width="1.1" d="M266.64,-212.95C322.85,-221.42 410.61,-241.16 472.7,-285.91 508.91,-312.02 499.62,-335.87 530.7,-367.91 537.03,-374.44 544.43,-380.74 551.73,-386.4"/>
<polygon fill="#4b5563" stroke="#4b5563" stroke-width="1.1" points="549.98,-388.15 557.05,-390.4 552.93,-384.24 549.98,-388.15"/>
</g>
<!-- HEX_sync&#45;no&#45;rate&#45;limiting&#45;&gt;REL_quarantine&#45;graduate&#45;clean -->
<g id="edge23" class="edge">
<title>HEX_sync&#45;no&#45;rate&#45;limiting&#45;&gt;REL_quarantine&#45;graduate&#45;clean</title>
<path fill="none" stroke="#4b5563" stroke-width="1.1" d="M441.56,-193.54C452.77,-200.63 464.23,-209.5 472.7,-219.91 517.26,-274.74 487.99,-311.63 530.7,-367.91 535.81,-374.64 542.26,-380.82 548.96,-386.26"/>
<polygon fill="#4b5563" stroke="#4b5563" stroke-width="1.1" points="547.33,-388.09 554.37,-390.41 550.31,-384.21 547.33,-388.09"/>
</g>
<!-- HEX_sync&#45;no&#45;rate&#45;limiting&#45;&gt;REL_full&#45;gate&#45;matrix&#45;green -->
<g id="edge37" class="edge">
<title>HEX_sync&#45;no&#45;rate&#45;limiting&#45;&gt;REL_full&#45;gate&#45;matrix&#45;green</title>
<path fill="none" stroke="#4b5563" stroke-width="1.1" d="M441.65,-194.58C452.36,-201.22 463.54,-209.16 472.7,-217.91 505.5,-249.26 498.2,-270.26 530.7,-301.91 573.81,-343.91 607.3,-328.3 644.1,-375.91 705.15,-454.91 727.61,-575.74 734.87,-629.05"/>
<polygon fill="#4b5563" stroke="#4b5563" stroke-width="1.1" points="732.43,-629.33 735.76,-635.96 737.29,-628.7 732.43,-629.33"/>
</g>
<!-- HEX_sync&#45;500&#45;sanitization&#45;&gt;REL_quarantine&#45;graduate&#45;clean -->
<g id="edge24" class="edge">
<title>HEX_sync&#45;500&#45;sanitization&#45;&gt;REL_quarantine&#45;graduate&#45;clean</title>
<path fill="none" stroke="#4b5563" stroke-width="1.1" d="M443.75,-37.61C454.37,-43.28 464.97,-50.64 472.7,-59.91 475.42,-63.18 552.14,-302.74 577.99,-383.6"/>
<polygon fill="#4b5563" stroke="#4b5563" stroke-width="1.1" points="575.64,-384.28 580.1,-390.2 580.31,-382.79 575.64,-384.28"/>
</g>
<!-- HEX_sync&#45;500&#45;sanitization&#45;&gt;REL_full&#45;gate&#45;matrix&#45;green -->
<g id="edge38" class="edge">
<title>HEX_sync&#45;500&#45;sanitization&#45;&gt;REL_full&#45;gate&#45;matrix&#45;green</title>
<path fill="none" stroke="#4b5563" stroke-width="1.1" d="M443.64,-38.75C454.02,-44.37 464.52,-51.41 472.7,-59.91 513.22,-102.03 489.12,-136.85 530.7,-177.91 570.42,-217.14 609.34,-188.23 644.1,-231.91 694.03,-294.67 725.77,-545.95 735.07,-629.07"/>
<polygon fill="#4b5563" stroke="#4b5563" stroke-width="1.1" points="732.61,-629.12 735.82,-635.81 737.48,-628.59 732.61,-629.12"/>
</g>
<!-- REL_quarantine&#45;graduate&#45;clean&#45;&gt;REL_full&#45;gate&#45;matrix&#45;green -->
<g id="edge39" class="edge">
<title>REL_quarantine&#45;graduate&#45;clean&#45;&gt;REL_full&#45;gate&#45;matrix&#45;green</title>
<path fill="none" stroke="#4b5563" stroke-width="1.1" d="M603.37,-428.23C615.06,-442.89 631.39,-464.18 644.1,-483.91 676.16,-533.68 708,-595.28 725.09,-629.62"/>
<polygon fill="#4b5563" stroke="#4b5563" stroke-width="1.1" points="722.87,-630.66 728.17,-635.84 727.26,-628.48 722.87,-630.66"/>
</g>
<!-- REL_release&#45;cut&#45;version&#45;changelog -->
<g id="node19" class="node">
<title>REL_release&#45;cut&#45;version&#45;changelog</title>
<path fill="#dcfce7" stroke="#4b5563" stroke-width="1.2" d="M923.9,-673.91C923.9,-673.91 845.75,-673.91 845.75,-673.91 839.75,-673.91 833.75,-667.91 833.75,-661.91 833.75,-661.91 833.75,-649.91 833.75,-649.91 833.75,-643.91 839.75,-637.91 845.75,-637.91 845.75,-637.91 923.9,-637.91 923.9,-637.91 929.9,-637.91 935.9,-643.91 935.9,-649.91 935.9,-649.91 935.9,-661.91 935.9,-661.91 935.9,-667.91 929.9,-673.91 923.9,-673.91"/>
<text xml:space="preserve" text-anchor="middle" x="884.83" y="-657.66" font-family="Helvetica,sans-Serif" font-size="10.00">REL_release cut</text>
<text xml:space="preserve" text-anchor="middle" x="884.83" y="-646.41" font-family="Helvetica,sans-Serif" font-size="10.00">version + changelog</text>
</g>
<!-- REL_full&#45;gate&#45;matrix&#45;green&#45;&gt;REL_release&#45;cut&#45;version&#45;changelog -->
<g id="edge40" class="edge">
<title>REL_full&#45;gate&#45;matrix&#45;green&#45;&gt;REL_release&#45;cut&#45;version&#45;changelog</title>
<path fill="none" stroke="#4b5563" stroke-width="1.1" d="M776.24,-655.91C790.98,-655.91 808.4,-655.91 824.88,-655.91"/>
<polygon fill="#4b5563" stroke="#4b5563" stroke-width="1.1" points="824.73,-658.37 831.73,-655.92 824.73,-653.47 824.73,-658.37"/>
</g>
<!-- REL_release&#45;preflight&#45;and&#45;rc -->
<g id="node20" class="node">
<title>REL_release&#45;preflight&#45;and&#45;rc</title>
<path fill="#dcfce7" stroke="#4b5563" stroke-width="1.2" d="M1057.8,-673.91C1057.8,-673.91 1005.9,-673.91 1005.9,-673.91 999.9,-673.91 993.9,-667.91 993.9,-661.91 993.9,-661.91 993.9,-649.91 993.9,-649.91 993.9,-643.91 999.9,-637.91 1005.9,-637.91 1005.9,-637.91 1057.8,-637.91 1057.8,-637.91 1063.8,-637.91 1069.8,-643.91 1069.8,-649.91 1069.8,-649.91 1069.8,-661.91 1069.8,-661.91 1069.8,-667.91 1063.8,-673.91 1057.8,-673.91"/>
<text xml:space="preserve" text-anchor="middle" x="1031.85" y="-657.66" font-family="Helvetica,sans-Serif" font-size="10.00">REL_release</text>
<text xml:space="preserve" text-anchor="middle" x="1031.85" y="-646.41" font-family="Helvetica,sans-Serif" font-size="10.00">preflight + RC</text>
</g>
<!-- REL_release&#45;cut&#45;version&#45;changelog&#45;&gt;REL_release&#45;preflight&#45;and&#45;rc -->
<g id="edge41" class="edge">
<title>REL_release&#45;cut&#45;version&#45;changelog&#45;&gt;REL_release&#45;preflight&#45;and&#45;rc</title>
<path fill="none" stroke="#4b5563" stroke-width="1.1" d="M936.14,-655.91C952.02,-655.91 969.46,-655.91 985.01,-655.91"/>
<polygon fill="#4b5563" stroke="#4b5563" stroke-width="1.1" points="984.77,-658.37 991.77,-655.92 984.77,-653.47 984.77,-658.37"/>
</g>
<!-- REL_push&#45;pr&#45;review&#45;merge -->
<g id="node21" class="node">
<title>REL_push&#45;pr&#45;review&#45;merge</title>
<path fill="#dcfce7" stroke="#4b5563" stroke-width="1.2" d="M1199.2,-673.91C1199.2,-673.91 1139.8,-673.91 1139.8,-673.91 1133.8,-673.91 1127.8,-667.91 1127.8,-661.91 1127.8,-661.91 1127.8,-649.91 1127.8,-649.91 1127.8,-643.91 1133.8,-637.91 1139.8,-637.91 1139.8,-637.91 1199.2,-637.91 1199.2,-637.91 1205.2,-637.91 1211.2,-643.91 1211.2,-649.91 1211.2,-649.91 1211.2,-661.91 1211.2,-661.91 1211.2,-667.91 1205.2,-673.91 1199.2,-673.91"/>
<text xml:space="preserve" text-anchor="middle" x="1169.5" y="-657.66" font-family="Helvetica,sans-Serif" font-size="10.00">REL_push / PR</text>
<text xml:space="preserve" text-anchor="middle" x="1169.5" y="-646.41" font-family="Helvetica,sans-Serif" font-size="10.00">review / merge</text>
</g>
<!-- REL_release&#45;preflight&#45;and&#45;rc&#45;&gt;REL_push&#45;pr&#45;review&#45;merge -->
<g id="edge42" class="edge">
<title>REL_release&#45;preflight&#45;and&#45;rc&#45;&gt;REL_push&#45;pr&#45;review&#45;merge</title>
<path fill="none" stroke="#4b5563" stroke-width="1.1" d="M1070.28,-655.91C1085.37,-655.91 1102.99,-655.91 1119.11,-655.91"/>
<polygon fill="#4b5563" stroke="#4b5563" stroke-width="1.1" points="1118.72,-658.37 1125.72,-655.92 1118.72,-653.47 1118.72,-658.37"/>
</g>
</g>
</svg>
