<?xml version="1.0" encoding="UTF-8" standalone="no"?>
<!DOCTYPE svg PUBLIC "-//W3C//DTD SVG 1.1//EN"
 "http://www.w3.org/Graphics/SVG/1.1/DTD/svg11.dtd">
<!-- Generated by graphviz version 14.1.2 (20260124.0452)
 -->
<!-- Title: V17ReleaseBlockers Pages: 1 -->
<svg width="1248pt" height="1185pt"
 viewBox="14.00 14.00 1234.00 1170.00" xmlns="http://www.w3.org/2000/svg" xmlns:xlink="http://www.w3.org/1999/xlink">
<g id="graph0" class="graph" transform="scale(1 1) rotate(0) translate(18.4 1166.19)">
<title>V17ReleaseBlockers</title>
<polygon fill="white" stroke="none" points="-4,4 -4,-1151.79 1215.2,-1151.79 1215.2,4 -4,4"/>
<text xml:space="preserve" text-anchor="middle" x="605.6" y="-1126.69" font-family="Helvetica,sans-Serif" font-size="18.00">v17.0.0 Release Blocker DAG</text>
<!-- SPEC_consumer&#45;typecheck&#45;materialize&#45;residue -->
<g id="node1" class="node">
<title>SPEC_consumer&#45;typecheck&#45;materialize&#45;residue</title>
<path fill="#bbf7d0" stroke="#15803d" stroke-width="2.4" d="M458.45,-937.91C458.45,-937.91 344.3,-937.91 344.3,-937.91 338.3,-937.91 332.3,-931.91 332.3,-925.91 332.3,-925.91 332.3,-906.09 332.3,-906.09 332.3,-900.09 338.3,-894.09 344.3,-894.09 344.3,-894.09 458.45,-894.09 458.45,-894.09 464.45,-894.09 470.45,-900.09 470.45,-906.09 470.45,-906.09 470.45,-925.91 470.45,-925.91 470.45,-931.91 464.45,-937.91 458.45,-937.91"/>
<text xml:space="preserve" text-anchor="middle" x="401.38" y="-923.38" font-family="Helvetica,sans-Serif" font-size="10.00">DONE</text>
<text xml:space="preserve" text-anchor="middle" x="401.38" y="-912.12" font-family="Helvetica,sans-Serif" font-size="10.00">SPEC_consumer&#45;typecheck</text>
<text xml:space="preserve" text-anchor="middle" x="401.38" y="-900.88" font-family="Helvetica,sans-Serif" font-size="10.00">materialize residue</text>
</g>
<!-- SPEC_materialize&#45;spy&#45;test&#45;clusters -->
<g id="node9" class="node">
<title>SPEC_materialize&#45;spy&#45;test&#45;clusters</title>
<path fill="#dbeafe" stroke="#4b5563" stroke-width="1.2" d="M632.1,-792C632.1,-792 542.7,-792 542.7,-792 536.7,-792 530.7,-786 530.7,-780 530.7,-780 530.7,-768 530.7,-768 530.7,-762 536.7,-756 542.7,-756 542.7,-756 632.1,-756 632.1,-756 638.1,-756 644.1,-762 644.1,-768 644.1,-768 644.1,-780 644.1,-780 644.1,-786 638.1,-792 632.1,-792"/>
<text xml:space="preserve" text-anchor="middle" x="587.4" y="-775.75" font-family="Helvetica,sans-Serif" font-size="10.00">SPEC_materialize&#45;spy</text>
<text xml:space="preserve" text-anchor="middle" x="587.4" y="-764.5" font-family="Helvetica,sans-Serif" font-size="10.00">test clusters</text>
</g>
<!-- SPEC_consumer&#45;typecheck&#45;materialize&#45;residue&#45;&gt;SPEC_materialize&#45;spy&#45;test&#45;clusters -->
<g id="edge4" class="edge">
<title>SPEC_consumer&#45;typecheck&#45;materialize&#45;residue&#45;&gt;SPEC_materialize&#45;spy&#45;test&#45;clusters</title>
<path fill="none" stroke="#4b5563" stroke-width="1.1" d="M439.45,-892.95C450.35,-885.86 462.17,-877.84 472.7,-870 503.63,-846.96 537.14,-818.15 559.71,-798.13"/>
<polygon fill="#4b5563" stroke="#4b5563" stroke-width="1.1" points="561.23,-800.07 564.82,-793.58 557.97,-796.41 561.23,-800.07"/>
</g>
<!-- REL_full&#45;gate&#45;matrix&#45;green -->
<g id="node17" class="node">
<title>REL_full&#45;gate&#45;matrix&#45;green</title>
<path fill="#dcfce7" stroke="#4b5563" stroke-width="1.2" d="M763.75,-613C763.75,-613 714.1,-613 714.1,-613 708.1,-613 702.1,-607 702.1,-601 702.1,-601 702.1,-589 702.1,-589 702.1,-583 708.1,-577 714.1,-577 714.1,-577 763.75,-577 763.75,-577 769.75,-577 775.75,-583 775.75,-589 775.75,-589 775.75,-601 775.75,-601 775.75,-607 769.75,-613 763.75,-613"/>
<text xml:space="preserve" text-anchor="middle" x="738.93" y="-596.75" font-family="Helvetica,sans-Serif" font-size="10.00">REL_full gate</text>
<text xml:space="preserve" text-anchor="middle" x="738.93" y="-585.5" font-family="Helvetica,sans-Serif" font-size="10.00">matrix green</text>
</g>
<!-- SPEC_consumer&#45;typecheck&#45;materialize&#45;residue&#45;&gt;REL_full&#45;gate&#45;matrix&#45;green -->
<g id="edge24" class="edge">
<title>SPEC_consumer&#45;typecheck&#45;materialize&#45;residue&#45;&gt;REL_full&#45;gate&#45;matrix&#45;green</title>
<path fill="none" stroke="#4b5563" stroke-width="1.1" d="M471.42,-899.75C524.56,-884.11 596.69,-855.66 644.1,-808 697.27,-754.55 722.77,-665.88 732.7,-621.71"/>
<polygon fill="#4b5563" stroke="#4b5563" stroke-width="1.1" points="735.04,-622.49 734.12,-615.12 730.25,-621.45 735.04,-622.49"/>
</g>
<!-- SPEC_docs&#45;materialize&#45;frontdoor&#45;drift -->
<g id="node2" class="node">
<title>SPEC_docs&#45;materialize&#45;frontdoor&#45;drift</title>
<path fill="#bbf7d0" stroke="#15803d" stroke-width="2.4" d="M260.05,-1079.91C260.05,-1079.91 161.65,-1079.91 161.65,-1079.91 155.65,-1079.91 149.65,-1073.91 149.65,-1067.91 149.65,-1067.91 149.65,-1048.09 149.65,-1048.09 149.65,-1042.09 155.65,-1036.09 161.65,-1036.09 161.65,-1036.09 260.05,-1036.09 260.05,-1036.09 266.05,-1036.09 272.05,-1042.09 272.05,-1048.09 272.05,-1048.09 272.05,-1067.91 272.05,-1067.91 272.05,-1073.91 266.05,-1079.91 260.05,-1079.91"/>
<text xml:space="preserve" text-anchor="middle" x="210.85" y="-1065.38" font-family="Helvetica,sans-Serif" font-size="10.00">DONE</text>
<text xml:space="preserve" text-anchor="middle" x="210.85" y="-1054.12" font-family="Helvetica,sans-Serif" font-size="10.00">SPEC_docs</text>
<text xml:space="preserve" text-anchor="middle" x="210.85" y="-1042.88" font-family="Helvetica,sans-Serif" font-size="10.00">materialize frontdoor drift</text>
</g>
<!-- SPEC_runtime&#45;error&#45;reading&#45;basis&#45;guidance -->
<g id="node3" class="node">
<title>SPEC_runtime&#45;error&#45;reading&#45;basis&#45;guidance</title>
<path fill="#bbf7d0" stroke="#15803d" stroke-width="2.4" d="M446.45,-1079.91C446.45,-1079.91 356.3,-1079.91 356.3,-1079.91 350.3,-1079.91 344.3,-1073.91 344.3,-1067.91 344.3,-1067.91 344.3,-1048.09 344.3,-1048.09 344.3,-1042.09 350.3,-1036.09 356.3,-1036.09 356.3,-1036.09 446.45,-1036.09 446.45,-1036.09 452.45,-1036.09 458.45,-1042.09 458.45,-1048.09 458.45,-1048.09 458.45,-1067.91 458.45,-1067.91 458.45,-1073.91 452.45,-1079.91 446.45,-1079.91"/>
<text xml:space="preserve" text-anchor="middle" x="401.38" y="-1065.38" font-family="Helvetica,sans-Serif" font-size="10.00">DONE</text>
<text xml:space="preserve" text-anchor="middle" x="401.38" y="-1054.12" font-family="Helvetica,sans-Serif" font-size="10.00">SPEC_runtime&#45;error</text>
<text xml:space="preserve" text-anchor="middle" x="401.38" y="-1042.88" font-family="Helvetica,sans-Serif" font-size="10.00">reading&#45;basis guidance</text>
</g>
<!-- SPEC_docs&#45;materialize&#45;frontdoor&#45;drift&#45;&gt;SPEC_runtime&#45;error&#45;reading&#45;basis&#45;guidance -->
<g id="edge1" class="edge">
<title>SPEC_docs&#45;materialize&#45;frontdoor&#45;drift&#45;&gt;SPEC_runtime&#45;error&#45;reading&#45;basis&#45;guidance</title>
<path fill="none" stroke="#4b5563" stroke-width="1.1" d="M273.06,-1058C292.81,-1058 314.79,-1058 334.84,-1058"/>
<polygon fill="#4b5563" stroke="#4b5563" stroke-width="1.1" points="334.64,-1060.45 341.64,-1058 334.64,-1055.55 334.64,-1060.45"/>
</g>
<!-- SPEC_docs&#45;materialize&#45;frontdoor&#45;drift&#45;&gt;SPEC_materialize&#45;spy&#45;test&#45;clusters -->
<g id="edge5" class="edge">
<title>SPEC_docs&#45;materialize&#45;frontdoor&#45;drift&#45;&gt;SPEC_materialize&#45;spy&#45;test&#45;clusters</title>
<path fill="none" stroke="#4b5563" stroke-width="1.1" d="M221.34,-1035.19C238.06,-997.56 276.17,-922.25 330.05,-878 386.54,-831.61 466.46,-803.62 521.99,-788.55"/>
<polygon fill="#4b5563" stroke="#4b5563" stroke-width="1.1" points="522.6,-790.92 528.73,-786.76 521.34,-786.19 522.6,-790.92"/>
</g>
<!-- SPEC_docs&#45;materialize&#45;frontdoor&#45;drift&#45;&gt;REL_full&#45;gate&#45;matrix&#45;green -->
<g id="edge25" class="edge">
<title>SPEC_docs&#45;materialize&#45;frontdoor&#45;drift&#45;&gt;REL_full&#45;gate&#45;matrix&#45;green</title>
<path fill="none" stroke="#4b5563" stroke-width="1.1" d="M269.77,-1080.98C363,-1113.72 545.8,-1159.57 644.1,-1061 706.78,-998.15 730.37,-711.89 736.31,-622.06"/>
<polygon fill="#4b5563" stroke="#4b5563" stroke-width="1.1" points="738.74,-622.32 736.75,-615.17 733.85,-622 738.74,-622.32"/>
</g>
<!-- SPEC_runtime&#45;error&#45;reading&#45;basis&#45;guidance&#45;&gt;SPEC_materialize&#45;spy&#45;test&#45;clusters -->
<g id="edge6" class="edge">
<title>SPEC_runtime&#45;error&#45;reading&#45;basis&#45;guidance&#45;&gt;SPEC_materialize&#45;spy&#45;test&#45;clusters</title>
<path fill="none" stroke="#4b5563" stroke-width="1.1" d="M418.22,-1035.01C432.62,-1014.02 454.33,-982.1 472.7,-954 508.39,-899.41 548.89,-834.56 570.62,-799.53"/>
<polygon fill="#4b5563" stroke="#4b5563" stroke-width="1.1" points="572.49,-801.17 574.09,-793.93 568.32,-798.59 572.49,-801.17"/>
</g>
<!-- SPEC_runtime&#45;error&#45;reading&#45;basis&#45;guidance&#45;&gt;REL_full&#45;gate&#45;matrix&#45;green -->
<g id="edge26" class="edge">
<title>SPEC_runtime&#45;error&#45;reading&#45;basis&#45;guidance&#45;&gt;REL_full&#45;gate&#45;matrix&#45;green</title>
<path fill="none" stroke="#4b5563" stroke-width="1.1" d="M459.42,-1063.54C514.11,-1065.51 595.36,-1059.15 644.1,-1012 700.84,-957.12 728.07,-705.46 735.65,-621.99"/>
<polygon fill="#4b5563" stroke="#4b5563" stroke-width="1.1" points="738.08,-622.4 736.26,-615.21 733.2,-621.96 738.08,-622.4"/>
</g>
<!-- BND_checkpoint&#45;schema&#45;contract&#45;drift -->
<g id="node4" class="node">
<title>BND_checkpoint&#45;schema&#45;contract&#45;drift</title>
<path fill="#bbf7d0" stroke="#15803d" stroke-width="2.4" d="M252.18,-729.91C252.18,-729.91 169.53,-729.91 169.53,-729.91 163.53,-729.91 157.53,-723.91 157.53,-717.91 157.53,-717.91 157.53,-698.09 157.53,-698.09 157.53,-692.09 163.53,-686.09 169.53,-686.09 169.53,-686.09 252.18,-686.09 252.18,-686.09 258.18,-686.09 264.18,-692.09 264.18,-698.09 264.18,-698.09 264.18,-717.91 264.18,-717.91 264.18,-723.91 258.18,-729.91 252.18,-729.91"/>
<text xml:space="preserve" text-anchor="middle" x="210.85" y="-715.38" font-family="Helvetica,sans-Serif" font-size="10.00">DONE</text>
<text xml:space="preserve" text-anchor="middle" x="210.85" y="-704.12" font-family="Helvetica,sans-Serif" font-size="10.00">BND_checkpoint</text>
<text xml:space="preserve" text-anchor="middle" x="210.85" y="-692.88" font-family="Helvetica,sans-Serif" font-size="10.00">schema contract drift</text>
</g>
<!-- PORT_checkpoint&#45;controller&#45;reading&#45;basis -->
<g id="node6" class="node">
<title>PORT_checkpoint&#45;controller&#45;reading&#45;basis</title>
<path fill="#bbf7d0" stroke="#15803d" stroke-width="2.4" d="M458.08,-729.91C458.08,-729.91 344.68,-729.91 344.68,-729.91 338.68,-729.91 332.68,-723.91 332.68,-717.91 332.68,-717.91 332.68,-698.09 332.68,-698.09 332.68,-692.09 338.68,-686.09 344.68,-686.09 344.68,-686.09 458.08,-686.09 458.08,-686.09 464.08,-686.09 470.08,-692.09 470.08,-698.09 470.08,-698.09 470.08,-717.91 470.08,-717.91 470.08,-723.91 464.08,-729.91 458.08,-729.91"/>
<text xml:space="preserve" text-anchor="middle" x="401.38" y="-715.38" font-family="Helvetica,sans-Serif" font-size="10.00">DONE</text>
<text xml:space="preserve" text-anchor="middle" x="401.38" y="-704.12" font-family="Helvetica,sans-Serif" font-size="10.00">PORT_checkpoint&#45;controller</text>
<text xml:space="preserve" text-anchor="middle" x="401.38" y="-692.88" font-family="Helvetica,sans-Serif" font-size="10.00">reading basis</text>
</g>
<!-- BND_checkpoint&#45;schema&#45;contract&#45;drift&#45;&gt;PORT_checkpoint&#45;controller&#45;reading&#45;basis -->
<g id="edge2" class="edge">
<title>BND_checkpoint&#45;schema&#45;contract&#45;drift&#45;&gt;PORT_checkpoint&#45;controller&#45;reading&#45;basis</title>
<path fill="none" stroke="#4b5563" stroke-width="1.1" d="M265.37,-708C283.29,-708 303.65,-708 323.02,-708"/>
<polygon fill="#4b5563" stroke="#4b5563" stroke-width="1.1" points="322.88,-710.45 329.88,-708 322.88,-705.55 322.88,-710.45"/>
</g>
<!-- REL_quarantine&#45;graduate&#45;clean -->
<g id="node16" class="node">
<title>REL_quarantine&#45;graduate&#45;clean</title>
<path fill="#e5e7eb" stroke="#4b5563" stroke-width="1.2" d="M617.48,-404C617.48,-404 557.33,-404 557.33,-404 551.33,-404 545.33,-398 545.33,-392 545.33,-392 545.33,-380 545.33,-380 545.33,-374 551.33,-368 557.33,-368 557.33,-368 617.48,-368 617.48,-368 623.48,-368 629.48,-374 629.48,-380 629.48,-380 629.48,-392 629.48,-392 629.48,-398 623.48,-404 617.48,-404"/>
<text xml:space="preserve" text-anchor="middle" x="587.4" y="-387.75" font-family="Helvetica,sans-Serif" font-size="10.00">REL_quarantine</text>
<text xml:space="preserve" text-anchor="middle" x="587.4" y="-376.5" font-family="Helvetica,sans-Serif" font-size="10.00">graduate clean</text>
</g>
<!-- BND_checkpoint&#45;schema&#45;contract&#45;drift&#45;&gt;REL_quarantine&#45;graduate&#45;clean -->
<g id="edge14" class="edge">
<title>BND_checkpoint&#45;schema&#45;contract&#45;drift&#45;&gt;REL_quarantine&#45;graduate&#45;clean</title>
<path fill="none" stroke="#4b5563" stroke-width="1.1" d="M221.05,-685.24C245.32,-625.59 310.59,-468.23 330.05,-452 361.17,-426.05 471.04,-404.53 536.41,-393.66"/>
<polygon fill="#4b5563" stroke="#4b5563" stroke-width="1.1" points="536.79,-396.08 543.3,-392.53 535.99,-391.24 536.79,-396.08"/>
</g>
<!-- BND_checkpoint&#45;schema&#45;contract&#45;drift&#45;&gt;REL_full&#45;gate&#45;matrix&#45;green -->
<g id="edge27" class="edge">
<title>BND_checkpoint&#45;schema&#45;contract&#45;drift&#45;&gt;REL_full&#45;gate&#45;matrix&#45;green</title>
<path fill="none" stroke="#4b5563" stroke-width="1.1" d="M214.83,-730.92C222.81,-781.78 249.83,-903.55 330.05,-954 383.72,-987.75 411.04,-968.75 472.7,-954 555.78,-934.12 587.99,-931.42 644.1,-867 707.84,-793.83 728.87,-675.08 735.31,-622.06"/>
<polygon fill="#4b5563" stroke="#4b5563" stroke-width="1.1" points="737.73,-622.43 736.09,-615.2 732.86,-621.87 737.73,-622.43"/>
</g>
<!-- PORT_patch&#45;controller&#45;reading&#45;basis -->
<g id="node5" class="node">
<title>PORT_patch&#45;controller&#45;reading&#45;basis</title>
<path fill="#bbf7d0" stroke="#15803d" stroke-width="2.4" d="M255.93,-546.91C255.93,-546.91 165.78,-546.91 165.78,-546.91 159.78,-546.91 153.78,-540.91 153.78,-534.91 153.78,-534.91 153.78,-515.08 153.78,-515.08 153.78,-509.08 159.78,-503.08 165.78,-503.08 165.78,-503.08 255.93,-503.08 255.93,-503.08 261.93,-503.08 267.93,-509.08 267.93,-515.08 267.93,-515.08 267.93,-534.91 267.93,-534.91 267.93,-540.91 261.93,-546.91 255.93,-546.91"/>
<text xml:space="preserve" text-anchor="middle" x="210.85" y="-532.38" font-family="Helvetica,sans-Serif" font-size="10.00">DONE</text>
<text xml:space="preserve" text-anchor="middle" x="210.85" y="-521.12" font-family="Helvetica,sans-Serif" font-size="10.00">PORT_patch&#45;controller</text>
<text xml:space="preserve" text-anchor="middle" x="210.85" y="-509.88" font-family="Helvetica,sans-Serif" font-size="10.00">reading basis</text>
</g>
<!-- PORT_subscription&#45;controller&#45;reading&#45;basis -->
<g id="node7" class="node">
<title>PORT_subscription&#45;controller&#45;reading&#45;basis</title>
<path fill="#bbf7d0" stroke="#15803d" stroke-width="2.4" d="M460.7,-511.92C460.7,-511.92 342.05,-511.92 342.05,-511.92 336.05,-511.92 330.05,-505.92 330.05,-499.92 330.05,-499.92 330.05,-480.08 330.05,-480.08 330.05,-474.08 336.05,-468.08 342.05,-468.08 342.05,-468.08 460.7,-468.08 460.7,-468.08 466.7,-468.08 472.7,-474.08 472.7,-480.08 472.7,-480.08 472.7,-499.92 472.7,-499.92 472.7,-505.92 466.7,-511.92 460.7,-511.92"/>
<text xml:space="preserve" text-anchor="middle" x="401.38" y="-497.38" font-family="Helvetica,sans-Serif" font-size="10.00">DONE</text>
<text xml:space="preserve" text-anchor="middle" x="401.38" y="-486.12" font-family="Helvetica,sans-Serif" font-size="10.00">PORT_subscription&#45;controller</text>
<text xml:space="preserve" text-anchor="middle" x="401.38" y="-474.88" font-family="Helvetica,sans-Serif" font-size="10.00">reading basis</text>
</g>
<!-- PORT_patch&#45;controller&#45;reading&#45;basis&#45;&gt;PORT_subscription&#45;controller&#45;reading&#45;basis -->
<g id="edge3" class="edge">
<title>PORT_patch&#45;controller&#45;reading&#45;basis&#45;&gt;PORT_subscription&#45;controller&#45;reading&#45;basis</title>
<path fill="none" stroke="#4b5563" stroke-width="1.1" d="M268.93,-514.4C285.22,-511.38 303.29,-508.02 320.68,-504.8"/>
<polygon fill="#4b5563" stroke="#4b5563" stroke-width="1.1" points="321.07,-507.21 327.51,-503.53 320.18,-502.4 321.07,-507.21"/>
</g>
<!-- PORT_patch&#45;controller&#45;reading&#45;basis&#45;&gt;SPEC_materialize&#45;spy&#45;test&#45;clusters -->
<g id="edge7" class="edge">
<title>PORT_patch&#45;controller&#45;reading&#45;basis&#45;&gt;SPEC_materialize&#45;spy&#45;test&#45;clusters</title>
<path fill="none" stroke="#4b5563" stroke-width="1.1" d="M220.86,-547.83C241.61,-599.24 293.82,-721.52 330.05,-746 386.5,-784.15 466.43,-786.83 521.97,-782.74"/>
<polygon fill="#4b5563" stroke="#4b5563" stroke-width="1.1" points="521.89,-785.2 528.67,-782.19 521.49,-780.32 521.89,-785.2"/>
</g>
<!-- PORT_patch&#45;controller&#45;reading&#45;basis&#45;&gt;REL_quarantine&#45;graduate&#45;clean -->
<g id="edge15" class="edge">
<title>PORT_patch&#45;controller&#45;reading&#45;basis&#45;&gt;REL_quarantine&#45;graduate&#45;clean</title>
<path fill="none" stroke="#4b5563" stroke-width="1.1" d="M224.46,-502.05C242.97,-471 280.72,-416.86 330.05,-394 396.39,-363.26 483.1,-368.66 536.75,-376.49"/>
<polygon fill="#4b5563" stroke="#4b5563" stroke-width="1.1" points="536.14,-378.88 543.43,-377.51 536.88,-374.03 536.14,-378.88"/>
</g>
<!-- PORT_patch&#45;controller&#45;reading&#45;basis&#45;&gt;REL_full&#45;gate&#45;matrix&#45;green -->
<g id="edge28" class="edge">
<title>PORT_patch&#45;controller&#45;reading&#45;basis&#45;&gt;REL_full&#45;gate&#45;matrix&#45;green</title>
<path fill="none" stroke="#4b5563" stroke-width="1.1" d="M268.9,-532.59C374.4,-546.63 597.9,-576.37 693.28,-589.06"/>
<polygon fill="#4b5563" stroke="#4b5563" stroke-width="1.1" points="692.91,-591.48 700.18,-589.98 693.56,-586.63 692.91,-591.48"/>
</g>
<!-- PORT_checkpoint&#45;controller&#45;reading&#45;basis&#45;&gt;SPEC_materialize&#45;spy&#45;test&#45;clusters -->
<g id="edge8" class="edge">
<title>PORT_checkpoint&#45;controller&#45;reading&#45;basis&#45;&gt;SPEC_materialize&#45;spy&#45;test&#45;clusters</title>
<path fill="none" stroke="#4b5563" stroke-width="1.1" d="M466.74,-731.08C486.24,-738.08 507.56,-745.72 526.74,-752.6"/>
<polygon fill="#4b5563" stroke="#4b5563" stroke-width="1.1" points="525.83,-754.88 533.25,-754.94 527.48,-750.27 525.83,-754.88"/>
</g>
<!-- PORT_checkpoint&#45;controller&#45;reading&#45;basis&#45;&gt;REL_quarantine&#45;graduate&#45;clean -->
<g id="edge16" class="edge">
<title>PORT_checkpoint&#45;controller&#45;reading&#45;basis&#45;&gt;REL_quarantine&#45;graduate&#45;clean</title>
<path fill="none" stroke="#4b5563" stroke-width="1.1" d="M454.96,-685.05C461.48,-680.7 467.62,-675.7 472.7,-670 541.83,-592.45 571.7,-467.6 581.95,-413.01"/>
<polygon fill="#4b5563" stroke="#4b5563" stroke-width="1.1" points="584.34,-413.53 583.18,-406.2 579.52,-412.65 584.34,-413.53"/>
</g>
<!-- PORT_checkpoint&#45;controller&#45;reading&#45;basis&#45;&gt;REL_full&#45;gate&#45;matrix&#45;green -->
<g id="edge29" class="edge">
<title>PORT_checkpoint&#45;controller&#45;reading&#45;basis&#45;&gt;REL_full&#45;gate&#45;matrix&#45;green</title>
<path fill="none" stroke="#4b5563" stroke-width="1.1" d="M471.09,-689.95C519.87,-676.55 586.63,-657.03 644.1,-636 660.74,-629.91 678.65,-622.35 694.32,-615.38"/>
<polygon fill="#4b5563" stroke="#4b5563" stroke-width="1.1" points="694.91,-617.8 700.29,-612.7 692.9,-613.33 694.91,-617.8"/>
</g>
<!-- PORT_subscription&#45;controller&#45;reading&#45;basis&#45;&gt;SPEC_materialize&#45;spy&#45;test&#45;clusters -->
<g id="edge9" class="edge">
<title>PORT_subscription&#45;controller&#45;reading&#45;basis&#45;&gt;SPEC_materialize&#45;spy&#45;test&#45;clusters</title>
<path fill="none" stroke="#4b5563" stroke-width="1.1" d="M418.22,-512.99C432.62,-533.98 454.33,-565.9 472.7,-594 508.39,-648.59 548.89,-713.44 570.62,-748.47"/>
<polygon fill="#4b5563" stroke="#4b5563" stroke-width="1.1" points="568.32,-749.41 574.09,-754.07 572.49,-746.83 568.32,-749.41"/>
</g>
<!-- PORT_subscription&#45;controller&#45;reading&#45;basis&#45;&gt;REL_quarantine&#45;graduate&#45;clean -->
<g id="edge17" class="edge">
<title>PORT_subscription&#45;controller&#45;reading&#45;basis&#45;&gt;REL_quarantine&#45;graduate&#45;clean</title>
<path fill="none" stroke="#4b5563" stroke-width="1.1" d="M443.22,-466.92C473.87,-449.6 515.63,-426 546.14,-408.75"/>
<polygon fill="#4b5563" stroke="#4b5563" stroke-width="1.1" points="547.3,-410.91 552.19,-405.33 544.89,-406.64 547.3,-410.91"/>
</g>
<!-- PORT_subscription&#45;controller&#45;reading&#45;basis&#45;&gt;REL_full&#45;gate&#45;matrix&#45;green -->
<g id="edge30" class="edge">
<title>PORT_subscription&#45;controller&#45;reading&#45;basis&#45;&gt;REL_full&#45;gate&#45;matrix&#45;green</title>
<path fill="none" stroke="#4b5563" stroke-width="1.1" d="M473.87,-496.52C523.04,-502.7 589.14,-514.38 644.1,-536 666.71,-544.89 689.83,-559.36 707.47,-571.74"/>
<polygon fill="#4b5563" stroke="#4b5563" stroke-width="1.1" points="705.72,-573.5 712.83,-575.58 708.56,-569.52 705.72,-573.5"/>
</g>
<!-- PORT_sync&#45;controller&#45;reading&#45;basis -->
<g id="node8" class="node">
<title>PORT_sync&#45;controller&#45;reading&#45;basis</title>
<path fill="#bbf7d0" stroke="#15803d" stroke-width="2.4" d="M444.95,-653.91C444.95,-653.91 357.8,-653.91 357.8,-653.91 351.8,-653.91 345.8,-647.91 345.8,-641.91 345.8,-641.91 345.8,-622.09 345.8,-622.09 345.8,-616.09 351.8,-610.09 357.8,-610.09 357.8,-610.09 444.95,-610.09 444.95,-610.09 450.95,-610.09 456.95,-616.09 456.95,-622.09 456.95,-622.09 456.95,-641.91 456.95,-641.91 456.95,-647.91 450.95,-653.91 444.95,-653.91"/>
<text xml:space="preserve" text-anchor="middle" x="401.38" y="-639.38" font-family="Helvetica,sans-Serif" font-size="10.00">DONE</text>
<text xml:space="preserve" text-anchor="middle" x="401.38" y="-628.12" font-family="Helvetica,sans-Serif" font-size="10.00">PORT_sync&#45;controller</text>
<text xml:space="preserve" text-anchor="middle" x="401.38" y="-616.88" font-family="Helvetica,sans-Serif" font-size="10.00">reading basis</text>
</g>
<!-- PORT_sync&#45;controller&#45;reading&#45;basis&#45;&gt;SPEC_materialize&#45;spy&#45;test&#45;clusters -->
<g id="edge10" class="edge">
<title>PORT_sync&#45;controller&#45;reading&#45;basis&#45;&gt;SPEC_materialize&#45;spy&#45;test&#45;clusters</title>
<path fill="none" stroke="#4b5563" stroke-width="1.1" d="M448.75,-654.95C456.95,-659.6 465.24,-664.69 472.7,-670 506.58,-694.09 541.22,-727.25 563.22,-749.6"/>
<polygon fill="#4b5563" stroke="#4b5563" stroke-width="1.1" points="561.27,-751.11 567.91,-754.41 564.77,-747.69 561.27,-751.11"/>
</g>
<!-- PORT_sync&#45;controller&#45;reading&#45;basis&#45;&gt;REL_quarantine&#45;graduate&#45;clean -->
<g id="edge18" class="edge">
<title>PORT_sync&#45;controller&#45;reading&#45;basis&#45;&gt;REL_quarantine&#45;graduate&#45;clean</title>
<path fill="none" stroke="#4b5563" stroke-width="1.1" d="M419.36,-609.3C453.79,-563.27 531.59,-459.26 567.54,-411.21"/>
<polygon fill="#4b5563" stroke="#4b5563" stroke-width="1.1" points="569.3,-412.95 571.53,-405.87 565.38,-410.01 569.3,-412.95"/>
</g>
<!-- PORT_sync&#45;controller&#45;reading&#45;basis&#45;&gt;REL_full&#45;gate&#45;matrix&#45;green -->
<g id="edge31" class="edge">
<title>PORT_sync&#45;controller&#45;reading&#45;basis&#45;&gt;REL_full&#45;gate&#45;matrix&#45;green</title>
<path fill="none" stroke="#4b5563" stroke-width="1.1" d="M457.78,-625.89C523.74,-618.62 632.58,-606.62 693.35,-599.91"/>
<polygon fill="#4b5563" stroke="#4b5563" stroke-width="1.1" points="693.26,-602.39 699.95,-599.19 692.72,-597.52 693.26,-602.39"/>
</g>
<!-- SPEC_materialize&#45;spy&#45;test&#45;clusters&#45;&gt;REL_full&#45;gate&#45;matrix&#45;green -->
<g id="edge32" class="edge">
<title>SPEC_materialize&#45;spy&#45;test&#45;clusters&#45;&gt;REL_full&#45;gate&#45;matrix&#45;green</title>
<path fill="none" stroke="#4b5563" stroke-width="1.1" d="M612.89,-755.57C623.07,-747.36 634.67,-737.24 644.1,-727 675.25,-693.15 704.91,-648.65 722.26,-620.94"/>
<polygon fill="#4b5563" stroke="#4b5563" stroke-width="1.1" points="724.33,-622.25 725.94,-615.01 720.17,-619.66 724.33,-622.25"/>
</g>
<!-- SPEC_observer&#45;coordinate&#45;pinning -->
<g id="node10" class="node">
<title>SPEC_observer&#45;coordinate&#45;pinning</title>
<path fill="#dbeafe" stroke="#4b5563" stroke-width="1.2" d="M435.95,-36C435.95,-36 366.8,-36 366.8,-36 360.8,-36 354.8,-30 354.8,-24 354.8,-24 354.8,-12 354.8,-12 354.8,-6 360.8,0 366.8,0 366.8,0 435.95,0 435.95,0 441.95,0 447.95,-6 447.95,-12 447.95,-12 447.95,-24 447.95,-24 447.95,-30 441.95,-36 435.95,-36"/>
<text xml:space="preserve" text-anchor="middle" x="401.38" y="-19.75" font-family="Helvetica,sans-Serif" font-size="10.00">SPEC_observer</text>
<text xml:space="preserve" text-anchor="middle" x="401.38" y="-8.5" font-family="Helvetica,sans-Serif" font-size="10.00">coordinate pinning</text>
</g>
<!-- SPEC_observer&#45;coordinate&#45;pinning&#45;&gt;REL_quarantine&#45;graduate&#45;clean -->
<g id="edge19" class="edge">
<title>SPEC_observer&#45;coordinate&#45;pinning&#45;&gt;REL_quarantine&#45;graduate&#45;clean</title>
<path fill="none" stroke="#4b5563" stroke-width="1.1" d="M448.39,-33.72C457.37,-38.47 466.05,-44.48 472.7,-52 483.4,-64.09 553.58,-282.78 578.02,-359.59"/>
<polygon fill="#4b5563" stroke="#4b5563" stroke-width="1.1" points="575.55,-359.89 580,-365.82 580.22,-358.41 575.55,-359.89"/>
</g>
<!-- SPEC_observer&#45;coordinate&#45;pinning&#45;&gt;REL_full&#45;gate&#45;matrix&#45;green -->
<g id="edge33" class="edge">
<title>SPEC_observer&#45;coordinate&#45;pinning&#45;&gt;REL_full&#45;gate&#45;matrix&#45;green</title>
<path fill="none" stroke="#4b5563" stroke-width="1.1" d="M448.46,-35.3C457.13,-39.88 465.67,-45.42 472.7,-52 510.78,-87.63 492.51,-118.49 530.7,-154 571.58,-192.01 608.91,-164.67 644.1,-208 690.05,-264.58 723.96,-490.54 734.49,-568.44"/>
<polygon fill="#4b5563" stroke="#4b5563" stroke-width="1.1" points="732.03,-568.5 735.38,-575.12 736.88,-567.85 732.03,-568.5"/>
</g>
<!-- SPEC_uniform&#45;git&#45;cas&#45;upgrade&#45;contract&#45;drift -->
<g id="node11" class="node">
<title>SPEC_uniform&#45;git&#45;cas&#45;upgrade&#45;contract&#45;drift</title>
<path fill="#bbf7d0" stroke="#15803d" stroke-width="2.4" d="M631.35,-137.91C631.35,-137.91 543.45,-137.91 543.45,-137.91 537.45,-137.91 531.45,-131.91 531.45,-125.91 531.45,-125.91 531.45,-106.09 531.45,-106.09 531.45,-100.09 537.45,-94.09 543.45,-94.09 543.45,-94.09 631.35,-94.09 631.35,-94.09 637.35,-94.09 643.35,-100.09 643.35,-106.09 643.35,-106.09 643.35,-125.91 643.35,-125.91 643.35,-131.91 637.35,-137.91 631.35,-137.91"/>
<text xml:space="preserve" text-anchor="middle" x="587.4" y="-123.38" font-family="Helvetica,sans-Serif" font-size="10.00">DONE</text>
<text xml:space="preserve" text-anchor="middle" x="587.4" y="-112.12" font-family="Helvetica,sans-Serif" font-size="10.00">SPEC_uniform&#45;git&#45;cas</text>
<text xml:space="preserve" text-anchor="middle" x="587.4" y="-100.88" font-family="Helvetica,sans-Serif" font-size="10.00">upgrade contract drift</text>
</g>
<!-- SPEC_uniform&#45;git&#45;cas&#45;upgrade&#45;contract&#45;drift&#45;&gt;REL_full&#45;gate&#45;matrix&#45;green -->
<g id="edge34" class="edge">
<title>SPEC_uniform&#45;git&#45;cas&#45;upgrade&#45;contract&#45;drift&#45;&gt;REL_full&#45;gate&#45;matrix&#45;green</title>
<path fill="none" stroke="#4b5563" stroke-width="1.1" d="M623.49,-138.93C631.3,-145.53 638.82,-153.32 644.1,-162 726.77,-297.77 737.11,-496.51 738.03,-568.08"/>
<polygon fill="#4b5563" stroke="#4b5563" stroke-width="1.1" points="735.57,-567.9 738.08,-574.88 740.47,-567.86 735.57,-567.9"/>
</g>
<!-- HEX_sync&#45;secret&#45;plain&#45;string -->
<g id="node12" class="node">
<title>HEX_sync&#45;secret&#45;plain&#45;string</title>
<path fill="#fee2e2" stroke="#4b5563" stroke-width="1.2" d="M79.65,-238C79.65,-238 12,-238 12,-238 6,-238 0,-232 0,-226 0,-226 0,-214 0,-214 0,-208 6,-202 12,-202 12,-202 79.65,-202 79.65,-202 85.65,-202 91.65,-208 91.65,-214 91.65,-214 91.65,-226 91.65,-226 91.65,-232 85.65,-238 79.65,-238"/>
<text xml:space="preserve" text-anchor="middle" x="45.83" y="-221.75" font-family="Helvetica,sans-Serif" font-size="10.00">HEX_sync&#45;secret</text>
<text xml:space="preserve" text-anchor="middle" x="45.83" y="-210.5" font-family="Helvetica,sans-Serif" font-size="10.00">plain string</text>
</g>
<!-- HEX_sync&#45;production&#45;auth&#45;defaults -->
<g id="node13" class="node">
<title>HEX_sync&#45;production&#45;auth&#45;defaults</title>
<path fill="#fee2e2" stroke="#4b5563" stroke-width="1.2" d="M253.68,-205C253.68,-205 168.03,-205 168.03,-205 162.03,-205 156.03,-199 156.03,-193 156.03,-193 156.03,-181 156.03,-181 156.03,-175 162.03,-169 168.03,-169 168.03,-169 253.68,-169 253.68,-169 259.68,-169 265.68,-175 265.68,-181 265.68,-181 265.68,-193 265.68,-193 265.68,-199 259.68,-205 253.68,-205"/>
<text xml:space="preserve" text-anchor="middle" x="210.85" y="-188.75" font-family="Helvetica,sans-Serif" font-size="10.00">HEX_sync&#45;production</text>
<text xml:space="preserve" text-anchor="middle" x="210.85" y="-177.5" font-family="Helvetica,sans-Serif" font-size="10.00">auth defaults</text>
</g>
<!-- HEX_sync&#45;secret&#45;plain&#45;string&#45;&gt;HEX_sync&#45;production&#45;auth&#45;defaults -->
<g id="edge11" class="edge">
<title>HEX_sync&#45;secret&#45;plain&#45;string&#45;&gt;HEX_sync&#45;production&#45;auth&#45;defaults</title>
<path fill="none" stroke="#4b5563" stroke-width="1.1" d="M92.24,-210.81C109.31,-207.35 129.04,-203.36 147.39,-199.64"/>
<polygon fill="#4b5563" stroke="#4b5563" stroke-width="1.1" points="147.71,-202.08 154.09,-198.29 146.74,-197.28 147.71,-202.08"/>
</g>
<!-- HEX_sync&#45;secret&#45;plain&#45;string&#45;&gt;REL_quarantine&#45;graduate&#45;clean -->
<g id="edge20" class="edge">
<title>HEX_sync&#45;secret&#45;plain&#45;string&#45;&gt;REL_quarantine&#45;graduate&#45;clean</title>
<path fill="none" stroke="#4b5563" stroke-width="1.1" d="M91.9,-233.87C192.02,-264.67 432.3,-338.59 536.64,-370.69"/>
<polygon fill="#4b5563" stroke="#4b5563" stroke-width="1.1" points="535.81,-373 543.22,-372.72 537.25,-368.32 535.81,-373"/>
</g>
<!-- HEX_sync&#45;no&#45;rate&#45;limiting -->
<g id="node14" class="node">
<title>HEX_sync&#45;no&#45;rate&#45;limiting</title>
<path fill="#fee2e2" stroke="#4b5563" stroke-width="1.2" d="M428.45,-104C428.45,-104 374.3,-104 374.3,-104 368.3,-104 362.3,-98 362.3,-92 362.3,-92 362.3,-80 362.3,-80 362.3,-74 368.3,-68 374.3,-68 374.3,-68 428.45,-68 428.45,-68 434.45,-68 440.45,-74 440.45,-80 440.45,-80 440.45,-92 440.45,-92 440.45,-98 434.45,-104 428.45,-104"/>
<text xml:space="preserve" text-anchor="middle" x="401.38" y="-87.75" font-family="Helvetica,sans-Serif" font-size="10.00">HEX_sync</text>
<text xml:space="preserve" text-anchor="middle" x="401.38" y="-76.5" font-family="Helvetica,sans-Serif" font-size="10.00">no rate limiting</text>
</g>
<!-- HEX_sync&#45;production&#45;auth&#45;defaults&#45;&gt;HEX_sync&#45;no&#45;rate&#45;limiting -->
<g id="edge12" class="edge">
<title>HEX_sync&#45;production&#45;auth&#45;defaults&#45;&gt;HEX_sync&#45;no&#45;rate&#45;limiting</title>
<path fill="none" stroke="#4b5563" stroke-width="1.1" d="M243.15,-168.52C266.8,-154.74 300.18,-135.67 330.05,-120 337.87,-115.9 346.25,-111.69 354.41,-107.69"/>
<polygon fill="#4b5563" stroke="#4b5563" stroke-width="1.1" points="355.11,-110.07 360.33,-104.81 352.96,-105.67 355.11,-110.07"/>
</g>
<!-- HEX_sync&#45;500&#45;sanitization -->
<g id="node15" class="node">
<title>HEX_sync&#45;500&#45;sanitization</title>
<path fill="#fee2e2" stroke="#4b5563" stroke-width="1.2" d="M430.7,-172C430.7,-172 372.05,-172 372.05,-172 366.05,-172 360.05,-166 360.05,-160 360.05,-160 360.05,-148 360.05,-148 360.05,-142 366.05,-136 372.05,-136 372.05,-136 430.7,-136 430.7,-136 436.7,-136 442.7,-142 442.7,-148 442.7,-148 442.7,-160 442.7,-160 442.7,-166 436.7,-172 430.7,-172"/>
<text xml:space="preserve" text-anchor="middle" x="401.38" y="-155.75" font-family="Helvetica,sans-Serif" font-size="10.00">HEX_sync</text>
<text xml:space="preserve" text-anchor="middle" x="401.38" y="-144.5" font-family="Helvetica,sans-Serif" font-size="10.00">500 sanitization</text>
</g>
<!-- HEX_sync&#45;production&#45;auth&#45;defaults&#45;&gt;HEX_sync&#45;500&#45;sanitization -->
<g id="edge13" class="edge">
<title>HEX_sync&#45;production&#45;auth&#45;defaults&#45;&gt;HEX_sync&#45;500&#45;sanitization</title>
<path fill="none" stroke="#4b5563" stroke-width="1.1" d="M266.13,-177.5C293.02,-172.79 325.25,-167.15 351.38,-162.58"/>
<polygon fill="#4b5563" stroke="#4b5563" stroke-width="1.1" points="351.53,-165.04 358,-161.42 350.68,-160.21 351.53,-165.04"/>
</g>
<!-- HEX_sync&#45;production&#45;auth&#45;defaults&#45;&gt;REL_quarantine&#45;graduate&#45;clean -->
<g id="edge21" class="edge">
<title>HEX_sync&#45;production&#45;auth&#45;defaults&#45;&gt;REL_quarantine&#45;graduate&#45;clean</title>
<path fill="none" stroke="#4b5563" stroke-width="1.1" d="M266.1,-192C322.27,-199.45 410.37,-217.73 472.7,-262 509.09,-287.85 499.62,-311.96 530.7,-344 537.03,-350.52 544.43,-356.83 551.73,-362.49"/>
<polygon fill="#4b5563" stroke="#4b5563" stroke-width="1.1" points="549.98,-364.24 557.05,-366.49 552.93,-360.32 549.98,-364.24"/>
</g>
<!-- HEX_sync&#45;no&#45;rate&#45;limiting&#45;&gt;REL_quarantine&#45;graduate&#45;clean -->
<g id="edge22" class="edge">
<title>HEX_sync&#45;no&#45;rate&#45;limiting&#45;&gt;REL_quarantine&#45;graduate&#45;clean</title>
<path fill="none" stroke="#4b5563" stroke-width="1.1" d="M440.94,-98.27C452.39,-103.46 464.14,-110.55 472.7,-120 522.93,-175.43 500.61,-209.52 530.7,-278 543.32,-306.73 560.08,-338.53 571.91,-360.14"/>
<polygon fill="#4b5563" stroke="#4b5563" stroke-width="1.1" points="569.7,-361.2 575.22,-366.15 573.99,-358.84 569.7,-361.2"/>
</g>
<!-- HEX_sync&#45;no&#45;rate&#45;limiting&#45;&gt;REL_full&#45;gate&#45;matrix&#45;green -->
<g id="edge35" class="edge">
<title>HEX_sync&#45;no&#45;rate&#45;limiting&#45;&gt;REL_full&#45;gate&#45;matrix&#45;green</title>
<path fill="none" stroke="#4b5563" stroke-width="1.1" d="M440.89,-99.92C451.95,-105.1 463.5,-111.78 472.7,-120 508.74,-152.21 495.48,-178.9 530.7,-212 572.56,-251.34 608.1,-229.24 644.1,-274 716.62,-364.15 733.09,-508.45 736.83,-567.98"/>
<polygon fill="#4b5563" stroke="#4b5563" stroke-width="1.1" points="734.37,-567.94 737.21,-574.79 739.26,-567.67 734.37,-567.94"/>
</g>
<!-- HEX_sync&#45;500&#45;sanitization&#45;&gt;REL_quarantine&#45;graduate&#45;clean -->
<g id="edge23" class="edge">
<title>HEX_sync&#45;500&#45;sanitization&#45;&gt;REL_quarantine&#45;graduate&#45;clean</title>
<path fill="none" stroke="#4b5563" stroke-width="1.1" d="M443.03,-172.19C453.77,-178.51 464.61,-186.45 472.7,-196 518.37,-249.9 487.99,-287.72 530.7,-344 535.81,-350.73 542.26,-356.91 548.96,-362.34"/>
<polygon fill="#4b5563" stroke="#4b5563" stroke-width="1.1" points="547.33,-364.18 554.37,-366.5 550.31,-360.29 547.33,-364.18"/>
</g>
<!-- HEX_sync&#45;500&#45;sanitization&#45;&gt;REL_full&#45;gate&#45;matrix&#45;green -->
<g id="edge36" class="edge">
<title>HEX_sync&#45;500&#45;sanitization&#45;&gt;REL_full&#45;gate&#45;matrix&#45;green</title>
<path fill="none" stroke="#4b5563" stroke-width="1.1" d="M439.8,-172.47C451.06,-179.02 462.99,-187.02 472.7,-196 505.46,-226.32 498.55,-247.03 530.7,-278 574.04,-319.75 606.23,-305.23 644.1,-352 698.21,-418.84 723.7,-520.46 733.24,-568.31"/>
<polygon fill="#4b5563" stroke="#4b5563" stroke-width="1.1" points="730.79,-568.56 734.52,-574.97 735.6,-567.63 730.79,-568.56"/>
</g>
<!-- REL_quarantine&#45;graduate&#45;clean&#45;&gt;REL_full&#45;gate&#45;matrix&#45;green -->
<g id="edge37" class="edge">
<title>REL_quarantine&#45;graduate&#45;clean&#45;&gt;REL_full&#45;gate&#45;matrix&#45;green</title>
<path fill="none" stroke="#4b5563" stroke-width="1.1" d="M601.67,-404.55C628.49,-442.04 689.2,-526.89 719.71,-569.53"/>
<polygon fill="#4b5563" stroke="#4b5563" stroke-width="1.1" points="717.65,-570.87 723.72,-575.14 721.64,-568.02 717.65,-570.87"/>
</g>
<!-- REL_release&#45;cut&#45;version&#45;changelog -->
<g id="node18" class="node">
<title>REL_release&#45;cut&#45;version&#45;changelog</title>
<path fill="#dcfce7" stroke="#4b5563" stroke-width="1.2" d="M923.9,-613C923.9,-613 845.75,-613 845.75,-613 839.75,-613 833.75,-607 833.75,-601 833.75,-601 833.75,-589 833.75,-589 833.75,-583 839.75,-577 845.75,-577 845.75,-577 923.9,-577 923.9,-577 929.9,-577 935.9,-583 935.9,-589 935.9,-589 935.9,-601 935.9,-601 935.9,-607 929.9,-613 923.9,-613"/>
<text xml:space="preserve" text-anchor="middle" x="884.83" y="-596.75" font-family="Helvetica,sans-Serif" font-size="10.00">REL_release cut</text>
<text xml:space="preserve" text-anchor="middle" x="884.83" y="-585.5" font-family="Helvetica,sans-Serif" font-size="10.00">version + changelog</text>
</g>
<!-- REL_full&#45;gate&#45;matrix&#45;green&#45;&gt;REL_release&#45;cut&#45;version&#45;changelog -->
<g id="edge38" class="edge">
<title>REL_full&#45;gate&#45;matrix&#45;green&#45;&gt;REL_release&#45;cut&#45;version&#45;changelog</title>
<path fill="none" stroke="#4b5563" stroke-width="1.1" d="M776.24,-595C790.98,-595 808.4,-595 824.88,-595"/>
<polygon fill="#4b5563" stroke="#4b5563" stroke-width="1.1" points="824.73,-597.45 831.73,-595 824.73,-592.55 824.73,-597.45"/>
</g>
<!-- REL_release&#45;preflight&#45;and&#45;rc -->
<g id="node19" class="node">
<title>REL_release&#45;preflight&#45;and&#45;rc</title>
<path fill="#dcfce7" stroke="#4b5563" stroke-width="1.2" d="M1057.8,-613C1057.8,-613 1005.9,-613 1005.9,-613 999.9,-613 993.9,-607 993.9,-601 993.9,-601 993.9,-589 993.9,-589 993.9,-583 999.9,-577 1005.9,-577 1005.9,-577 1057.8,-577 1057.8,-577 1063.8,-577 1069.8,-583 1069.8,-589 1069.8,-589 1069.8,-601 1069.8,-601 1069.8,-607 1063.8,-613 1057.8,-613"/>
<text xml:space="preserve" text-anchor="middle" x="1031.85" y="-596.75" font-family="Helvetica,sans-Serif" font-size="10.00">REL_release</text>
<text xml:space="preserve" text-anchor="middle" x="1031.85" y="-585.5" font-family="Helvetica,sans-Serif" font-size="10.00">preflight + RC</text>
</g>
<!-- REL_release&#45;cut&#45;version&#45;changelog&#45;&gt;REL_release&#45;preflight&#45;and&#45;rc -->
<g id="edge39" class="edge">
<title>REL_release&#45;cut&#45;version&#45;changelog&#45;&gt;REL_release&#45;preflight&#45;and&#45;rc</title>
<path fill="none" stroke="#4b5563" stroke-width="1.1" d="M936.14,-595C952.02,-595 969.46,-595 985.01,-595"/>
<polygon fill="#4b5563" stroke="#4b5563" stroke-width="1.1" points="984.77,-597.45 991.77,-595 984.77,-592.55 984.77,-597.45"/>
</g>
<!-- REL_push&#45;pr&#45;review&#45;merge -->
<g id="node20" class="node">
<title>REL_push&#45;pr&#45;review&#45;merge</title>
<path fill="#dcfce7" stroke="#4b5563" stroke-width="1.2" d="M1199.2,-613C1199.2,-613 1139.8,-613 1139.8,-613 1133.8,-613 1127.8,-607 1127.8,-601 1127.8,-601 1127.8,-589 1127.8,-589 1127.8,-583 1133.8,-577 1139.8,-577 1139.8,-577 1199.2,-577 1199.2,-577 1205.2,-577 1211.2,-583 1211.2,-589 1211.2,-589 1211.2,-601 1211.2,-601 1211.2,-607 1205.2,-613 1199.2,-613"/>
<text xml:space="preserve" text-anchor="middle" x="1169.5" y="-596.75" font-family="Helvetica,sans-Serif" font-size="10.00">REL_push / PR</text>
<text xml:space="preserve" text-anchor="middle" x="1169.5" y="-585.5" font-family="Helvetica,sans-Serif" font-size="10.00">review / merge</text>
</g>
<!-- REL_release&#45;preflight&#45;and&#45;rc&#45;&gt;REL_push&#45;pr&#45;review&#45;merge -->
<g id="edge40" class="edge">
<title>REL_release&#45;preflight&#45;and&#45;rc&#45;&gt;REL_push&#45;pr&#45;review&#45;merge</title>
<path fill="none" stroke="#4b5563" stroke-width="1.1" d="M1070.28,-595C1085.37,-595 1102.99,-595 1119.11,-595"/>
<polygon fill="#4b5563" stroke="#4b5563" stroke-width="1.1" points="1118.72,-597.45 1125.72,-595 1118.72,-592.55 1118.72,-597.45"/>
</g>
</g>
</svg>
