<?xml version="1.0" encoding="UTF-8" standalone="no"?>
<!DOCTYPE svg PUBLIC "-//W3C//DTD SVG 1.1//EN"
 "http://www.w3.org/Graphics/SVG/1.1/DTD/svg11.dtd">
<!-- Generated by graphviz version 14.1.2 (20260124.0452)
 -->
<!-- Title: V17ReleaseBlockers Pages: 1 -->
<svg width="1248pt" height="1169pt"
 viewBox="14.00 14.00 1234.00 1154.00" xmlns="http://www.w3.org/2000/svg" xmlns:xlink="http://www.w3.org/1999/xlink">
<g id="graph0" class="graph" transform="scale(1 1) rotate(0) translate(18.4 1150.1)">
<title>V17ReleaseBlockers</title>
<polygon fill="white" stroke="none" points="-4,4 -4,-1135.7 1215.2,-1135.7 1215.2,4 -4,4"/>
<text xml:space="preserve" text-anchor="middle" x="605.6" y="-1110.6" font-family="Helvetica,sans-Serif" font-size="18.00">v17.0.0 Release Blocker DAG</text>
<!-- SPEC_consumer&#45;typecheck&#45;materialize&#45;residue -->
<g id="node1" class="node">
<title>SPEC_consumer&#45;typecheck&#45;materialize&#45;residue</title>
<path fill="#bbf7d0" stroke="#15803d" stroke-width="2.4" d="M458.45,-921.91C458.45,-921.91 344.3,-921.91 344.3,-921.91 338.3,-921.91 332.3,-915.91 332.3,-909.91 332.3,-909.91 332.3,-890.09 332.3,-890.09 332.3,-884.09 338.3,-878.09 344.3,-878.09 344.3,-878.09 458.45,-878.09 458.45,-878.09 464.45,-878.09 470.45,-884.09 470.45,-890.09 470.45,-890.09 470.45,-909.91 470.45,-909.91 470.45,-915.91 464.45,-921.91 458.45,-921.91"/>
<text xml:space="preserve" text-anchor="middle" x="401.38" y="-907.38" font-family="Helvetica,sans-Serif" font-size="10.00">DONE</text>
<text xml:space="preserve" text-anchor="middle" x="401.38" y="-896.12" font-family="Helvetica,sans-Serif" font-size="10.00">SPEC_consumer&#45;typecheck</text>
<text xml:space="preserve" text-anchor="middle" x="401.38" y="-884.88" font-family="Helvetica,sans-Serif" font-size="10.00">materialize residue</text>
</g>
<!-- SPEC_materialize&#45;spy&#45;test&#45;clusters -->
<g id="node9" class="node">
<title>SPEC_materialize&#45;spy&#45;test&#45;clusters</title>
<path fill="#dbeafe" stroke="#4b5563" stroke-width="1.2" d="M632.1,-778C632.1,-778 542.7,-778 542.7,-778 536.7,-778 530.7,-772 530.7,-766 530.7,-766 530.7,-754 530.7,-754 530.7,-748 536.7,-742 542.7,-742 542.7,-742 632.1,-742 632.1,-742 638.1,-742 644.1,-748 644.1,-754 644.1,-754 644.1,-766 644.1,-766 644.1,-772 638.1,-778 632.1,-778"/>
<text xml:space="preserve" text-anchor="middle" x="587.4" y="-761.75" font-family="Helvetica,sans-Serif" font-size="10.00">SPEC_materialize&#45;spy</text>
<text xml:space="preserve" text-anchor="middle" x="587.4" y="-750.5" font-family="Helvetica,sans-Serif" font-size="10.00">test clusters</text>
</g>
<!-- SPEC_consumer&#45;typecheck&#45;materialize&#45;residue&#45;&gt;SPEC_materialize&#45;spy&#45;test&#45;clusters -->
<g id="edge4" class="edge">
<title>SPEC_consumer&#45;typecheck&#45;materialize&#45;residue&#45;&gt;SPEC_materialize&#45;spy&#45;test&#45;clusters</title>
<path fill="none" stroke="#4b5563" stroke-width="1.1" d="M439.04,-877.12C450.04,-869.96 462.01,-861.88 472.7,-854 503.29,-831.46 536.61,-803.48 559.22,-783.93"/>
<polygon fill="#4b5563" stroke="#4b5563" stroke-width="1.1" points="560.65,-785.93 564.34,-779.49 557.44,-782.23 560.65,-785.93"/>
</g>
<!-- REL_full&#45;gate&#45;matrix&#45;green -->
<g id="node17" class="node">
<title>REL_full&#45;gate&#45;matrix&#45;green</title>
<path fill="#dcfce7" stroke="#4b5563" stroke-width="1.2" d="M763.75,-604C763.75,-604 714.1,-604 714.1,-604 708.1,-604 702.1,-598 702.1,-592 702.1,-592 702.1,-580 702.1,-580 702.1,-574 708.1,-568 714.1,-568 714.1,-568 763.75,-568 763.75,-568 769.75,-568 775.75,-574 775.75,-580 775.75,-580 775.75,-592 775.75,-592 775.75,-598 769.75,-604 763.75,-604"/>
<text xml:space="preserve" text-anchor="middle" x="738.93" y="-587.75" font-family="Helvetica,sans-Serif" font-size="10.00">REL_full gate</text>
<text xml:space="preserve" text-anchor="middle" x="738.93" y="-576.5" font-family="Helvetica,sans-Serif" font-size="10.00">matrix green</text>
</g>
<!-- SPEC_consumer&#45;typecheck&#45;materialize&#45;residue&#45;&gt;REL_full&#45;gate&#45;matrix&#45;green -->
<g id="edge24" class="edge">
<title>SPEC_consumer&#45;typecheck&#45;materialize&#45;residue&#45;&gt;REL_full&#45;gate&#45;matrix&#45;green</title>
<path fill="none" stroke="#4b5563" stroke-width="1.1" d="M471.57,-884.17C524.61,-868.92 596.55,-841.06 644.1,-794 696.39,-742.25 722.19,-656.13 732.42,-612.73"/>
<polygon fill="#4b5563" stroke="#4b5563" stroke-width="1.1" points="734.78,-613.39 733.94,-606.02 730,-612.3 734.78,-613.39"/>
</g>
<!-- SPEC_docs&#45;materialize&#45;frontdoor&#45;drift -->
<g id="node2" class="node">
<title>SPEC_docs&#45;materialize&#45;frontdoor&#45;drift</title>
<path fill="#bbf7d0" stroke="#15803d" stroke-width="2.4" d="M260.05,-1063.91C260.05,-1063.91 161.65,-1063.91 161.65,-1063.91 155.65,-1063.91 149.65,-1057.91 149.65,-1051.91 149.65,-1051.91 149.65,-1032.09 149.65,-1032.09 149.65,-1026.09 155.65,-1020.09 161.65,-1020.09 161.65,-1020.09 260.05,-1020.09 260.05,-1020.09 266.05,-1020.09 272.05,-1026.09 272.05,-1032.09 272.05,-1032.09 272.05,-1051.91 272.05,-1051.91 272.05,-1057.91 266.05,-1063.91 260.05,-1063.91"/>
<text xml:space="preserve" text-anchor="middle" x="210.85" y="-1049.38" font-family="Helvetica,sans-Serif" font-size="10.00">DONE</text>
<text xml:space="preserve" text-anchor="middle" x="210.85" y="-1038.12" font-family="Helvetica,sans-Serif" font-size="10.00">SPEC_docs</text>
<text xml:space="preserve" text-anchor="middle" x="210.85" y="-1026.88" font-family="Helvetica,sans-Serif" font-size="10.00">materialize frontdoor drift</text>
</g>
<!-- SPEC_runtime&#45;error&#45;reading&#45;basis&#45;guidance -->
<g id="node3" class="node">
<title>SPEC_runtime&#45;error&#45;reading&#45;basis&#45;guidance</title>
<path fill="#bbf7d0" stroke="#15803d" stroke-width="2.4" d="M446.45,-1063.91C446.45,-1063.91 356.3,-1063.91 356.3,-1063.91 350.3,-1063.91 344.3,-1057.91 344.3,-1051.91 344.3,-1051.91 344.3,-1032.09 344.3,-1032.09 344.3,-1026.09 350.3,-1020.09 356.3,-1020.09 356.3,-1020.09 446.45,-1020.09 446.45,-1020.09 452.45,-1020.09 458.45,-1026.09 458.45,-1032.09 458.45,-1032.09 458.45,-1051.91 458.45,-1051.91 458.45,-1057.91 452.45,-1063.91 446.45,-1063.91"/>
<text xml:space="preserve" text-anchor="middle" x="401.38" y="-1049.38" font-family="Helvetica,sans-Serif" font-size="10.00">DONE</text>
<text xml:space="preserve" text-anchor="middle" x="401.38" y="-1038.12" font-family="Helvetica,sans-Serif" font-size="10.00">SPEC_runtime&#45;error</text>
<text xml:space="preserve" text-anchor="middle" x="401.38" y="-1026.88" font-family="Helvetica,sans-Serif" font-size="10.00">reading&#45;basis guidance</text>
</g>
<!-- SPEC_docs&#45;materialize&#45;frontdoor&#45;drift&#45;&gt;SPEC_runtime&#45;error&#45;reading&#45;basis&#45;guidance -->
<g id="edge1" class="edge">
<title>SPEC_docs&#45;materialize&#45;frontdoor&#45;drift&#45;&gt;SPEC_runtime&#45;error&#45;reading&#45;basis&#45;guidance</title>
<path fill="none" stroke="#4b5563" stroke-width="1.1" d="M273.06,-1042C292.81,-1042 314.79,-1042 334.84,-1042"/>
<polygon fill="#4b5563" stroke="#4b5563" stroke-width="1.1" points="334.64,-1044.45 341.64,-1042 334.64,-1039.55 334.64,-1044.45"/>
</g>
<!-- SPEC_docs&#45;materialize&#45;frontdoor&#45;drift&#45;&gt;SPEC_materialize&#45;spy&#45;test&#45;clusters -->
<g id="edge5" class="edge">
<title>SPEC_docs&#45;materialize&#45;frontdoor&#45;drift&#45;&gt;SPEC_materialize&#45;spy&#45;test&#45;clusters</title>
<path fill="none" stroke="#4b5563" stroke-width="1.1" d="M221.31,-1019.15C237.98,-981.46 276.02,-906.07 330.05,-862 386.54,-815.92 466.46,-788.58 521.99,-773.99"/>
<polygon fill="#4b5563" stroke="#4b5563" stroke-width="1.1" points="522.56,-776.37 528.73,-772.25 521.34,-771.62 522.56,-776.37"/>
</g>
<!-- SPEC_docs&#45;materialize&#45;frontdoor&#45;drift&#45;&gt;REL_full&#45;gate&#45;matrix&#45;green -->
<g id="edge25" class="edge">
<title>SPEC_docs&#45;materialize&#45;frontdoor&#45;drift&#45;&gt;REL_full&#45;gate&#45;matrix&#45;green</title>
<path fill="none" stroke="#4b5563" stroke-width="1.1" d="M270.12,-1065.08C363.41,-1097.76 545.79,-1143.29 644.1,-1045 705.9,-983.22 730.05,-701.79 736.22,-612.95"/>
<polygon fill="#4b5563" stroke="#4b5563" stroke-width="1.1" points="738.65,-613.31 736.68,-606.16 733.77,-612.98 738.65,-613.31"/>
</g>
<!-- SPEC_runtime&#45;error&#45;reading&#45;basis&#45;guidance&#45;&gt;SPEC_materialize&#45;spy&#45;test&#45;clusters -->
<g id="edge6" class="edge">
<title>SPEC_runtime&#45;error&#45;reading&#45;basis&#45;guidance&#45;&gt;SPEC_materialize&#45;spy&#45;test&#45;clusters</title>
<path fill="none" stroke="#4b5563" stroke-width="1.1" d="M418.19,-1018.98C432.56,-997.99 454.26,-966.05 472.7,-938 508.15,-884.08 548.59,-820.17 570.41,-785.49"/>
<polygon fill="#4b5563" stroke="#4b5563" stroke-width="1.1" points="572.24,-787.19 573.89,-779.96 568.09,-784.58 572.24,-787.19"/>
</g>
<!-- SPEC_runtime&#45;error&#45;reading&#45;basis&#45;guidance&#45;&gt;REL_full&#45;gate&#45;matrix&#45;green -->
<g id="edge26" class="edge">
<title>SPEC_runtime&#45;error&#45;reading&#45;basis&#45;guidance&#45;&gt;REL_full&#45;gate&#45;matrix&#45;green</title>
<path fill="none" stroke="#4b5563" stroke-width="1.1" d="M459.64,-1047.51C514.3,-1049.42 595.35,-1042.99 644.1,-996 699.97,-942.15 727.74,-695.13 735.56,-612.79"/>
<polygon fill="#4b5563" stroke="#4b5563" stroke-width="1.1" points="737.99,-613.1 736.2,-605.9 733.11,-612.64 737.99,-613.1"/>
</g>
<!-- BND_checkpoint&#45;schema&#45;contract&#45;drift -->
<g id="node4" class="node">
<title>BND_checkpoint&#45;schema&#45;contract&#45;drift</title>
<path fill="#bbf7d0" stroke="#15803d" stroke-width="2.4" d="M252.18,-713.91C252.18,-713.91 169.53,-713.91 169.53,-713.91 163.53,-713.91 157.53,-707.91 157.53,-701.91 157.53,-701.91 157.53,-682.09 157.53,-682.09 157.53,-676.09 163.53,-670.09 169.53,-670.09 169.53,-670.09 252.18,-670.09 252.18,-670.09 258.18,-670.09 264.18,-676.09 264.18,-682.09 264.18,-682.09 264.18,-701.91 264.18,-701.91 264.18,-707.91 258.18,-713.91 252.18,-713.91"/>
<text xml:space="preserve" text-anchor="middle" x="210.85" y="-699.38" font-family="Helvetica,sans-Serif" font-size="10.00">DONE</text>
<text xml:space="preserve" text-anchor="middle" x="210.85" y="-688.12" font-family="Helvetica,sans-Serif" font-size="10.00">BND_checkpoint</text>
<text xml:space="preserve" text-anchor="middle" x="210.85" y="-676.88" font-family="Helvetica,sans-Serif" font-size="10.00">schema contract drift</text>
</g>
<!-- PORT_checkpoint&#45;controller&#45;reading&#45;basis -->
<g id="node6" class="node">
<title>PORT_checkpoint&#45;controller&#45;reading&#45;basis</title>
<path fill="#bbf7d0" stroke="#15803d" stroke-width="2.4" d="M458.08,-713.91C458.08,-713.91 344.68,-713.91 344.68,-713.91 338.68,-713.91 332.68,-707.91 332.68,-701.91 332.68,-701.91 332.68,-682.09 332.68,-682.09 332.68,-676.09 338.68,-670.09 344.68,-670.09 344.68,-670.09 458.08,-670.09 458.08,-670.09 464.08,-670.09 470.08,-676.09 470.08,-682.09 470.08,-682.09 470.08,-701.91 470.08,-701.91 470.08,-707.91 464.08,-713.91 458.08,-713.91"/>
<text xml:space="preserve" text-anchor="middle" x="401.38" y="-699.38" font-family="Helvetica,sans-Serif" font-size="10.00">DONE</text>
<text xml:space="preserve" text-anchor="middle" x="401.38" y="-688.12" font-family="Helvetica,sans-Serif" font-size="10.00">PORT_checkpoint&#45;controller</text>
<text xml:space="preserve" text-anchor="middle" x="401.38" y="-676.88" font-family="Helvetica,sans-Serif" font-size="10.00">reading basis</text>
</g>
<!-- BND_checkpoint&#45;schema&#45;contract&#45;drift&#45;&gt;PORT_checkpoint&#45;controller&#45;reading&#45;basis -->
<g id="edge2" class="edge">
<title>BND_checkpoint&#45;schema&#45;contract&#45;drift&#45;&gt;PORT_checkpoint&#45;controller&#45;reading&#45;basis</title>
<path fill="none" stroke="#4b5563" stroke-width="1.1" d="M265.37,-692C283.29,-692 303.65,-692 323.02,-692"/>
<polygon fill="#4b5563" stroke="#4b5563" stroke-width="1.1" points="322.88,-694.45 329.88,-692 322.88,-689.55 322.88,-694.45"/>
</g>
<!-- REL_quarantine&#45;graduate&#45;clean -->
<g id="node16" class="node">
<title>REL_quarantine&#45;graduate&#45;clean</title>
<path fill="#e5e7eb" stroke="#4b5563" stroke-width="1.2" d="M617.48,-404C617.48,-404 557.33,-404 557.33,-404 551.33,-404 545.33,-398 545.33,-392 545.33,-392 545.33,-380 545.33,-380 545.33,-374 551.33,-368 557.33,-368 557.33,-368 617.48,-368 617.48,-368 623.48,-368 629.48,-374 629.48,-380 629.48,-380 629.48,-392 629.48,-392 629.48,-398 623.48,-404 617.48,-404"/>
<text xml:space="preserve" text-anchor="middle" x="587.4" y="-387.75" font-family="Helvetica,sans-Serif" font-size="10.00">REL_quarantine</text>
<text xml:space="preserve" text-anchor="middle" x="587.4" y="-376.5" font-family="Helvetica,sans-Serif" font-size="10.00">graduate clean</text>
</g>
<!-- BND_checkpoint&#45;schema&#45;contract&#45;drift&#45;&gt;REL_quarantine&#45;graduate&#45;clean -->
<g id="edge14" class="edge">
<title>BND_checkpoint&#45;schema&#45;contract&#45;drift&#45;&gt;REL_quarantine&#45;graduate&#45;clean</title>
<path fill="none" stroke="#4b5563" stroke-width="1.1" d="M221.86,-669.01C246.89,-611.88 311.58,-467.02 330.05,-452 361.45,-426.48 470.94,-404.84 536.24,-393.82"/>
<polygon fill="#4b5563" stroke="#4b5563" stroke-width="1.1" points="536.61,-396.24 543.12,-392.67 535.81,-391.4 536.61,-396.24"/>
</g>
<!-- BND_checkpoint&#45;schema&#45;contract&#45;drift&#45;&gt;REL_full&#45;gate&#45;matrix&#45;green -->
<g id="edge27" class="edge">
<title>BND_checkpoint&#45;schema&#45;contract&#45;drift&#45;&gt;REL_full&#45;gate&#45;matrix&#45;green</title>
<path fill="none" stroke="#4b5563" stroke-width="1.1" d="M214.83,-714.92C222.81,-765.78 249.83,-887.55 330.05,-938 383.72,-971.75 410.97,-952.47 472.7,-938 555.49,-918.6 587.77,-916.69 644.1,-853 707.18,-781.68 728.52,-665.34 735.17,-613"/>
<polygon fill="#4b5563" stroke="#4b5563" stroke-width="1.1" points="737.58,-613.48 735.98,-606.24 732.72,-612.9 737.58,-613.48"/>
</g>
<!-- PORT_patch&#45;controller&#45;reading&#45;basis -->
<g id="node5" class="node">
<title>PORT_patch&#45;controller&#45;reading&#45;basis</title>
<path fill="#fef3c7" stroke="#4b5563" stroke-width="1.2" d="M255.93,-537C255.93,-537 165.78,-537 165.78,-537 159.78,-537 153.78,-531 153.78,-525 153.78,-525 153.78,-513 153.78,-513 153.78,-507 159.78,-501 165.78,-501 165.78,-501 255.93,-501 255.93,-501 261.93,-501 267.93,-507 267.93,-513 267.93,-513 267.93,-525 267.93,-525 267.93,-531 261.93,-537 255.93,-537"/>
<text xml:space="preserve" text-anchor="middle" x="210.85" y="-520.75" font-family="Helvetica,sans-Serif" font-size="10.00">PORT_patch&#45;controller</text>
<text xml:space="preserve" text-anchor="middle" x="210.85" y="-509.5" font-family="Helvetica,sans-Serif" font-size="10.00">reading basis</text>
</g>
<!-- PORT_subscription&#45;controller&#45;reading&#45;basis -->
<g id="node7" class="node">
<title>PORT_subscription&#45;controller&#45;reading&#45;basis</title>
<path fill="#fef3c7" stroke="#4b5563" stroke-width="1.2" d="M460.7,-504C460.7,-504 342.05,-504 342.05,-504 336.05,-504 330.05,-498 330.05,-492 330.05,-492 330.05,-480 330.05,-480 330.05,-474 336.05,-468 342.05,-468 342.05,-468 460.7,-468 460.7,-468 466.7,-468 472.7,-474 472.7,-480 472.7,-480 472.7,-492 472.7,-492 472.7,-498 466.7,-504 460.7,-504"/>
<text xml:space="preserve" text-anchor="middle" x="401.38" y="-487.75" font-family="Helvetica,sans-Serif" font-size="10.00">PORT_subscription&#45;controller</text>
<text xml:space="preserve" text-anchor="middle" x="401.38" y="-476.5" font-family="Helvetica,sans-Serif" font-size="10.00">reading basis</text>
</g>
<!-- PORT_patch&#45;controller&#45;reading&#45;basis&#45;&gt;PORT_subscription&#45;controller&#45;reading&#45;basis -->
<g id="edge3" class="edge">
<title>PORT_patch&#45;controller&#45;reading&#45;basis&#45;&gt;PORT_subscription&#45;controller&#45;reading&#45;basis</title>
<path fill="none" stroke="#4b5563" stroke-width="1.1" d="M268.41,-509.1C285.06,-506.18 303.59,-502.94 321.37,-499.83"/>
<polygon fill="#4b5563" stroke="#4b5563" stroke-width="1.1" points="321.36,-502.32 327.84,-498.7 320.52,-497.49 321.36,-502.32"/>
</g>
<!-- PORT_patch&#45;controller&#45;reading&#45;basis&#45;&gt;SPEC_materialize&#45;spy&#45;test&#45;clusters -->
<g id="edge7" class="edge">
<title>PORT_patch&#45;controller&#45;reading&#45;basis&#45;&gt;SPEC_materialize&#45;spy&#45;test&#45;clusters</title>
<path fill="none" stroke="#4b5563" stroke-width="1.1" d="M219.64,-537.6C239.72,-584.59 294.16,-706.06 330.05,-730 386.69,-767.79 466.41,-771.29 521.85,-767.89"/>
<polygon fill="#4b5563" stroke="#4b5563" stroke-width="1.1" points="521.71,-770.35 528.53,-767.43 521.38,-765.46 521.71,-770.35"/>
</g>
<!-- PORT_patch&#45;controller&#45;reading&#45;basis&#45;&gt;REL_quarantine&#45;graduate&#45;clean -->
<g id="edge15" class="edge">
<title>PORT_patch&#45;controller&#45;reading&#45;basis&#45;&gt;REL_quarantine&#45;graduate&#45;clean</title>
<path fill="none" stroke="#4b5563" stroke-width="1.1" d="M222.45,-500.71C240.37,-471.84 279.65,-416.65 330.05,-394 396.55,-364.12 482.86,-369.19 536.43,-376.73"/>
<polygon fill="#4b5563" stroke="#4b5563" stroke-width="1.1" points="535.8,-379.11 543.09,-377.71 536.52,-374.26 535.8,-379.11"/>
</g>
<!-- PORT_patch&#45;controller&#45;reading&#45;basis&#45;&gt;REL_full&#45;gate&#45;matrix&#45;green -->
<g id="edge28" class="edge">
<title>PORT_patch&#45;controller&#45;reading&#45;basis&#45;&gt;REL_full&#45;gate&#45;matrix&#45;green</title>
<path fill="none" stroke="#4b5563" stroke-width="1.1" d="M268.4,-526.2C373.65,-539.61 597.59,-568.13 693.17,-580.3"/>
<polygon fill="#4b5563" stroke="#4b5563" stroke-width="1.1" points="692.84,-582.73 700.09,-581.18 693.46,-577.87 692.84,-582.73"/>
</g>
<!-- PORT_checkpoint&#45;controller&#45;reading&#45;basis&#45;&gt;SPEC_materialize&#45;spy&#45;test&#45;clusters -->
<g id="edge8" class="edge">
<title>PORT_checkpoint&#45;controller&#45;reading&#45;basis&#45;&gt;SPEC_materialize&#45;spy&#45;test&#45;clusters</title>
<path fill="none" stroke="#4b5563" stroke-width="1.1" d="M464.68,-715.02C485.3,-722.64 508.15,-731.08 528.43,-738.58"/>
<polygon fill="#4b5563" stroke="#4b5563" stroke-width="1.1" points="527.38,-740.8 534.8,-740.93 529.08,-736.21 527.38,-740.8"/>
</g>
<!-- PORT_checkpoint&#45;controller&#45;reading&#45;basis&#45;&gt;REL_quarantine&#45;graduate&#45;clean -->
<g id="edge16" class="edge">
<title>PORT_checkpoint&#45;controller&#45;reading&#45;basis&#45;&gt;REL_quarantine&#45;graduate&#45;clean</title>
<path fill="none" stroke="#4b5563" stroke-width="1.1" d="M454.86,-668.95C461.39,-664.62 467.56,-659.65 472.7,-654 538.62,-581.56 569.89,-465.22 581.2,-412.95"/>
<polygon fill="#4b5563" stroke="#4b5563" stroke-width="1.1" points="583.58,-413.53 582.62,-406.18 578.79,-412.52 583.58,-413.53"/>
</g>
<!-- PORT_checkpoint&#45;controller&#45;reading&#45;basis&#45;&gt;REL_full&#45;gate&#45;matrix&#45;green -->
<g id="edge29" class="edge">
<title>PORT_checkpoint&#45;controller&#45;reading&#45;basis&#45;&gt;REL_full&#45;gate&#45;matrix&#45;green</title>
<path fill="none" stroke="#4b5563" stroke-width="1.1" d="M471.12,-675.89C519.92,-663.81 586.68,-645.97 644.1,-626 660.62,-620.25 678.36,-612.99 693.92,-606.23"/>
<polygon fill="#4b5563" stroke="#4b5563" stroke-width="1.1" points="694.89,-608.48 700.32,-603.42 692.92,-603.99 694.89,-608.48"/>
</g>
<!-- PORT_subscription&#45;controller&#45;reading&#45;basis&#45;&gt;SPEC_materialize&#45;spy&#45;test&#45;clusters -->
<g id="edge9" class="edge">
<title>PORT_subscription&#45;controller&#45;reading&#45;basis&#45;&gt;SPEC_materialize&#45;spy&#45;test&#45;clusters</title>
<path fill="none" stroke="#4b5563" stroke-width="1.1" d="M415.53,-504.3C429.8,-524.25 453.17,-557.19 472.7,-586 508.1,-638.2 548.16,-700.23 570.02,-734.33"/>
<polygon fill="#4b5563" stroke="#4b5563" stroke-width="1.1" points="567.92,-735.6 573.76,-740.17 572.05,-732.96 567.92,-735.6"/>
</g>
<!-- PORT_subscription&#45;controller&#45;reading&#45;basis&#45;&gt;REL_quarantine&#45;graduate&#45;clean -->
<g id="edge17" class="edge">
<title>PORT_subscription&#45;controller&#45;reading&#45;basis&#45;&gt;REL_quarantine&#45;graduate&#45;clean</title>
<path fill="none" stroke="#4b5563" stroke-width="1.1" d="M436.56,-467.43C467.16,-450.8 512.11,-426.37 544.79,-408.61"/>
<polygon fill="#4b5563" stroke="#4b5563" stroke-width="1.1" points="545.96,-410.77 550.94,-405.27 543.62,-406.46 545.96,-410.77"/>
</g>
<!-- PORT_subscription&#45;controller&#45;reading&#45;basis&#45;&gt;REL_full&#45;gate&#45;matrix&#45;green -->
<g id="edge30" class="edge">
<title>PORT_subscription&#45;controller&#45;reading&#45;basis&#45;&gt;REL_full&#45;gate&#45;matrix&#45;green</title>
<path fill="none" stroke="#4b5563" stroke-width="1.1" d="M473.28,-491.16C522.48,-496.45 588.85,-507.02 644.1,-528 666.54,-536.52 689.5,-550.6 707.1,-562.76"/>
<polygon fill="#4b5563" stroke="#4b5563" stroke-width="1.1" points="705.31,-564.5 712.44,-566.52 708.13,-560.49 705.31,-564.5"/>
</g>
<!-- PORT_sync&#45;controller&#45;reading&#45;basis -->
<g id="node8" class="node">
<title>PORT_sync&#45;controller&#45;reading&#45;basis</title>
<path fill="#fef3c7" stroke="#4b5563" stroke-width="1.2" d="M444.95,-638C444.95,-638 357.8,-638 357.8,-638 351.8,-638 345.8,-632 345.8,-626 345.8,-626 345.8,-614 345.8,-614 345.8,-608 351.8,-602 357.8,-602 357.8,-602 444.95,-602 444.95,-602 450.95,-602 456.95,-608 456.95,-614 456.95,-614 456.95,-626 456.95,-626 456.95,-632 450.95,-638 444.95,-638"/>
<text xml:space="preserve" text-anchor="middle" x="401.38" y="-621.75" font-family="Helvetica,sans-Serif" font-size="10.00">PORT_sync&#45;controller</text>
<text xml:space="preserve" text-anchor="middle" x="401.38" y="-610.5" font-family="Helvetica,sans-Serif" font-size="10.00">reading basis</text>
</g>
<!-- PORT_sync&#45;controller&#45;reading&#45;basis&#45;&gt;SPEC_materialize&#45;spy&#45;test&#45;clusters -->
<g id="edge10" class="edge">
<title>PORT_sync&#45;controller&#45;reading&#45;basis&#45;&gt;SPEC_materialize&#45;spy&#45;test&#45;clusters</title>
<path fill="none" stroke="#4b5563" stroke-width="1.1" d="M445.91,-638.52C455.05,-643.1 464.42,-648.33 472.7,-654 507.71,-677.97 542.6,-712.48 564.32,-735.54"/>
<polygon fill="#4b5563" stroke="#4b5563" stroke-width="1.1" points="562.38,-737.05 568.94,-740.5 565.96,-733.71 562.38,-737.05"/>
</g>
<!-- PORT_sync&#45;controller&#45;reading&#45;basis&#45;&gt;REL_quarantine&#45;graduate&#45;clean -->
<g id="edge18" class="edge">
<title>PORT_sync&#45;controller&#45;reading&#45;basis&#45;&gt;REL_quarantine&#45;graduate&#45;clean</title>
<path fill="none" stroke="#4b5563" stroke-width="1.1" d="M416.82,-601.64C449.6,-559.95 529.7,-458.1 566.87,-410.84"/>
<polygon fill="#4b5563" stroke="#4b5563" stroke-width="1.1" points="568.6,-412.6 571,-405.58 564.74,-409.57 568.6,-412.6"/>
</g>
<!-- PORT_sync&#45;controller&#45;reading&#45;basis&#45;&gt;REL_full&#45;gate&#45;matrix&#45;green -->
<g id="edge31" class="edge">
<title>PORT_sync&#45;controller&#45;reading&#45;basis&#45;&gt;REL_full&#45;gate&#45;matrix&#45;green</title>
<path fill="none" stroke="#4b5563" stroke-width="1.1" d="M457.41,-614.42C523.29,-607.75 632.34,-596.7 693.25,-590.53"/>
<polygon fill="#4b5563" stroke="#4b5563" stroke-width="1.1" points="693.14,-593 699.86,-589.86 692.65,-588.13 693.14,-593"/>
</g>
<!-- SPEC_materialize&#45;spy&#45;test&#45;clusters&#45;&gt;REL_full&#45;gate&#45;matrix&#45;green -->
<g id="edge32" class="edge">
<title>SPEC_materialize&#45;spy&#45;test&#45;clusters&#45;&gt;REL_full&#45;gate&#45;matrix&#45;green</title>
<path fill="none" stroke="#4b5563" stroke-width="1.1" d="M613.4,-741.53C623.44,-733.58 634.8,-723.85 644.1,-714 674.87,-681.4 704.43,-638.53 721.88,-611.62"/>
<polygon fill="#4b5563" stroke="#4b5563" stroke-width="1.1" points="723.85,-613.09 725.58,-605.87 719.73,-610.44 723.85,-613.09"/>
</g>
<!-- SPEC_observer&#45;coordinate&#45;pinning -->
<g id="node10" class="node">
<title>SPEC_observer&#45;coordinate&#45;pinning</title>
<path fill="#dbeafe" stroke="#4b5563" stroke-width="1.2" d="M435.95,-36C435.95,-36 366.8,-36 366.8,-36 360.8,-36 354.8,-30 354.8,-24 354.8,-24 354.8,-12 354.8,-12 354.8,-6 360.8,0 366.8,0 366.8,0 435.95,0 435.95,0 441.95,0 447.95,-6 447.95,-12 447.95,-12 447.95,-24 447.95,-24 447.95,-30 441.95,-36 435.95,-36"/>
<text xml:space="preserve" text-anchor="middle" x="401.38" y="-19.75" font-family="Helvetica,sans-Serif" font-size="10.00">SPEC_observer</text>
<text xml:space="preserve" text-anchor="middle" x="401.38" y="-8.5" font-family="Helvetica,sans-Serif" font-size="10.00">coordinate pinning</text>
</g>
<!-- SPEC_observer&#45;coordinate&#45;pinning&#45;&gt;REL_quarantine&#45;graduate&#45;clean -->
<g id="edge19" class="edge">
<title>SPEC_observer&#45;coordinate&#45;pinning&#45;&gt;REL_quarantine&#45;graduate&#45;clean</title>
<path fill="none" stroke="#4b5563" stroke-width="1.1" d="M448.39,-33.72C457.37,-38.47 466.05,-44.48 472.7,-52 483.4,-64.09 553.58,-282.78 578.02,-359.59"/>
<polygon fill="#4b5563" stroke="#4b5563" stroke-width="1.1" points="575.55,-359.89 580,-365.82 580.22,-358.41 575.55,-359.89"/>
</g>
<!-- SPEC_observer&#45;coordinate&#45;pinning&#45;&gt;REL_full&#45;gate&#45;matrix&#45;green -->
<g id="edge33" class="edge">
<title>SPEC_observer&#45;coordinate&#45;pinning&#45;&gt;REL_full&#45;gate&#45;matrix&#45;green</title>
<path fill="none" stroke="#4b5563" stroke-width="1.1" d="M448.46,-35.3C457.13,-39.88 465.67,-45.42 472.7,-52 510.78,-87.63 492.51,-118.49 530.7,-154 571.58,-192.01 608.79,-164.76 644.1,-208 731.49,-315.01 739.15,-492 738.68,-559.09"/>
<polygon fill="#4b5563" stroke="#4b5563" stroke-width="1.1" points="736.24,-558.75 738.6,-565.78 741.14,-558.82 736.24,-558.75"/>
</g>
<!-- SPEC_uniform&#45;git&#45;cas&#45;upgrade&#45;contract&#45;drift -->
<g id="node11" class="node">
<title>SPEC_uniform&#45;git&#45;cas&#45;upgrade&#45;contract&#45;drift</title>
<path fill="#dbeafe" stroke="#4b5563" stroke-width="1.2" d="M631.35,-138C631.35,-138 543.45,-138 543.45,-138 537.45,-138 531.45,-132 531.45,-126 531.45,-126 531.45,-114 531.45,-114 531.45,-108 537.45,-102 543.45,-102 543.45,-102 631.35,-102 631.35,-102 637.35,-102 643.35,-108 643.35,-114 643.35,-114 643.35,-126 643.35,-126 643.35,-132 637.35,-138 631.35,-138"/>
<text xml:space="preserve" text-anchor="middle" x="587.4" y="-121.75" font-family="Helvetica,sans-Serif" font-size="10.00">SPEC_uniform&#45;git&#45;cas</text>
<text xml:space="preserve" text-anchor="middle" x="587.4" y="-110.5" font-family="Helvetica,sans-Serif" font-size="10.00">upgrade contract drift</text>
</g>
<!-- SPEC_uniform&#45;git&#45;cas&#45;upgrade&#45;contract&#45;drift&#45;&gt;REL_full&#45;gate&#45;matrix&#45;green -->
<g id="edge34" class="edge">
<title>SPEC_uniform&#45;git&#45;cas&#45;upgrade&#45;contract&#45;drift&#45;&gt;REL_full&#45;gate&#45;matrix&#45;green</title>
<path fill="none" stroke="#4b5563" stroke-width="1.1" d="M620.85,-138.51C629.57,-144.92 638.21,-152.83 644.1,-162 728.34,-293.07 737.72,-488.84 738.2,-559.43"/>
<polygon fill="#4b5563" stroke="#4b5563" stroke-width="1.1" points="735.75,-559.12 738.22,-566.12 740.65,-559.11 735.75,-559.12"/>
</g>
<!-- HEX_sync&#45;secret&#45;plain&#45;string -->
<g id="node12" class="node">
<title>HEX_sync&#45;secret&#45;plain&#45;string</title>
<path fill="#fee2e2" stroke="#4b5563" stroke-width="1.2" d="M79.65,-238C79.65,-238 12,-238 12,-238 6,-238 0,-232 0,-226 0,-226 0,-214 0,-214 0,-208 6,-202 12,-202 12,-202 79.65,-202 79.65,-202 85.65,-202 91.65,-208 91.65,-214 91.65,-214 91.65,-226 91.65,-226 91.65,-232 85.65,-238 79.65,-238"/>
<text xml:space="preserve" text-anchor="middle" x="45.83" y="-221.75" font-family="Helvetica,sans-Serif" font-size="10.00">HEX_sync&#45;secret</text>
<text xml:space="preserve" text-anchor="middle" x="45.83" y="-210.5" font-family="Helvetica,sans-Serif" font-size="10.00">plain string</text>
</g>
<!-- HEX_sync&#45;production&#45;auth&#45;defaults -->
<g id="node13" class="node">
<title>HEX_sync&#45;production&#45;auth&#45;defaults</title>
<path fill="#fee2e2" stroke="#4b5563" stroke-width="1.2" d="M253.68,-205C253.68,-205 168.03,-205 168.03,-205 162.03,-205 156.03,-199 156.03,-193 156.03,-193 156.03,-181 156.03,-181 156.03,-175 162.03,-169 168.03,-169 168.03,-169 253.68,-169 253.68,-169 259.68,-169 265.68,-175 265.68,-181 265.68,-181 265.68,-193 265.68,-193 265.68,-199 259.68,-205 253.68,-205"/>
<text xml:space="preserve" text-anchor="middle" x="210.85" y="-188.75" font-family="Helvetica,sans-Serif" font-size="10.00">HEX_sync&#45;production</text>
<text xml:space="preserve" text-anchor="middle" x="210.85" y="-177.5" font-family="Helvetica,sans-Serif" font-size="10.00">auth defaults</text>
</g>
<!-- HEX_sync&#45;secret&#45;plain&#45;string&#45;&gt;HEX_sync&#45;production&#45;auth&#45;defaults -->
<g id="edge11" class="edge">
<title>HEX_sync&#45;secret&#45;plain&#45;string&#45;&gt;HEX_sync&#45;production&#45;auth&#45;defaults</title>
<path fill="none" stroke="#4b5563" stroke-width="1.1" d="M92.24,-210.81C109.31,-207.35 129.04,-203.36 147.39,-199.64"/>
<polygon fill="#4b5563" stroke="#4b5563" stroke-width="1.1" points="147.71,-202.08 154.09,-198.29 146.74,-197.28 147.71,-202.08"/>
</g>
<!-- HEX_sync&#45;secret&#45;plain&#45;string&#45;&gt;REL_quarantine&#45;graduate&#45;clean -->
<g id="edge20" class="edge">
<title>HEX_sync&#45;secret&#45;plain&#45;string&#45;&gt;REL_quarantine&#45;graduate&#45;clean</title>
<path fill="none" stroke="#4b5563" stroke-width="1.1" d="M91.9,-233.87C192.02,-264.67 432.3,-338.59 536.64,-370.69"/>
<polygon fill="#4b5563" stroke="#4b5563" stroke-width="1.1" points="535.81,-373 543.22,-372.72 537.25,-368.32 535.81,-373"/>
</g>
<!-- HEX_sync&#45;no&#45;rate&#45;limiting -->
<g id="node14" class="node">
<title>HEX_sync&#45;no&#45;rate&#45;limiting</title>
<path fill="#fee2e2" stroke="#4b5563" stroke-width="1.2" d="M428.45,-104C428.45,-104 374.3,-104 374.3,-104 368.3,-104 362.3,-98 362.3,-92 362.3,-92 362.3,-80 362.3,-80 362.3,-74 368.3,-68 374.3,-68 374.3,-68 428.45,-68 428.45,-68 434.45,-68 440.45,-74 440.45,-80 440.45,-80 440.45,-92 440.45,-92 440.45,-98 434.45,-104 428.45,-104"/>
<text xml:space="preserve" text-anchor="middle" x="401.38" y="-87.75" font-family="Helvetica,sans-Serif" font-size="10.00">HEX_sync</text>
<text xml:space="preserve" text-anchor="middle" x="401.38" y="-76.5" font-family="Helvetica,sans-Serif" font-size="10.00">no rate limiting</text>
</g>
<!-- HEX_sync&#45;production&#45;auth&#45;defaults&#45;&gt;HEX_sync&#45;no&#45;rate&#45;limiting -->
<g id="edge12" class="edge">
<title>HEX_sync&#45;production&#45;auth&#45;defaults&#45;&gt;HEX_sync&#45;no&#45;rate&#45;limiting</title>
<path fill="none" stroke="#4b5563" stroke-width="1.1" d="M243.15,-168.52C266.8,-154.74 300.18,-135.67 330.05,-120 337.87,-115.9 346.25,-111.69 354.41,-107.69"/>
<polygon fill="#4b5563" stroke="#4b5563" stroke-width="1.1" points="355.11,-110.07 360.33,-104.81 352.96,-105.67 355.11,-110.07"/>
</g>
<!-- HEX_sync&#45;500&#45;sanitization -->
<g id="node15" class="node">
<title>HEX_sync&#45;500&#45;sanitization</title>
<path fill="#fee2e2" stroke="#4b5563" stroke-width="1.2" d="M430.7,-172C430.7,-172 372.05,-172 372.05,-172 366.05,-172 360.05,-166 360.05,-160 360.05,-160 360.05,-148 360.05,-148 360.05,-142 366.05,-136 372.05,-136 372.05,-136 430.7,-136 430.7,-136 436.7,-136 442.7,-142 442.7,-148 442.7,-148 442.7,-160 442.7,-160 442.7,-166 436.7,-172 430.7,-172"/>
<text xml:space="preserve" text-anchor="middle" x="401.38" y="-155.75" font-family="Helvetica,sans-Serif" font-size="10.00">HEX_sync</text>
<text xml:space="preserve" text-anchor="middle" x="401.38" y="-144.5" font-family="Helvetica,sans-Serif" font-size="10.00">500 sanitization</text>
</g>
<!-- HEX_sync&#45;production&#45;auth&#45;defaults&#45;&gt;HEX_sync&#45;500&#45;sanitization -->
<g id="edge13" class="edge">
<title>HEX_sync&#45;production&#45;auth&#45;defaults&#45;&gt;HEX_sync&#45;500&#45;sanitization</title>
<path fill="none" stroke="#4b5563" stroke-width="1.1" d="M266.13,-177.5C293.02,-172.79 325.25,-167.15 351.38,-162.58"/>
<polygon fill="#4b5563" stroke="#4b5563" stroke-width="1.1" points="351.53,-165.04 358,-161.42 350.68,-160.21 351.53,-165.04"/>
</g>
<!-- HEX_sync&#45;production&#45;auth&#45;defaults&#45;&gt;REL_quarantine&#45;graduate&#45;clean -->
<g id="edge21" class="edge">
<title>HEX_sync&#45;production&#45;auth&#45;defaults&#45;&gt;REL_quarantine&#45;graduate&#45;clean</title>
<path fill="none" stroke="#4b5563" stroke-width="1.1" d="M266.1,-192C322.27,-199.45 410.37,-217.73 472.7,-262 509.09,-287.85 499.62,-311.96 530.7,-344 537.03,-350.52 544.43,-356.83 551.73,-362.49"/>
<polygon fill="#4b5563" stroke="#4b5563" stroke-width="1.1" points="549.98,-364.24 557.05,-366.49 552.93,-360.32 549.98,-364.24"/>
</g>
<!-- HEX_sync&#45;no&#45;rate&#45;limiting&#45;&gt;REL_quarantine&#45;graduate&#45;clean -->
<g id="edge22" class="edge">
<title>HEX_sync&#45;no&#45;rate&#45;limiting&#45;&gt;REL_quarantine&#45;graduate&#45;clean</title>
<path fill="none" stroke="#4b5563" stroke-width="1.1" d="M440.94,-98.27C452.39,-103.46 464.14,-110.55 472.7,-120 522.93,-175.43 500.61,-209.52 530.7,-278 543.32,-306.73 560.08,-338.53 571.91,-360.14"/>
<polygon fill="#4b5563" stroke="#4b5563" stroke-width="1.1" points="569.7,-361.2 575.22,-366.15 573.99,-358.84 569.7,-361.2"/>
</g>
<!-- HEX_sync&#45;no&#45;rate&#45;limiting&#45;&gt;REL_full&#45;gate&#45;matrix&#45;green -->
<g id="edge35" class="edge">
<title>HEX_sync&#45;no&#45;rate&#45;limiting&#45;&gt;REL_full&#45;gate&#45;matrix&#45;green</title>
<path fill="none" stroke="#4b5563" stroke-width="1.1" d="M440.89,-99.92C451.95,-105.1 463.5,-111.78 472.7,-120 508.74,-152.21 495.48,-178.9 530.7,-212 572.56,-251.34 607.92,-229.38 644.1,-274 714.92,-361.34 732.33,-501.18 736.57,-559.31"/>
<polygon fill="#4b5563" stroke="#4b5563" stroke-width="1.1" points="734.1,-559.12 737.02,-565.94 738.99,-558.79 734.1,-559.12"/>
</g>
<!-- HEX_sync&#45;500&#45;sanitization&#45;&gt;REL_quarantine&#45;graduate&#45;clean -->
<g id="edge23" class="edge">
<title>HEX_sync&#45;500&#45;sanitization&#45;&gt;REL_quarantine&#45;graduate&#45;clean</title>
<path fill="none" stroke="#4b5563" stroke-width="1.1" d="M443.03,-172.19C453.77,-178.51 464.61,-186.45 472.7,-196 518.37,-249.9 487.99,-287.72 530.7,-344 535.81,-350.73 542.26,-356.91 548.96,-362.34"/>
<polygon fill="#4b5563" stroke="#4b5563" stroke-width="1.1" points="547.33,-364.18 554.37,-366.5 550.31,-360.29 547.33,-364.18"/>
</g>
<!-- HEX_sync&#45;500&#45;sanitization&#45;&gt;REL_full&#45;gate&#45;matrix&#45;green -->
<g id="edge36" class="edge">
<title>HEX_sync&#45;500&#45;sanitization&#45;&gt;REL_full&#45;gate&#45;matrix&#45;green</title>
<path fill="none" stroke="#4b5563" stroke-width="1.1" d="M439.8,-172.47C451.06,-179.02 462.99,-187.02 472.7,-196 505.46,-226.32 498.55,-247.03 530.7,-278 574.04,-319.75 605.93,-305.47 644.1,-352 696.52,-415.9 722.65,-512.85 732.76,-559.32"/>
<polygon fill="#4b5563" stroke="#4b5563" stroke-width="1.1" points="730.33,-559.68 734.18,-566.03 735.13,-558.67 730.33,-559.68"/>
</g>
<!-- REL_quarantine&#45;graduate&#45;clean&#45;&gt;REL_full&#45;gate&#45;matrix&#45;green -->
<g id="edge37" class="edge">
<title>REL_quarantine&#45;graduate&#45;clean&#45;&gt;REL_full&#45;gate&#45;matrix&#45;green</title>
<path fill="none" stroke="#4b5563" stroke-width="1.1" d="M602.2,-404.46C629.07,-440.4 688.45,-519.83 718.99,-560.67"/>
<polygon fill="#4b5563" stroke="#4b5563" stroke-width="1.1" points="717.01,-562.11 723.16,-566.25 720.93,-559.18 717.01,-562.11"/>
</g>
<!-- REL_release&#45;cut&#45;version&#45;changelog -->
<g id="node18" class="node">
<title>REL_release&#45;cut&#45;version&#45;changelog</title>
<path fill="#dcfce7" stroke="#4b5563" stroke-width="1.2" d="M923.9,-604C923.9,-604 845.75,-604 845.75,-604 839.75,-604 833.75,-598 833.75,-592 833.75,-592 833.75,-580 833.75,-580 833.75,-574 839.75,-568 845.75,-568 845.75,-568 923.9,-568 923.9,-568 929.9,-568 935.9,-574 935.9,-580 935.9,-580 935.9,-592 935.9,-592 935.9,-598 929.9,-604 923.9,-604"/>
<text xml:space="preserve" text-anchor="middle" x="884.83" y="-587.75" font-family="Helvetica,sans-Serif" font-size="10.00">REL_release cut</text>
<text xml:space="preserve" text-anchor="middle" x="884.83" y="-576.5" font-family="Helvetica,sans-Serif" font-size="10.00">version + changelog</text>
</g>
<!-- REL_full&#45;gate&#45;matrix&#45;green&#45;&gt;REL_release&#45;cut&#45;version&#45;changelog -->
<g id="edge38" class="edge">
<title>REL_full&#45;gate&#45;matrix&#45;green&#45;&gt;REL_release&#45;cut&#45;version&#45;changelog</title>
<path fill="none" stroke="#4b5563" stroke-width="1.1" d="M776.24,-586C790.98,-586 808.4,-586 824.88,-586"/>
<polygon fill="#4b5563" stroke="#4b5563" stroke-width="1.1" points="824.73,-588.45 831.73,-586 824.73,-583.55 824.73,-588.45"/>
</g>
<!-- REL_release&#45;preflight&#45;and&#45;rc -->
<g id="node19" class="node">
<title>REL_release&#45;preflight&#45;and&#45;rc</title>
<path fill="#dcfce7" stroke="#4b5563" stroke-width="1.2" d="M1057.8,-604C1057.8,-604 1005.9,-604 1005.9,-604 999.9,-604 993.9,-598 993.9,-592 993.9,-592 993.9,-580 993.9,-580 993.9,-574 999.9,-568 1005.9,-568 1005.9,-568 1057.8,-568 1057.8,-568 1063.8,-568 1069.8,-574 1069.8,-580 1069.8,-580 1069.8,-592 1069.8,-592 1069.8,-598 1063.8,-604 1057.8,-604"/>
<text xml:space="preserve" text-anchor="middle" x="1031.85" y="-587.75" font-family="Helvetica,sans-Serif" font-size="10.00">REL_release</text>
<text xml:space="preserve" text-anchor="middle" x="1031.85" y="-576.5" font-family="Helvetica,sans-Serif" font-size="10.00">preflight + RC</text>
</g>
<!-- REL_release&#45;cut&#45;version&#45;changelog&#45;&gt;REL_release&#45;preflight&#45;and&#45;rc -->
<g id="edge39" class="edge">
<title>REL_release&#45;cut&#45;version&#45;changelog&#45;&gt;REL_release&#45;preflight&#45;and&#45;rc</title>
<path fill="none" stroke="#4b5563" stroke-width="1.1" d="M936.14,-586C952.02,-586 969.46,-586 985.01,-586"/>
<polygon fill="#4b5563" stroke="#4b5563" stroke-width="1.1" points="984.77,-588.45 991.77,-586 984.77,-583.55 984.77,-588.45"/>
</g>
<!-- REL_push&#45;pr&#45;review&#45;merge -->
<g id="node20" class="node">
<title>REL_push&#45;pr&#45;review&#45;merge</title>
<path fill="#dcfce7" stroke="#4b5563" stroke-width="1.2" d="M1199.2,-604C1199.2,-604 1139.8,-604 1139.8,-604 1133.8,-604 1127.8,-598 1127.8,-592 1127.8,-592 1127.8,-580 1127.8,-580 1127.8,-574 1133.8,-568 1139.8,-568 1139.8,-568 1199.2,-568 1199.2,-568 1205.2,-568 1211.2,-574 1211.2,-580 1211.2,-580 1211.2,-592 1211.2,-592 1211.2,-598 1205.2,-604 1199.2,-604"/>
<text xml:space="preserve" text-anchor="middle" x="1169.5" y="-587.75" font-family="Helvetica,sans-Serif" font-size="10.00">REL_push / PR</text>
<text xml:space="preserve" text-anchor="middle" x="1169.5" y="-576.5" font-family="Helvetica,sans-Serif" font-size="10.00">review / merge</text>
</g>
<!-- REL_release&#45;preflight&#45;and&#45;rc&#45;&gt;REL_push&#45;pr&#45;review&#45;merge -->
<g id="edge40" class="edge">
<title>REL_release&#45;preflight&#45;and&#45;rc&#45;&gt;REL_push&#45;pr&#45;review&#45;merge</title>
<path fill="none" stroke="#4b5563" stroke-width="1.1" d="M1070.28,-586C1085.37,-586 1102.99,-586 1119.11,-586"/>
<polygon fill="#4b5563" stroke="#4b5563" stroke-width="1.1" points="1118.72,-588.45 1125.72,-586 1118.72,-583.55 1118.72,-588.45"/>
</g>
</g>
</svg>
