<?xml version="1.0" encoding="UTF-8" standalone="no"?>
<!DOCTYPE svg PUBLIC "-//W3C//DTD SVG 1.1//EN"
 "http://www.w3.org/Graphics/SVG/1.1/DTD/svg11.dtd">
<!-- Generated by graphviz version 14.1.2 (20260124.0452)
 -->
<!-- Title: patch_anatomy Pages: 1 -->
<svg width="337pt" height="465pt"
 viewBox="0.00 0.00 337.00 465.00" xmlns="http://www.w3.org/2000/svg" xmlns:xlink="http://www.w3.org/1999/xlink">
<g id="graph0" class="graph" transform="scale(1 1) rotate(0) translate(4 461.27)">
<title>patch_anatomy</title>
<text xml:space="preserve" text-anchor="start" x="21.79" y="-8.05" font-family="Times,serif" font-style="italic" font-size="11.00">Fig. 4. &#160;Patch Commit Anatomy — a single WARP patch commit</text>
<!-- commit -->
<g id="node1" class="node">
<title>commit</title>
<polygon fill="#e8e8e8" stroke="none" points="57.62,-320.02 57.62,-457.27 236.88,-457.27 236.88,-320.02 57.62,-320.02"/>
<polygon fill="none" stroke="black" points="57.62,-433.27 57.62,-457.27 236.88,-457.27 236.88,-433.27 57.62,-433.27"/>
<text xml:space="preserve" text-anchor="start" x="116.5" y="-445.77" font-family="Times,serif" font-weight="bold" font-size="10.00">Patch Commit</text>
<text xml:space="preserve" text-anchor="start" x="131.5" y="-437.67" font-family="Courier,monospace" font-size="8.00">f1a2b3c</text>
<polygon fill="none" stroke="black" points="57.62,-416.02 57.62,-433.27 142,-433.27 142,-416.02 57.62,-416.02"/>
<text xml:space="preserve" text-anchor="start" x="67.19" y="-421.77" font-family="Times,serif" font-size="10.00">tree: </text>
<text xml:space="preserve" text-anchor="start" x="87.44" y="-421.77" font-family="Courier,monospace" font-size="8.00">a9b8c7d...</text>
<polygon fill="none" stroke="black" points="142,-416.02 142,-433.27 236.88,-433.27 236.88,-416.02 142,-416.02"/>
<text xml:space="preserve" text-anchor="start" x="151.56" y="-421.77" font-family="Times,serif" font-size="10.00">parent: </text>
<text xml:space="preserve" text-anchor="start" x="182.31" y="-421.77" font-family="Courier,monospace" font-size="8.00">d4e5f6a...</text>
<polygon fill="none" stroke="black" points="57.62,-320.02 57.62,-416.02 236.88,-416.02 236.88,-320.02 57.62,-320.02"/>
<text xml:space="preserve" text-anchor="start" x="60.62" y="-405.47" font-family="Times,serif" font-weight="bold" font-size="9.00">Trailers:</text>
<text xml:space="preserve" text-anchor="start" x="60.62" y="-396.47" font-family="Times,serif" font-size="9.00"> &#160;&#160;&#160;&#160;&#160;&#160;&#160;&#160;&#160;&#160;&#160;&#160;&#160;</text>
<text xml:space="preserve" text-anchor="start" x="92.12" y="-396.47" font-family="Courier,monospace" font-size="9.00">eg&#45;kind: patch</text>
<text xml:space="preserve" text-anchor="start" x="60.62" y="-387.47" font-family="Times,serif" font-size="9.00"> &#160;&#160;&#160;&#160;&#160;&#160;&#160;&#160;&#160;&#160;&#160;&#160;&#160;</text>
<text xml:space="preserve" text-anchor="start" x="92.12" y="-387.47" font-family="Courier,monospace" font-size="9.00">eg&#45;graph: myGraph</text>
<text xml:space="preserve" text-anchor="start" x="60.62" y="-378.47" font-family="Times,serif" font-size="9.00"> &#160;&#160;&#160;&#160;&#160;&#160;&#160;&#160;&#160;&#160;&#160;&#160;&#160;</text>
<text xml:space="preserve" text-anchor="start" x="92.12" y="-378.47" font-family="Courier,monospace" font-size="9.00">eg&#45;writer: alice</text>
<text xml:space="preserve" text-anchor="start" x="60.62" y="-369.47" font-family="Times,serif" font-size="9.00"> &#160;&#160;&#160;&#160;&#160;&#160;&#160;&#160;&#160;&#160;&#160;&#160;&#160;</text>
<text xml:space="preserve" text-anchor="start" x="92.12" y="-369.47" font-family="Courier,monospace" font-size="9.00">eg&#45;lamport: 42</text>
<text xml:space="preserve" text-anchor="start" x="60.62" y="-360.47" font-family="Times,serif" font-size="9.00"> &#160;&#160;&#160;&#160;&#160;&#160;&#160;&#160;&#160;&#160;&#160;&#160;&#160;</text>
<text xml:space="preserve" text-anchor="start" x="92.12" y="-360.47" font-family="Courier,monospace" font-size="9.00">eg&#45;schema: 2</text>
<text xml:space="preserve" text-anchor="start" x="60.62" y="-351.47" font-family="Times,serif" font-size="9.00"> &#160;&#160;&#160;&#160;&#160;&#160;&#160;&#160;&#160;&#160;&#160;&#160;&#160;</text>
<text xml:space="preserve" text-anchor="start" x="92.12" y="-351.47" font-family="Courier,monospace" font-size="9.00">eg&#45;patch&#45;oid: b3c4d5e...</text>
<text xml:space="preserve" text-anchor="start" x="60.62" y="-342.47" font-family="Times,serif" font-size="9.00"> &#160;&#160;&#160;&#160;&#160;&#160;&#160;&#160;&#160;&#160;&#160;&#160;&#160;</text>
<text xml:space="preserve" text-anchor="start" x="92.12" y="-342.47" font-family="Courier,monospace" font-size="9.00">eg&#45;state&#45;hash: e6f7a8b...</text>
<text xml:space="preserve" text-anchor="start" x="60.62" y="-333.47" font-family="Times,serif" font-size="9.00"> &#160;&#160;&#160;&#160;&#160;&#160;&#160;&#160;&#160;&#160;&#160;&#160;&#160;</text>
<text xml:space="preserve" text-anchor="start" x="92.12" y="-333.47" font-family="Courier,monospace" font-size="9.00">eg&#45;frontier&#45;oid: c7d8e9f...</text>
<text xml:space="preserve" text-anchor="start" x="133.75" y="-324.47" font-family="Times,serif" font-size="9.00"> &#160;&#160;&#160;&#160;&#160;&#160;&#160;&#160;&#160;&#160;&#160;</text>
</g>
<!-- parent -->
<g id="node2" class="node">
<title>parent</title>
<path fill="#e8e8e8" stroke="black" stroke-width="0.8" d="M143.62,-266.27C143.62,-266.27 90.88,-266.27 90.88,-266.27 84.88,-266.27 78.88,-260.27 78.88,-254.27 78.88,-254.27 78.88,-242.27 78.88,-242.27 78.88,-236.27 84.88,-230.27 90.88,-230.27 90.88,-230.27 143.62,-230.27 143.62,-230.27 149.62,-230.27 155.62,-236.27 155.62,-242.27 155.62,-242.27 155.62,-254.27 155.62,-254.27 155.62,-260.27 149.62,-266.27 143.62,-266.27"/>
<text xml:space="preserve" text-anchor="start" x="86.88" y="-248.77" font-family="Times,serif" font-size="10.00">Parent Commit</text>
<text xml:space="preserve" text-anchor="start" x="94.75" y="-240.67" font-family="Courier,monospace" font-size="8.00">d4e5f6a...</text>
</g>
<!-- commit&#45;&gt;parent -->
<g id="edge1" class="edge">
<title>commit&#45;&gt;parent</title>
<path fill="none" stroke="black" stroke-width="0.8" d="M132.6,-320.08C129.3,-304.85 125.97,-289.51 123.27,-277.02"/>
<polygon fill="black" stroke="black" stroke-width="0.8" points="126.77,-276.66 121.23,-267.62 119.93,-278.14 126.77,-276.66"/>
<text xml:space="preserve" text-anchor="middle" x="137.94" y="-290.42" font-family="Times,serif" font-size="8.00">parent</text>
</g>
<!-- tree -->
<g id="node3" class="node">
<title>tree</title>
<polygon fill="#f0f0f0" stroke="black" stroke-width="0.8" points="252.75,-266.27 249.75,-270.27 228.75,-270.27 225.75,-266.27 191.75,-266.27 191.75,-230.27 252.75,-230.27 252.75,-266.27"/>
<text xml:space="preserve" text-anchor="start" x="214.75" y="-248.27" font-family="Times,serif" font-size="10.00">tree</text>
<text xml:space="preserve" text-anchor="start" x="199.75" y="-241.12" font-family="Courier,monospace" font-size="7.00">a9b8c7d...</text>
</g>
<!-- commit&#45;&gt;tree -->
<g id="edge2" class="edge">
<title>commit&#45;&gt;tree</title>
<path fill="none" stroke="black" stroke-width="0.8" d="M183.87,-320.08C192.3,-304.54 200.78,-288.88 207.62,-276.26"/>
<polygon fill="black" stroke="black" stroke-width="0.8" points="210.68,-277.97 212.37,-267.51 204.52,-274.63 210.68,-277.97"/>
<text xml:space="preserve" text-anchor="middle" x="206.46" y="-290.42" font-family="Times,serif" font-size="8.00">tree</text>
</g>
<!-- patch_cbor -->
<g id="node4" class="node">
<title>patch_cbor</title>
<ellipse fill="white" stroke="black" stroke-width="0.8" cx="125.25" cy="-158.13" rx="56.39" ry="18.38"/>
<text xml:space="preserve" text-anchor="start" x="103.88" y="-158.63" font-family="Times,serif" font-size="10.00">patch.cbor</text>
<text xml:space="preserve" text-anchor="start" x="93.38" y="-150.53" font-family="Times,serif" font-size="8.00">CBOR&#45;encoded ops</text>
</g>
<!-- tree&#45;&gt;patch_cbor -->
<g id="edge3" class="edge">
<title>tree&#45;&gt;patch_cbor</title>
<path fill="none" stroke="black" stroke-width="0.5" d="M203.55,-230.28C188.69,-216.78 167.75,-197.75 151.26,-182.76"/>
<polygon fill="black" stroke="black" stroke-width="0.5" points="153.88,-180.42 144.13,-176.29 149.17,-185.6 153.88,-180.42"/>
<text xml:space="preserve" text-anchor="start" x="176.66" y="-200.67" font-family="Times,serif" font-size="8.00">entry</text>
</g>
<!-- content_1 -->
<g id="node5" class="node">
<title>content_1</title>
<ellipse fill="white" stroke="black" stroke-width="0.8" cx="273.25" cy="-158.13" rx="55.33" ry="18.38"/>
<text xml:space="preserve" text-anchor="start" x="242.12" y="-158.63" font-family="Times,serif" font-size="10.00">_content_abc...</text>
<text xml:space="preserve" text-anchor="start" x="256.75" y="-150.53" font-family="Times,serif" font-size="8.00">blob value</text>
</g>
<!-- tree&#45;&gt;content_1 -->
<g id="edge4" class="edge">
<title>tree&#45;&gt;content_1</title>
<path fill="none" stroke="black" stroke-width="0.5" d="M232.08,-230.28C239.44,-217.56 249.65,-199.92 258.06,-185.39"/>
<polygon fill="black" stroke="black" stroke-width="0.5" points="260.91,-187.44 262.89,-177.03 254.86,-183.93 260.91,-187.44"/>
<text xml:space="preserve" text-anchor="start" x="249.28" y="-200.67" font-family="Times,serif" font-size="8.00">entry</text>
</g>
<!-- ops -->
<g id="node6" class="node">
<title>ops</title>
<polygon fill="#f0f0f0" stroke="none" points="0,-21.5 0,-86 250.5,-86 250.5,-21.5 0,-21.5"/>
<polygon fill="none" stroke="black" points="0,-68.75 0,-86 250.5,-86 250.5,-68.75 0,-68.75"/>
<text xml:space="preserve" text-anchor="start" x="65.25" y="-74.5" font-family="Times,serif" font-weight="bold" font-size="10.00">Patch Operations</text>
<text xml:space="preserve" text-anchor="start" x="138.75" y="-74.5" font-family="Times,serif" font-size="10.00"> (schema:2)</text>
<polygon fill="none" stroke="black" points="0,-53 0,-68.75 136.5,-68.75 136.5,-53 0,-53"/>
<text xml:space="preserve" text-anchor="start" x="32.25" y="-58.15" font-family="Courier,monospace" font-size="8.00">NodeAdd(id, dot)</text>
<polygon fill="none" stroke="black" points="136.5,-53 136.5,-68.75 250.5,-68.75 250.5,-53 136.5,-53"/>
<text xml:space="preserve" text-anchor="start" x="141.75" y="-58.15" font-family="Courier,monospace" font-size="8.00">NodeTombstone(id, dots)</text>
<polygon fill="none" stroke="black" points="0,-37.25 0,-53 136.5,-53 136.5,-37.25 0,-37.25"/>
<text xml:space="preserve" text-anchor="start" x="3" y="-42.4" font-family="Courier,monospace" font-size="8.00">EdgeAdd(from, to, label, dot)</text>
<polygon fill="none" stroke="black" points="136.5,-37.25 136.5,-53 250.5,-53 250.5,-37.25 136.5,-37.25"/>
<text xml:space="preserve" text-anchor="start" x="139.5" y="-42.4" font-family="Courier,monospace" font-size="8.00">EdgeTombstone(key, dots)</text>
<polygon fill="none" stroke="black" points="0,-21.5 0,-37.25 136.5,-37.25 136.5,-21.5 0,-21.5"/>
<text xml:space="preserve" text-anchor="start" x="9.75" y="-26.65" font-family="Courier,monospace" font-size="8.00">PropSet(key, val, eventId)</text>
<polygon fill="none" stroke="black" points="136.5,-21.5 136.5,-37.25 250.5,-37.25 250.5,-21.5 136.5,-21.5"/>
<text xml:space="preserve" text-anchor="start" x="148.5" y="-26.65" font-family="Courier,monospace" font-size="8.00">BlobValue(oid, data)</text>
</g>
<!-- patch_cbor&#45;&gt;ops -->
<g id="edge5" class="edge">
<title>patch_cbor&#45;&gt;ops</title>
<path fill="none" stroke="black" stroke-width="0.5" stroke-dasharray="5,2" d="M125.25,-139.77C125.25,-127.92 125.25,-111.7 125.25,-96.61"/>
<polygon fill="black" stroke="black" stroke-width="0.5" points="128.75,-96.65 125.25,-86.65 121.75,-96.65 128.75,-96.65"/>
<text xml:space="preserve" text-anchor="middle" x="142.12" y="-110.15" font-family="Times,serif" font-size="8.00">decodes to</text>
</g>
</g>
</svg>
