<?xml version="1.0" encoding="UTF-8" standalone="no"?>
<!DOCTYPE svg PUBLIC "-//W3C//DTD SVG 1.1//EN"
 "http://www.w3.org/Graphics/SVG/1.1/DTD/svg11.dtd">
<!-- Generated by graphviz version 14.1.2 (20260124.0452)
 -->
<!-- Title: empty_tree Pages: 1 -->
<svg width="562pt" height="492pt"
 viewBox="0.00 0.00 562.00 492.00" xmlns="http://www.w3.org/2000/svg" xmlns:xlink="http://www.w3.org/1999/xlink">
<g id="graph0" class="graph" transform="scale(1 1) rotate(0) translate(4 488)">
<title>empty_tree</title>
<text xml:space="preserve" text-anchor="start" x="95.12" y="-8.05" font-family="Times,serif" font-style="italic" font-size="11.00">Fig. 1. &#160;The Empty Tree Trick — WARP patches live alongside normal Git objects</text>
<g id="clust1" class="cluster">
<title>cluster_normal</title>
<path fill="none" stroke="#606060" stroke-width="0.8" d="M20,-95.25C20,-95.25 258,-95.25 258,-95.25 264,-95.25 270,-101.25 270,-107.25 270,-107.25 270,-464 270,-464 270,-470 264,-476 258,-476 258,-476 20,-476 20,-476 14,-476 8,-470 8,-464 8,-464 8,-107.25 8,-107.25 8,-101.25 14,-95.25 20,-95.25"/>
<text xml:space="preserve" text-anchor="start" x="97.38" y="-463.5" font-family="Times,serif" font-weight="bold" font-size="10.00">Normal Git Objects</text>
</g>
<g id="clust2" class="cluster">
<title>cluster_warp</title>
<path fill="none" stroke="#606060" stroke-width="0.8" d="M290,-95.25C290,-95.25 534,-95.25 534,-95.25 540,-95.25 546,-101.25 546,-107.25 546,-107.25 546,-464 546,-464 546,-470 540,-476 534,-476 534,-476 290,-476 290,-476 284,-476 278,-470 278,-464 278,-464 278,-107.25 278,-107.25 278,-101.25 284,-95.25 290,-95.25"/>
<text xml:space="preserve" text-anchor="start" x="367" y="-463.5" font-family="Times,serif" font-weight="bold" font-size="10.00">WARP Patch Objects</text>
</g>
<!-- HEAD -->
<g id="node1" class="node">
<title>HEAD</title>
<polygon fill="none" stroke="black" stroke-width="0.8" stroke-dasharray="5,2" points="103,-448.75 49,-448.75 49,-412.75 103,-412.75 103,-448.75"/>
<text xml:space="preserve" text-anchor="middle" x="76" y="-426.88" font-family="Times,serif" font-size="10.00">HEAD</text>
</g>
<!-- main_ref -->
<g id="node2" class="node">
<title>main_ref</title>
<polygon fill="none" stroke="black" stroke-width="0.8" stroke-dasharray="5,2" points="115.88,-375.75 36.12,-375.75 36.12,-339.75 115.88,-339.75 115.88,-375.75"/>
<text xml:space="preserve" text-anchor="middle" x="76" y="-353.88" font-family="Times,serif" font-size="10.00">refs/heads/main</text>
</g>
<!-- HEAD&#45;&gt;main_ref -->
<g id="edge1" class="edge">
<title>HEAD&#45;&gt;main_ref</title>
<path fill="none" stroke="black" stroke-width="0.5" stroke-dasharray="5,2" d="M76,-412.56C76,-404.71 76,-395.22 76,-386.41"/>
<polygon fill="black" stroke="black" stroke-width="0.5" points="79.5,-386.54 76,-376.54 72.5,-386.54 79.5,-386.54"/>
</g>
<!-- C3 -->
<g id="node3" class="node">
<title>C3</title>
<path fill="#e8e8e8" stroke="black" stroke-width="0.8" d="M91,-302.75C91,-302.75 61,-302.75 61,-302.75 55,-302.75 49,-296.75 49,-290.75 49,-290.75 49,-278.75 49,-278.75 49,-272.75 55,-266.75 61,-266.75 61,-266.75 91,-266.75 91,-266.75 97,-266.75 103,-272.75 103,-278.75 103,-278.75 103,-290.75 103,-290.75 103,-296.75 97,-302.75 91,-302.75"/>
<text xml:space="preserve" text-anchor="start" x="70" y="-285.25" font-family="Times,serif" font-size="10.00">C3</text>
<text xml:space="preserve" text-anchor="start" x="60.25" y="-277.15" font-family="Courier,monospace" font-size="8.00">a1b2c3d</text>
</g>
<!-- main_ref&#45;&gt;C3 -->
<g id="edge2" class="edge">
<title>main_ref&#45;&gt;C3</title>
<path fill="none" stroke="black" stroke-width="0.5" stroke-dasharray="5,2" d="M76,-339.56C76,-331.71 76,-322.22 76,-313.41"/>
<polygon fill="black" stroke="black" stroke-width="0.5" points="79.5,-313.54 76,-303.54 72.5,-313.54 79.5,-313.54"/>
</g>
<!-- C2 -->
<g id="node4" class="node">
<title>C2</title>
<path fill="#e8e8e8" stroke="black" stroke-width="0.8" d="M63,-221C63,-221 33,-221 33,-221 27,-221 21,-215 21,-209 21,-209 21,-197 21,-197 21,-191 27,-185 33,-185 33,-185 63,-185 63,-185 69,-185 75,-191 75,-197 75,-197 75,-209 75,-209 75,-215 69,-221 63,-221"/>
<text xml:space="preserve" text-anchor="start" x="42" y="-203.5" font-family="Times,serif" font-size="10.00">C2</text>
<text xml:space="preserve" text-anchor="start" x="32.25" y="-195.4" font-family="Courier,monospace" font-size="8.00">e4f5a6b</text>
</g>
<!-- C3&#45;&gt;C2 -->
<g id="edge3" class="edge">
<title>C3&#45;&gt;C2</title>
<path fill="none" stroke="black" stroke-width="0.8" d="M69.92,-266.45C66.37,-256.31 61.79,-243.27 57.74,-231.73"/>
<polygon fill="black" stroke="black" stroke-width="0.8" points="61.08,-230.69 54.46,-222.41 54.48,-233.01 61.08,-230.69"/>
<text xml:space="preserve" text-anchor="middle" x="73.8" y="-241.15" font-family="Times,serif" font-size="8.00">parent</text>
</g>
<!-- T3 -->
<g id="node6" class="node">
<title>T3</title>
<polygon fill="#f0f0f0" stroke="black" stroke-width="0.8" points="152,-221 149,-225 128,-225 125,-221 98,-221 98,-185 152,-185 152,-221"/>
<text xml:space="preserve" text-anchor="middle" x="125" y="-199.12" font-family="Times,serif" font-size="10.00">tree</text>
</g>
<!-- C3&#45;&gt;T3 -->
<g id="edge5" class="edge">
<title>C3&#45;&gt;T3</title>
<path fill="none" stroke="black" stroke-width="0.5" d="M86.63,-266.45C93.12,-255.89 101.54,-242.19 108.83,-230.31"/>
<polygon fill="black" stroke="black" stroke-width="0.5" points="111.74,-232.27 113.99,-221.92 105.78,-228.6 111.74,-232.27"/>
<text xml:space="preserve" text-anchor="middle" x="109.81" y="-241.15" font-family="Times,serif" font-size="8.00">tree</text>
</g>
<!-- C1 -->
<g id="node5" class="node">
<title>C1</title>
<path fill="#e8e8e8" stroke="black" stroke-width="0.8" d="M58,-139.25C58,-139.25 28,-139.25 28,-139.25 22,-139.25 16,-133.25 16,-127.25 16,-127.25 16,-115.25 16,-115.25 16,-109.25 22,-103.25 28,-103.25 28,-103.25 58,-103.25 58,-103.25 64,-103.25 70,-109.25 70,-115.25 70,-115.25 70,-127.25 70,-127.25 70,-133.25 64,-139.25 58,-139.25"/>
<text xml:space="preserve" text-anchor="start" x="37" y="-121.75" font-family="Times,serif" font-size="10.00">C1</text>
<text xml:space="preserve" text-anchor="start" x="27.25" y="-113.65" font-family="Courier,monospace" font-size="8.00">7c8d9e0</text>
</g>
<!-- C2&#45;&gt;C1 -->
<g id="edge4" class="edge">
<title>C2&#45;&gt;C1</title>
<path fill="none" stroke="black" stroke-width="0.8" d="M46.92,-184.7C46.29,-174.77 45.5,-162.06 44.78,-150.7"/>
<polygon fill="black" stroke="black" stroke-width="0.8" points="48.28,-150.49 44.16,-140.73 41.29,-150.93 48.28,-150.49"/>
<text xml:space="preserve" text-anchor="middle" x="55.92" y="-159.4" font-family="Times,serif" font-size="8.00">parent</text>
</g>
<!-- src_blob -->
<g id="node7" class="node">
<title>src_blob</title>
<ellipse fill="none" stroke="black" stroke-width="0.8" cx="125" cy="-121.25" rx="36.98" ry="18"/>
<text xml:space="preserve" text-anchor="middle" x="125" y="-117.38" font-family="Times,serif" font-size="10.00">src/index.js</text>
</g>
<!-- T3&#45;&gt;src_blob -->
<g id="edge6" class="edge">
<title>T3&#45;&gt;src_blob</title>
<path fill="none" stroke="black" stroke-width="0.5" d="M125,-184.7C125,-174.56 125,-161.52 125,-149.98"/>
<polygon fill="black" stroke="black" stroke-width="0.5" points="128.5,-150.28 125,-140.28 121.5,-150.28 128.5,-150.28"/>
</g>
<!-- pkg_blob -->
<g id="node8" class="node">
<title>pkg_blob</title>
<ellipse fill="none" stroke="black" stroke-width="0.8" cx="221" cy="-121.25" rx="40.97" ry="18"/>
<text xml:space="preserve" text-anchor="middle" x="221" y="-117.38" font-family="Times,serif" font-size="10.00">package.json</text>
</g>
<!-- T3&#45;&gt;pkg_blob -->
<g id="edge7" class="edge">
<title>T3&#45;&gt;pkg_blob</title>
<path fill="none" stroke="black" stroke-width="0.5" d="M145.83,-184.7C160.07,-172.87 179.06,-157.09 194.39,-144.35"/>
<polygon fill="black" stroke="black" stroke-width="0.5" points="196.44,-147.2 201.9,-138.12 191.97,-141.82 196.44,-147.2"/>
</g>
<!-- warp_ref -->
<g id="node9" class="node">
<title>warp_ref</title>
<polygon fill="none" stroke="black" stroke-width="0.8" stroke-dasharray="5,2" points="402.88,-448.75 305.12,-448.75 305.12,-412.75 402.88,-412.75 402.88,-448.75"/>
<text xml:space="preserve" text-anchor="start" x="313.12" y="-432.5" font-family="Times,serif" font-size="10.00">refs/warp/myGraph/</text>
<text xml:space="preserve" text-anchor="start" x="328.88" y="-421.25" font-family="Times,serif" font-size="10.00">writers/alice</text>
</g>
<!-- P3 -->
<g id="node10" class="node">
<title>P3</title>
<path fill="#e8e8e8" stroke="black" stroke-width="0.8" d="M377.75,-302.75C377.75,-302.75 330.25,-302.75 330.25,-302.75 324.25,-302.75 318.25,-296.75 318.25,-290.75 318.25,-290.75 318.25,-278.75 318.25,-278.75 318.25,-272.75 324.25,-266.75 330.25,-266.75 330.25,-266.75 377.75,-266.75 377.75,-266.75 383.75,-266.75 389.75,-272.75 389.75,-278.75 389.75,-278.75 389.75,-290.75 389.75,-290.75 389.75,-296.75 383.75,-302.75 377.75,-302.75"/>
<text xml:space="preserve" text-anchor="start" x="326.25" y="-285.25" font-family="Times,serif" font-size="10.00">P3 &#160;</text>
<text xml:space="preserve" text-anchor="start" x="341.25" y="-285.25" font-family="Courier,monospace" font-size="8.00">lamport=3</text>
<text xml:space="preserve" text-anchor="start" x="338.25" y="-277.15" font-family="Courier,monospace" font-size="8.00">f1a2b3c</text>
</g>
<!-- warp_ref&#45;&gt;P3 -->
<g id="edge8" class="edge">
<title>warp_ref&#45;&gt;P3</title>
<path fill="none" stroke="black" stroke-width="0.5" stroke-dasharray="5,2" d="M354,-412.38C354,-387.81 354,-342.66 354,-313.44"/>
<polygon fill="black" stroke="black" stroke-width="0.5" points="357.5,-313.49 354,-303.49 350.5,-313.49 357.5,-313.49"/>
</g>
<!-- P2 -->
<g id="node11" class="node">
<title>P2</title>
<path fill="#e8e8e8" stroke="black" stroke-width="0.8" d="M349.75,-221C349.75,-221 302.25,-221 302.25,-221 296.25,-221 290.25,-215 290.25,-209 290.25,-209 290.25,-197 290.25,-197 290.25,-191 296.25,-185 302.25,-185 302.25,-185 349.75,-185 349.75,-185 355.75,-185 361.75,-191 361.75,-197 361.75,-197 361.75,-209 361.75,-209 361.75,-215 355.75,-221 349.75,-221"/>
<text xml:space="preserve" text-anchor="start" x="298.25" y="-203.5" font-family="Times,serif" font-size="10.00">P2 &#160;</text>
<text xml:space="preserve" text-anchor="start" x="313.25" y="-203.5" font-family="Courier,monospace" font-size="8.00">lamport=2</text>
<text xml:space="preserve" text-anchor="start" x="310.25" y="-195.4" font-family="Courier,monospace" font-size="8.00">d4e5f6a</text>
</g>
<!-- P3&#45;&gt;P2 -->
<g id="edge9" class="edge">
<title>P3&#45;&gt;P2</title>
<path fill="none" stroke="black" stroke-width="0.8" d="M347.92,-266.45C344.37,-256.31 339.79,-243.27 335.74,-231.73"/>
<polygon fill="black" stroke="black" stroke-width="0.8" points="339.08,-230.69 332.46,-222.41 332.48,-233.01 339.08,-230.69"/>
<text xml:space="preserve" text-anchor="middle" x="351.8" y="-241.15" font-family="Times,serif" font-size="8.00">parent</text>
</g>
<!-- WT3 -->
<g id="node13" class="node">
<title>WT3</title>
<polygon fill="#f0f0f0" stroke="black" stroke-width="0.8" points="438,-221 435,-225 414,-225 411,-221 384,-221 384,-185 438,-185 438,-221"/>
<text xml:space="preserve" text-anchor="middle" x="411" y="-199.12" font-family="Times,serif" font-size="10.00">tree</text>
</g>
<!-- P3&#45;&gt;WT3 -->
<g id="edge11" class="edge">
<title>P3&#45;&gt;WT3</title>
<path fill="none" stroke="black" stroke-width="0.5" d="M366.37,-266.45C373.99,-255.79 383.9,-241.92 392.45,-229.96"/>
<polygon fill="black" stroke="black" stroke-width="0.5" points="395.25,-232.06 398.22,-221.89 389.55,-227.99 395.25,-232.06"/>
<text xml:space="preserve" text-anchor="middle" x="392.29" y="-241.15" font-family="Times,serif" font-size="8.00">tree</text>
</g>
<!-- P1 -->
<g id="node12" class="node">
<title>P1</title>
<path fill="#e8e8e8" stroke="black" stroke-width="0.8" d="M345.75,-139.25C345.75,-139.25 298.25,-139.25 298.25,-139.25 292.25,-139.25 286.25,-133.25 286.25,-127.25 286.25,-127.25 286.25,-115.25 286.25,-115.25 286.25,-109.25 292.25,-103.25 298.25,-103.25 298.25,-103.25 345.75,-103.25 345.75,-103.25 351.75,-103.25 357.75,-109.25 357.75,-115.25 357.75,-115.25 357.75,-127.25 357.75,-127.25 357.75,-133.25 351.75,-139.25 345.75,-139.25"/>
<text xml:space="preserve" text-anchor="start" x="294.25" y="-121.75" font-family="Times,serif" font-size="10.00">P1 &#160;</text>
<text xml:space="preserve" text-anchor="start" x="309.25" y="-121.75" font-family="Courier,monospace" font-size="8.00">lamport=1</text>
<text xml:space="preserve" text-anchor="start" x="306.25" y="-113.65" font-family="Courier,monospace" font-size="8.00">b7c8d9e</text>
</g>
<!-- P2&#45;&gt;P1 -->
<g id="edge10" class="edge">
<title>P2&#45;&gt;P1</title>
<path fill="none" stroke="black" stroke-width="0.8" d="M325.13,-184.7C324.63,-174.77 324,-162.06 323.43,-150.7"/>
<polygon fill="black" stroke="black" stroke-width="0.8" points="326.92,-150.54 322.93,-140.73 319.93,-150.89 326.92,-150.54"/>
<text xml:space="preserve" text-anchor="middle" x="334.36" y="-159.4" font-family="Times,serif" font-size="8.00">parent</text>
</g>
<!-- empty_tree -->
<g id="node16" class="node">
<title>empty_tree</title>
<polygon fill="#d0d0d0" stroke="black" stroke-width="1.2" points="353.62,-57.5 350.62,-61.5 329.62,-61.5 326.62,-57.5 290.38,-57.5 290.38,-21.5 353.62,-21.5 353.62,-57.5"/>
<text xml:space="preserve" text-anchor="start" x="298.38" y="-39.5" font-family="Times,serif" font-size="10.00">Empty Tree</text>
<text xml:space="preserve" text-anchor="start" x="299.5" y="-32.35" font-family="Courier,monospace" font-size="7.00">4b825dc...</text>
</g>
<!-- P1&#45;&gt;empty_tree -->
<g id="edge14" class="edge">
<title>P1&#45;&gt;empty_tree</title>
<path fill="none" stroke="#606060" stroke-width="0.5" stroke-dasharray="5,2" d="M322,-102.95C322,-92.88 322,-79.95 322,-68.47"/>
<polygon fill="#606060" stroke="#606060" stroke-width="0.5" points="325.5,-68.8 322,-58.8 318.5,-68.8 325.5,-68.8"/>
<text xml:space="preserve" text-anchor="middle" x="328.38" y="-77.65" font-family="Times,serif" font-size="8.00">tree</text>
</g>
<!-- patch_blob -->
<g id="node14" class="node">
<title>patch_blob</title>
<ellipse fill="none" stroke="black" stroke-width="0.8" cx="411" cy="-121.25" rx="34.76" ry="18"/>
<text xml:space="preserve" text-anchor="start" x="389.62" y="-117.38" font-family="Times,serif" font-size="10.00">patch.cbor</text>
</g>
<!-- WT3&#45;&gt;patch_blob -->
<g id="edge12" class="edge">
<title>WT3&#45;&gt;patch_blob</title>
<path fill="none" stroke="black" stroke-width="0.5" d="M411,-184.7C411,-174.56 411,-161.52 411,-149.98"/>
<polygon fill="black" stroke="black" stroke-width="0.5" points="414.5,-150.28 411,-140.28 407.5,-150.28 414.5,-150.28"/>
</g>
<!-- content_blob -->
<g id="node15" class="node">
<title>content_blob</title>
<ellipse fill="none" stroke="black" stroke-width="0.8" cx="501" cy="-121.25" rx="36.98" ry="18"/>
<text xml:space="preserve" text-anchor="start" x="477.75" y="-117.38" font-family="Times,serif" font-size="10.00">_content_*</text>
</g>
<!-- WT3&#45;&gt;content_blob -->
<g id="edge13" class="edge">
<title>WT3&#45;&gt;content_blob</title>
<path fill="none" stroke="black" stroke-width="0.5" d="M430.53,-184.7C443.84,-172.9 461.58,-157.18 475.94,-144.46"/>
<polygon fill="black" stroke="black" stroke-width="0.5" points="478.21,-147.12 483.37,-137.87 473.56,-141.88 478.21,-147.12"/>
</g>
<!-- invisible_note -->
<g id="node17" class="node">
<title>invisible_note</title>
<text xml:space="preserve" text-anchor="start" x="382.75" y="-40.95" font-family="Times,serif" font-size="9.00">⬆ visible to </text>
<text xml:space="preserve" text-anchor="start" x="428.5" y="-40.95" font-family="Courier,monospace" font-size="9.00">git log</text>
<text xml:space="preserve" text-anchor="start" x="379.38" y="-31.95" font-family="Times,serif" font-size="9.00">⬇ invisible to </text>
<text xml:space="preserve" text-anchor="start" x="431.88" y="-31.95" font-family="Courier,monospace" font-size="9.00">git log</text>
</g>
</g>
</svg>
