<?xml version="1.0" encoding="UTF-8" standalone="no"?>
<!DOCTYPE svg PUBLIC "-//W3C//DTD SVG 1.1//EN"
 "http://www.w3.org/Graphics/SVG/1.1/DTD/svg11.dtd">
<!-- Generated by graphviz version 14.1.2 (20260124.0452)
 -->
<!-- Title: materialize_pipeline Pages: 1 -->
<svg width="338pt" height="532pt"
 viewBox="0.00 0.00 338.00 532.00" xmlns="http://www.w3.org/2000/svg" xmlns:xlink="http://www.w3.org/1999/xlink">
<g id="graph0" class="graph" transform="scale(1 1) rotate(0) translate(4 528.25)">
<title>materialize_pipeline</title>
<text xml:space="preserve" text-anchor="start" x="24.88" y="-8.05" font-family="Times,serif" font-style="italic" font-size="11.00">Fig. 6. &#160;Materialization Pipeline — from refs to consistent state</text>
<!-- refs -->
<g id="node1" class="node">
<title>refs</title>
<path fill="#f0f0f0" stroke="black" stroke-width="0.8" d="M100.75,-524.25C100.75,-524.25 70.75,-524.25 70.75,-524.25 64.75,-524.25 58.75,-518.25 58.75,-512.25 58.75,-512.25 58.75,-500.25 58.75,-500.25 58.75,-494.25 64.75,-488.25 70.75,-488.25 70.75,-488.25 100.75,-488.25 100.75,-488.25 106.75,-488.25 112.75,-494.25 112.75,-500.25 112.75,-500.25 112.75,-512.25 112.75,-512.25 112.75,-518.25 106.75,-524.25 100.75,-524.25"/>
<text xml:space="preserve" text-anchor="start" x="73" y="-508" font-family="Times,serif" font-size="10.00">Writer</text>
<text xml:space="preserve" text-anchor="start" x="76.75" y="-496.75" font-family="Times,serif" font-size="10.00">Refs</text>
</g>
<!-- walk -->
<g id="node2" class="node">
<title>walk</title>
<path fill="white" stroke="black" stroke-width="0.8" d="M65.5,-434.5C65.5,-434.5 12,-434.5 12,-434.5 6,-434.5 0,-428.5 0,-422.5 0,-422.5 0,-410.5 0,-410.5 0,-404.5 6,-398.5 12,-398.5 12,-398.5 65.5,-398.5 65.5,-398.5 71.5,-398.5 77.5,-404.5 77.5,-410.5 77.5,-410.5 77.5,-422.5 77.5,-422.5 77.5,-428.5 71.5,-434.5 65.5,-434.5"/>
<text xml:space="preserve" text-anchor="start" x="28.25" y="-418.25" font-family="Times,serif" font-size="10.00">Walk</text>
<text xml:space="preserve" text-anchor="start" x="8" y="-407" font-family="Times,serif" font-size="10.00">Commit DAGs</text>
</g>
<!-- refs&#45;&gt;walk -->
<g id="edge1" class="edge">
<title>refs&#45;&gt;walk</title>
<path fill="none" stroke="black" d="M76.46,-487.91C69.9,-475.65 60.96,-458.97 53.43,-444.92"/>
<polygon fill="black" stroke="black" points="56.54,-443.3 48.73,-436.13 50.37,-446.6 56.54,-443.3"/>
</g>
<!-- checkpoint -->
<g id="node7" class="node">
<title>checkpoint</title>
<path fill="#f0f0f0" stroke="black" stroke-width="0.8" stroke-dasharray="5,2" d="M151.75,-376.5C151.75,-376.5 111.75,-376.5 111.75,-376.5 105.75,-376.5 99.75,-370.5 99.75,-364.5 99.75,-364.5 99.75,-352.5 99.75,-352.5 99.75,-346.5 105.75,-340.5 111.75,-340.5 111.75,-340.5 151.75,-340.5 151.75,-340.5 157.75,-340.5 163.75,-346.5 163.75,-352.5 163.75,-352.5 163.75,-364.5 163.75,-364.5 163.75,-370.5 157.75,-376.5 151.75,-376.5"/>
<text xml:space="preserve" text-anchor="start" x="107.75" y="-359" font-family="Times,serif" font-size="10.00">Checkpoint</text>
<text xml:space="preserve" text-anchor="start" x="110.38" y="-350.9" font-family="Times,serif" font-size="8.00">(if available)</text>
</g>
<!-- refs&#45;&gt;checkpoint -->
<g id="edge6" class="edge">
<title>refs&#45;&gt;checkpoint</title>
<path fill="none" stroke="black" stroke-width="0.5" stroke-dasharray="5,2" d="M91.21,-487.96C99.09,-462.98 113.75,-416.54 123.11,-386.87"/>
<polygon fill="black" stroke="black" stroke-width="0.5" points="126.4,-388.08 126.07,-377.49 119.72,-385.97 126.4,-388.08"/>
<text xml:space="preserve" text-anchor="start" x="101" y="-458.65" font-family="Times,serif" font-size="8.00">shortcut</text>
</g>
<!-- decode -->
<g id="node3" class="node">
<title>decode</title>
<path fill="white" stroke="black" stroke-width="0.8" d="M55.75,-318.5C55.75,-318.5 25.75,-318.5 25.75,-318.5 19.75,-318.5 13.75,-312.5 13.75,-306.5 13.75,-306.5 13.75,-294.5 13.75,-294.5 13.75,-288.5 19.75,-282.5 25.75,-282.5 25.75,-282.5 55.75,-282.5 55.75,-282.5 61.75,-282.5 67.75,-288.5 67.75,-294.5 67.75,-294.5 67.75,-306.5 67.75,-306.5 67.75,-312.5 61.75,-318.5 55.75,-318.5"/>
<text xml:space="preserve" text-anchor="start" x="25" y="-302.25" font-family="Times,serif" font-size="10.00">Decode</text>
<text xml:space="preserve" text-anchor="start" x="26.88" y="-291" font-family="Times,serif" font-size="10.00">CBOR</text>
</g>
<!-- walk&#45;&gt;decode -->
<g id="edge2" class="edge">
<title>walk&#45;&gt;decode</title>
<path fill="none" stroke="black" d="M39.05,-398.19C39.37,-380.09 39.87,-351.39 40.25,-329.95"/>
<polygon fill="black" stroke="black" points="43.75,-330.18 40.42,-320.12 36.75,-330.05 43.75,-330.18"/>
</g>
<!-- sort -->
<g id="node4" class="node">
<title>sort</title>
<path fill="white" stroke="black" stroke-width="0.8" d="M64.75,-237.5C64.75,-237.5 34.75,-237.5 34.75,-237.5 28.75,-237.5 22.75,-231.5 22.75,-225.5 22.75,-225.5 22.75,-213.5 22.75,-213.5 22.75,-207.5 28.75,-201.5 34.75,-201.5 34.75,-201.5 64.75,-201.5 64.75,-201.5 70.75,-201.5 76.75,-207.5 76.75,-213.5 76.75,-213.5 76.75,-225.5 76.75,-225.5 76.75,-231.5 70.75,-237.5 64.75,-237.5"/>
<text xml:space="preserve" text-anchor="start" x="35.12" y="-221.25" font-family="Times,serif" font-size="10.00">Sort by</text>
<text xml:space="preserve" text-anchor="start" x="32.5" y="-210" font-family="Times,serif" font-size="10.00">Lamport</text>
</g>
<!-- decode&#45;&gt;sort -->
<g id="edge3" class="edge">
<title>decode&#45;&gt;sort</title>
<path fill="none" stroke="black" d="M42.7,-282.36C43.8,-272.69 45.21,-260.37 46.47,-249.26"/>
<polygon fill="black" stroke="black" points="49.94,-249.72 47.6,-239.38 42.99,-248.92 49.94,-249.72"/>
</g>
<!-- reducer -->
<g id="node5" class="node">
<title>reducer</title>
<path fill="white" stroke="none" stroke-width="1.2" d="M138.75,-156.5C138.75,-156.5 42.75,-156.5 42.75,-156.5 36.75,-156.5 30.75,-150.5 30.75,-144.5 30.75,-144.5 30.75,-127.25 30.75,-127.25 30.75,-121.25 36.75,-115.25 42.75,-115.25 42.75,-115.25 138.75,-115.25 138.75,-115.25 144.75,-115.25 150.75,-121.25 150.75,-127.25 150.75,-127.25 150.75,-144.5 150.75,-144.5 150.75,-150.5 144.75,-156.5 138.75,-156.5"/>
<polygon fill="#d0d0d0" stroke="none" points="30.75,-115.25 30.75,-156.5 150.75,-156.5 150.75,-115.25 30.75,-115.25"/>
<polygon fill="none" stroke="black" points="30.75,-139.25 30.75,-156.5 150.75,-156.5 150.75,-139.25 30.75,-139.25"/>
<text xml:space="preserve" text-anchor="start" x="63.38" y="-145" font-family="Times,serif" font-weight="bold" font-size="10.00">JoinReducer</text>
<polygon fill="none" stroke="black" points="30.75,-115.25 30.75,-139.25 93.75,-139.25 93.75,-115.25 30.75,-115.25"/>
<text xml:space="preserve" text-anchor="start" x="33.75" y="-127.75" font-family="Times,serif" font-size="10.00">OR&#45;Set merge</text>
<text xml:space="preserve" text-anchor="start" x="39" y="-119.65" font-family="Times,serif" font-size="8.00">(nodes, edges)</text>
<polygon fill="none" stroke="black" points="93.75,-115.25 93.75,-139.25 150.75,-139.25 150.75,-115.25 93.75,-115.25"/>
<text xml:space="preserve" text-anchor="start" x="96.75" y="-127.75" font-family="Times,serif" font-size="10.00">LWW merge</text>
<text xml:space="preserve" text-anchor="start" x="103.12" y="-119.65" font-family="Times,serif" font-size="8.00">(properties)</text>
</g>
<!-- sort&#45;&gt;reducer -->
<g id="edge4" class="edge">
<title>sort&#45;&gt;reducer</title>
<path fill="none" stroke="black" d="M58.45,-201.19C63.48,-191.16 69.97,-178.25 75.8,-166.64"/>
<polygon fill="black" stroke="black" points="78.88,-168.31 80.24,-157.8 72.62,-165.17 78.88,-168.31"/>
</g>
<!-- state -->
<g id="node6" class="node">
<title>state</title>
<path fill="white" stroke="none" d="M125.25,-70.25C125.25,-70.25 56.25,-70.25 56.25,-70.25 50.25,-70.25 44.25,-64.25 44.25,-58.25 44.25,-58.25 44.25,-33.5 44.25,-33.5 44.25,-27.5 50.25,-21.5 56.25,-21.5 56.25,-21.5 125.25,-21.5 125.25,-21.5 131.25,-21.5 137.25,-27.5 137.25,-33.5 137.25,-33.5 137.25,-58.25 137.25,-58.25 137.25,-64.25 131.25,-70.25 125.25,-70.25"/>
<polygon fill="#e8e8e8" stroke="none" points="44.25,-21.5 44.25,-70.25 137.25,-70.25 137.25,-21.5 44.25,-21.5"/>
<polygon fill="none" stroke="black" points="44.25,-53 44.25,-70.25 137.25,-70.25 137.25,-53 44.25,-53"/>
<text xml:space="preserve" text-anchor="start" x="61.88" y="-58.75" font-family="Times,serif" font-weight="bold" font-size="10.00">WarpStateV5</text>
<polygon fill="none" stroke="black" points="44.25,-37.25 44.25,-53 90.75,-53 90.75,-37.25 44.25,-37.25"/>
<text xml:space="preserve" text-anchor="start" x="47.25" y="-42.4" font-family="Courier,monospace" font-size="8.00">nodeAlive</text>
<polygon fill="none" stroke="black" points="90.75,-37.25 90.75,-53 137.25,-53 137.25,-37.25 90.75,-37.25"/>
<text xml:space="preserve" text-anchor="start" x="93.75" y="-42.4" font-family="Courier,monospace" font-size="8.00">edgeAlive</text>
<polygon fill="none" stroke="black" points="44.25,-21.5 44.25,-37.25 90.75,-37.25 90.75,-21.5 44.25,-21.5"/>
<text xml:space="preserve" text-anchor="start" x="58.5" y="-26.65" font-family="Courier,monospace" font-size="8.00">prop</text>
<polygon fill="none" stroke="black" points="90.75,-21.5 90.75,-37.25 137.25,-37.25 137.25,-21.5 90.75,-21.5"/>
<text xml:space="preserve" text-anchor="start" x="96" y="-26.65" font-family="Courier,monospace" font-size="8.00">frontier</text>
</g>
<!-- reducer&#45;&gt;state -->
<g id="edge5" class="edge">
<title>reducer&#45;&gt;state</title>
<path fill="none" stroke="black" d="M90.75,-115.34C90.75,-105.42 90.75,-93.07 90.75,-81.59"/>
<polygon fill="black" stroke="black" points="94.25,-81.61 90.75,-71.61 87.25,-81.61 94.25,-81.61"/>
</g>
<!-- checkpoint&#45;&gt;reducer -->
<g id="edge7" class="edge">
<title>checkpoint&#45;&gt;reducer</title>
<path fill="none" stroke="black" stroke-width="0.5" stroke-dasharray="5,2" d="M128.53,-340.19C121.56,-302.66 104.98,-213.46 96.29,-166.68"/>
<polygon fill="black" stroke="black" stroke-width="0.5" points="99.76,-166.23 94.5,-157.03 92.88,-167.51 99.76,-166.23"/>
</g>
<!-- complexity -->
<g id="node8" class="node">
<title>complexity</title>
<path fill="white" stroke="none" stroke-width="0.8" d="M318.25,-63.88C318.25,-63.88 185.25,-63.88 185.25,-63.88 179.25,-63.88 173.25,-57.88 173.25,-51.88 173.25,-51.88 173.25,-39.88 173.25,-39.88 173.25,-33.88 179.25,-27.88 185.25,-27.88 185.25,-27.88 318.25,-27.88 318.25,-27.88 324.25,-27.88 330.25,-33.88 330.25,-39.88 330.25,-39.88 330.25,-51.88 330.25,-51.88 330.25,-57.88 324.25,-63.88 318.25,-63.88"/>
<text xml:space="preserve" text-anchor="start" x="181.25" y="-43.15" font-family="Times,serif" font-size="8.00">O(P) — P = total patches across all writers</text>
</g>
</g>
</svg>
