<?xml version="1.0" encoding="UTF-8" standalone="no"?>
<!DOCTYPE svg PUBLIC "-//W3C//DTD SVG 1.1//EN"
 "http://www.w3.org/Graphics/SVG/1.1/DTD/svg11.dtd">
<!-- Generated by graphviz version 14.1.2 (20260124.0452)
 -->
<!-- Title: architecture Pages: 1 -->
<svg width="1107pt" height="330pt"
 viewBox="0.00 0.00 1107.00 330.00" xmlns="http://www.w3.org/2000/svg" xmlns:xlink="http://www.w3.org/1999/xlink">
<g id="graph0" class="graph" transform="scale(1 1) rotate(0) translate(4 325.75)">
<title>architecture</title>
<text xml:space="preserve" text-anchor="start" x="376.25" y="-8.05" font-family="Times,serif" font-style="italic" font-size="11.00">Fig. 8. &#160;Hexagonal Architecture — dependency rule: arrows point inward only</text>
<g id="clust1" class="cluster">
<title>cluster_adapters</title>
<path fill="none" stroke="#606060" stroke-width="0.8" d="M20,-29.5C20,-29.5 1079,-29.5 1079,-29.5 1085,-29.5 1091,-35.5 1091,-41.5 1091,-41.5 1091,-301.75 1091,-301.75 1091,-307.75 1085,-313.75 1079,-313.75 1079,-313.75 20,-313.75 20,-313.75 14,-313.75 8,-307.75 8,-301.75 8,-301.75 8,-41.5 8,-41.5 8,-35.5 14,-29.5 20,-29.5"/>
<text xml:space="preserve" text-anchor="start" x="472.62" y="-302.2" font-family="Times,serif" font-weight="bold" font-size="9.00">Adapters</text>
<text xml:space="preserve" text-anchor="start" x="508.62" y="-302.2" font-family="Times,serif" font-size="9.00"> &#160;(infrastructure implementations)</text>
</g>
<g id="clust2" class="cluster">
<title>cluster_ports</title>
<path fill="none" stroke="#606060" stroke-width="0.8" d="M28,-109.25C28,-109.25 1071,-109.25 1071,-109.25 1077,-109.25 1083,-115.25 1083,-121.25 1083,-121.25 1083,-275.25 1083,-275.25 1083,-281.25 1077,-287.25 1071,-287.25 1071,-287.25 28,-287.25 28,-287.25 22,-287.25 16,-281.25 16,-275.25 16,-275.25 16,-121.25 16,-121.25 16,-115.25 22,-109.25 28,-109.25"/>
<text xml:space="preserve" text-anchor="start" x="502.62" y="-275.7" font-family="Times,serif" font-weight="bold" font-size="9.00">Ports</text>
<text xml:space="preserve" text-anchor="start" x="522.88" y="-275.7" font-family="Times,serif" font-size="9.00"> &#160;(abstract interfaces)</text>
</g>
<g id="clust3" class="cluster">
<title>cluster_domain</title>
<path fill="#e8e8e8" stroke="#606060" d="M36,-117.25C36,-117.25 485,-117.25 485,-117.25 491,-117.25 497,-123.25 497,-129.25 497,-129.25 497,-248.75 497,-248.75 497,-254.75 491,-260.75 485,-260.75 485,-260.75 36,-260.75 36,-260.75 30,-260.75 24,-254.75 24,-248.75 24,-248.75 24,-129.25 24,-129.25 24,-123.25 30,-117.25 36,-117.25"/>
<text xml:space="preserve" text-anchor="start" x="234.62" y="-249.2" font-family="Times,serif" font-weight="bold" font-size="9.00">Domain Core</text>
</g>
<!-- git_adapter -->
<g id="node1" class="node">
<title>git_adapter</title>
<path fill="#f0f0f0" stroke="black" stroke-width="0.8" d="M750,-73.5C750,-73.5 692,-73.5 692,-73.5 686,-73.5 680,-67.5 680,-61.5 680,-61.5 680,-49.5 680,-49.5 680,-43.5 686,-37.5 692,-37.5 692,-37.5 750,-37.5 750,-37.5 756,-37.5 762,-43.5 762,-49.5 762,-49.5 762,-61.5 762,-61.5 762,-67.5 756,-73.5 750,-73.5"/>
<text xml:space="preserve" text-anchor="start" x="689.88" y="-55.95" font-family="Times,serif" font-size="9.00">GitGraphAdapter</text>
<text xml:space="preserve" text-anchor="start" x="688" y="-48.85" font-family="Times,serif" font-size="7.00">@git&#45;stunts/plumbing</text>
</g>
<!-- cbor_codec -->
<g id="node2" class="node">
<title>cbor_codec</title>
<path fill="#f0f0f0" stroke="black" stroke-width="0.8" d="M542.25,-73.5C542.25,-73.5 509.75,-73.5 509.75,-73.5 503.75,-73.5 497.75,-67.5 497.75,-61.5 497.75,-61.5 497.75,-49.5 497.75,-49.5 497.75,-43.5 503.75,-37.5 509.75,-37.5 509.75,-37.5 542.25,-37.5 542.25,-37.5 548.25,-37.5 554.25,-43.5 554.25,-49.5 554.25,-49.5 554.25,-61.5 554.25,-61.5 554.25,-67.5 548.25,-73.5 542.25,-73.5"/>
<text xml:space="preserve" text-anchor="start" x="505.75" y="-55.95" font-family="Times,serif" font-size="9.00">CborCodec</text>
<text xml:space="preserve" text-anchor="start" x="516.62" y="-48.85" font-family="Times,serif" font-size="7.00">cbor&#45;x</text>
</g>
<!-- web_crypto -->
<g id="node3" class="node">
<title>web_crypto</title>
<path fill="#f0f0f0" stroke="black" stroke-width="0.8" d="M645.88,-73.5C645.88,-73.5 584.12,-73.5 584.12,-73.5 578.12,-73.5 572.12,-67.5 572.12,-61.5 572.12,-61.5 572.12,-49.5 572.12,-49.5 572.12,-43.5 578.12,-37.5 584.12,-37.5 584.12,-37.5 645.88,-37.5 645.88,-37.5 651.88,-37.5 657.88,-43.5 657.88,-49.5 657.88,-49.5 657.88,-61.5 657.88,-61.5 657.88,-67.5 651.88,-73.5 645.88,-73.5"/>
<text xml:space="preserve" text-anchor="start" x="580.12" y="-55.95" font-family="Times,serif" font-size="9.00">WebCryptoAdapter</text>
<text xml:space="preserve" text-anchor="start" x="588.75" y="-48.85" font-family="Times,serif" font-size="7.00">globalThis.crypto</text>
</g>
<!-- clock_adapter -->
<g id="node4" class="node">
<title>clock_adapter</title>
<path fill="#f0f0f0" stroke="black" stroke-width="0.8" d="M866.5,-73.5C866.5,-73.5 805.5,-73.5 805.5,-73.5 799.5,-73.5 793.5,-67.5 793.5,-61.5 793.5,-61.5 793.5,-49.5 793.5,-49.5 793.5,-43.5 799.5,-37.5 805.5,-37.5 805.5,-37.5 866.5,-37.5 866.5,-37.5 872.5,-37.5 878.5,-43.5 878.5,-49.5 878.5,-49.5 878.5,-61.5 878.5,-61.5 878.5,-67.5 872.5,-73.5 866.5,-73.5"/>
<text xml:space="preserve" text-anchor="start" x="811.25" y="-55.95" font-family="Times,serif" font-size="9.00">ClockAdapter</text>
<text xml:space="preserve" text-anchor="start" x="801.5" y="-48.85" font-family="Times,serif" font-size="7.00">globalThis.performance</text>
</g>
<!-- console_log -->
<g id="node5" class="node">
<title>console_log</title>
<path fill="#f0f0f0" stroke="black" stroke-width="0.8" d="M955.38,-73.5C955.38,-73.5 908.62,-73.5 908.62,-73.5 902.62,-73.5 896.62,-67.5 896.62,-61.5 896.62,-61.5 896.62,-49.5 896.62,-49.5 896.62,-43.5 902.62,-37.5 908.62,-37.5 908.62,-37.5 955.38,-37.5 955.38,-37.5 961.38,-37.5 967.38,-43.5 967.38,-49.5 967.38,-49.5 967.38,-61.5 967.38,-61.5 967.38,-67.5 961.38,-73.5 955.38,-73.5"/>
<text xml:space="preserve" text-anchor="start" x="904.62" y="-52.2" font-family="Times,serif" font-size="9.00">ConsoleLogger</text>
</g>
<!-- cas_cache -->
<g id="node6" class="node">
<title>cas_cache</title>
<path fill="#f0f0f0" stroke="black" stroke-width="0.8" d="M1070.5,-73.5C1070.5,-73.5 997.5,-73.5 997.5,-73.5 991.5,-73.5 985.5,-67.5 985.5,-61.5 985.5,-61.5 985.5,-49.5 985.5,-49.5 985.5,-43.5 991.5,-37.5 997.5,-37.5 997.5,-37.5 1070.5,-37.5 1070.5,-37.5 1076.5,-37.5 1082.5,-43.5 1082.5,-49.5 1082.5,-49.5 1082.5,-61.5 1082.5,-61.5 1082.5,-67.5 1076.5,-73.5 1070.5,-73.5"/>
<text xml:space="preserve" text-anchor="start" x="993.5" y="-52.2" font-family="Times,serif" font-size="9.00">CasSeekCacheAdapter</text>
</g>
<!-- persistence_port -->
<g id="node7" class="node">
<title>persistence_port</title>
<polygon fill="#d0d0d0" stroke="black" stroke-width="0.8" stroke-dasharray="5,2" points="744.62,-161.25 651.38,-161.25 651.38,-125.25 744.62,-125.25 744.62,-161.25"/>
<text xml:space="preserve" text-anchor="middle" x="698" y="-139.95" font-family="Times,serif" font-size="9.00">GraphPersistencePort</text>
</g>
<!-- persistence_port&#45;&gt;git_adapter -->
<g id="edge1" class="edge">
<title>persistence_port&#45;&gt;git_adapter</title>
<path fill="none" stroke="black" stroke-width="0.5" stroke-dasharray="5,2" d="M702.65,-124.9C705.8,-113.16 710.03,-97.41 713.63,-83.98"/>
<polygon fill="black" stroke="black" stroke-width="0.5" points="716.95,-85.12 716.16,-74.56 710.19,-83.31 716.95,-85.12"/>
<text xml:space="preserve" text-anchor="start" x="711.56" y="-93.65" font-family="Times,serif" font-size="8.00">implements</text>
</g>
<!-- codec_port -->
<g id="node8" class="node">
<title>codec_port</title>
<polygon fill="#d0d0d0" stroke="black" stroke-width="0.8" stroke-dasharray="5,2" points="559,-161.25 505,-161.25 505,-125.25 559,-125.25 559,-161.25"/>
<text xml:space="preserve" text-anchor="middle" x="532" y="-139.95" font-family="Times,serif" font-size="9.00">CodecPort</text>
</g>
<!-- codec_port&#45;&gt;cbor_codec -->
<g id="edge2" class="edge">
<title>codec_port&#45;&gt;cbor_codec</title>
<path fill="none" stroke="black" stroke-width="0.5" stroke-dasharray="5,2" d="M530.79,-124.9C529.97,-113.27 528.88,-97.72 527.95,-84.38"/>
<polygon fill="black" stroke="black" stroke-width="0.5" points="531.45,-84.31 527.27,-74.58 524.47,-84.8 531.45,-84.31"/>
<text xml:space="preserve" text-anchor="start" x="529" y="-93.65" font-family="Times,serif" font-size="8.00">implements</text>
</g>
<!-- crypto_port -->
<g id="node9" class="node">
<title>crypto_port</title>
<polygon fill="#d0d0d0" stroke="black" stroke-width="0.8" stroke-dasharray="5,2" points="632.88,-161.25 577.12,-161.25 577.12,-125.25 632.88,-125.25 632.88,-161.25"/>
<text xml:space="preserve" text-anchor="middle" x="605" y="-139.95" font-family="Times,serif" font-size="9.00">CryptoPort</text>
</g>
<!-- crypto_port&#45;&gt;web_crypto -->
<g id="edge3" class="edge">
<title>crypto_port&#45;&gt;web_crypto</title>
<path fill="none" stroke="black" stroke-width="0.5" stroke-dasharray="5,2" d="M607.02,-124.9C608.38,-113.27 610.19,-97.72 611.75,-84.38"/>
<polygon fill="black" stroke="black" stroke-width="0.5" points="615.21,-84.92 612.89,-74.58 608.26,-84.11 615.21,-84.92"/>
<text xml:space="preserve" text-anchor="start" x="610.9" y="-93.65" font-family="Times,serif" font-size="8.00">implements</text>
</g>
<!-- clock_port -->
<g id="node10" class="node">
<title>clock_port</title>
<polygon fill="#d0d0d0" stroke="black" stroke-width="0.8" stroke-dasharray="5,2" points="913,-161.25 859,-161.25 859,-125.25 913,-125.25 913,-161.25"/>
<text xml:space="preserve" text-anchor="middle" x="886" y="-139.95" font-family="Times,serif" font-size="9.00">ClockPort</text>
</g>
<!-- clock_port&#45;&gt;clock_adapter -->
<g id="edge4" class="edge">
<title>clock_port&#45;&gt;clock_adapter</title>
<path fill="none" stroke="black" stroke-width="0.5" stroke-dasharray="5,2" d="M875.88,-124.9C868.83,-112.81 859.3,-96.47 851.33,-82.79"/>
<polygon fill="black" stroke="black" stroke-width="0.5" points="854.55,-81.36 846.48,-74.48 848.5,-84.88 854.55,-81.36"/>
<text xml:space="preserve" text-anchor="start" x="861" y="-93.65" font-family="Times,serif" font-size="8.00">implements</text>
</g>
<!-- logger_port -->
<g id="node11" class="node">
<title>logger_port</title>
<polygon fill="#d0d0d0" stroke="black" stroke-width="0.8" stroke-dasharray="5,2" points="987.25,-161.25 930.75,-161.25 930.75,-125.25 987.25,-125.25 987.25,-161.25"/>
<text xml:space="preserve" text-anchor="middle" x="959" y="-139.95" font-family="Times,serif" font-size="9.00">LoggerPort</text>
</g>
<!-- logger_port&#45;&gt;console_log -->
<g id="edge5" class="edge">
<title>logger_port&#45;&gt;console_log</title>
<path fill="none" stroke="black" stroke-width="0.5" stroke-dasharray="5,2" d="M953.54,-124.9C949.84,-113.16 944.88,-97.41 940.65,-83.98"/>
<polygon fill="black" stroke="black" stroke-width="0.5" points="944.02,-83.04 937.68,-74.55 937.35,-85.14 944.02,-83.04"/>
<text xml:space="preserve" text-anchor="start" x="945.5" y="-93.65" font-family="Times,serif" font-size="8.00">implements</text>
</g>
<!-- index_port -->
<g id="node12" class="node">
<title>index_port</title>
<polygon fill="#d0d0d0" stroke="black" stroke-width="0.8" stroke-dasharray="5,2" points="841.12,-161.25 762.88,-161.25 762.88,-125.25 841.12,-125.25 841.12,-161.25"/>
<text xml:space="preserve" text-anchor="middle" x="802" y="-139.95" font-family="Times,serif" font-size="9.00">IndexStoragePort</text>
</g>
<!-- index_port&#45;&gt;git_adapter -->
<g id="edge7" class="edge">
<title>index_port&#45;&gt;git_adapter</title>
<path fill="none" stroke="black" stroke-width="0.5" stroke-dasharray="5,2" d="M785.61,-124.9C773.86,-112.46 757.86,-95.52 744.72,-81.61"/>
<polygon fill="black" stroke="black" stroke-width="0.5" points="747.3,-79.24 737.89,-74.38 742.21,-84.05 747.3,-79.24"/>
<text xml:space="preserve" text-anchor="start" x="761.5" y="-93.65" font-family="Times,serif" font-size="8.00">via</text>
</g>
<!-- cache_port -->
<g id="node13" class="node">
<title>cache_port</title>
<polygon fill="#d0d0d0" stroke="black" stroke-width="0.8" stroke-dasharray="5,2" points="1075,-161.25 1005,-161.25 1005,-125.25 1075,-125.25 1075,-161.25"/>
<text xml:space="preserve" text-anchor="middle" x="1040" y="-139.95" font-family="Times,serif" font-size="9.00">SeekCachePort</text>
</g>
<!-- cache_port&#45;&gt;cas_cache -->
<g id="edge6" class="edge">
<title>cache_port&#45;&gt;cas_cache</title>
<path fill="none" stroke="black" stroke-width="0.5" stroke-dasharray="5,2" d="M1038.79,-124.9C1037.97,-113.27 1036.88,-97.72 1035.95,-84.38"/>
<polygon fill="black" stroke="black" stroke-width="0.5" points="1039.45,-84.31 1035.27,-74.58 1032.47,-84.8 1039.45,-84.31"/>
<text xml:space="preserve" text-anchor="start" x="1037" y="-93.65" font-family="Times,serif" font-size="8.00">implements</text>
</g>
<!-- warp_graph -->
<g id="node14" class="node">
<title>warp_graph</title>
<path fill="#d0d0d0" stroke="black" stroke-width="1.2" d="M84,-234.25C84,-234.25 44,-234.25 44,-234.25 38,-234.25 32,-228.25 32,-222.25 32,-222.25 32,-210.25 32,-210.25 32,-204.25 38,-198.25 44,-198.25 44,-198.25 84,-198.25 84,-198.25 90,-198.25 96,-204.25 96,-210.25 96,-210.25 96,-222.25 96,-222.25 96,-228.25 90,-234.25 84,-234.25"/>
<text xml:space="preserve" text-anchor="start" x="40" y="-216.7" font-family="Times,serif" font-weight="bold" font-size="9.00">WarpGraph</text>
<text xml:space="preserve" text-anchor="start" x="41.12" y="-209.6" font-family="Times,serif" font-size="7.00">main API facade</text>
</g>
<!-- warp_graph&#45;&gt;persistence_port -->
<g id="edge8" class="edge">
<title>warp_graph&#45;&gt;persistence_port</title>
<path fill="none" stroke="black" stroke-width="0.5" d="M96.35,-200.68C99.23,-199.73 102.14,-198.9 105,-198.25 248.22,-165.65 288.51,-190.96 435,-180.25 523.81,-173.75 549.49,-178.6 640.59,-161.28"/>
<polygon fill="black" stroke="black" stroke-width="0.5" points="641.23,-164.72 650.38,-159.38 639.89,-157.85 641.23,-164.72"/>
</g>
<!-- warp_graph&#45;&gt;codec_port -->
<g id="edge9" class="edge">
<title>warp_graph&#45;&gt;codec_port</title>
<path fill="none" stroke="black" stroke-width="0.5" d="M96.38,-200.8C99.26,-199.83 102.16,-198.95 105,-198.25 273.22,-156.53 329.78,-210.84 494.89,-162.89"/>
<polygon fill="black" stroke="black" stroke-width="0.5" points="495.58,-166.34 504.16,-160.12 493.58,-159.63 495.58,-166.34"/>
</g>
<!-- warp_graph&#45;&gt;crypto_port -->
<g id="edge10" class="edge">
<title>warp_graph&#45;&gt;crypto_port</title>
<path fill="none" stroke="black" stroke-width="0.5" d="M96.35,-200.68C99.23,-199.74 102.15,-198.9 105,-198.25 243.43,-166.61 282.62,-193.55 424,-180.25 485.13,-174.5 504.14,-178.69 567.01,-161.04"/>
<polygon fill="black" stroke="black" stroke-width="0.5" points="567.69,-164.49 576.32,-158.35 565.75,-157.76 567.69,-164.49"/>
</g>
<!-- warp_graph&#45;&gt;clock_port -->
<g id="edge11" class="edge">
<title>warp_graph&#45;&gt;clock_port</title>
<path fill="none" stroke="black" stroke-width="0.5" d="M96.34,-200.66C99.23,-199.72 102.14,-198.89 105,-198.25 263.56,-162.57 672.8,-200 848.67,-160.83"/>
<polygon fill="black" stroke="black" stroke-width="0.5" points="849.24,-164.29 858.16,-158.57 847.62,-157.48 849.24,-164.29"/>
</g>
<!-- warp_graph&#45;&gt;logger_port -->
<g id="edge12" class="edge">
<title>warp_graph&#45;&gt;logger_port</title>
<path fill="none" stroke="black" stroke-width="0.5" d="M96.33,-200.61C99.22,-199.68 102.14,-198.87 105,-198.25 226.05,-172.11 538.33,-186.76 662,-180.25 774.31,-174.33 807.84,-189.2 920.29,-161.14"/>
<polygon fill="black" stroke="black" stroke-width="0.5" points="921.13,-164.53 929.96,-158.66 919.4,-157.75 921.13,-164.53"/>
</g>
<!-- warp_graph&#45;&gt;index_port -->
<g id="edge13" class="edge">
<title>warp_graph&#45;&gt;index_port</title>
<path fill="none" stroke="black" stroke-width="0.5" d="M96.35,-200.67C99.23,-199.73 102.14,-198.9 105,-198.25 178.79,-181.52 369.46,-184.57 445,-180.25 579.01,-172.58 617.32,-187.92 752.37,-161.23"/>
<polygon fill="black" stroke="black" stroke-width="0.5" points="752.84,-164.71 761.95,-159.3 751.46,-157.85 752.84,-164.71"/>
</g>
<!-- warp_graph&#45;&gt;cache_port -->
<g id="edge14" class="edge">
<title>warp_graph&#45;&gt;cache_port</title>
<path fill="none" stroke="black" stroke-width="0.5" d="M96.33,-200.6C99.22,-199.67 102.14,-198.86 105,-198.25 241.52,-169.03 593.56,-187.28 733,-180.25 846.73,-174.51 879.78,-186.18 994.5,-161.19"/>
<polygon fill="black" stroke="black" stroke-width="0.5" points="995,-164.66 1004,-159.07 993.48,-157.83 995,-164.66"/>
</g>
<!-- reducer -->
<g id="node15" class="node">
<title>reducer</title>
<path fill="#d0d0d0" stroke="black" stroke-width="0.8" d="M81.12,-161.25C81.12,-161.25 44.88,-161.25 44.88,-161.25 38.88,-161.25 32.88,-155.25 32.88,-149.25 32.88,-149.25 32.88,-137.25 32.88,-137.25 32.88,-131.25 38.88,-125.25 44.88,-125.25 44.88,-125.25 81.12,-125.25 81.12,-125.25 87.12,-125.25 93.12,-131.25 93.12,-137.25 93.12,-137.25 93.12,-149.25 93.12,-149.25 93.12,-155.25 87.12,-161.25 81.12,-161.25"/>
<text xml:space="preserve" text-anchor="start" x="40.88" y="-139.95" font-family="Times,serif" font-size="9.00">JoinReducer</text>
</g>
<!-- warp_graph&#45;&gt;reducer -->
<!-- patch_builder -->
<g id="node16" class="node">
<title>patch_builder</title>
<path fill="#d0d0d0" stroke="black" stroke-width="0.8" d="M172.5,-161.25C172.5,-161.25 123.5,-161.25 123.5,-161.25 117.5,-161.25 111.5,-155.25 111.5,-149.25 111.5,-149.25 111.5,-137.25 111.5,-137.25 111.5,-131.25 117.5,-125.25 123.5,-125.25 123.5,-125.25 172.5,-125.25 172.5,-125.25 178.5,-125.25 184.5,-131.25 184.5,-137.25 184.5,-137.25 184.5,-149.25 184.5,-149.25 184.5,-155.25 178.5,-161.25 172.5,-161.25"/>
<text xml:space="preserve" text-anchor="start" x="119.5" y="-139.95" font-family="Times,serif" font-size="9.00">PatchBuilderV2</text>
</g>
<!-- warp_graph&#45;&gt;patch_builder -->
<!-- checkpoint_svc -->
<g id="node17" class="node">
<title>checkpoint_svc</title>
<path fill="#d0d0d0" stroke="black" stroke-width="0.8" d="M184.38,-234.25C184.38,-234.25 125.62,-234.25 125.62,-234.25 119.62,-234.25 113.62,-228.25 113.62,-222.25 113.62,-222.25 113.62,-210.25 113.62,-210.25 113.62,-204.25 119.62,-198.25 125.62,-198.25 125.62,-198.25 184.38,-198.25 184.38,-198.25 190.38,-198.25 196.38,-204.25 196.38,-210.25 196.38,-210.25 196.38,-222.25 196.38,-222.25 196.38,-228.25 190.38,-234.25 184.38,-234.25"/>
<text xml:space="preserve" text-anchor="start" x="121.62" y="-212.95" font-family="Times,serif" font-size="9.00">CheckpointService</text>
</g>
<!-- query_builder -->
<g id="node18" class="node">
<title>query_builder</title>
<path fill="#d0d0d0" stroke="black" stroke-width="0.8" d="M267.38,-234.25C267.38,-234.25 226.62,-234.25 226.62,-234.25 220.62,-234.25 214.62,-228.25 214.62,-222.25 214.62,-222.25 214.62,-210.25 214.62,-210.25 214.62,-204.25 220.62,-198.25 226.62,-198.25 226.62,-198.25 267.38,-198.25 267.38,-198.25 273.38,-198.25 279.38,-204.25 279.38,-210.25 279.38,-210.25 279.38,-222.25 279.38,-222.25 279.38,-228.25 273.38,-234.25 267.38,-234.25"/>
<text xml:space="preserve" text-anchor="start" x="222.62" y="-212.95" font-family="Times,serif" font-size="9.00">QueryBuilder</text>
</g>
<!-- traversal -->
<g id="node19" class="node">
<title>traversal</title>
<path fill="#d0d0d0" stroke="black" stroke-width="0.8" d="M360.62,-234.25C360.62,-234.25 309.38,-234.25 309.38,-234.25 303.38,-234.25 297.38,-228.25 297.38,-222.25 297.38,-222.25 297.38,-210.25 297.38,-210.25 297.38,-204.25 303.38,-198.25 309.38,-198.25 309.38,-198.25 360.62,-198.25 360.62,-198.25 366.62,-198.25 372.62,-204.25 372.62,-210.25 372.62,-210.25 372.62,-222.25 372.62,-222.25 372.62,-228.25 366.62,-234.25 360.62,-234.25"/>
<text xml:space="preserve" text-anchor="start" x="305.38" y="-212.95" font-family="Times,serif" font-size="9.00">LogicalTraversal</text>
</g>
<!-- crdt -->
<g id="node20" class="node">
<title>crdt</title>
<path fill="#d0d0d0" stroke="black" stroke-width="0.8" d="M477.25,-234.25C477.25,-234.25 402.75,-234.25 402.75,-234.25 396.75,-234.25 390.75,-228.25 390.75,-222.25 390.75,-222.25 390.75,-210.25 390.75,-210.25 390.75,-204.25 396.75,-198.25 402.75,-198.25 402.75,-198.25 477.25,-198.25 477.25,-198.25 483.25,-198.25 489.25,-204.25 489.25,-210.25 489.25,-210.25 489.25,-222.25 489.25,-222.25 489.25,-228.25 483.25,-234.25 477.25,-234.25"/>
<text xml:space="preserve" text-anchor="start" x="426.5" y="-216.7" font-family="Times,serif" font-size="9.00">CRDTs</text>
<text xml:space="preserve" text-anchor="start" x="398.75" y="-209.6" font-family="Times,serif" font-size="7.00">VersionVector, ORSet, LWW</text>
</g>
</g>
</svg>
