<?xml version="1.0" encoding="UTF-8" standalone="no"?>
<!DOCTYPE svg PUBLIC "-//W3C//DTD SVG 1.1//EN"
 "http://www.w3.org/Graphics/SVG/1.1/DTD/svg11.dtd">
<!-- Generated by graphviz version 14.1.2 (20260124.0452)
 -->
<!-- Title: data_storage Pages: 1 -->
<svg width="710pt" height="426pt"
 viewBox="0.00 0.00 710.00 426.00" xmlns="http://www.w3.org/2000/svg" xmlns:xlink="http://www.w3.org/1999/xlink">
<g id="graph0" class="graph" transform="scale(1 1) rotate(0) translate(4 421.75)">
<title>data_storage</title>
<text xml:space="preserve" text-anchor="start" x="206.06" y="-8.05" font-family="Times,serif" font-style="italic" font-size="11.00">Fig. 1. &#160;WARP Data Storage — invisible to normal Git workflows</text>
<g id="clust1" class="cluster">
<title>cluster_normal</title>
<path fill="none" stroke="#606060" stroke-width="0.8" d="M20,-29.5C20,-29.5 258,-29.5 258,-29.5 264,-29.5 270,-35.5 270,-41.5 270,-41.5 270,-397.75 270,-397.75 270,-403.75 264,-409.75 258,-409.75 258,-409.75 20,-409.75 20,-409.75 14,-409.75 8,-403.75 8,-397.75 8,-397.75 8,-41.5 8,-41.5 8,-35.5 14,-29.5 20,-29.5"/>
<text xml:space="preserve" text-anchor="start" x="101.5" y="-398.2" font-family="Times,serif" font-weight="bold" font-size="9.00">Normal Git Objects</text>
</g>
<g id="clust2" class="cluster">
<title>cluster_warp</title>
<path fill="none" stroke="#606060" stroke-width="0.8" d="M290,-29.5C290,-29.5 534,-29.5 534,-29.5 540,-29.5 546,-35.5 546,-41.5 546,-41.5 546,-397.75 546,-397.75 546,-403.75 540,-409.75 534,-409.75 534,-409.75 290,-409.75 290,-409.75 284,-409.75 278,-403.75 278,-397.75 278,-397.75 278,-41.5 278,-41.5 278,-35.5 284,-29.5 290,-29.5"/>
<text xml:space="preserve" text-anchor="start" x="371.12" y="-398.2" font-family="Times,serif" font-weight="bold" font-size="9.00">WARP Patch Objects</text>
</g>
<!-- HEAD -->
<g id="node1" class="node">
<title>HEAD</title>
<polygon fill="white" stroke="black" stroke-width="0.8" stroke-dasharray="5,2" points="103,-383.25 49,-383.25 49,-347.25 103,-347.25 103,-383.25"/>
<text xml:space="preserve" text-anchor="middle" x="76" y="-361.38" font-family="Times,serif" font-size="10.00">HEAD</text>
</g>
<!-- main_ref -->
<g id="node2" class="node">
<title>main_ref</title>
<polygon fill="white" stroke="black" stroke-width="0.8" stroke-dasharray="5,2" points="115.88,-310 36.12,-310 36.12,-274 115.88,-274 115.88,-310"/>
<text xml:space="preserve" text-anchor="middle" x="76" y="-288.12" font-family="Times,serif" font-size="10.00">refs/heads/main</text>
</g>
<!-- HEAD&#45;&gt;main_ref -->
<g id="edge1" class="edge">
<title>HEAD&#45;&gt;main_ref</title>
<path fill="none" stroke="black" stroke-width="0.5" stroke-dasharray="5,2" d="M76,-347C76,-339.13 76,-329.6 76,-320.75"/>
<polygon fill="black" stroke="black" stroke-width="0.5" points="79.5,-320.85 76,-310.85 72.5,-320.85 79.5,-320.85"/>
</g>
<!-- C3 -->
<g id="node3" class="node">
<title>C3</title>
<path fill="#e8e8e8" stroke="black" stroke-width="0.8" d="M91,-237C91,-237 61,-237 61,-237 55,-237 49,-231 49,-225 49,-225 49,-213 49,-213 49,-207 55,-201 61,-201 61,-201 91,-201 91,-201 97,-201 103,-207 103,-213 103,-213 103,-225 103,-225 103,-231 97,-237 91,-237"/>
<text xml:space="preserve" text-anchor="start" x="70" y="-219.5" font-family="Times,serif" font-size="10.00">C3</text>
<text xml:space="preserve" text-anchor="start" x="60.25" y="-211.4" font-family="Courier,monospace" font-size="8.00">a1b2c3d</text>
</g>
<!-- main_ref&#45;&gt;C3 -->
<g id="edge2" class="edge">
<title>main_ref&#45;&gt;C3</title>
<path fill="none" stroke="black" stroke-width="0.5" stroke-dasharray="5,2" d="M76,-273.81C76,-265.96 76,-256.47 76,-247.66"/>
<polygon fill="black" stroke="black" stroke-width="0.5" points="79.5,-247.79 76,-237.79 72.5,-247.79 79.5,-247.79"/>
</g>
<!-- C2 -->
<g id="node4" class="node">
<title>C2</title>
<path fill="#e8e8e8" stroke="black" stroke-width="0.8" d="M63,-155.25C63,-155.25 33,-155.25 33,-155.25 27,-155.25 21,-149.25 21,-143.25 21,-143.25 21,-131.25 21,-131.25 21,-125.25 27,-119.25 33,-119.25 33,-119.25 63,-119.25 63,-119.25 69,-119.25 75,-125.25 75,-131.25 75,-131.25 75,-143.25 75,-143.25 75,-149.25 69,-155.25 63,-155.25"/>
<text xml:space="preserve" text-anchor="start" x="42" y="-137.75" font-family="Times,serif" font-size="10.00">C2</text>
<text xml:space="preserve" text-anchor="start" x="32.25" y="-129.65" font-family="Courier,monospace" font-size="8.00">e4f5a6b</text>
</g>
<!-- C3&#45;&gt;C2 -->
<g id="edge3" class="edge">
<title>C3&#45;&gt;C2</title>
<path fill="none" stroke="black" stroke-width="0.8" d="M69.92,-200.7C66.37,-190.56 61.79,-177.52 57.74,-165.98"/>
<polygon fill="black" stroke="black" stroke-width="0.8" points="61.08,-164.94 54.46,-156.66 54.48,-167.26 61.08,-164.94"/>
<text xml:space="preserve" text-anchor="middle" x="73.8" y="-175.4" font-family="Times,serif" font-size="8.00">parent</text>
</g>
<!-- T3 -->
<g id="node6" class="node">
<title>T3</title>
<polygon fill="#f0f0f0" stroke="black" stroke-width="0.8" points="152,-155.25 149,-159.25 128,-159.25 125,-155.25 98,-155.25 98,-119.25 152,-119.25 152,-155.25"/>
<text xml:space="preserve" text-anchor="middle" x="125" y="-133.38" font-family="Times,serif" font-size="10.00">tree</text>
</g>
<!-- C3&#45;&gt;T3 -->
<g id="edge5" class="edge">
<title>C3&#45;&gt;T3</title>
<path fill="none" stroke="black" stroke-width="0.5" d="M86.63,-200.7C93.12,-190.14 101.54,-176.44 108.83,-164.56"/>
<polygon fill="black" stroke="black" stroke-width="0.5" points="111.74,-166.52 113.99,-156.17 105.78,-162.85 111.74,-166.52"/>
<text xml:space="preserve" text-anchor="middle" x="109.81" y="-175.4" font-family="Times,serif" font-size="8.00">tree</text>
</g>
<!-- C1 -->
<g id="node5" class="node">
<title>C1</title>
<path fill="#e8e8e8" stroke="black" stroke-width="0.8" d="M58,-73.5C58,-73.5 28,-73.5 28,-73.5 22,-73.5 16,-67.5 16,-61.5 16,-61.5 16,-49.5 16,-49.5 16,-43.5 22,-37.5 28,-37.5 28,-37.5 58,-37.5 58,-37.5 64,-37.5 70,-43.5 70,-49.5 70,-49.5 70,-61.5 70,-61.5 70,-67.5 64,-73.5 58,-73.5"/>
<text xml:space="preserve" text-anchor="start" x="37" y="-56" font-family="Times,serif" font-size="10.00">C1</text>
<text xml:space="preserve" text-anchor="start" x="27.25" y="-47.9" font-family="Courier,monospace" font-size="8.00">7c8d9e0</text>
</g>
<!-- C2&#45;&gt;C1 -->
<g id="edge4" class="edge">
<title>C2&#45;&gt;C1</title>
<path fill="none" stroke="black" stroke-width="0.8" d="M46.92,-118.95C46.29,-109.02 45.5,-96.31 44.78,-84.95"/>
<polygon fill="black" stroke="black" stroke-width="0.8" points="48.28,-84.74 44.16,-74.98 41.29,-85.18 48.28,-84.74"/>
<text xml:space="preserve" text-anchor="middle" x="55.92" y="-93.65" font-family="Times,serif" font-size="8.00">parent</text>
</g>
<!-- src_blob -->
<g id="node7" class="node">
<title>src_blob</title>
<ellipse fill="white" stroke="black" stroke-width="0.8" cx="125" cy="-55.5" rx="36.98" ry="18"/>
<text xml:space="preserve" text-anchor="middle" x="125" y="-51.62" font-family="Times,serif" font-size="10.00">src/index.js</text>
</g>
<!-- T3&#45;&gt;src_blob -->
<g id="edge6" class="edge">
<title>T3&#45;&gt;src_blob</title>
<path fill="none" stroke="black" stroke-width="0.5" d="M125,-118.95C125,-108.81 125,-95.77 125,-84.23"/>
<polygon fill="black" stroke="black" stroke-width="0.5" points="128.5,-84.53 125,-74.53 121.5,-84.53 128.5,-84.53"/>
</g>
<!-- pkg_blob -->
<g id="node8" class="node">
<title>pkg_blob</title>
<ellipse fill="white" stroke="black" stroke-width="0.8" cx="221" cy="-55.5" rx="40.97" ry="18"/>
<text xml:space="preserve" text-anchor="middle" x="221" y="-51.62" font-family="Times,serif" font-size="10.00">package.json</text>
</g>
<!-- T3&#45;&gt;pkg_blob -->
<g id="edge7" class="edge">
<title>T3&#45;&gt;pkg_blob</title>
<path fill="none" stroke="black" stroke-width="0.5" d="M145.83,-118.95C160.07,-107.12 179.06,-91.34 194.39,-78.6"/>
<polygon fill="black" stroke="black" stroke-width="0.5" points="196.44,-81.45 201.9,-72.37 191.97,-76.07 196.44,-81.45"/>
</g>
<!-- warp_ref -->
<g id="node9" class="node">
<title>warp_ref</title>
<polygon fill="white" stroke="black" stroke-width="0.8" stroke-dasharray="5,2" points="402.88,-383.25 305.12,-383.25 305.12,-347.25 402.88,-347.25 402.88,-383.25"/>
<text xml:space="preserve" text-anchor="start" x="313.12" y="-367" font-family="Times,serif" font-size="10.00">refs/warp/myGraph/</text>
<text xml:space="preserve" text-anchor="start" x="328.88" y="-355.75" font-family="Times,serif" font-size="10.00">writers/alice</text>
</g>
<!-- P3 -->
<g id="node10" class="node">
<title>P3</title>
<path fill="#e8e8e8" stroke="black" stroke-width="0.8" d="M377.75,-237C377.75,-237 330.25,-237 330.25,-237 324.25,-237 318.25,-231 318.25,-225 318.25,-225 318.25,-213 318.25,-213 318.25,-207 324.25,-201 330.25,-201 330.25,-201 377.75,-201 377.75,-201 383.75,-201 389.75,-207 389.75,-213 389.75,-213 389.75,-225 389.75,-225 389.75,-231 383.75,-237 377.75,-237"/>
<text xml:space="preserve" text-anchor="start" x="326.25" y="-219.5" font-family="Times,serif" font-size="10.00">P3 &#160;</text>
<text xml:space="preserve" text-anchor="start" x="341.25" y="-219.5" font-family="Courier,monospace" font-size="8.00">lamport=3</text>
<text xml:space="preserve" text-anchor="start" x="338.25" y="-211.4" font-family="Courier,monospace" font-size="8.00">f1a2b3c</text>
</g>
<!-- warp_ref&#45;&gt;P3 -->
<g id="edge8" class="edge">
<title>warp_ref&#45;&gt;P3</title>
<path fill="none" stroke="black" stroke-width="0.5" stroke-dasharray="5,2" d="M354,-346.85C354,-322.24 354,-277.01 354,-247.74"/>
<polygon fill="black" stroke="black" stroke-width="0.5" points="357.5,-247.77 354,-237.77 350.5,-247.77 357.5,-247.77"/>
</g>
<!-- P2 -->
<g id="node11" class="node">
<title>P2</title>
<path fill="#e8e8e8" stroke="black" stroke-width="0.8" d="M349.75,-155.25C349.75,-155.25 302.25,-155.25 302.25,-155.25 296.25,-155.25 290.25,-149.25 290.25,-143.25 290.25,-143.25 290.25,-131.25 290.25,-131.25 290.25,-125.25 296.25,-119.25 302.25,-119.25 302.25,-119.25 349.75,-119.25 349.75,-119.25 355.75,-119.25 361.75,-125.25 361.75,-131.25 361.75,-131.25 361.75,-143.25 361.75,-143.25 361.75,-149.25 355.75,-155.25 349.75,-155.25"/>
<text xml:space="preserve" text-anchor="start" x="298.25" y="-137.75" font-family="Times,serif" font-size="10.00">P2 &#160;</text>
<text xml:space="preserve" text-anchor="start" x="313.25" y="-137.75" font-family="Courier,monospace" font-size="8.00">lamport=2</text>
<text xml:space="preserve" text-anchor="start" x="310.25" y="-129.65" font-family="Courier,monospace" font-size="8.00">d4e5f6a</text>
</g>
<!-- P3&#45;&gt;P2 -->
<g id="edge9" class="edge">
<title>P3&#45;&gt;P2</title>
<path fill="none" stroke="black" stroke-width="0.8" d="M347.92,-200.7C344.37,-190.56 339.79,-177.52 335.74,-165.98"/>
<polygon fill="black" stroke="black" stroke-width="0.8" points="339.08,-164.94 332.46,-156.66 332.48,-167.26 339.08,-164.94"/>
<text xml:space="preserve" text-anchor="middle" x="351.8" y="-175.4" font-family="Times,serif" font-size="8.00">parent</text>
</g>
<!-- WT3 -->
<g id="node13" class="node">
<title>WT3</title>
<polygon fill="#f0f0f0" stroke="black" stroke-width="0.8" points="438,-155.25 435,-159.25 414,-159.25 411,-155.25 384,-155.25 384,-119.25 438,-119.25 438,-155.25"/>
<text xml:space="preserve" text-anchor="middle" x="411" y="-133.38" font-family="Times,serif" font-size="10.00">tree</text>
</g>
<!-- P3&#45;&gt;WT3 -->
<g id="edge11" class="edge">
<title>P3&#45;&gt;WT3</title>
<path fill="none" stroke="black" stroke-width="0.5" d="M366.37,-200.7C373.99,-190.04 383.9,-176.17 392.45,-164.21"/>
<polygon fill="black" stroke="black" stroke-width="0.5" points="395.25,-166.31 398.22,-156.14 389.55,-162.24 395.25,-166.31"/>
<text xml:space="preserve" text-anchor="middle" x="392.29" y="-175.4" font-family="Times,serif" font-size="8.00">tree</text>
</g>
<!-- P1 -->
<g id="node12" class="node">
<title>P1</title>
<path fill="#e8e8e8" stroke="black" stroke-width="0.8" d="M345.75,-73.5C345.75,-73.5 298.25,-73.5 298.25,-73.5 292.25,-73.5 286.25,-67.5 286.25,-61.5 286.25,-61.5 286.25,-49.5 286.25,-49.5 286.25,-43.5 292.25,-37.5 298.25,-37.5 298.25,-37.5 345.75,-37.5 345.75,-37.5 351.75,-37.5 357.75,-43.5 357.75,-49.5 357.75,-49.5 357.75,-61.5 357.75,-61.5 357.75,-67.5 351.75,-73.5 345.75,-73.5"/>
<text xml:space="preserve" text-anchor="start" x="294.25" y="-56" font-family="Times,serif" font-size="10.00">P1 &#160;</text>
<text xml:space="preserve" text-anchor="start" x="309.25" y="-56" font-family="Courier,monospace" font-size="8.00">lamport=1</text>
<text xml:space="preserve" text-anchor="start" x="306.25" y="-47.9" font-family="Courier,monospace" font-size="8.00">b7c8d9e</text>
</g>
<!-- P2&#45;&gt;P1 -->
<g id="edge10" class="edge">
<title>P2&#45;&gt;P1</title>
<path fill="none" stroke="black" stroke-width="0.8" d="M325.13,-118.95C324.63,-109.02 324,-96.31 323.43,-84.95"/>
<polygon fill="black" stroke="black" stroke-width="0.8" points="326.92,-84.79 322.93,-74.98 319.93,-85.14 326.92,-84.79"/>
<text xml:space="preserve" text-anchor="middle" x="334.36" y="-93.65" font-family="Times,serif" font-size="8.00">parent</text>
</g>
<!-- patch_blob -->
<g id="node14" class="node">
<title>patch_blob</title>
<ellipse fill="white" stroke="black" stroke-width="0.8" cx="411" cy="-55.5" rx="34.76" ry="18"/>
<text xml:space="preserve" text-anchor="start" x="389.62" y="-51.62" font-family="Times,serif" font-size="10.00">patch.cbor</text>
</g>
<!-- WT3&#45;&gt;patch_blob -->
<g id="edge12" class="edge">
<title>WT3&#45;&gt;patch_blob</title>
<path fill="none" stroke="black" stroke-width="0.5" d="M411,-118.95C411,-108.81 411,-95.77 411,-84.23"/>
<polygon fill="black" stroke="black" stroke-width="0.5" points="414.5,-84.53 411,-74.53 407.5,-84.53 414.5,-84.53"/>
</g>
<!-- content_blob -->
<g id="node15" class="node">
<title>content_blob</title>
<ellipse fill="white" stroke="black" stroke-width="0.8" cx="501" cy="-55.5" rx="36.98" ry="18"/>
<text xml:space="preserve" text-anchor="start" x="477.75" y="-51.62" font-family="Times,serif" font-size="10.00">_content_*</text>
</g>
<!-- WT3&#45;&gt;content_blob -->
<g id="edge13" class="edge">
<title>WT3&#45;&gt;content_blob</title>
<path fill="none" stroke="black" stroke-width="0.5" d="M430.53,-118.95C443.84,-107.15 461.58,-91.43 475.94,-78.71"/>
<polygon fill="black" stroke="black" stroke-width="0.5" points="478.21,-81.37 483.37,-72.12 473.56,-76.13 478.21,-81.37"/>
</g>
<!-- invisible_note -->
<g id="node16" class="node">
<title>invisible_note</title>
<text xml:space="preserve" text-anchor="start" x="592.38" y="-373.95" font-family="Times,serif" font-size="9.00">visible to </text>
<text xml:space="preserve" text-anchor="start" x="626.88" y="-373.95" font-family="Courier,monospace" font-size="9.00">git log</text>
<text xml:space="preserve" text-anchor="start" x="589" y="-359.45" font-family="Times,serif" font-size="9.00">invisible to </text>
<text xml:space="preserve" text-anchor="start" x="630.25" y="-359.45" font-family="Courier,monospace" font-size="9.00">git log</text>
<text xml:space="preserve" text-anchor="start" x="555.62" y="-350.45" font-family="Times,serif" font-size="9.00"> &#160;&#160;&#160;&#160;&#160;&#160;&#160;&#160;&#160;&#160;&#160;&#160;&#160;&#160;&#160;&#160;&#160;&#160;&#160;(lives under </text>
<text xml:space="preserve" text-anchor="start" x="644.88" y="-350.45" font-family="Courier,monospace" font-size="9.00">refs/warp/</text>
<text xml:space="preserve" text-anchor="start" x="697.38" y="-350.45" font-family="Times,serif" font-size="9.00">)</text>
<polygon fill="black" stroke="black" points="553.62,-369 553.62,-369 702.38,-369 702.38,-369 553.62,-369"/>
</g>
</g>
</svg>
