<?xml version="1.0" encoding="UTF-8" standalone="no"?>
<!DOCTYPE svg PUBLIC "-//W3C//DTD SVG 1.1//EN"
 "http://www.w3.org/Graphics/SVG/1.1/DTD/svg11.dtd">
<!-- Generated by graphviz version 14.1.2 (20260124.0452)
 -->
<!-- Title: ref_layout Pages: 1 -->
<svg width="857pt" height="512pt"
 viewBox="0.00 0.00 857.00 512.00" xmlns="http://www.w3.org/2000/svg" xmlns:xlink="http://www.w3.org/1999/xlink">
<g id="graph0" class="graph" transform="scale(1 1) rotate(0) translate(4 508.25)">
<title>ref_layout</title>
<text xml:space="preserve" text-anchor="start" x="318.06" y="-8.05" font-family="Times,serif" font-style="italic" font-size="11.00">Fig. 3. &#160;Ref Layout — the refs/warp/ namespace</text>
<!-- refs -->
<g id="node1" class="node">
<title>refs</title>
<polygon fill="#f0f0f0" stroke="black" stroke-width="0.8" points="545,-504.25 542,-508.25 521,-508.25 518,-504.25 491,-504.25 491,-468.25 545,-468.25 545,-504.25"/>
<text xml:space="preserve" text-anchor="middle" x="518" y="-482.38" font-family="Times,serif" font-size="10.00">refs/</text>
</g>
<!-- warp -->
<g id="node2" class="node">
<title>warp</title>
<polygon fill="#f0f0f0" stroke="black" stroke-width="0.8" points="545,-431.25 542,-435.25 521,-435.25 518,-431.25 491,-431.25 491,-395.25 545,-395.25 545,-431.25"/>
<text xml:space="preserve" text-anchor="middle" x="518" y="-409.38" font-family="Times,serif" font-size="10.00">warp/</text>
</g>
<!-- refs&#45;&gt;warp -->
<g id="edge1" class="edge">
<title>refs&#45;&gt;warp</title>
<path fill="none" stroke="black" stroke-width="0.8" d="M518,-468.06C518,-460.3 518,-450.93 518,-442.2"/>
<polygon fill="black" stroke="black" stroke-width="0.8" points="521.5,-442.49 518,-432.49 514.5,-442.49 521.5,-442.49"/>
</g>
<!-- graphdir -->
<g id="node3" class="node">
<title>graphdir</title>
<polygon fill="#f0f0f0" stroke="black" stroke-width="0.8" points="557.12,-358.25 554.12,-362.25 533.12,-362.25 530.12,-358.25 478.88,-358.25 478.88,-322.25 557.12,-322.25 557.12,-358.25"/>
<text xml:space="preserve" text-anchor="start" x="486.88" y="-336.38" font-family="Times,serif" font-size="10.00">&lt;graphName&gt;/</text>
</g>
<!-- warp&#45;&gt;graphdir -->
<g id="edge2" class="edge">
<title>warp&#45;&gt;graphdir</title>
<path fill="none" stroke="black" stroke-width="0.8" d="M518,-395.06C518,-387.3 518,-377.93 518,-369.2"/>
<polygon fill="black" stroke="black" stroke-width="0.8" points="521.5,-369.49 518,-359.49 514.5,-369.49 521.5,-369.49"/>
</g>
<!-- writers -->
<g id="node4" class="node">
<title>writers</title>
<polygon fill="#f0f0f0" stroke="black" stroke-width="0.8" points="151,-212.25 148,-216.25 127,-216.25 124,-212.25 97,-212.25 97,-176.25 151,-176.25 151,-212.25"/>
<text xml:space="preserve" text-anchor="middle" x="124" y="-190.38" font-family="Times,serif" font-size="10.00">writers/</text>
</g>
<!-- graphdir&#45;&gt;writers -->
<g id="edge3" class="edge">
<title>graphdir&#45;&gt;writers</title>
<path fill="none" stroke="black" stroke-width="0.8" d="M478.79,-339.01C419.8,-337.17 306.07,-327.81 221,-285.25 190.26,-269.87 162.32,-241.72 144.4,-220.99"/>
<polygon fill="black" stroke="black" stroke-width="0.8" points="147.26,-218.94 138.14,-213.54 141.9,-223.45 147.26,-218.94"/>
</g>
<!-- checkpoints -->
<g id="node5" class="node">
<title>checkpoints</title>
<polygon fill="#f0f0f0" stroke="black" stroke-width="0.8" points="435.25,-285.25 432.25,-289.25 411.25,-289.25 408.25,-285.25 366.75,-285.25 366.75,-249.25 435.25,-249.25 435.25,-285.25"/>
<text xml:space="preserve" text-anchor="middle" x="401" y="-263.38" font-family="Times,serif" font-size="10.00">checkpoints/</text>
</g>
<!-- graphdir&#45;&gt;checkpoints -->
<g id="edge4" class="edge">
<title>graphdir&#45;&gt;checkpoints</title>
<path fill="none" stroke="black" stroke-width="0.8" d="M489.38,-321.88C474.11,-312.62 455.13,-301.1 438.67,-291.11"/>
<polygon fill="black" stroke="black" stroke-width="0.8" points="440.73,-288.26 430.36,-286.07 437.09,-294.25 440.73,-288.26"/>
</g>
<!-- coverage -->
<g id="node6" class="node">
<title>coverage</title>
<polygon fill="#f0f0f0" stroke="black" stroke-width="0.8" points="297.88,-285.25 294.88,-289.25 273.88,-289.25 270.88,-285.25 242.12,-285.25 242.12,-249.25 297.88,-249.25 297.88,-285.25"/>
<text xml:space="preserve" text-anchor="middle" x="270" y="-263.38" font-family="Times,serif" font-size="10.00">coverage/</text>
</g>
<!-- graphdir&#45;&gt;coverage -->
<g id="edge5" class="edge">
<title>graphdir&#45;&gt;coverage</title>
<path fill="none" stroke="black" stroke-width="0.8" d="M478.7,-328C432.05,-314.64 354.74,-292.51 308.45,-279.26"/>
<polygon fill="black" stroke="black" stroke-width="0.8" points="309.69,-275.97 299.12,-276.59 307.77,-282.7 309.69,-275.97"/>
</g>
<!-- cursor -->
<g id="node7" class="node">
<title>cursor</title>
<polygon fill="#f0f0f0" stroke="black" stroke-width="0.8" points="545,-285.25 542,-289.25 521,-289.25 518,-285.25 491,-285.25 491,-249.25 545,-249.25 545,-285.25"/>
<text xml:space="preserve" text-anchor="middle" x="518" y="-263.38" font-family="Times,serif" font-size="10.00">cursor/</text>
</g>
<!-- graphdir&#45;&gt;cursor -->
<g id="edge6" class="edge">
<title>graphdir&#45;&gt;cursor</title>
<path fill="none" stroke="black" stroke-width="0.8" d="M518,-322.06C518,-314.3 518,-304.93 518,-296.2"/>
<polygon fill="black" stroke="black" stroke-width="0.8" points="521.5,-296.49 518,-286.49 514.5,-296.49 521.5,-296.49"/>
</g>
<!-- audit -->
<g id="node9" class="node">
<title>audit</title>
<polygon fill="#f0f0f0" stroke="black" stroke-width="0.8" points="649,-285.25 646,-289.25 625,-289.25 622,-285.25 595,-285.25 595,-249.25 649,-249.25 649,-285.25"/>
<text xml:space="preserve" text-anchor="middle" x="622" y="-263.38" font-family="Times,serif" font-size="10.00">audit/</text>
</g>
<!-- graphdir&#45;&gt;audit -->
<g id="edge7" class="edge">
<title>graphdir&#45;&gt;audit</title>
<path fill="none" stroke="black" stroke-width="0.8" d="M543.44,-321.88C556.76,-312.79 573.26,-301.53 587.69,-291.67"/>
<polygon fill="black" stroke="black" stroke-width="0.8" points="589.54,-294.65 595.82,-286.12 585.59,-288.87 589.54,-294.65"/>
</g>
<!-- trust -->
<g id="node10" class="node">
<title>trust</title>
<polygon fill="#f0f0f0" stroke="black" stroke-width="0.8" points="746,-285.25 743,-289.25 722,-289.25 719,-285.25 692,-285.25 692,-249.25 746,-249.25 746,-285.25"/>
<text xml:space="preserve" text-anchor="middle" x="719" y="-263.38" font-family="Times,serif" font-size="10.00">trust/</text>
</g>
<!-- graphdir&#45;&gt;trust -->
<g id="edge8" class="edge">
<title>graphdir&#45;&gt;trust</title>
<path fill="none" stroke="black" stroke-width="0.8" d="M557.31,-325.39C588.22,-314.49 632.36,-298.91 671,-285.25 674.38,-284.06 677.88,-282.82 681.4,-281.57"/>
<polygon fill="black" stroke="black" stroke-width="0.8" points="682.44,-284.92 690.7,-278.28 680.1,-278.32 682.44,-284.92"/>
</g>
<!-- seek_cache -->
<g id="node20" class="node">
<title>seek_cache</title>
<polygon fill="none" stroke="black" stroke-width="0.8" stroke-dasharray="5,2" points="849.12,-285.25 788.88,-285.25 788.88,-249.25 849.12,-249.25 849.12,-285.25"/>
<text xml:space="preserve" text-anchor="middle" x="819" y="-263.38" font-family="Times,serif" font-size="10.00">seek&#45;cache</text>
</g>
<!-- graphdir&#45;&gt;seek_cache -->
<g id="edge9" class="edge">
<title>graphdir&#45;&gt;seek_cache</title>
<path fill="none" stroke="black" stroke-width="0.8" d="M557.29,-332.14C606.8,-322.86 694.34,-305.42 768,-285.25 771.27,-284.35 774.64,-283.37 778.01,-282.34"/>
<polygon fill="black" stroke="black" stroke-width="0.8" points="779.06,-285.68 787.54,-279.32 776.95,-279.01 779.06,-285.68"/>
</g>
<!-- alice_ref -->
<g id="node11" class="node">
<title>alice_ref</title>
<polygon fill="none" stroke="black" stroke-width="0.8" stroke-dasharray="5,2" points="54,-139.25 0,-139.25 0,-103.25 54,-103.25 54,-139.25"/>
<text xml:space="preserve" text-anchor="middle" x="27" y="-117.38" font-family="Times,serif" font-size="10.00">alice</text>
</g>
<!-- writers&#45;&gt;alice_ref -->
<g id="edge10" class="edge">
<title>writers&#45;&gt;alice_ref</title>
<path fill="none" stroke="black" stroke-width="0.8" d="M100.52,-176.06C88.22,-167.06 72.96,-155.89 59.54,-146.07"/>
<polygon fill="black" stroke="black" stroke-width="0.8" points="61.71,-143.32 51.58,-140.24 57.58,-148.97 61.71,-143.32"/>
</g>
<!-- bob_ref -->
<g id="node12" class="node">
<title>bob_ref</title>
<polygon fill="none" stroke="black" stroke-width="0.8" stroke-dasharray="5,2" points="151,-139.25 97,-139.25 97,-103.25 151,-103.25 151,-139.25"/>
<text xml:space="preserve" text-anchor="middle" x="124" y="-117.38" font-family="Times,serif" font-size="10.00">bob</text>
</g>
<!-- writers&#45;&gt;bob_ref -->
<g id="edge11" class="edge">
<title>writers&#45;&gt;bob_ref</title>
<path fill="none" stroke="black" stroke-width="0.8" d="M124,-176.06C124,-168.3 124,-158.93 124,-150.2"/>
<polygon fill="black" stroke="black" stroke-width="0.8" points="127.5,-150.49 124,-140.49 120.5,-150.49 127.5,-150.49"/>
</g>
<!-- ckpt_head -->
<g id="node13" class="node">
<title>ckpt_head</title>
<polygon fill="none" stroke="black" stroke-width="0.8" stroke-dasharray="5,2" points="364,-212.25 310,-212.25 310,-176.25 364,-176.25 364,-212.25"/>
<text xml:space="preserve" text-anchor="middle" x="337" y="-190.38" font-family="Times,serif" font-size="10.00">head</text>
</g>
<!-- checkpoints&#45;&gt;ckpt_head -->
<g id="edge12" class="edge">
<title>checkpoints&#45;&gt;ckpt_head</title>
<path fill="none" stroke="black" stroke-width="0.8" d="M385.51,-249.06C377.8,-240.52 368.34,-230.02 359.83,-220.57"/>
<polygon fill="black" stroke="black" stroke-width="0.8" points="362.46,-218.26 353.16,-213.18 357.26,-222.95 362.46,-218.26"/>
</g>
<!-- cov_head -->
<g id="node14" class="node">
<title>cov_head</title>
<polygon fill="none" stroke="black" stroke-width="0.8" stroke-dasharray="5,2" points="265,-212.25 211,-212.25 211,-176.25 265,-176.25 265,-212.25"/>
<text xml:space="preserve" text-anchor="middle" x="238" y="-190.38" font-family="Times,serif" font-size="10.00">head</text>
</g>
<!-- coverage&#45;&gt;cov_head -->
<g id="edge13" class="edge">
<title>coverage&#45;&gt;cov_head</title>
<path fill="none" stroke="black" stroke-width="0.8" d="M262.25,-249.06C258.64,-241.04 254.25,-231.3 250.2,-222.32"/>
<polygon fill="black" stroke="black" stroke-width="0.8" points="253.47,-221.06 246.17,-213.38 247.09,-223.94 253.47,-221.06"/>
</g>
<!-- saved -->
<g id="node8" class="node">
<title>saved</title>
<polygon fill="#f0f0f0" stroke="black" stroke-width="0.8" points="461,-212.25 458,-216.25 437,-216.25 434,-212.25 407,-212.25 407,-176.25 461,-176.25 461,-212.25"/>
<text xml:space="preserve" text-anchor="middle" x="434" y="-190.38" font-family="Times,serif" font-size="10.00">saved/</text>
</g>
<!-- cursor&#45;&gt;saved -->
<g id="edge15" class="edge">
<title>cursor&#45;&gt;saved</title>
<path fill="none" stroke="black" stroke-width="0.8" d="M497.67,-249.06C487.22,-240.23 474.31,-229.32 462.85,-219.64"/>
<polygon fill="black" stroke="black" stroke-width="0.8" points="465.26,-217.09 455.36,-213.31 460.74,-222.44 465.26,-217.09"/>
</g>
<!-- cur_active -->
<g id="node15" class="node">
<title>cur_active</title>
<polygon fill="none" stroke="black" stroke-width="0.8" stroke-dasharray="5,2" points="558,-212.25 504,-212.25 504,-176.25 558,-176.25 558,-212.25"/>
<text xml:space="preserve" text-anchor="middle" x="531" y="-190.38" font-family="Times,serif" font-size="10.00">active</text>
</g>
<!-- cursor&#45;&gt;cur_active -->
<g id="edge14" class="edge">
<title>cursor&#45;&gt;cur_active</title>
<path fill="none" stroke="black" stroke-width="0.8" d="M521.15,-249.06C522.57,-241.3 524.28,-231.93 525.88,-223.2"/>
<polygon fill="black" stroke="black" stroke-width="0.8" points="529.31,-223.94 527.66,-213.47 522.42,-222.68 529.31,-223.94"/>
</g>
<!-- bookmark -->
<g id="node16" class="node">
<title>bookmark</title>
<polygon fill="none" stroke="black" stroke-width="0.8" stroke-dasharray="5,2" points="475.62,-139.25 418.38,-139.25 418.38,-103.25 475.62,-103.25 475.62,-139.25"/>
<text xml:space="preserve" text-anchor="middle" x="447" y="-117.38" font-family="Times,serif" font-size="10.00">bookmark</text>
</g>
<!-- saved&#45;&gt;bookmark -->
<g id="edge16" class="edge">
<title>saved&#45;&gt;bookmark</title>
<path fill="none" stroke="black" stroke-width="0.8" d="M437.15,-176.06C438.57,-168.3 440.28,-158.93 441.88,-150.2"/>
<polygon fill="black" stroke="black" stroke-width="0.8" points="445.31,-150.94 443.66,-140.47 438.42,-149.68 445.31,-150.94"/>
</g>
<!-- audit_alice -->
<g id="node17" class="node">
<title>audit_alice</title>
<polygon fill="none" stroke="black" stroke-width="0.8" stroke-dasharray="5,2" points="655,-212.25 601,-212.25 601,-176.25 655,-176.25 655,-212.25"/>
<text xml:space="preserve" text-anchor="middle" x="628" y="-190.38" font-family="Times,serif" font-size="10.00">alice</text>
</g>
<!-- audit&#45;&gt;audit_alice -->
<g id="edge17" class="edge">
<title>audit&#45;&gt;audit_alice</title>
<path fill="none" stroke="black" stroke-width="0.8" d="M623.45,-249.06C624.11,-241.3 624.9,-231.93 625.64,-223.2"/>
<polygon fill="black" stroke="black" stroke-width="0.8" points="629.1,-223.74 626.46,-213.49 622.13,-223.16 629.1,-223.74"/>
</g>
<!-- audit_bob -->
<g id="node18" class="node">
<title>audit_bob</title>
<polygon fill="none" stroke="black" stroke-width="0.8" stroke-dasharray="5,2" points="752,-212.25 698,-212.25 698,-176.25 752,-176.25 752,-212.25"/>
<text xml:space="preserve" text-anchor="middle" x="725" y="-190.38" font-family="Times,serif" font-size="10.00">bob</text>
</g>
<!-- audit&#45;&gt;audit_bob -->
<g id="edge18" class="edge">
<title>audit&#45;&gt;audit_bob</title>
<path fill="none" stroke="black" stroke-width="0.8" d="M647.2,-248.88C660.39,-239.79 676.73,-228.53 691.02,-218.67"/>
<polygon fill="black" stroke="black" stroke-width="0.8" points="692.82,-221.68 699.07,-213.13 688.85,-215.92 692.82,-221.68"/>
</g>
<!-- trust_rec -->
<g id="node19" class="node">
<title>trust_rec</title>
<polygon fill="none" stroke="black" stroke-width="0.8" stroke-dasharray="5,2" points="849,-212.25 795,-212.25 795,-176.25 849,-176.25 849,-212.25"/>
<text xml:space="preserve" text-anchor="middle" x="822" y="-190.38" font-family="Times,serif" font-size="10.00">records</text>
</g>
<!-- trust&#45;&gt;trust_rec -->
<g id="edge19" class="edge">
<title>trust&#45;&gt;trust_rec</title>
<path fill="none" stroke="black" stroke-width="0.8" d="M744.2,-248.88C757.39,-239.79 773.73,-228.53 788.02,-218.67"/>
<polygon fill="black" stroke="black" stroke-width="0.8" points="789.82,-221.68 796.07,-213.13 785.85,-215.92 789.82,-221.68"/>
</g>
<!-- c_alice -->
<g id="node21" class="node">
<title>c_alice</title>
<path fill="#e8e8e8" stroke="black" stroke-width="0.8" d="M110.75,-57.5C110.75,-57.5 63.25,-57.5 63.25,-57.5 57.25,-57.5 51.25,-51.5 51.25,-45.5 51.25,-45.5 51.25,-33.5 51.25,-33.5 51.25,-27.5 57.25,-21.5 63.25,-21.5 63.25,-21.5 110.75,-21.5 110.75,-21.5 116.75,-21.5 122.75,-27.5 122.75,-33.5 122.75,-33.5 122.75,-45.5 122.75,-45.5 122.75,-51.5 116.75,-57.5 110.75,-57.5"/>
<text xml:space="preserve" text-anchor="start" x="59.25" y="-39.5" font-family="Times,serif" font-size="10.00">patch commit</text>
<text xml:space="preserve" text-anchor="start" x="71.25" y="-32.35" font-family="Courier,monospace" font-size="7.00">a1b2c3d</text>
</g>
<!-- alice_ref&#45;&gt;c_alice -->
<g id="edge20" class="edge">
<title>alice_ref&#45;&gt;c_alice</title>
<path fill="none" stroke="black" stroke-width="0.5" stroke-dasharray="5,2" d="M40.02,-102.95C48.12,-92.18 58.68,-78.15 67.73,-66.11"/>
<polygon fill="black" stroke="black" stroke-width="0.5" points="70.34,-68.47 73.55,-58.38 64.74,-64.26 70.34,-68.47"/>
</g>
<!-- c_bob -->
<g id="node22" class="node">
<title>c_bob</title>
<path fill="#e8e8e8" stroke="black" stroke-width="0.8" d="M247.75,-57.5C247.75,-57.5 200.25,-57.5 200.25,-57.5 194.25,-57.5 188.25,-51.5 188.25,-45.5 188.25,-45.5 188.25,-33.5 188.25,-33.5 188.25,-27.5 194.25,-21.5 200.25,-21.5 200.25,-21.5 247.75,-21.5 247.75,-21.5 253.75,-21.5 259.75,-27.5 259.75,-33.5 259.75,-33.5 259.75,-45.5 259.75,-45.5 259.75,-51.5 253.75,-57.5 247.75,-57.5"/>
<text xml:space="preserve" text-anchor="start" x="196.25" y="-39.5" font-family="Times,serif" font-size="10.00">patch commit</text>
<text xml:space="preserve" text-anchor="start" x="208.25" y="-32.35" font-family="Courier,monospace" font-size="7.00">d4e5f6a</text>
</g>
<!-- bob_ref&#45;&gt;c_bob -->
<g id="edge21" class="edge">
<title>bob_ref&#45;&gt;c_bob</title>
<path fill="none" stroke="black" stroke-width="0.5" stroke-dasharray="5,2" d="M124.5,-103.22C125.6,-94.05 128.36,-83.09 135,-75.5 146.12,-62.79 162.45,-54.65 178.1,-49.46"/>
<polygon fill="black" stroke="black" stroke-width="0.5" points="178.91,-52.87 187.5,-46.67 176.92,-46.16 178.91,-52.87"/>
</g>
<!-- c_ckpt -->
<g id="node23" class="node">
<title>c_ckpt</title>
<path fill="#e8e8e8" stroke="black" stroke-width="0.8" d="M362.88,-139.25C362.88,-139.25 325.12,-139.25 325.12,-139.25 319.12,-139.25 313.12,-133.25 313.12,-127.25 313.12,-127.25 313.12,-115.25 313.12,-115.25 313.12,-109.25 319.12,-103.25 325.12,-103.25 325.12,-103.25 362.88,-103.25 362.88,-103.25 368.88,-103.25 374.88,-109.25 374.88,-115.25 374.88,-115.25 374.88,-127.25 374.88,-127.25 374.88,-133.25 368.88,-139.25 362.88,-139.25"/>
<text xml:space="preserve" text-anchor="start" x="321.12" y="-121.25" font-family="Times,serif" font-size="10.00">checkpoint</text>
<text xml:space="preserve" text-anchor="start" x="328.25" y="-114.1" font-family="Courier,monospace" font-size="7.00">7c8d9e0</text>
</g>
<!-- ckpt_head&#45;&gt;c_ckpt -->
<g id="edge22" class="edge">
<title>ckpt_head&#45;&gt;c_ckpt</title>
<path fill="none" stroke="black" stroke-width="0.5" stroke-dasharray="5,2" d="M338.69,-176.06C339.47,-168.21 340.4,-158.72 341.27,-149.91"/>
<polygon fill="black" stroke="black" stroke-width="0.5" points="344.75,-150.33 342.25,-140.03 337.78,-149.64 344.75,-150.33"/>
</g>
<!-- c_cov -->
<g id="node24" class="node">
<title>c_cov</title>
<path fill="#e8e8e8" stroke="black" stroke-width="0.8" d="M257.62,-139.25C257.62,-139.25 206.38,-139.25 206.38,-139.25 200.38,-139.25 194.38,-133.25 194.38,-127.25 194.38,-127.25 194.38,-115.25 194.38,-115.25 194.38,-109.25 200.38,-103.25 206.38,-103.25 206.38,-103.25 257.62,-103.25 257.62,-103.25 263.62,-103.25 269.62,-109.25 269.62,-115.25 269.62,-115.25 269.62,-127.25 269.62,-127.25 269.62,-133.25 263.62,-139.25 257.62,-139.25"/>
<text xml:space="preserve" text-anchor="start" x="202.38" y="-121.25" font-family="Times,serif" font-size="10.00">octopus merge</text>
<text xml:space="preserve" text-anchor="start" x="216.25" y="-114.1" font-family="Courier,monospace" font-size="7.00">f1a2b3c</text>
</g>
<!-- cov_head&#45;&gt;c_cov -->
<g id="edge23" class="edge">
<title>cov_head&#45;&gt;c_cov</title>
<path fill="none" stroke="black" stroke-width="0.5" stroke-dasharray="5,2" d="M236.55,-176.06C235.88,-168.21 235.08,-158.72 234.34,-149.91"/>
<polygon fill="black" stroke="black" stroke-width="0.5" points="237.83,-149.7 233.5,-140.03 230.86,-150.29 237.83,-149.7"/>
</g>
<!-- c_cov&#45;&gt;c_alice -->
<g id="edge24" class="edge">
<title>c_cov&#45;&gt;c_alice</title>
<path fill="none" stroke="black" stroke-width="0.5" d="M200.54,-102.95C179.16,-91.19 150.69,-75.53 127.6,-62.83"/>
<polygon fill="black" stroke="black" stroke-width="0.5" points="129.51,-59.89 119.06,-58.14 126.14,-66.02 129.51,-59.89"/>
<text xml:space="preserve" text-anchor="middle" x="178.31" y="-77.65" font-family="Times,serif" font-size="8.00">parent</text>
</g>
<!-- c_cov&#45;&gt;c_bob -->
<g id="edge25" class="edge">
<title>c_cov&#45;&gt;c_bob</title>
<path fill="none" stroke="black" stroke-width="0.5" d="M230.26,-102.95C229.25,-92.81 227.94,-79.77 226.78,-68.23"/>
<polygon fill="black" stroke="black" stroke-width="0.5" points="230.29,-68.12 225.81,-58.52 223.32,-68.82 230.29,-68.12"/>
<text xml:space="preserve" text-anchor="middle" x="238.6" y="-77.65" font-family="Times,serif" font-size="8.00">parent</text>
</g>
</g>
</svg>
