<?xml version="1.0" encoding="UTF-8" standalone="no"?>
<!DOCTYPE svg PUBLIC "-//W3C//DTD SVG 1.1//EN"
 "http://www.w3.org/Graphics/SVG/1.1/DTD/svg11.dtd">
<!-- Generated by graphviz version 14.1.2 (20260124.0452)
 -->
<!-- Title: multi_writer Pages: 1 -->
<svg width="1002pt" height="297pt"
 viewBox="0.00 0.00 1002.00 297.00" xmlns="http://www.w3.org/2000/svg" xmlns:xlink="http://www.w3.org/1999/xlink">
<g id="graph0" class="graph" transform="scale(1 1) rotate(0) translate(4 292.5)">
<title>multi_writer</title>
<text xml:space="preserve" text-anchor="start" x="322.88" y="-8.05" font-family="Times,serif" font-style="italic" font-size="11.00">Fig. 5. &#160;Multi&#45;Writer Convergence — independent chains, deterministic merge</text>
<g id="clust1" class="cluster">
<title>cluster_alice</title>
<path fill="none" stroke="#606060" stroke-width="0.8" d="M60.88,-209.5C60.88,-209.5 323.88,-209.5 323.88,-209.5 329.88,-209.5 335.88,-215.5 335.88,-221.5 335.88,-221.5 335.88,-268.5 335.88,-268.5 335.88,-274.5 329.88,-280.5 323.88,-280.5 323.88,-280.5 60.88,-280.5 60.88,-280.5 54.88,-280.5 48.88,-274.5 48.88,-268.5 48.88,-268.5 48.88,-221.5 48.88,-221.5 48.88,-215.5 54.88,-209.5 60.88,-209.5"/>
<text xml:space="preserve" text-anchor="start" x="183" y="-268.95" font-family="Times,serif" font-weight="bold" font-size="9.00">Alice</text>
</g>
<!-- Pa1 -->
<g id="node1" class="node">
<title>Pa1</title>
<path fill="#e8e8e8" stroke="black" stroke-width="0.8" d="M63.88,-188.5C63.88,-188.5 33.88,-188.5 33.88,-188.5 27.88,-188.5 21.88,-182.5 21.88,-176.5 21.88,-176.5 21.88,-164.5 21.88,-164.5 21.88,-158.5 27.88,-152.5 33.88,-152.5 33.88,-152.5 63.88,-152.5 63.88,-152.5 69.88,-152.5 75.88,-158.5 75.88,-164.5 75.88,-164.5 75.88,-176.5 75.88,-176.5 75.88,-182.5 69.88,-188.5 63.88,-188.5"/>
<text xml:space="preserve" text-anchor="start" x="42.12" y="-170.5" font-family="Times,serif" font-size="10.00">P</text>
<text xml:space="preserve" text-anchor="start" x="47.38" y="-170.5" font-family="Times,serif" baseline-shift="sub" font-size="10.00">a1</text>
<text xml:space="preserve" text-anchor="start" x="42.12" y="-163.35" font-family="Courier,monospace" font-size="7.00">L=1</text>
</g>
<!-- Pa2 -->
<g id="node2" class="node">
<title>Pa2</title>
<path fill="#e8e8e8" stroke="black" stroke-width="0.8" d="M189.75,-253.5C189.75,-253.5 159.75,-253.5 159.75,-253.5 153.75,-253.5 147.75,-247.5 147.75,-241.5 147.75,-241.5 147.75,-229.5 147.75,-229.5 147.75,-223.5 153.75,-217.5 159.75,-217.5 159.75,-217.5 189.75,-217.5 189.75,-217.5 195.75,-217.5 201.75,-223.5 201.75,-229.5 201.75,-229.5 201.75,-241.5 201.75,-241.5 201.75,-247.5 195.75,-253.5 189.75,-253.5"/>
<text xml:space="preserve" text-anchor="start" x="168" y="-235.5" font-family="Times,serif" font-size="10.00">P</text>
<text xml:space="preserve" text-anchor="start" x="173.25" y="-235.5" font-family="Times,serif" baseline-shift="sub" font-size="10.00">a2</text>
<text xml:space="preserve" text-anchor="start" x="168" y="-228.35" font-family="Courier,monospace" font-size="7.00">L=2</text>
</g>
<!-- Pa1&#45;&gt;Pa2 -->
<g id="edge1" class="edge">
<title>Pa1&#45;&gt;Pa2</title>
<path fill="none" stroke="black" stroke-width="0.8" d="M76.15,-184.28C94.05,-193.68 117.98,-206.24 137.66,-216.57"/>
<polygon fill="black" stroke="black" stroke-width="0.8" points="135.96,-219.63 146.44,-221.17 139.22,-213.43 135.96,-219.63"/>
</g>
<!-- Pa3 -->
<g id="node3" class="node">
<title>Pa3</title>
<path fill="#e8e8e8" stroke="black" stroke-width="0.8" d="M63.88,-123.5C63.88,-123.5 33.88,-123.5 33.88,-123.5 27.88,-123.5 21.88,-117.5 21.88,-111.5 21.88,-111.5 21.88,-99.5 21.88,-99.5 21.88,-93.5 27.88,-87.5 33.88,-87.5 33.88,-87.5 63.88,-87.5 63.88,-87.5 69.88,-87.5 75.88,-93.5 75.88,-99.5 75.88,-99.5 75.88,-111.5 75.88,-111.5 75.88,-117.5 69.88,-123.5 63.88,-123.5"/>
<text xml:space="preserve" text-anchor="start" x="42.12" y="-105.5" font-family="Times,serif" font-size="10.00">P</text>
<text xml:space="preserve" text-anchor="start" x="47.38" y="-105.5" font-family="Times,serif" baseline-shift="sub" font-size="10.00">a3</text>
<text xml:space="preserve" text-anchor="start" x="42.12" y="-98.35" font-family="Courier,monospace" font-size="7.00">L=4</text>
</g>
<!-- Pa2&#45;&gt;Pa3 -->
<g id="edge2" class="edge">
<title>Pa2&#45;&gt;Pa3</title>
<path fill="none" stroke="black" stroke-width="0.8" d="M162.02,-217.36C148.19,-196.8 123.77,-162.98 97.75,-138.5 93.72,-134.71 89.22,-131.02 84.63,-127.58"/>
<polygon fill="black" stroke="black" stroke-width="0.8" points="86.97,-124.95 76.8,-121.98 82.9,-130.64 86.97,-124.95"/>
</g>
<!-- sort -->
<g id="node8" class="node">
<title>sort</title>
<path fill="none" stroke="black" stroke-width="0.8" d="M189.75,-58.5C189.75,-58.5 159.75,-58.5 159.75,-58.5 153.75,-58.5 147.75,-52.5 147.75,-46.5 147.75,-46.5 147.75,-34.5 147.75,-34.5 147.75,-28.5 153.75,-22.5 159.75,-22.5 159.75,-22.5 189.75,-22.5 189.75,-22.5 195.75,-22.5 201.75,-28.5 201.75,-34.5 201.75,-34.5 201.75,-46.5 201.75,-46.5 201.75,-52.5 195.75,-58.5 189.75,-58.5"/>
<text xml:space="preserve" text-anchor="start" x="160.12" y="-42.25" font-family="Times,serif" font-size="10.00">Sort by</text>
<text xml:space="preserve" text-anchor="start" x="157.5" y="-31" font-family="Times,serif" font-size="10.00">Lamport</text>
</g>
<!-- Pa3&#45;&gt;sort -->
<g id="edge4" class="edge">
<title>Pa3&#45;&gt;sort</title>
<path fill="none" stroke="black" stroke-width="1.2" d="M76.15,-91.72C93.88,-82.41 117.54,-69.99 137.12,-59.72"/>
<polygon fill="black" stroke="black" stroke-width="1.2" points="138.68,-62.85 145.91,-55.11 135.43,-56.66 138.68,-62.85"/>
</g>
<!-- Pb1 -->
<g id="node4" class="node">
<title>Pb1</title>
<path fill="#e8e8e8" stroke="black" stroke-width="0.8" d="M63.88,-58.5C63.88,-58.5 33.88,-58.5 33.88,-58.5 27.88,-58.5 21.88,-52.5 21.88,-46.5 21.88,-46.5 21.88,-34.5 21.88,-34.5 21.88,-28.5 27.88,-22.5 33.88,-22.5 33.88,-22.5 63.88,-22.5 63.88,-22.5 69.88,-22.5 75.88,-28.5 75.88,-34.5 75.88,-34.5 75.88,-46.5 75.88,-46.5 75.88,-52.5 69.88,-58.5 63.88,-58.5"/>
<text xml:space="preserve" text-anchor="start" x="41.75" y="-40.5" font-family="Times,serif" font-size="10.00">P</text>
<text xml:space="preserve" text-anchor="start" x="47" y="-40.5" font-family="Times,serif" baseline-shift="sub" font-size="10.00">b1</text>
<text xml:space="preserve" text-anchor="start" x="42.12" y="-33.35" font-family="Courier,monospace" font-size="7.00">L=1</text>
</g>
<!-- Pb2 -->
<g id="node5" class="node">
<title>Pb2</title>
<path fill="#e8e8e8" stroke="black" stroke-width="0.8" d="M189.75,-123.5C189.75,-123.5 159.75,-123.5 159.75,-123.5 153.75,-123.5 147.75,-117.5 147.75,-111.5 147.75,-111.5 147.75,-99.5 147.75,-99.5 147.75,-93.5 153.75,-87.5 159.75,-87.5 159.75,-87.5 189.75,-87.5 189.75,-87.5 195.75,-87.5 201.75,-93.5 201.75,-99.5 201.75,-99.5 201.75,-111.5 201.75,-111.5 201.75,-117.5 195.75,-123.5 189.75,-123.5"/>
<text xml:space="preserve" text-anchor="start" x="167.62" y="-105.5" font-family="Times,serif" font-size="10.00">P</text>
<text xml:space="preserve" text-anchor="start" x="172.88" y="-105.5" font-family="Times,serif" baseline-shift="sub" font-size="10.00">b2</text>
<text xml:space="preserve" text-anchor="start" x="168" y="-98.35" font-family="Courier,monospace" font-size="7.00">L=3</text>
</g>
<!-- Pb1&#45;&gt;Pb2 -->
<g id="edge3" class="edge">
<title>Pb1&#45;&gt;Pb2</title>
<path fill="none" stroke="black" stroke-width="0.8" d="M76.15,-54.28C94.05,-63.68 117.98,-76.24 137.66,-86.57"/>
<polygon fill="black" stroke="black" stroke-width="0.8" points="135.96,-89.63 146.44,-91.17 139.22,-83.43 135.96,-89.63"/>
</g>
<!-- Pb2&#45;&gt;sort -->
<g id="edge5" class="edge">
<title>Pb2&#45;&gt;sort</title>
<path fill="none" stroke="black" stroke-width="1.2" d="M174.75,-87.25C174.75,-81.62 174.75,-75.98 174.75,-70.35"/>
<polygon fill="black" stroke="black" stroke-width="1.2" points="178.25,-70.6 174.75,-60.6 171.25,-70.6 178.25,-70.6"/>
</g>
<!-- reducer -->
<g id="node6" class="node">
<title>reducer</title>
<path fill="#d0d0d0" stroke="black" stroke-width="1.2" d="M408,-59.5C408,-59.5 263.75,-59.5 263.75,-59.5 257.75,-59.5 251.75,-53.5 251.75,-47.5 251.75,-47.5 251.75,-33.5 251.75,-33.5 251.75,-27.5 257.75,-21.5 263.75,-21.5 263.75,-21.5 408,-21.5 408,-21.5 414,-21.5 420,-27.5 420,-33.5 420,-33.5 420,-47.5 420,-47.5 420,-53.5 414,-59.5 408,-59.5"/>
<text xml:space="preserve" text-anchor="start" x="259.75" y="-47" font-family="Times,serif" font-size="10.00">{</text>
<text xml:space="preserve" text-anchor="start" x="264.25" y="-47" font-family="Times,serif" font-weight="bold" font-size="10.00">JoinReducer</text>
<text xml:space="preserve" text-anchor="start" x="319" y="-47" font-family="Times,serif" font-size="10.00">|{ &#160;&#160;&#160;&#160;&#160;&#160;&#160;&#160;&#160;&#160;&#160;&#160;OR&#45;Set merge</text>
<text xml:space="preserve" text-anchor="start" x="273.25" y="-37" font-family="Times,serif" font-size="10.00">(skeleton) | &#160;&#160;&#160;&#160;&#160;&#160;&#160;&#160;&#160;&#160;&#160;&#160;LWW merge</text>
<text xml:space="preserve" text-anchor="start" x="291.62" y="-27" font-family="Times,serif" font-size="10.00">(attachments) &#160;&#160;&#160;&#160;&#160;&#160;&#160;&#160;&#160;&#160;}}</text>
</g>
<!-- state -->
<g id="node7" class="node">
<title>state</title>
<path fill="#f0f0f0" stroke="black" d="M981.75,-58.5C981.75,-58.5 482,-58.5 482,-58.5 476,-58.5 470,-52.5 470,-46.5 470,-46.5 470,-34.5 470,-34.5 470,-28.5 476,-22.5 482,-22.5 482,-22.5 981.75,-22.5 981.75,-22.5 987.75,-22.5 993.75,-28.5 993.75,-34.5 993.75,-34.5 993.75,-46.5 993.75,-46.5 993.75,-52.5 987.75,-58.5 981.75,-58.5"/>
<text xml:space="preserve" text-anchor="start" x="478" y="-37.62" font-family="Times,serif" font-size="10.00">{</text>
<text xml:space="preserve" text-anchor="start" x="482.5" y="-37.62" font-family="Times,serif" font-weight="bold" font-size="10.00">WarpStateV5</text>
<text xml:space="preserve" text-anchor="start" x="540.25" y="-37.62" font-family="Times,serif" font-size="10.00">|{ &#160;&#160;&#160;&#160;&#160;&#160;&#160;&#160;&#160;&#160;</text>
<text xml:space="preserve" text-anchor="start" x="571.75" y="-37.62" font-family="Courier,monospace" font-size="8.00">nodeAlive: ORSet</text>
<text xml:space="preserve" text-anchor="start" x="643.75" y="-37.62" font-family="Times,serif" font-size="10.00"> | &#160;&#160;&#160;&#160;&#160;&#160;&#160;&#160;&#160;&#160;</text>
<text xml:space="preserve" text-anchor="start" x="673" y="-37.62" font-family="Courier,monospace" font-size="8.00">edgeAlive: ORSet</text>
<text xml:space="preserve" text-anchor="start" x="745" y="-37.62" font-family="Times,serif" font-size="10.00"> | &#160;&#160;&#160;&#160;&#160;&#160;&#160;&#160;&#160;&#160;</text>
<text xml:space="preserve" text-anchor="start" x="774.25" y="-37.62" font-family="Courier,monospace" font-size="8.00">prop: Map&lt;LWW&gt;</text>
<text xml:space="preserve" text-anchor="start" x="837.25" y="-37.62" font-family="Times,serif" font-size="10.00"> | &#160;&#160;&#160;&#160;&#160;&#160;&#160;&#160;&#160;&#160;</text>
<text xml:space="preserve" text-anchor="start" x="866.5" y="-37.62" font-family="Courier,monospace" font-size="8.00">observedFrontier: VV</text>
<text xml:space="preserve" text-anchor="start" x="956.5" y="-37.62" font-family="Times,serif" font-size="10.00"> &#160;&#160;&#160;&#160;&#160;&#160;&#160;&#160;}}</text>
</g>
<!-- reducer&#45;&gt;state -->
<g id="edge7" class="edge">
<title>reducer&#45;&gt;state</title>
<path fill="none" stroke="black" stroke-width="1.2" d="M420.43,-40.5C432.23,-40.5 444.84,-40.5 457.99,-40.5"/>
<polygon fill="black" stroke="black" stroke-width="1.2" points="457.86,-44 467.86,-40.5 457.86,-37 457.86,-44"/>
</g>
<!-- sort&#45;&gt;reducer -->
<g id="edge6" class="edge">
<title>sort&#45;&gt;reducer</title>
<path fill="none" stroke="black" stroke-width="1.2" d="M202.03,-40.5C212.78,-40.5 225.95,-40.5 239.76,-40.5"/>
<polygon fill="black" stroke="black" stroke-width="1.2" points="239.67,-44 249.67,-40.5 239.67,-37 239.67,-44"/>
</g>
<!-- no_coord -->
<g id="node9" class="node">
<title>no_coord</title>
<text xml:space="preserve" text-anchor="start" x="24.12" y="-237.65" font-family="Times,serif" font-size="8.00">no coordination</text>
<text xml:space="preserve" text-anchor="start" x="8" y="-227.9" font-family="Times,serif" font-size="8.00">required between writers</text>
</g>
</g>
</svg>
