<?xml version="1.0" encoding="UTF-8" standalone="no"?>
<!DOCTYPE svg PUBLIC "-//W3C//DTD SVG 1.1//EN"
 "http://www.w3.org/Graphics/SVG/1.1/DTD/svg11.dtd">
<!-- Generated by graphviz version 14.1.2 (20260124.0452)
 -->
<!-- Title: multi_writer Pages: 1 -->
<svg width="372pt" height="553pt"
 viewBox="0.00 0.00 372.00 553.00" xmlns="http://www.w3.org/2000/svg" xmlns:xlink="http://www.w3.org/1999/xlink">
<g id="graph0" class="graph" transform="scale(1 1) rotate(0) translate(4 548.5)">
<title>multi_writer</title>
<text xml:space="preserve" text-anchor="start" x="8" y="-8.05" font-family="Times,serif" font-style="italic" font-size="11.00">Fig. 5. &#160;Multi&#45;Writer Convergence — independent chains, deterministic merge</text>
<g id="clust1" class="cluster">
<title>cluster_alice</title>
<path fill="none" stroke="#606060" stroke-width="0.8" d="M84.56,-294C84.56,-294 130.56,-294 130.56,-294 136.56,-294 142.56,-300 142.56,-306 142.56,-306 142.56,-524.5 142.56,-524.5 142.56,-530.5 136.56,-536.5 130.56,-536.5 130.56,-536.5 84.56,-536.5 84.56,-536.5 78.56,-536.5 72.56,-530.5 72.56,-524.5 72.56,-524.5 72.56,-306 72.56,-306 72.56,-300 78.56,-294 84.56,-294"/>
<text xml:space="preserve" text-anchor="start" x="98.19" y="-524.95" font-family="Times,serif" font-weight="bold" font-size="9.00">Alice</text>
</g>
<g id="clust2" class="cluster">
<title>cluster_bob</title>
<path fill="none" stroke="#606060" stroke-width="0.8" d="M167.56,-294C167.56,-294 213.56,-294 213.56,-294 219.56,-294 225.56,-300 225.56,-306 225.56,-306 225.56,-524.5 225.56,-524.5 225.56,-530.5 219.56,-536.5 213.56,-536.5 213.56,-536.5 167.56,-536.5 167.56,-536.5 161.56,-536.5 155.56,-530.5 155.56,-524.5 155.56,-524.5 155.56,-306 155.56,-306 155.56,-300 161.56,-294 167.56,-294"/>
<text xml:space="preserve" text-anchor="start" x="182.69" y="-524.95" font-family="Times,serif" font-weight="bold" font-size="9.00">Bob</text>
</g>
<!-- Pa1 -->
<g id="node1" class="node">
<title>Pa1</title>
<path fill="#e8e8e8" stroke="black" stroke-width="0.8" d="M122.56,-510C122.56,-510 92.56,-510 92.56,-510 86.56,-510 80.56,-504 80.56,-498 80.56,-498 80.56,-486 80.56,-486 80.56,-480 86.56,-474 92.56,-474 92.56,-474 122.56,-474 122.56,-474 128.56,-474 134.56,-480 134.56,-486 134.56,-486 134.56,-498 134.56,-498 134.56,-504 128.56,-510 122.56,-510"/>
<text xml:space="preserve" text-anchor="start" x="100.81" y="-492" font-family="Times,serif" font-size="10.00">P</text>
<text xml:space="preserve" text-anchor="start" x="106.06" y="-492" font-family="Times,serif" baseline-shift="sub" font-size="10.00">a1</text>
<text xml:space="preserve" text-anchor="start" x="100.81" y="-484.85" font-family="Courier,monospace" font-size="7.00">L=1</text>
</g>
<!-- Pa2 -->
<g id="node2" class="node">
<title>Pa2</title>
<path fill="#e8e8e8" stroke="black" stroke-width="0.8" d="M122.56,-424C122.56,-424 92.56,-424 92.56,-424 86.56,-424 80.56,-418 80.56,-412 80.56,-412 80.56,-400 80.56,-400 80.56,-394 86.56,-388 92.56,-388 92.56,-388 122.56,-388 122.56,-388 128.56,-388 134.56,-394 134.56,-400 134.56,-400 134.56,-412 134.56,-412 134.56,-418 128.56,-424 122.56,-424"/>
<text xml:space="preserve" text-anchor="start" x="100.81" y="-406" font-family="Times,serif" font-size="10.00">P</text>
<text xml:space="preserve" text-anchor="start" x="106.06" y="-406" font-family="Times,serif" baseline-shift="sub" font-size="10.00">a2</text>
<text xml:space="preserve" text-anchor="start" x="100.81" y="-398.85" font-family="Courier,monospace" font-size="7.00">L=2</text>
</g>
<!-- Pa1&#45;&gt;Pa2 -->
<g id="edge1" class="edge">
<title>Pa1&#45;&gt;Pa2</title>
<path fill="none" stroke="black" stroke-width="0.8" d="M107.56,-474C107.56,-462.92 107.56,-448.18 107.56,-435.35"/>
<polygon fill="black" stroke="black" stroke-width="0.8" points="111.06,-435.47 107.56,-425.47 104.06,-435.47 111.06,-435.47"/>
</g>
<!-- Pa3 -->
<g id="node3" class="node">
<title>Pa3</title>
<path fill="#e8e8e8" stroke="black" stroke-width="0.8" d="M122.56,-338C122.56,-338 92.56,-338 92.56,-338 86.56,-338 80.56,-332 80.56,-326 80.56,-326 80.56,-314 80.56,-314 80.56,-308 86.56,-302 92.56,-302 92.56,-302 122.56,-302 122.56,-302 128.56,-302 134.56,-308 134.56,-314 134.56,-314 134.56,-326 134.56,-326 134.56,-332 128.56,-338 122.56,-338"/>
<text xml:space="preserve" text-anchor="start" x="100.81" y="-320" font-family="Times,serif" font-size="10.00">P</text>
<text xml:space="preserve" text-anchor="start" x="106.06" y="-320" font-family="Times,serif" baseline-shift="sub" font-size="10.00">a3</text>
<text xml:space="preserve" text-anchor="start" x="100.81" y="-312.85" font-family="Courier,monospace" font-size="7.00">L=4</text>
</g>
<!-- Pa2&#45;&gt;Pa3 -->
<g id="edge2" class="edge">
<title>Pa2&#45;&gt;Pa3</title>
<path fill="none" stroke="black" stroke-width="0.8" d="M107.56,-388C107.56,-376.92 107.56,-362.18 107.56,-349.35"/>
<polygon fill="black" stroke="black" stroke-width="0.8" points="111.06,-349.47 107.56,-339.47 104.06,-349.47 111.06,-349.47"/>
</g>
<!-- sort -->
<g id="node8" class="node">
<title>sort</title>
<path fill="white" stroke="black" stroke-width="0.8" d="M163.56,-252C163.56,-252 133.56,-252 133.56,-252 127.56,-252 121.56,-246 121.56,-240 121.56,-240 121.56,-228 121.56,-228 121.56,-222 127.56,-216 133.56,-216 133.56,-216 163.56,-216 163.56,-216 169.56,-216 175.56,-222 175.56,-228 175.56,-228 175.56,-240 175.56,-240 175.56,-246 169.56,-252 163.56,-252"/>
<text xml:space="preserve" text-anchor="start" x="133.94" y="-235.75" font-family="Times,serif" font-size="10.00">Sort by</text>
<text xml:space="preserve" text-anchor="start" x="131.31" y="-224.5" font-family="Times,serif" font-size="10.00">Lamport</text>
</g>
<!-- Pa3&#45;&gt;sort -->
<g id="edge4" class="edge">
<title>Pa3&#45;&gt;sort</title>
<path fill="none" stroke="black" stroke-width="1.2" d="M115.86,-302C121.38,-290.69 128.76,-275.58 135.11,-262.57"/>
<polygon fill="black" stroke="black" stroke-width="1.2" points="138.1,-264.42 139.34,-253.89 131.81,-261.35 138.1,-264.42"/>
</g>
<!-- Pb1 -->
<g id="node4" class="node">
<title>Pb1</title>
<path fill="#e8e8e8" stroke="black" stroke-width="0.8" d="M205.56,-510C205.56,-510 175.56,-510 175.56,-510 169.56,-510 163.56,-504 163.56,-498 163.56,-498 163.56,-486 163.56,-486 163.56,-480 169.56,-474 175.56,-474 175.56,-474 205.56,-474 205.56,-474 211.56,-474 217.56,-480 217.56,-486 217.56,-486 217.56,-498 217.56,-498 217.56,-504 211.56,-510 205.56,-510"/>
<text xml:space="preserve" text-anchor="start" x="183.44" y="-492" font-family="Times,serif" font-size="10.00">P</text>
<text xml:space="preserve" text-anchor="start" x="188.69" y="-492" font-family="Times,serif" baseline-shift="sub" font-size="10.00">b1</text>
<text xml:space="preserve" text-anchor="start" x="183.81" y="-484.85" font-family="Courier,monospace" font-size="7.00">L=1</text>
</g>
<!-- Pb2 -->
<g id="node5" class="node">
<title>Pb2</title>
<path fill="#e8e8e8" stroke="black" stroke-width="0.8" d="M205.56,-338C205.56,-338 175.56,-338 175.56,-338 169.56,-338 163.56,-332 163.56,-326 163.56,-326 163.56,-314 163.56,-314 163.56,-308 169.56,-302 175.56,-302 175.56,-302 205.56,-302 205.56,-302 211.56,-302 217.56,-308 217.56,-314 217.56,-314 217.56,-326 217.56,-326 217.56,-332 211.56,-338 205.56,-338"/>
<text xml:space="preserve" text-anchor="start" x="183.44" y="-320" font-family="Times,serif" font-size="10.00">P</text>
<text xml:space="preserve" text-anchor="start" x="188.69" y="-320" font-family="Times,serif" baseline-shift="sub" font-size="10.00">b2</text>
<text xml:space="preserve" text-anchor="start" x="183.81" y="-312.85" font-family="Courier,monospace" font-size="7.00">L=3</text>
</g>
<!-- Pb1&#45;&gt;Pb2 -->
<g id="edge3" class="edge">
<title>Pb1&#45;&gt;Pb2</title>
<path fill="none" stroke="black" stroke-width="0.8" d="M190.56,-473.76C190.56,-444.49 190.56,-384.79 190.56,-349.31"/>
<polygon fill="black" stroke="black" stroke-width="0.8" points="194.06,-349.49 190.56,-339.49 187.06,-349.49 194.06,-349.49"/>
</g>
<!-- Pb2&#45;&gt;sort -->
<g id="edge5" class="edge">
<title>Pb2&#45;&gt;sort</title>
<path fill="none" stroke="black" stroke-width="1.2" d="M182.06,-302C176.41,-290.69 168.85,-275.58 162.35,-262.57"/>
<polygon fill="black" stroke="black" stroke-width="1.2" points="165.61,-261.27 158.01,-253.89 159.35,-264.4 165.61,-261.27"/>
</g>
<!-- reducer -->
<g id="node6" class="node">
<title>reducer</title>
<polygon fill="#d0d0d0" stroke="none" points="86.69,-120.25 86.69,-166 210.44,-166 210.44,-120.25 86.69,-120.25"/>
<polygon fill="none" stroke="black" points="86.69,-148.75 86.69,-166 210.44,-166 210.44,-148.75 86.69,-148.75"/>
<text xml:space="preserve" text-anchor="start" x="121.19" y="-154.5" font-family="Times,serif" font-weight="bold" font-size="10.00">JoinReducer</text>
<polygon fill="none" stroke="black" points="86.69,-120.25 86.69,-148.75 149.69,-148.75 149.69,-120.25 86.69,-120.25"/>
<text xml:space="preserve" text-anchor="start" x="89.69" y="-136.25" font-family="Times,serif" font-size="10.00">OR&#45;Set merge</text>
<text xml:space="preserve" text-anchor="start" x="97.94" y="-125" font-family="Times,serif" font-size="10.00">(skeleton)</text>
<polygon fill="none" stroke="black" points="149.69,-120.25 149.69,-148.75 210.44,-148.75 210.44,-120.25 149.69,-120.25"/>
<text xml:space="preserve" text-anchor="start" x="154.56" y="-136.25" font-family="Times,serif" font-size="10.00">LWW merge</text>
<text xml:space="preserve" text-anchor="start" x="152.69" y="-125" font-family="Times,serif" font-size="10.00">(attachments)</text>
</g>
<!-- state -->
<g id="node7" class="node">
<title>state</title>
<polygon fill="#f0f0f0" stroke="none" points="61.56,-21.5 61.56,-70.25 235.56,-70.25 235.56,-21.5 61.56,-21.5"/>
<polygon fill="none" stroke="black" points="61.56,-53 61.56,-70.25 235.56,-70.25 235.56,-53 61.56,-53"/>
<text xml:space="preserve" text-anchor="start" x="119.69" y="-58.75" font-family="Times,serif" font-weight="bold" font-size="10.00">WarpStateV5</text>
<polygon fill="none" stroke="black" points="61.56,-37.25 61.56,-53 139.56,-53 139.56,-37.25 61.56,-37.25"/>
<text xml:space="preserve" text-anchor="start" x="64.56" y="-42.4" font-family="Courier,monospace" font-size="8.00">nodeAlive: ORSet</text>
<polygon fill="none" stroke="black" points="139.56,-37.25 139.56,-53 235.56,-53 235.56,-37.25 139.56,-37.25"/>
<text xml:space="preserve" text-anchor="start" x="151.56" y="-42.4" font-family="Courier,monospace" font-size="8.00">edgeAlive: ORSet</text>
<polygon fill="none" stroke="black" points="61.56,-21.5 61.56,-37.25 139.56,-37.25 139.56,-21.5 61.56,-21.5"/>
<text xml:space="preserve" text-anchor="start" x="69.06" y="-26.65" font-family="Courier,monospace" font-size="8.00">prop: Map&lt;LWW&gt;</text>
<polygon fill="none" stroke="black" points="139.56,-21.5 139.56,-37.25 235.56,-37.25 235.56,-21.5 139.56,-21.5"/>
<text xml:space="preserve" text-anchor="start" x="142.56" y="-26.65" font-family="Courier,monospace" font-size="8.00">observedFrontier: VV</text>
</g>
<!-- reducer&#45;&gt;state -->
<g id="edge7" class="edge">
<title>reducer&#45;&gt;state</title>
<path fill="none" stroke="black" stroke-width="1.2" d="M148.56,-120.51C148.56,-109 148.56,-94.56 148.56,-81.52"/>
<polygon fill="black" stroke="black" stroke-width="1.2" points="152.06,-81.88 148.56,-71.88 145.06,-81.88 152.06,-81.88"/>
</g>
<!-- sort&#45;&gt;reducer -->
<g id="edge6" class="edge">
<title>sort&#45;&gt;reducer</title>
<path fill="none" stroke="black" stroke-width="1.2" d="M148.56,-215.86C148.56,-204.97 148.56,-190.51 148.56,-177.43"/>
<polygon fill="black" stroke="black" stroke-width="1.2" points="152.06,-177.75 148.56,-167.75 145.06,-177.75 152.06,-177.75"/>
</g>
<!-- no_coord -->
<g id="node9" class="node">
<title>no_coord</title>
<text xml:space="preserve" text-anchor="start" x="228.81" y="-236.15" font-family="Times,serif" font-size="8.00">no coordination</text>
<text xml:space="preserve" text-anchor="start" x="212.69" y="-226.4" font-family="Times,serif" font-size="8.00">required between writers</text>
</g>
</g>
</svg>
