<?xml version="1.0" encoding="UTF-8" standalone="no"?>
<!DOCTYPE svg PUBLIC "-//W3C//DTD SVG 1.1//EN"
 "http://www.w3.org/Graphics/SVG/1.1/DTD/svg11.dtd">
<!-- Generated by graphviz version 14.1.2 (20260124.0452)
 -->
<!-- Title: ref_layout Pages: 1 -->
<svg width="968pt" height="512pt"
 viewBox="0.00 0.00 968.00 512.00" xmlns="http://www.w3.org/2000/svg" xmlns:xlink="http://www.w3.org/1999/xlink">
<g id="graph0" class="graph" transform="scale(1 1) rotate(0) translate(4 508.25)">
<title>ref_layout</title>
<text xml:space="preserve" text-anchor="start" x="373.31" y="-8.05" font-family="Times,serif" font-style="italic" font-size="11.00">Fig. 3. &#160;Ref Layout — the refs/warp/ namespace</text>
<!-- refs -->
<g id="node1" class="node">
<title>refs</title>
<polygon fill="#f0f0f0" stroke="black" stroke-width="0.8" points="537.62,-504.25 534.62,-508.25 513.62,-508.25 510.62,-504.25 483.62,-504.25 483.62,-468.25 537.62,-468.25 537.62,-504.25"/>
<text xml:space="preserve" text-anchor="middle" x="510.62" y="-482.38" font-family="Times,serif" font-size="10.00">refs/</text>
</g>
<!-- warp -->
<g id="node2" class="node">
<title>warp</title>
<polygon fill="#f0f0f0" stroke="black" stroke-width="0.8" points="537.62,-431.25 534.62,-435.25 513.62,-435.25 510.62,-431.25 483.62,-431.25 483.62,-395.25 537.62,-395.25 537.62,-431.25"/>
<text xml:space="preserve" text-anchor="middle" x="510.62" y="-409.38" font-family="Times,serif" font-size="10.00">warp/</text>
</g>
<!-- refs&#45;&gt;warp -->
<g id="edge1" class="edge">
<title>refs&#45;&gt;warp</title>
<path fill="none" stroke="black" stroke-width="0.8" d="M510.62,-468.06C510.62,-460.3 510.62,-450.93 510.62,-442.2"/>
<polygon fill="black" stroke="black" stroke-width="0.8" points="514.13,-442.49 510.63,-432.49 507.13,-442.49 514.13,-442.49"/>
</g>
<!-- graphdir -->
<g id="node3" class="node">
<title>graphdir</title>
<polygon fill="#f0f0f0" stroke="black" stroke-width="0.8" points="549.75,-358.25 546.75,-362.25 525.75,-362.25 522.75,-358.25 471.5,-358.25 471.5,-322.25 549.75,-322.25 549.75,-358.25"/>
<text xml:space="preserve" text-anchor="start" x="479.5" y="-336.38" font-family="Times,serif" font-size="10.00">&lt;graphName&gt;/</text>
</g>
<!-- warp&#45;&gt;graphdir -->
<g id="edge2" class="edge">
<title>warp&#45;&gt;graphdir</title>
<path fill="none" stroke="black" stroke-width="0.8" d="M510.62,-395.06C510.62,-387.3 510.62,-377.93 510.62,-369.2"/>
<polygon fill="black" stroke="black" stroke-width="0.8" points="514.13,-369.49 510.63,-359.49 507.13,-369.49 514.13,-369.49"/>
</g>
<!-- writers -->
<g id="node4" class="node">
<title>writers</title>
<polygon fill="#f0f0f0" stroke="black" stroke-width="0.8" points="269.62,-212.25 266.62,-216.25 245.62,-216.25 242.62,-212.25 215.62,-212.25 215.62,-176.25 269.62,-176.25 269.62,-212.25"/>
<text xml:space="preserve" text-anchor="middle" x="242.62" y="-190.38" font-family="Times,serif" font-size="10.00">writers/</text>
</g>
<!-- graphdir&#45;&gt;writers -->
<g id="edge3" class="edge">
<title>graphdir&#45;&gt;writers</title>
<path fill="none" stroke="black" stroke-width="0.8" d="M471.33,-333.2C433.45,-326.07 375.56,-311.71 331.62,-285.25 303.87,-268.54 278.57,-241.23 262.1,-221.07"/>
<polygon fill="black" stroke="black" stroke-width="0.8" points="264.89,-218.96 255.93,-213.32 259.42,-223.32 264.89,-218.96"/>
</g>
<!-- checkpoints -->
<g id="node5" class="node">
<title>checkpoints</title>
<polygon fill="#f0f0f0" stroke="black" stroke-width="0.8" points="421.88,-285.25 418.88,-289.25 397.88,-289.25 394.88,-285.25 353.38,-285.25 353.38,-249.25 421.88,-249.25 421.88,-285.25"/>
<text xml:space="preserve" text-anchor="middle" x="387.62" y="-263.38" font-family="Times,serif" font-size="10.00">checkpoints/</text>
</g>
<!-- graphdir&#45;&gt;checkpoints -->
<g id="edge4" class="edge">
<title>graphdir&#45;&gt;checkpoints</title>
<path fill="none" stroke="black" stroke-width="0.8" d="M480.54,-321.88C464.33,-312.53 444.16,-300.88 426.75,-290.83"/>
<polygon fill="black" stroke="black" stroke-width="0.8" points="428.86,-288.01 418.45,-286.04 425.36,-294.08 428.86,-288.01"/>
</g>
<!-- coverage -->
<g id="node6" class="node">
<title>coverage</title>
<polygon fill="#f0f0f0" stroke="black" stroke-width="0.8" points="200.5,-285.25 197.5,-289.25 176.5,-289.25 173.5,-285.25 144.75,-285.25 144.75,-249.25 200.5,-249.25 200.5,-285.25"/>
<text xml:space="preserve" text-anchor="middle" x="172.62" y="-263.38" font-family="Times,serif" font-size="10.00">coverage/</text>
</g>
<!-- graphdir&#45;&gt;coverage -->
<g id="edge5" class="edge">
<title>graphdir&#45;&gt;coverage</title>
<path fill="none" stroke="black" stroke-width="0.8" d="M471.33,-337.96C419.02,-335.36 324.1,-327.56 246.62,-304.25 234.47,-300.59 221.85,-295.14 210.54,-289.58"/>
<polygon fill="black" stroke="black" stroke-width="0.8" points="212.15,-286.47 201.65,-285.04 208.97,-292.71 212.15,-286.47"/>
</g>
<!-- cursor -->
<g id="node7" class="node">
<title>cursor</title>
<polygon fill="#f0f0f0" stroke="black" stroke-width="0.8" points="537.62,-285.25 534.62,-289.25 513.62,-289.25 510.62,-285.25 483.62,-285.25 483.62,-249.25 537.62,-249.25 537.62,-285.25"/>
<text xml:space="preserve" text-anchor="middle" x="510.62" y="-263.38" font-family="Times,serif" font-size="10.00">cursor/</text>
</g>
<!-- graphdir&#45;&gt;cursor -->
<g id="edge6" class="edge">
<title>graphdir&#45;&gt;cursor</title>
<path fill="none" stroke="black" stroke-width="0.8" d="M510.62,-322.06C510.62,-314.3 510.62,-304.93 510.62,-296.2"/>
<polygon fill="black" stroke="black" stroke-width="0.8" points="514.13,-296.49 510.63,-286.49 507.13,-296.49 514.13,-296.49"/>
</g>
<!-- audit -->
<g id="node9" class="node">
<title>audit</title>
<polygon fill="#f0f0f0" stroke="black" stroke-width="0.8" points="668.62,-285.25 665.62,-289.25 644.62,-289.25 641.62,-285.25 614.62,-285.25 614.62,-249.25 668.62,-249.25 668.62,-285.25"/>
<text xml:space="preserve" text-anchor="middle" x="641.62" y="-263.38" font-family="Times,serif" font-size="10.00">audit/</text>
</g>
<!-- graphdir&#45;&gt;audit -->
<g id="edge7" class="edge">
<title>graphdir&#45;&gt;audit</title>
<path fill="none" stroke="black" stroke-width="0.8" d="M542.67,-321.88C561.38,-311.74 585.06,-298.91 604.57,-288.34"/>
<polygon fill="black" stroke="black" stroke-width="0.8" points="606.15,-291.46 613.27,-283.62 602.81,-285.3 606.15,-291.46"/>
</g>
<!-- trust -->
<g id="node10" class="node">
<title>trust</title>
<polygon fill="#f0f0f0" stroke="black" stroke-width="0.8" points="789.62,-285.25 786.62,-289.25 765.62,-289.25 762.62,-285.25 735.62,-285.25 735.62,-249.25 789.62,-249.25 789.62,-285.25"/>
<text xml:space="preserve" text-anchor="middle" x="762.62" y="-263.38" font-family="Times,serif" font-size="10.00">trust/</text>
</g>
<!-- graphdir&#45;&gt;trust -->
<g id="edge8" class="edge">
<title>graphdir&#45;&gt;trust</title>
<path fill="none" stroke="black" stroke-width="0.8" d="M550,-328.16C597.8,-314.69 677.84,-292.14 724.89,-278.88"/>
<polygon fill="black" stroke="black" stroke-width="0.8" points="725.7,-282.29 734.37,-276.21 723.8,-275.55 725.7,-282.29"/>
</g>
<!-- seek_cache -->
<g id="node20" class="node">
<title>seek_cache</title>
<polygon fill="white" stroke="black" stroke-width="0.8" stroke-dasharray="5,2" points="939.75,-285.25 879.5,-285.25 879.5,-249.25 939.75,-249.25 939.75,-285.25"/>
<text xml:space="preserve" text-anchor="middle" x="909.62" y="-263.38" font-family="Times,serif" font-size="10.00">seek&#45;cache</text>
</g>
<!-- graphdir&#45;&gt;seek_cache -->
<g id="edge9" class="edge">
<title>graphdir&#45;&gt;seek_cache</title>
<path fill="none" stroke="black" stroke-width="0.8" d="M549.97,-332.25C625.77,-318.76 791.35,-289.3 868.51,-275.57"/>
<polygon fill="black" stroke="black" stroke-width="0.8" points="868.81,-279.07 878.04,-273.87 867.59,-272.18 868.81,-279.07"/>
</g>
<!-- alice_ref -->
<g id="node11" class="node">
<title>alice_ref</title>
<polygon fill="white" stroke="black" stroke-width="0.8" stroke-dasharray="5,2" points="269.62,-139.25 215.62,-139.25 215.62,-103.25 269.62,-103.25 269.62,-139.25"/>
<text xml:space="preserve" text-anchor="middle" x="242.62" y="-117.38" font-family="Times,serif" font-size="10.00">alice</text>
</g>
<!-- writers&#45;&gt;alice_ref -->
<g id="edge10" class="edge">
<title>writers&#45;&gt;alice_ref</title>
<path fill="none" stroke="black" stroke-width="0.8" d="M242.62,-176.06C242.62,-168.3 242.62,-158.93 242.62,-150.2"/>
<polygon fill="black" stroke="black" stroke-width="0.8" points="246.13,-150.49 242.63,-140.49 239.13,-150.49 246.13,-150.49"/>
</g>
<!-- bob_ref -->
<g id="node12" class="node">
<title>bob_ref</title>
<polygon fill="white" stroke="black" stroke-width="0.8" stroke-dasharray="5,2" points="172.62,-139.25 118.62,-139.25 118.62,-103.25 172.62,-103.25 172.62,-139.25"/>
<text xml:space="preserve" text-anchor="middle" x="145.62" y="-117.38" font-family="Times,serif" font-size="10.00">bob</text>
</g>
<!-- writers&#45;&gt;bob_ref -->
<g id="edge11" class="edge">
<title>writers&#45;&gt;bob_ref</title>
<path fill="none" stroke="black" stroke-width="0.8" d="M219.14,-176.06C206.84,-167.06 191.59,-155.89 178.17,-146.07"/>
<polygon fill="black" stroke="black" stroke-width="0.8" points="180.34,-143.32 170.2,-140.24 176.21,-148.97 180.34,-143.32"/>
</g>
<!-- ckpt_head -->
<g id="node13" class="node">
<title>ckpt_head</title>
<polygon fill="white" stroke="black" stroke-width="0.8" stroke-dasharray="5,2" points="372.62,-212.25 318.62,-212.25 318.62,-176.25 372.62,-176.25 372.62,-212.25"/>
<text xml:space="preserve" text-anchor="middle" x="345.62" y="-190.38" font-family="Times,serif" font-size="10.00">head</text>
</g>
<!-- checkpoints&#45;&gt;ckpt_head -->
<g id="edge12" class="edge">
<title>checkpoints&#45;&gt;ckpt_head</title>
<path fill="none" stroke="black" stroke-width="0.8" d="M377.46,-249.06C372.61,-240.87 366.7,-230.87 361.29,-221.73"/>
<polygon fill="black" stroke="black" stroke-width="0.8" points="364.42,-220.15 356.31,-213.32 358.39,-223.71 364.42,-220.15"/>
</g>
<!-- cov_head -->
<g id="node14" class="node">
<title>cov_head</title>
<polygon fill="white" stroke="black" stroke-width="0.8" stroke-dasharray="5,2" points="145.62,-212.25 91.62,-212.25 91.62,-176.25 145.62,-176.25 145.62,-212.25"/>
<text xml:space="preserve" text-anchor="middle" x="118.62" y="-190.38" font-family="Times,serif" font-size="10.00">head</text>
</g>
<!-- coverage&#45;&gt;cov_head -->
<g id="edge13" class="edge">
<title>coverage&#45;&gt;cov_head</title>
<path fill="none" stroke="black" stroke-width="0.8" d="M159.55,-249.06C153.19,-240.69 145.39,-230.45 138.33,-221.15"/>
<polygon fill="black" stroke="black" stroke-width="0.8" points="141.15,-219.08 132.31,-213.24 135.58,-223.32 141.15,-219.08"/>
</g>
<!-- saved -->
<g id="node8" class="node">
<title>saved</title>
<polygon fill="#f0f0f0" stroke="black" stroke-width="0.8" points="569.62,-212.25 566.62,-216.25 545.62,-216.25 542.62,-212.25 515.62,-212.25 515.62,-176.25 569.62,-176.25 569.62,-212.25"/>
<text xml:space="preserve" text-anchor="middle" x="542.62" y="-190.38" font-family="Times,serif" font-size="10.00">saved/</text>
</g>
<!-- cursor&#45;&gt;saved -->
<g id="edge15" class="edge">
<title>cursor&#45;&gt;saved</title>
<path fill="none" stroke="black" stroke-width="0.8" d="M518.37,-249.06C521.99,-241.04 526.38,-231.3 530.42,-222.32"/>
<polygon fill="black" stroke="black" stroke-width="0.8" points="533.53,-223.94 534.45,-213.38 527.15,-221.06 533.53,-223.94"/>
</g>
<!-- cur_active -->
<g id="node15" class="node">
<title>cur_active</title>
<polygon fill="white" stroke="black" stroke-width="0.8" stroke-dasharray="5,2" points="472.62,-212.25 418.62,-212.25 418.62,-176.25 472.62,-176.25 472.62,-212.25"/>
<text xml:space="preserve" text-anchor="middle" x="445.62" y="-190.38" font-family="Times,serif" font-size="10.00">active</text>
</g>
<!-- cursor&#45;&gt;cur_active -->
<g id="edge14" class="edge">
<title>cursor&#45;&gt;cur_active</title>
<path fill="none" stroke="black" stroke-width="0.8" d="M494.89,-249.06C486.99,-240.43 477.26,-229.81 468.54,-220.28"/>
<polygon fill="black" stroke="black" stroke-width="0.8" points="471.37,-218.18 462.03,-213.17 466.2,-222.91 471.37,-218.18"/>
</g>
<!-- bookmark -->
<g id="node16" class="node">
<title>bookmark</title>
<polygon fill="white" stroke="black" stroke-width="0.8" stroke-dasharray="5,2" points="572.25,-139.25 515,-139.25 515,-103.25 572.25,-103.25 572.25,-139.25"/>
<text xml:space="preserve" text-anchor="middle" x="543.62" y="-117.38" font-family="Times,serif" font-size="10.00">bookmark</text>
</g>
<!-- saved&#45;&gt;bookmark -->
<g id="edge16" class="edge">
<title>saved&#45;&gt;bookmark</title>
<path fill="none" stroke="black" stroke-width="0.8" d="M542.87,-176.06C542.98,-168.3 543.11,-158.93 543.23,-150.2"/>
<polygon fill="black" stroke="black" stroke-width="0.8" points="546.73,-150.54 543.37,-140.49 539.73,-150.44 546.73,-150.54"/>
</g>
<!-- audit_alice -->
<g id="node17" class="node">
<title>audit_alice</title>
<polygon fill="white" stroke="black" stroke-width="0.8" stroke-dasharray="5,2" points="765.62,-212.25 711.62,-212.25 711.62,-176.25 765.62,-176.25 765.62,-212.25"/>
<text xml:space="preserve" text-anchor="middle" x="738.62" y="-190.38" font-family="Times,serif" font-size="10.00">alice</text>
</g>
<!-- audit&#45;&gt;audit_alice -->
<g id="edge17" class="edge">
<title>audit&#45;&gt;audit_alice</title>
<path fill="none" stroke="black" stroke-width="0.8" d="M665.11,-249.06C677.41,-240.06 692.66,-228.89 706.08,-219.07"/>
<polygon fill="black" stroke="black" stroke-width="0.8" points="708.04,-221.97 714.05,-213.24 703.91,-216.32 708.04,-221.97"/>
</g>
<!-- audit_bob -->
<g id="node18" class="node">
<title>audit_bob</title>
<polygon fill="white" stroke="black" stroke-width="0.8" stroke-dasharray="5,2" points="668.62,-212.25 614.62,-212.25 614.62,-176.25 668.62,-176.25 668.62,-212.25"/>
<text xml:space="preserve" text-anchor="middle" x="641.62" y="-190.38" font-family="Times,serif" font-size="10.00">bob</text>
</g>
<!-- audit&#45;&gt;audit_bob -->
<g id="edge18" class="edge">
<title>audit&#45;&gt;audit_bob</title>
<path fill="none" stroke="black" stroke-width="0.8" d="M641.62,-249.06C641.62,-241.3 641.62,-231.93 641.62,-223.2"/>
<polygon fill="black" stroke="black" stroke-width="0.8" points="645.13,-223.49 641.63,-213.49 638.13,-223.49 645.13,-223.49"/>
</g>
<!-- trust_rec -->
<g id="node19" class="node">
<title>trust_rec</title>
<polygon fill="white" stroke="black" stroke-width="0.8" stroke-dasharray="5,2" points="862.62,-212.25 808.62,-212.25 808.62,-176.25 862.62,-176.25 862.62,-212.25"/>
<text xml:space="preserve" text-anchor="middle" x="835.62" y="-190.38" font-family="Times,serif" font-size="10.00">records</text>
</g>
<!-- trust&#45;&gt;trust_rec -->
<g id="edge19" class="edge">
<title>trust&#45;&gt;trust_rec</title>
<path fill="none" stroke="black" stroke-width="0.8" d="M780.3,-249.06C789.2,-240.41 800.15,-229.75 809.96,-220.21"/>
<polygon fill="black" stroke="black" stroke-width="0.8" points="812.27,-222.85 817,-213.37 807.39,-217.83 812.27,-222.85"/>
</g>
<!-- c_alice -->
<g id="node21" class="node">
<title>c_alice</title>
<path fill="#e8e8e8" stroke="black" stroke-width="0.8" d="M226.38,-57.5C226.38,-57.5 178.88,-57.5 178.88,-57.5 172.88,-57.5 166.88,-51.5 166.88,-45.5 166.88,-45.5 166.88,-33.5 166.88,-33.5 166.88,-27.5 172.88,-21.5 178.88,-21.5 178.88,-21.5 226.38,-21.5 226.38,-21.5 232.38,-21.5 238.38,-27.5 238.38,-33.5 238.38,-33.5 238.38,-45.5 238.38,-45.5 238.38,-51.5 232.38,-57.5 226.38,-57.5"/>
<text xml:space="preserve" text-anchor="start" x="174.88" y="-39.5" font-family="Times,serif" font-size="10.00">patch commit</text>
<text xml:space="preserve" text-anchor="start" x="186.88" y="-32.35" font-family="Courier,monospace" font-size="7.00">a1b2c3d</text>
</g>
<!-- alice_ref&#45;&gt;c_alice -->
<g id="edge26" class="edge">
<title>alice_ref&#45;&gt;c_alice</title>
<path fill="none" stroke="black" stroke-width="0.5" stroke-dasharray="5,2" d="M233.95,-102.95C228.7,-92.49 221.92,-78.96 216,-67.16"/>
<polygon fill="black" stroke="black" stroke-width="0.5" points="219.24,-65.82 211.63,-58.45 212.98,-68.96 219.24,-65.82"/>
</g>
<!-- c_bob -->
<g id="node22" class="node">
<title>c_bob</title>
<path fill="#e8e8e8" stroke="black" stroke-width="0.8" d="M76.38,-57.5C76.38,-57.5 28.88,-57.5 28.88,-57.5 22.88,-57.5 16.88,-51.5 16.88,-45.5 16.88,-45.5 16.88,-33.5 16.88,-33.5 16.88,-27.5 22.88,-21.5 28.88,-21.5 28.88,-21.5 76.38,-21.5 76.38,-21.5 82.38,-21.5 88.38,-27.5 88.38,-33.5 88.38,-33.5 88.38,-45.5 88.38,-45.5 88.38,-51.5 82.38,-57.5 76.38,-57.5"/>
<text xml:space="preserve" text-anchor="start" x="24.88" y="-39.5" font-family="Times,serif" font-size="10.00">patch commit</text>
<text xml:space="preserve" text-anchor="start" x="36.88" y="-32.35" font-family="Courier,monospace" font-size="7.00">d4e5f6a</text>
</g>
<!-- bob_ref&#45;&gt;c_bob -->
<g id="edge27" class="edge">
<title>bob_ref&#45;&gt;c_bob</title>
<path fill="none" stroke="black" stroke-width="0.5" stroke-dasharray="5,2" d="M140.16,-102.88C136.61,-93.83 131.21,-83.09 123.62,-75.5 116.42,-68.28 107.42,-62.31 98.28,-57.46"/>
<polygon fill="black" stroke="black" stroke-width="0.5" points="99.97,-54.4 89.45,-53.15 96.9,-60.69 99.97,-54.4"/>
</g>
<!-- c_ckpt -->
<g id="node23" class="node">
<title>c_ckpt</title>
<path fill="#e8e8e8" stroke="black" stroke-width="0.8" d="M362.5,-139.25C362.5,-139.25 324.75,-139.25 324.75,-139.25 318.75,-139.25 312.75,-133.25 312.75,-127.25 312.75,-127.25 312.75,-115.25 312.75,-115.25 312.75,-109.25 318.75,-103.25 324.75,-103.25 324.75,-103.25 362.5,-103.25 362.5,-103.25 368.5,-103.25 374.5,-109.25 374.5,-115.25 374.5,-115.25 374.5,-127.25 374.5,-127.25 374.5,-133.25 368.5,-139.25 362.5,-139.25"/>
<text xml:space="preserve" text-anchor="start" x="320.75" y="-121.25" font-family="Times,serif" font-size="10.00">checkpoint</text>
<text xml:space="preserve" text-anchor="start" x="327.88" y="-114.1" font-family="Courier,monospace" font-size="7.00">7c8d9e0</text>
</g>
<!-- ckpt_head&#45;&gt;c_ckpt -->
<g id="edge28" class="edge">
<title>ckpt_head&#45;&gt;c_ckpt</title>
<path fill="none" stroke="black" stroke-width="0.5" stroke-dasharray="5,2" d="M345.14,-176.06C344.92,-168.21 344.65,-158.72 344.4,-149.91"/>
<polygon fill="black" stroke="black" stroke-width="0.5" points="347.91,-149.93 344.13,-140.04 340.91,-150.13 347.91,-149.93"/>
</g>
<!-- c_cov -->
<g id="node24" class="node">
<title>c_cov</title>
<path fill="#e8e8e8" stroke="black" stroke-width="0.8" d="M63.25,-139.25C63.25,-139.25 12,-139.25 12,-139.25 6,-139.25 0,-133.25 0,-127.25 0,-127.25 0,-115.25 0,-115.25 0,-109.25 6,-103.25 12,-103.25 12,-103.25 63.25,-103.25 63.25,-103.25 69.25,-103.25 75.25,-109.25 75.25,-115.25 75.25,-115.25 75.25,-127.25 75.25,-127.25 75.25,-133.25 69.25,-139.25 63.25,-139.25"/>
<text xml:space="preserve" text-anchor="start" x="8" y="-121.25" font-family="Times,serif" font-size="10.00">octopus merge</text>
<text xml:space="preserve" text-anchor="start" x="21.88" y="-114.1" font-family="Courier,monospace" font-size="7.00">f1a2b3c</text>
</g>
<!-- cov_head&#45;&gt;c_cov -->
<g id="edge29" class="edge">
<title>cov_head&#45;&gt;c_cov</title>
<path fill="none" stroke="black" stroke-width="0.5" stroke-dasharray="5,2" d="M99.02,-176.06C88.84,-167.15 76.25,-156.11 65.12,-146.35"/>
<polygon fill="black" stroke="black" stroke-width="0.5" points="67.73,-143.98 57.9,-140.02 63.12,-149.25 67.73,-143.98"/>
</g>
<!-- elision_cur -->
<g id="node25" class="node">
<title>elision_cur</title>
<text xml:space="preserve" text-anchor="middle" x="444.62" y="-117.95" font-family="Times,serif" font-size="9.00">...</text>
</g>
<!-- cur_active&#45;&gt;elision_cur -->
<g id="edge20" class="edge">
<title>cur_active&#45;&gt;elision_cur</title>
<path fill="none" stroke="black" stroke-width="0.5" stroke-dasharray="5,2" d="M445.38,-176.06C445.27,-168.1 445.13,-158.44 445.01,-149.52"/>
<polygon fill="black" stroke="black" stroke-width="0.5" points="448.51,-149.5 444.87,-139.55 441.51,-149.59 448.51,-149.5"/>
</g>
<!-- elision_bookmark -->
<g id="node26" class="node">
<title>elision_bookmark</title>
<text xml:space="preserve" text-anchor="middle" x="543.62" y="-36.2" font-family="Times,serif" font-size="9.00">...</text>
</g>
<!-- bookmark&#45;&gt;elision_bookmark -->
<g id="edge21" class="edge">
<title>bookmark&#45;&gt;elision_bookmark</title>
<path fill="none" stroke="black" stroke-width="0.5" stroke-dasharray="5,2" d="M543.62,-102.95C543.62,-92.74 543.62,-79.59 543.62,-67.99"/>
<polygon fill="black" stroke="black" stroke-width="0.5" points="547.13,-68.25 543.63,-58.25 540.13,-68.25 547.13,-68.25"/>
</g>
<!-- elision_audit_a -->
<g id="node27" class="node">
<title>elision_audit_a</title>
<text xml:space="preserve" text-anchor="middle" x="739.62" y="-117.95" font-family="Times,serif" font-size="9.00">...</text>
</g>
<!-- audit_alice&#45;&gt;elision_audit_a -->
<g id="edge22" class="edge">
<title>audit_alice&#45;&gt;elision_audit_a</title>
<path fill="none" stroke="black" stroke-width="0.5" stroke-dasharray="5,2" d="M738.87,-176.06C738.98,-168.1 739.12,-158.44 739.24,-149.52"/>
<polygon fill="black" stroke="black" stroke-width="0.5" points="742.74,-149.59 739.38,-139.55 735.74,-149.5 742.74,-149.59"/>
</g>
<!-- elision_audit_b -->
<g id="node28" class="node">
<title>elision_audit_b</title>
<text xml:space="preserve" text-anchor="middle" x="642.62" y="-117.95" font-family="Times,serif" font-size="9.00">...</text>
</g>
<!-- audit_bob&#45;&gt;elision_audit_b -->
<g id="edge23" class="edge">
<title>audit_bob&#45;&gt;elision_audit_b</title>
<path fill="none" stroke="black" stroke-width="0.5" stroke-dasharray="5,2" d="M641.87,-176.06C641.98,-168.1 642.12,-158.44 642.24,-149.52"/>
<polygon fill="black" stroke="black" stroke-width="0.5" points="645.74,-149.59 642.38,-139.55 638.74,-149.5 645.74,-149.59"/>
</g>
<!-- elision_trust -->
<g id="node29" class="node">
<title>elision_trust</title>
<text xml:space="preserve" text-anchor="middle" x="836.62" y="-117.95" font-family="Times,serif" font-size="9.00">...</text>
</g>
<!-- trust_rec&#45;&gt;elision_trust -->
<g id="edge24" class="edge">
<title>trust_rec&#45;&gt;elision_trust</title>
<path fill="none" stroke="black" stroke-width="0.5" stroke-dasharray="5,2" d="M835.87,-176.06C835.98,-168.1 836.12,-158.44 836.24,-149.52"/>
<polygon fill="black" stroke="black" stroke-width="0.5" points="839.74,-149.59 836.38,-139.55 832.74,-149.5 839.74,-149.59"/>
</g>
<!-- elision_cache -->
<g id="node30" class="node">
<title>elision_cache</title>
<text xml:space="preserve" text-anchor="middle" x="932.62" y="-190.95" font-family="Times,serif" font-size="9.00">...</text>
</g>
<!-- seek_cache&#45;&gt;elision_cache -->
<g id="edge25" class="edge">
<title>seek_cache&#45;&gt;elision_cache</title>
<path fill="none" stroke="black" stroke-width="0.5" stroke-dasharray="5,2" d="M915.19,-249.06C917.83,-240.92 921.04,-231.01 923.98,-221.92"/>
<polygon fill="black" stroke="black" stroke-width="0.5" points="927.28,-223.1 927.03,-212.51 920.62,-220.94 927.28,-223.1"/>
</g>
<!-- c_cov&#45;&gt;c_alice -->
<g id="edge30" class="edge">
<title>c_cov&#45;&gt;c_alice</title>
<path fill="none" stroke="black" stroke-width="0.5" d="M73.43,-102.95C98.08,-91.03 131.02,-75.11 157.47,-62.33"/>
<polygon fill="black" stroke="black" stroke-width="0.5" points="158.73,-65.6 166.21,-58.1 155.68,-59.3 158.73,-65.6"/>
<text xml:space="preserve" text-anchor="middle" x="140.13" y="-77.65" font-family="Times,serif" font-size="8.00">parent</text>
</g>
<!-- c_cov&#45;&gt;c_bob -->
<g id="edge31" class="edge">
<title>c_cov&#45;&gt;c_bob</title>
<path fill="none" stroke="black" stroke-width="0.5" d="M30.67,-103.04C28.22,-94.63 26.68,-84.42 29.38,-75.5 30.26,-72.55 31.49,-69.63 32.92,-66.8"/>
<polygon fill="black" stroke="black" stroke-width="0.5" points="35.88,-68.67 37.98,-58.29 29.86,-65.09 35.88,-68.67"/>
<text xml:space="preserve" text-anchor="middle" x="39.5" y="-77.65" font-family="Times,serif" font-size="8.00">parent</text>
</g>
</g>
</svg>
