<?xml version="1.0" encoding="UTF-8" standalone="no"?>
<!DOCTYPE svg PUBLIC "-//W3C//DTD SVG 1.1//EN"
 "http://www.w3.org/Graphics/SVG/1.1/DTD/svg11.dtd">
<!-- Generated by graphviz version 14.1.2 (20260124.0452)
 -->
<!-- Title: checkpoint_tree Pages: 1 -->
<svg width="806pt" height="379pt"
 viewBox="0.00 0.00 806.00 379.00" xmlns="http://www.w3.org/2000/svg" xmlns:xlink="http://www.w3.org/1999/xlink">
<g id="graph0" class="graph" transform="scale(1 1) rotate(0) translate(4 375.02)">
<title>checkpoint_tree</title>
<text xml:space="preserve" text-anchor="start" x="279.35" y="-8.05" font-family="Times,serif" font-style="italic" font-size="11.00">Fig. 7. &#160;Checkpoint Tree — snapshot for fast recovery</text>
<!-- ckpt_ref -->
<g id="node1" class="node">
<title>ckpt_ref</title>
<polygon fill="white" stroke="black" stroke-width="0.8" stroke-dasharray="5,2" points="442.12,-371.02 347.38,-371.02 347.38,-335.02 442.12,-335.02 442.12,-371.02"/>
<text xml:space="preserve" text-anchor="start" x="355.38" y="-354.77" font-family="Times,serif" font-size="10.00">refs/warp/&lt;graph&gt;/</text>
<text xml:space="preserve" text-anchor="start" x="358.75" y="-343.52" font-family="Times,serif" font-size="10.00">checkpoints/head</text>
</g>
<!-- commit -->
<g id="node2" class="node">
<title>commit</title>
<polygon fill="#e8e8e8" stroke="none" points="340,-250.02 340,-298.02 449.5,-298.02 449.5,-250.02 340,-250.02"/>
<polygon fill="none" stroke="black" points="340,-274.02 340,-298.02 449.5,-298.02 449.5,-274.02 340,-274.02"/>
<text xml:space="preserve" text-anchor="start" x="351.62" y="-286.52" font-family="Times,serif" font-weight="bold" font-size="10.00">Checkpoint Commit</text>
<text xml:space="preserve" text-anchor="start" x="372.25" y="-278.42" font-family="Courier,monospace" font-size="8.00">7c8d9e0...</text>
<polygon fill="none" stroke="black" points="340,-250.02 340,-274.02 449.5,-274.02 449.5,-250.02 340,-250.02"/>
<text xml:space="preserve" text-anchor="start" x="343" y="-264.42" font-family="Courier,monospace" font-size="8.00">eg&#45;kind: checkpoint</text>
<text xml:space="preserve" text-anchor="start" x="343" y="-254.52" font-family="Times,serif" font-size="10.00"> &#160;&#160;&#160;&#160;&#160;&#160;&#160;&#160;&#160;&#160;&#160;&#160;&#160;</text>
<text xml:space="preserve" text-anchor="start" x="374.5" y="-254.52" font-family="Courier,monospace" font-size="8.00">eg&#45;checkpoint: 1</text>
</g>
<!-- ckpt_ref&#45;&gt;commit -->
<g id="edge1" class="edge">
<title>ckpt_ref&#45;&gt;commit</title>
<path fill="none" stroke="black" stroke-width="0.5" stroke-dasharray="5,2" d="M394.75,-334.93C394.75,-327.18 394.75,-317.74 394.75,-308.66"/>
<polygon fill="black" stroke="black" stroke-width="0.5" points="398.25,-308.66 394.75,-298.66 391.25,-308.66 398.25,-308.66"/>
</g>
<!-- tree -->
<g id="node3" class="node">
<title>tree</title>
<polygon fill="#f0f0f0" stroke="black" stroke-width="0.8" points="425.25,-204.27 422.25,-208.27 401.25,-208.27 398.25,-204.27 364.25,-204.27 364.25,-168.27 425.25,-168.27 425.25,-204.27"/>
<text xml:space="preserve" text-anchor="start" x="387.25" y="-186.27" font-family="Times,serif" font-size="10.00">tree</text>
<text xml:space="preserve" text-anchor="start" x="372.25" y="-179.12" font-family="Courier,monospace" font-size="7.00">a1b2c3d...</text>
</g>
<!-- commit&#45;&gt;tree -->
<g id="edge2" class="edge">
<title>commit&#45;&gt;tree</title>
<path fill="none" stroke="black" stroke-width="0.8" d="M394.75,-250.04C394.75,-239.44 394.75,-226.75 394.75,-215.56"/>
<polygon fill="black" stroke="black" stroke-width="0.8" points="398.25,-215.81 394.75,-205.81 391.25,-215.81 398.25,-215.81"/>
<text xml:space="preserve" text-anchor="middle" x="401.12" y="-224.42" font-family="Times,serif" font-size="8.00">tree</text>
</g>
<!-- state_cbor -->
<g id="node4" class="node">
<title>state_cbor</title>
<ellipse fill="#d0d0d0" stroke="black" stroke-width="1.2" cx="89.75" cy="-112.88" rx="59.57" ry="18.38"/>
<text xml:space="preserve" text-anchor="start" x="70.25" y="-113.38" font-family="Times,serif" font-size="10.00">state.cbor</text>
<text xml:space="preserve" text-anchor="start" x="55.62" y="-105.28" font-family="Times,serif" font-weight="bold" font-size="8.00">AUTHORITATIVE</text>
</g>
<!-- tree&#45;&gt;state_cbor -->
<g id="edge3" class="edge">
<title>tree&#45;&gt;state_cbor</title>
<path fill="none" stroke="black" stroke-width="0.8" d="M364.11,-178.12C319.87,-167.79 235.53,-148.09 163.75,-131.27 158.35,-130 152.72,-128.68 147.1,-127.36"/>
<polygon fill="black" stroke="black" stroke-width="0.8" points="148.04,-123.99 137.51,-125.11 146.44,-130.81 148.04,-123.99"/>
</g>
<!-- visible_cbor -->
<g id="node5" class="node">
<title>visible_cbor</title>
<ellipse fill="white" stroke="black" stroke-width="0.8" cx="223.75" cy="-112.88" rx="45.25" ry="18.38"/>
<text xml:space="preserve" text-anchor="start" x="199.75" y="-113.38" font-family="Times,serif" font-size="10.00">visible.cbor</text>
<text xml:space="preserve" text-anchor="start" x="206.5" y="-105.28" font-family="Times,serif" font-style="italic" font-size="8.00">cache only</text>
</g>
<!-- tree&#45;&gt;visible_cbor -->
<g id="edge4" class="edge">
<title>tree&#45;&gt;visible_cbor</title>
<path fill="none" stroke="black" stroke-width="0.5" d="M364.18,-172.51C336.18,-160.82 294.55,-143.44 263.88,-130.64"/>
<polygon fill="black" stroke="black" stroke-width="0.5" points="265.62,-127.57 255.04,-126.95 262.92,-134.03 265.62,-127.57"/>
</g>
<!-- frontier_cbor -->
<g id="node6" class="node">
<title>frontier_cbor</title>
<ellipse fill="white" stroke="black" stroke-width="0.8" cx="336.75" cy="-112.88" rx="39.2" ry="18"/>
<text xml:space="preserve" text-anchor="start" x="311.62" y="-109.01" font-family="Times,serif" font-size="10.00">frontier.cbor</text>
</g>
<!-- tree&#45;&gt;frontier_cbor -->
<g id="edge5" class="edge">
<title>tree&#45;&gt;frontier_cbor</title>
<path fill="none" stroke="black" stroke-width="0.5" d="M380.71,-167.99C373.45,-159.05 364.47,-148 356.52,-138.21"/>
<polygon fill="black" stroke="black" stroke-width="0.5" points="359.37,-136.17 350.34,-130.61 353.93,-140.58 359.37,-136.17"/>
</g>
<!-- applied_vv -->
<g id="node7" class="node">
<title>applied_vv</title>
<ellipse fill="white" stroke="black" stroke-width="0.8" cx="452.75" cy="-112.88" rx="47.63" ry="18"/>
<text xml:space="preserve" text-anchor="start" x="420.5" y="-109.01" font-family="Times,serif" font-size="10.00">appliedVV.cbor</text>
</g>
<!-- tree&#45;&gt;applied_vv -->
<g id="edge6" class="edge">
<title>tree&#45;&gt;applied_vv</title>
<path fill="none" stroke="black" stroke-width="0.5" d="M408.79,-167.99C415.95,-159.18 424.78,-148.31 432.64,-138.63"/>
<polygon fill="black" stroke="black" stroke-width="0.5" points="435.17,-141.07 438.76,-131.1 429.74,-136.66 435.17,-141.07"/>
</g>
<!-- provenance -->
<g id="node8" class="node">
<title>provenance</title>
<ellipse fill="white" stroke="black" stroke-width="0.8" cx="604.75" cy="-112.88" rx="75.48" ry="18.38"/>
<text xml:space="preserve" text-anchor="start" x="559.38" y="-113.38" font-family="Times,serif" font-size="10.00">provenanceIndex.cbor</text>
<text xml:space="preserve" text-anchor="start" x="592" y="-105.28" font-family="Times,serif" font-style="italic" font-size="8.00">optional</text>
</g>
<!-- tree&#45;&gt;provenance -->
<g id="edge7" class="edge">
<title>tree&#45;&gt;provenance</title>
<path fill="none" stroke="black" stroke-width="0.5" stroke-dasharray="5,2" d="M425.29,-174.89C458.46,-163.61 512.06,-145.39 552.06,-131.8"/>
<polygon fill="black" stroke="black" stroke-width="0.5" points="553.12,-135.13 561.46,-128.6 550.86,-128.51 553.12,-135.13"/>
</g>
<!-- content -->
<g id="node9" class="node">
<title>content</title>
<ellipse fill="#f0f0f0" stroke="black" stroke-width="0.8" cx="753.75" cy="-112.88" rx="44.19" ry="18.38"/>
<text xml:space="preserve" text-anchor="start" x="730.5" y="-113.38" font-family="Times,serif" font-size="10.00">_content_*</text>
<text xml:space="preserve" text-anchor="start" x="734.62" y="-105.28" font-family="Times,serif" font-size="8.00">GC anchors</text>
</g>
<!-- tree&#45;&gt;content -->
<g id="edge8" class="edge">
<title>tree&#45;&gt;content</title>
<path fill="none" stroke="black" stroke-width="0.5" d="M425.64,-180.84C480.28,-172.76 597.42,-154.3 694.75,-131.27 699.38,-130.18 704.18,-128.94 708.95,-127.63"/>
<polygon fill="black" stroke="black" stroke-width="0.5" points="709.88,-131.01 718.56,-124.93 707.99,-124.27 709.88,-131.01"/>
</g>
<!-- note -->
<g id="node10" class="node">
<title>note</title>
<text xml:space="preserve" text-anchor="start" x="27.88" y="-41.65" font-family="Times,serif" font-size="8.00">state.cbor is the single source of truth;</text>
<text xml:space="preserve" text-anchor="start" x="8" y="-31.9" font-family="Times,serif" font-size="8.00">all other entries are derived caches or GC anchors</text>
</g>
<!-- state_cbor&#45;&gt;note -->
</g>
</svg>
