<?xml version="1.0" encoding="UTF-8" standalone="no"?>
<!DOCTYPE svg PUBLIC "-//W3C//DTD SVG 1.1//EN"
 "http://www.w3.org/Graphics/SVG/1.1/DTD/svg11.dtd">
<!-- Generated by graphviz version 14.1.2 (20260124.0452)
 -->
<!-- Title: materialize_pipeline Pages: 1 -->
<svg width="991pt" height="159pt"
 viewBox="0.00 0.00 991.00 159.00" xmlns="http://www.w3.org/2000/svg" xmlns:xlink="http://www.w3.org/1999/xlink">
<g id="graph0" class="graph" transform="scale(1 1) rotate(0) translate(4 154.5)">
<title>materialize_pipeline</title>
<text xml:space="preserve" text-anchor="start" x="351.25" y="-8.05" font-family="Times,serif" font-style="italic" font-size="11.00">Fig. 6. &#160;Materialization Pipeline — from refs to consistent state</text>
<!-- refs -->
<g id="node1" class="node">
<title>refs</title>
<path fill="#f0f0f0" stroke="black" stroke-width="0.8" d="M42,-74.5C42,-74.5 12,-74.5 12,-74.5 6,-74.5 0,-68.5 0,-62.5 0,-62.5 0,-50.5 0,-50.5 0,-44.5 6,-38.5 12,-38.5 12,-38.5 42,-38.5 42,-38.5 48,-38.5 54,-44.5 54,-50.5 54,-50.5 54,-62.5 54,-62.5 54,-68.5 48,-74.5 42,-74.5"/>
<text xml:space="preserve" text-anchor="start" x="14.25" y="-58.25" font-family="Times,serif" font-size="10.00">Writer</text>
<text xml:space="preserve" text-anchor="start" x="18" y="-47" font-family="Times,serif" font-size="10.00">Refs</text>
</g>
<!-- walk -->
<g id="node2" class="node">
<title>walk</title>
<path fill="none" stroke="black" stroke-width="0.8" d="M189,-130.5C189,-130.5 135.5,-130.5 135.5,-130.5 129.5,-130.5 123.5,-124.5 123.5,-118.5 123.5,-118.5 123.5,-106.5 123.5,-106.5 123.5,-100.5 129.5,-94.5 135.5,-94.5 135.5,-94.5 189,-94.5 189,-94.5 195,-94.5 201,-100.5 201,-106.5 201,-106.5 201,-118.5 201,-118.5 201,-124.5 195,-130.5 189,-130.5"/>
<text xml:space="preserve" text-anchor="start" x="151.75" y="-114.25" font-family="Times,serif" font-size="10.00">Walk</text>
<text xml:space="preserve" text-anchor="start" x="131.5" y="-103" font-family="Times,serif" font-size="10.00">Commit DAGs</text>
</g>
<!-- refs&#45;&gt;walk -->
<g id="edge1" class="edge">
<title>refs&#45;&gt;walk</title>
<path fill="none" stroke="black" d="M54.33,-67.56C70.98,-74.56 93.01,-83.82 112.74,-92.11"/>
<polygon fill="black" stroke="black" points="111.15,-95.24 121.72,-95.89 113.86,-88.79 111.15,-95.24"/>
</g>
<!-- checkpoint -->
<g id="node7" class="node">
<title>checkpoint</title>
<path fill="#f0f0f0" stroke="black" stroke-width="0.8" stroke-dasharray="5,2" d="M275,-57.5C275,-57.5 235,-57.5 235,-57.5 229,-57.5 223,-51.5 223,-45.5 223,-45.5 223,-33.5 223,-33.5 223,-27.5 229,-21.5 235,-21.5 235,-21.5 275,-21.5 275,-21.5 281,-21.5 287,-27.5 287,-33.5 287,-33.5 287,-45.5 287,-45.5 287,-51.5 281,-57.5 275,-57.5"/>
<text xml:space="preserve" text-anchor="start" x="231" y="-40" font-family="Times,serif" font-size="10.00">Checkpoint</text>
<text xml:space="preserve" text-anchor="start" x="233.62" y="-31.9" font-family="Times,serif" font-size="8.00">(if available)</text>
</g>
<!-- refs&#45;&gt;checkpoint -->
<g id="edge6" class="edge">
<title>refs&#45;&gt;checkpoint</title>
<path fill="none" stroke="black" stroke-width="0.5" stroke-dasharray="5,2" d="M54.37,-54.52C93.17,-51.6 166.05,-46.12 212.19,-42.64"/>
<polygon fill="black" stroke="black" stroke-width="0.5" points="212.28,-46.15 221.99,-41.91 211.76,-39.17 212.28,-46.15"/>
<text xml:space="preserve" text-anchor="start" x="76" y="-54.98" font-family="Times,serif" font-size="8.00">shortcut</text>
</g>
<!-- decode -->
<g id="node3" class="node">
<title>decode</title>
<path fill="none" stroke="black" stroke-width="0.8" d="M351,-130.5C351,-130.5 321,-130.5 321,-130.5 315,-130.5 309,-124.5 309,-118.5 309,-118.5 309,-106.5 309,-106.5 309,-100.5 315,-94.5 321,-94.5 321,-94.5 351,-94.5 351,-94.5 357,-94.5 363,-100.5 363,-106.5 363,-106.5 363,-118.5 363,-118.5 363,-124.5 357,-130.5 351,-130.5"/>
<text xml:space="preserve" text-anchor="start" x="320.25" y="-114.25" font-family="Times,serif" font-size="10.00">Decode</text>
<text xml:space="preserve" text-anchor="start" x="322.12" y="-103" font-family="Times,serif" font-size="10.00">CBOR</text>
</g>
<!-- walk&#45;&gt;decode -->
<g id="edge2" class="edge">
<title>walk&#45;&gt;decode</title>
<path fill="none" stroke="black" d="M201.37,-112.5C229.9,-112.5 268.76,-112.5 297.21,-112.5"/>
<polygon fill="black" stroke="black" points="297.2,-116 307.2,-112.5 297.2,-109 297.2,-116"/>
</g>
<!-- sort -->
<g id="node4" class="node">
<title>sort</title>
<path fill="none" stroke="black" stroke-width="0.8" d="M450,-130.5C450,-130.5 420,-130.5 420,-130.5 414,-130.5 408,-124.5 408,-118.5 408,-118.5 408,-106.5 408,-106.5 408,-100.5 414,-94.5 420,-94.5 420,-94.5 450,-94.5 450,-94.5 456,-94.5 462,-100.5 462,-106.5 462,-106.5 462,-118.5 462,-118.5 462,-124.5 456,-130.5 450,-130.5"/>
<text xml:space="preserve" text-anchor="start" x="420.38" y="-114.25" font-family="Times,serif" font-size="10.00">Sort by</text>
<text xml:space="preserve" text-anchor="start" x="417.75" y="-103" font-family="Times,serif" font-size="10.00">Lamport</text>
</g>
<!-- decode&#45;&gt;sort -->
<g id="edge3" class="edge">
<title>decode&#45;&gt;sort</title>
<path fill="none" stroke="black" d="M363.25,-112.5C373.49,-112.5 385.43,-112.5 396.55,-112.5"/>
<polygon fill="black" stroke="black" points="396.22,-116 406.22,-112.5 396.22,-109 396.22,-116"/>
</g>
<!-- reducer -->
<g id="node5" class="node">
<title>reducer</title>
<path fill="#d0d0d0" stroke="black" stroke-width="1.2" d="M643,-79.5C643,-79.5 519,-79.5 519,-79.5 513,-79.5 507,-73.5 507,-67.5 507,-67.5 507,-53.5 507,-53.5 507,-47.5 513,-41.5 519,-41.5 519,-41.5 643,-41.5 643,-41.5 649,-41.5 655,-47.5 655,-53.5 655,-53.5 655,-67.5 655,-67.5 655,-73.5 649,-79.5 643,-79.5"/>
<text xml:space="preserve" text-anchor="start" x="515" y="-67" font-family="Times,serif" font-size="10.00">{</text>
<text xml:space="preserve" text-anchor="start" x="519.5" y="-67" font-family="Times,serif" font-weight="bold" font-size="10.00">JoinReducer</text>
<text xml:space="preserve" text-anchor="start" x="574.25" y="-67" font-family="Times,serif" font-size="10.00">|{ &#160;&#160;&#160;OR&#45;Set merge</text>
<text xml:space="preserve" text-anchor="start" x="525.5" y="-57" font-family="Times,serif" font-size="8.00">(nodes, edges)</text>
<text xml:space="preserve" text-anchor="start" x="572" y="-57" font-family="Times,serif" font-size="10.00"> | &#160;&#160;&#160;LWW merge</text>
<text xml:space="preserve" text-anchor="start" x="555.12" y="-47" font-family="Times,serif" font-size="8.00">(properties)</text>
<text xml:space="preserve" text-anchor="start" x="593.38" y="-47" font-family="Times,serif" font-size="10.00"> &#160;}}</text>
</g>
<!-- sort&#45;&gt;reducer -->
<g id="edge4" class="edge">
<title>sort&#45;&gt;reducer</title>
<path fill="none" stroke="black" d="M462.08,-103.08C476.98,-97.7 496.4,-90.69 515.16,-83.92"/>
<polygon fill="black" stroke="black" points="516.14,-87.28 524.36,-80.59 513.77,-80.7 516.14,-87.28"/>
</g>
<!-- state -->
<g id="node6" class="node">
<title>state</title>
<path fill="#e8e8e8" stroke="black" d="M971,-78.5C971,-78.5 712,-78.5 712,-78.5 706,-78.5 700,-72.5 700,-66.5 700,-66.5 700,-54.5 700,-54.5 700,-48.5 706,-42.5 712,-42.5 712,-42.5 971,-42.5 971,-42.5 977,-42.5 983,-48.5 983,-54.5 983,-54.5 983,-66.5 983,-66.5 983,-72.5 977,-78.5 971,-78.5"/>
<text xml:space="preserve" text-anchor="start" x="708" y="-57.62" font-family="Times,serif" font-size="10.00">{</text>
<text xml:space="preserve" text-anchor="start" x="712.5" y="-57.62" font-family="Times,serif" font-weight="bold" font-size="10.00">WarpStateV5</text>
<text xml:space="preserve" text-anchor="start" x="770.25" y="-57.62" font-family="Times,serif" font-size="10.00">|{ &#160;&#160;&#160;</text>
<text xml:space="preserve" text-anchor="start" x="786" y="-57.62" font-family="Courier,monospace" font-size="8.00">nodeAlive</text>
<text xml:space="preserve" text-anchor="start" x="826.5" y="-57.62" font-family="Times,serif" font-size="10.00"> | &#160;&#160;&#160;</text>
<text xml:space="preserve" text-anchor="start" x="840" y="-57.62" font-family="Courier,monospace" font-size="8.00">edgeAlive</text>
<text xml:space="preserve" text-anchor="start" x="880.5" y="-57.62" font-family="Times,serif" font-size="10.00"> | &#160;&#160;&#160;</text>
<text xml:space="preserve" text-anchor="start" x="894" y="-57.62" font-family="Courier,monospace" font-size="8.00">prop</text>
<text xml:space="preserve" text-anchor="start" x="912" y="-57.62" font-family="Times,serif" font-size="10.00"> | &#160;&#160;&#160;</text>
<text xml:space="preserve" text-anchor="start" x="925.5" y="-57.62" font-family="Courier,monospace" font-size="8.00">frontier</text>
<text xml:space="preserve" text-anchor="start" x="961.5" y="-57.62" font-family="Times,serif" font-size="10.00"> &#160;}}</text>
</g>
<!-- reducer&#45;&gt;state -->
<g id="edge5" class="edge">
<title>reducer&#45;&gt;state</title>
<path fill="none" stroke="black" d="M655.38,-60.5C665.91,-60.5 677.04,-60.5 688.42,-60.5"/>
<polygon fill="black" stroke="black" points="688.35,-64 698.35,-60.5 688.35,-57 688.35,-64"/>
</g>
<!-- checkpoint&#45;&gt;reducer -->
<g id="edge7" class="edge">
<title>checkpoint&#45;&gt;reducer</title>
<path fill="none" stroke="black" stroke-width="0.5" stroke-dasharray="5,2" d="M287.36,-41.53C335.17,-44.63 427.93,-50.64 496.25,-55.07"/>
<polygon fill="black" stroke="black" stroke-width="0.5" points="495.61,-58.54 505.81,-55.69 496.06,-51.55 495.61,-58.54"/>
</g>
<!-- complexity -->
<g id="node8" class="node">
<title>complexity</title>
<path fill="none" stroke="none" stroke-width="0.8" d="M908,-150.5C908,-150.5 775,-150.5 775,-150.5 769,-150.5 763,-144.5 763,-138.5 763,-138.5 763,-126.5 763,-126.5 763,-120.5 769,-114.5 775,-114.5 775,-114.5 908,-114.5 908,-114.5 914,-114.5 920,-120.5 920,-126.5 920,-126.5 920,-138.5 920,-138.5 920,-144.5 914,-150.5 908,-150.5"/>
<text xml:space="preserve" text-anchor="start" x="771" y="-129.78" font-family="Times,serif" font-size="8.00">O(P) — P = total patches across all writers</text>
</g>
</g>
</svg>
