<?xml version="1.0" encoding="UTF-8" standalone="no"?>
<!DOCTYPE svg PUBLIC "-//W3C//DTD SVG 1.1//EN"
 "http://www.w3.org/Graphics/SVG/1.1/DTD/svg11.dtd">
<!-- Generated by graphviz version 14.1.2 (20260124.0452)
 -->
<!-- Title: architecture Pages: 1 -->
<svg width="1362pt" height="301pt"
 viewBox="0.00 0.00 1362.00 301.00" xmlns="http://www.w3.org/2000/svg" xmlns:xlink="http://www.w3.org/1999/xlink">
<g id="graph0" class="graph" transform="scale(1 1) rotate(0) translate(4 297)">
<title>architecture</title>
<text xml:space="preserve" text-anchor="start" x="503.75" y="-8.05" font-family="Times,serif" font-style="italic" font-size="11.00">Fig. 8. &#160;Hexagonal Architecture — dependency rule: arrows point inward only</text>
<g id="clust1" class="cluster">
<title>cluster_adapters</title>
<path fill="none" stroke="#606060" stroke-width="0.8" d="M20,-29.5C20,-29.5 1334,-29.5 1334,-29.5 1340,-29.5 1346,-35.5 1346,-41.5 1346,-41.5 1346,-273 1346,-273 1346,-279 1340,-285 1334,-285 1334,-285 20,-285 20,-285 14,-285 8,-279 8,-273 8,-273 8,-41.5 8,-41.5 8,-35.5 14,-29.5 20,-29.5"/>
<text xml:space="preserve" text-anchor="start" x="600.12" y="-273.45" font-family="Times,serif" font-weight="bold" font-size="9.00">Adapters</text>
<text xml:space="preserve" text-anchor="start" x="636.12" y="-273.45" font-family="Times,serif" font-size="9.00"> &#160;(infrastructure implementations)</text>
</g>
<g id="clust2" class="cluster">
<title>cluster_ports</title>
<path fill="none" stroke="#606060" stroke-width="0.8" d="M118,-37.5C118,-37.5 967,-37.5 967,-37.5 973,-37.5 979,-43.5 979,-49.5 979,-49.5 979,-202.5 979,-202.5 979,-208.5 973,-214.5 967,-214.5 967,-214.5 118,-214.5 118,-214.5 112,-214.5 106,-208.5 106,-202.5 106,-202.5 106,-49.5 106,-49.5 106,-43.5 112,-37.5 118,-37.5"/>
<text xml:space="preserve" text-anchor="start" x="495.62" y="-202.95" font-family="Times,serif" font-weight="bold" font-size="9.00">Ports</text>
<text xml:space="preserve" text-anchor="start" x="515.88" y="-202.95" font-family="Times,serif" font-size="9.00"> &#160;(abstract interfaces)</text>
</g>
<g id="clust3" class="cluster">
<title>cluster_domain</title>
<path fill="#e8e8e8" stroke="#606060" d="M228,-45.5C228,-45.5 677,-45.5 677,-45.5 683,-45.5 689,-51.5 689,-57.5 689,-57.5 689,-176 689,-176 689,-182 683,-188 677,-188 677,-188 228,-188 228,-188 222,-188 216,-182 216,-176 216,-176 216,-57.5 216,-57.5 216,-51.5 222,-45.5 228,-45.5"/>
<text xml:space="preserve" text-anchor="start" x="426.62" y="-176.45" font-family="Times,serif" font-weight="bold" font-size="9.00">Domain Core</text>
</g>
<!-- git_adapter -->
<g id="node1" class="node">
<title>git_adapter</title>
<path fill="#f0f0f0" stroke="black" stroke-width="0.8" d="M86,-161.5C86,-161.5 28,-161.5 28,-161.5 22,-161.5 16,-155.5 16,-149.5 16,-149.5 16,-137.5 16,-137.5 16,-131.5 22,-125.5 28,-125.5 28,-125.5 86,-125.5 86,-125.5 92,-125.5 98,-131.5 98,-137.5 98,-137.5 98,-149.5 98,-149.5 98,-155.5 92,-161.5 86,-161.5"/>
<text xml:space="preserve" text-anchor="start" x="25.88" y="-143.95" font-family="Times,serif" font-size="9.00">GitGraphAdapter</text>
<text xml:space="preserve" text-anchor="start" x="24" y="-136.85" font-family="Times,serif" font-size="7.00">@git&#45;stunts/plumbing</text>
</g>
<!-- persistence_port -->
<g id="node7" class="node">
<title>persistence_port</title>
<polygon fill="#d0d0d0" stroke="black" stroke-width="0.8" stroke-dasharray="5,2" points="207.62,-89.5 114.38,-89.5 114.38,-53.5 207.62,-53.5 207.62,-89.5"/>
<text xml:space="preserve" text-anchor="middle" x="161" y="-68.2" font-family="Times,serif" font-size="9.00">GraphPersistencePort</text>
</g>
<!-- git_adapter&#45;&gt;persistence_port -->
<g id="edge1" class="edge">
<title>git_adapter&#45;&gt;persistence_port</title>
<path fill="none" stroke="black" stroke-width="0.5" stroke-dasharray="5,2" d="M91.31,-119.41C105.62,-109.77 121.97,-98.77 135.23,-89.85"/>
<polygon fill="black" stroke="black" stroke-width="0.5" points="89.68,-116.29 83.34,-124.77 93.59,-122.09 89.68,-116.29"/>
</g>
<!-- cbor_codec -->
<g id="node2" class="node">
<title>cbor_codec</title>
<path fill="#f0f0f0" stroke="black" stroke-width="0.8" d="M1031.25,-161.5C1031.25,-161.5 998.75,-161.5 998.75,-161.5 992.75,-161.5 986.75,-155.5 986.75,-149.5 986.75,-149.5 986.75,-137.5 986.75,-137.5 986.75,-131.5 992.75,-125.5 998.75,-125.5 998.75,-125.5 1031.25,-125.5 1031.25,-125.5 1037.25,-125.5 1043.25,-131.5 1043.25,-137.5 1043.25,-137.5 1043.25,-149.5 1043.25,-149.5 1043.25,-155.5 1037.25,-161.5 1031.25,-161.5"/>
<text xml:space="preserve" text-anchor="start" x="994.75" y="-143.95" font-family="Times,serif" font-size="9.00">CborCodec</text>
<text xml:space="preserve" text-anchor="start" x="1005.62" y="-136.85" font-family="Times,serif" font-size="7.00">cbor&#45;x</text>
</g>
<!-- codec_port -->
<g id="node8" class="node">
<title>codec_port</title>
<polygon fill="#d0d0d0" stroke="black" stroke-width="0.8" stroke-dasharray="5,2" points="751,-89.5 697,-89.5 697,-53.5 751,-53.5 751,-89.5"/>
<text xml:space="preserve" text-anchor="middle" x="724" y="-68.2" font-family="Times,serif" font-size="9.00">CodecPort</text>
</g>
<!-- cbor_codec&#45;&gt;codec_port -->
<g id="edge2" class="edge">
<title>cbor_codec&#45;&gt;codec_port</title>
<path fill="none" stroke="black" stroke-width="0.5" stroke-dasharray="5,2" d="M976.42,-123.52C885.51,-95.26 852.52,-118.18 760,-89.5 757.1,-88.6 754.13,-87.51 751.2,-86.31"/>
<polygon fill="black" stroke="black" stroke-width="0.5" points="975.28,-126.83 985.88,-126.58 977.44,-120.17 975.28,-126.83"/>
</g>
<!-- web_crypto -->
<g id="node3" class="node">
<title>web_crypto</title>
<path fill="#f0f0f0" stroke="black" stroke-width="0.8" d="M1134.88,-161.5C1134.88,-161.5 1073.12,-161.5 1073.12,-161.5 1067.12,-161.5 1061.12,-155.5 1061.12,-149.5 1061.12,-149.5 1061.12,-137.5 1061.12,-137.5 1061.12,-131.5 1067.12,-125.5 1073.12,-125.5 1073.12,-125.5 1134.88,-125.5 1134.88,-125.5 1140.88,-125.5 1146.88,-131.5 1146.88,-137.5 1146.88,-137.5 1146.88,-149.5 1146.88,-149.5 1146.88,-155.5 1140.88,-161.5 1134.88,-161.5"/>
<text xml:space="preserve" text-anchor="start" x="1069.12" y="-143.95" font-family="Times,serif" font-size="9.00">WebCryptoAdapter</text>
<text xml:space="preserve" text-anchor="start" x="1077.75" y="-136.85" font-family="Times,serif" font-size="7.00">globalThis.crypto</text>
</g>
<!-- crypto_port -->
<g id="node9" class="node">
<title>crypto_port</title>
<polygon fill="#d0d0d0" stroke="black" stroke-width="0.8" stroke-dasharray="5,2" points="824.88,-89.5 769.12,-89.5 769.12,-53.5 824.88,-53.5 824.88,-89.5"/>
<text xml:space="preserve" text-anchor="middle" x="797" y="-68.2" font-family="Times,serif" font-size="9.00">CryptoPort</text>
</g>
<!-- web_crypto&#45;&gt;crypto_port -->
<g id="edge3" class="edge">
<title>web_crypto&#45;&gt;crypto_port</title>
<path fill="none" stroke="black" stroke-width="0.5" stroke-dasharray="5,2" d="M1050.31,-125.32C954.57,-103.22 924.69,-117.27 834,-89.5 831.03,-88.59 827.98,-87.49 824.98,-86.29"/>
<polygon fill="black" stroke="black" stroke-width="0.5" points="1049.46,-128.72 1059.99,-127.63 1051.08,-121.91 1049.46,-128.72"/>
</g>
<!-- clock_adapter -->
<g id="node4" class="node">
<title>clock_adapter</title>
<path fill="#f0f0f0" stroke="black" stroke-width="0.8" d="M1237.5,-161.5C1237.5,-161.5 1176.5,-161.5 1176.5,-161.5 1170.5,-161.5 1164.5,-155.5 1164.5,-149.5 1164.5,-149.5 1164.5,-137.5 1164.5,-137.5 1164.5,-131.5 1170.5,-125.5 1176.5,-125.5 1176.5,-125.5 1237.5,-125.5 1237.5,-125.5 1243.5,-125.5 1249.5,-131.5 1249.5,-137.5 1249.5,-137.5 1249.5,-149.5 1249.5,-149.5 1249.5,-155.5 1243.5,-161.5 1237.5,-161.5"/>
<text xml:space="preserve" text-anchor="start" x="1182.25" y="-143.95" font-family="Times,serif" font-size="9.00">ClockAdapter</text>
<text xml:space="preserve" text-anchor="start" x="1172.5" y="-136.85" font-family="Times,serif" font-size="7.00">globalThis.performance</text>
</g>
<!-- clock_port -->
<g id="node10" class="node">
<title>clock_port</title>
<polygon fill="#d0d0d0" stroke="black" stroke-width="0.8" stroke-dasharray="5,2" points="897,-89.5 843,-89.5 843,-53.5 897,-53.5 897,-89.5"/>
<text xml:space="preserve" text-anchor="middle" x="870" y="-68.2" font-family="Times,serif" font-size="9.00">ClockPort</text>
</g>
<!-- clock_adapter&#45;&gt;clock_port -->
<g id="edge4" class="edge">
<title>clock_adapter&#45;&gt;clock_port</title>
<path fill="none" stroke="black" stroke-width="0.5" stroke-dasharray="5,2" d="M1153.86,-125.24C1044.68,-100.94 1010.25,-120.85 906,-89.5 903.09,-88.62 900.11,-87.55 897.18,-86.36"/>
<polygon fill="black" stroke="black" stroke-width="0.5" points="1153.04,-128.65 1163.57,-127.48 1154.61,-121.83 1153.04,-128.65"/>
</g>
<!-- console_log -->
<g id="node5" class="node">
<title>console_log</title>
<path fill="#f0f0f0" stroke="black" stroke-width="0.8" d="M1326.38,-161.5C1326.38,-161.5 1279.62,-161.5 1279.62,-161.5 1273.62,-161.5 1267.62,-155.5 1267.62,-149.5 1267.62,-149.5 1267.62,-137.5 1267.62,-137.5 1267.62,-131.5 1273.62,-125.5 1279.62,-125.5 1279.62,-125.5 1326.38,-125.5 1326.38,-125.5 1332.38,-125.5 1338.38,-131.5 1338.38,-137.5 1338.38,-137.5 1338.38,-149.5 1338.38,-149.5 1338.38,-155.5 1332.38,-161.5 1326.38,-161.5"/>
<text xml:space="preserve" text-anchor="start" x="1275.62" y="-140.2" font-family="Times,serif" font-size="9.00">ConsoleLogger</text>
</g>
<!-- logger_port -->
<g id="node11" class="node">
<title>logger_port</title>
<polygon fill="#d0d0d0" stroke="black" stroke-width="0.8" stroke-dasharray="5,2" points="971.25,-89.5 914.75,-89.5 914.75,-53.5 971.25,-53.5 971.25,-89.5"/>
<text xml:space="preserve" text-anchor="middle" x="943" y="-68.2" font-family="Times,serif" font-size="9.00">LoggerPort</text>
</g>
<!-- console_log&#45;&gt;logger_port -->
<g id="edge5" class="edge">
<title>console_log&#45;&gt;logger_port</title>
<path fill="none" stroke="black" stroke-width="0.5" stroke-dasharray="5,2" d="M1257.39,-125.35C1147.25,-96.04 1025.42,-81.07 971.31,-75.3"/>
<polygon fill="black" stroke="black" stroke-width="0.5" points="1256.37,-128.7 1266.93,-127.94 1258.2,-121.95 1256.37,-128.7"/>
</g>
<!-- cas_cache -->
<g id="node6" class="node">
<title>cas_cache</title>
<path fill="#f0f0f0" stroke="black" stroke-width="0.8" d="M944.5,-258.5C944.5,-258.5 871.5,-258.5 871.5,-258.5 865.5,-258.5 859.5,-252.5 859.5,-246.5 859.5,-246.5 859.5,-234.5 859.5,-234.5 859.5,-228.5 865.5,-222.5 871.5,-222.5 871.5,-222.5 944.5,-222.5 944.5,-222.5 950.5,-222.5 956.5,-228.5 956.5,-234.5 956.5,-234.5 956.5,-246.5 956.5,-246.5 956.5,-252.5 950.5,-258.5 944.5,-258.5"/>
<text xml:space="preserve" text-anchor="start" x="867.5" y="-237.2" font-family="Times,serif" font-size="9.00">CasSeekCacheAdapter</text>
</g>
<!-- cache_port -->
<g id="node13" class="node">
<title>cache_port</title>
<polygon fill="#d0d0d0" stroke="black" stroke-width="0.8" stroke-dasharray="5,2" points="943,-161.5 873,-161.5 873,-125.5 943,-125.5 943,-161.5"/>
<text xml:space="preserve" text-anchor="middle" x="908" y="-140.2" font-family="Times,serif" font-size="9.00">SeekCachePort</text>
</g>
<!-- cas_cache&#45;&gt;cache_port -->
<g id="edge6" class="edge">
<title>cas_cache&#45;&gt;cache_port</title>
<path fill="none" stroke="black" stroke-width="0.5" stroke-dasharray="5,2" d="M908,-212C908,-195.74 908,-175.67 908,-161.66"/>
<polygon fill="black" stroke="black" stroke-width="0.5" points="904.5,-211.76 908,-221.76 911.5,-211.76 904.5,-211.76"/>
</g>
<!-- index_port -->
<g id="node12" class="node">
<title>index_port</title>
<polygon fill="#d0d0d0" stroke="black" stroke-width="0.8" stroke-dasharray="5,2" points="829.12,-161.5 750.88,-161.5 750.88,-125.5 829.12,-125.5 829.12,-161.5"/>
<text xml:space="preserve" text-anchor="middle" x="790" y="-140.2" font-family="Times,serif" font-size="9.00">IndexStoragePort</text>
</g>
<!-- warp_graph -->
<g id="node14" class="node">
<title>warp_graph</title>
<path fill="#d0d0d0" stroke="black" stroke-width="1.2" d="M276,-161.5C276,-161.5 236,-161.5 236,-161.5 230,-161.5 224,-155.5 224,-149.5 224,-149.5 224,-137.5 224,-137.5 224,-131.5 230,-125.5 236,-125.5 236,-125.5 276,-125.5 276,-125.5 282,-125.5 288,-131.5 288,-137.5 288,-137.5 288,-149.5 288,-149.5 288,-155.5 282,-161.5 276,-161.5"/>
<text xml:space="preserve" text-anchor="start" x="232" y="-143.95" font-family="Times,serif" font-weight="bold" font-size="9.00">WarpGraph</text>
<text xml:space="preserve" text-anchor="start" x="233.12" y="-136.85" font-family="Times,serif" font-size="7.00">main API facade</text>
</g>
<!-- warp_graph&#45;&gt;persistence_port -->
<g id="edge7" class="edge">
<title>warp_graph&#45;&gt;persistence_port</title>
<path fill="none" stroke="black" stroke-width="0.5" d="M232.52,-125.2C220.64,-116.45 206.05,-105.69 193.15,-96.19"/>
<polygon fill="black" stroke="black" stroke-width="0.5" points="195.28,-93.41 185.15,-90.3 191.13,-99.05 195.28,-93.41"/>
</g>
<!-- warp_graph&#45;&gt;codec_port -->
<g id="edge8" class="edge">
<title>warp_graph&#45;&gt;codec_port</title>
<path fill="none" stroke="black" stroke-width="0.5" d="M288.37,-128.04C291.25,-127.07 294.16,-126.2 297,-125.5 465.23,-84 521.76,-138.85 686.89,-91.13"/>
<polygon fill="black" stroke="black" stroke-width="0.5" points="687.57,-94.58 696.16,-88.37 685.58,-87.87 687.57,-94.58"/>
</g>
<!-- warp_graph&#45;&gt;crypto_port -->
<g id="edge9" class="edge">
<title>warp_graph&#45;&gt;crypto_port</title>
<path fill="none" stroke="black" stroke-width="0.5" d="M288.36,-128C291.25,-127.04 294.15,-126.18 297,-125.5 494.38,-78.17 558.12,-139.3 758.81,-89.19"/>
<polygon fill="black" stroke="black" stroke-width="0.5" points="759.55,-92.62 768.36,-86.74 757.81,-85.84 759.55,-92.62"/>
</g>
<!-- warp_graph&#45;&gt;clock_port -->
<g id="edge10" class="edge">
<title>warp_graph&#45;&gt;clock_port</title>
<path fill="none" stroke="black" stroke-width="0.5" d="M288.36,-127.96C291.24,-127.01 294.15,-126.17 297,-125.5 526.61,-71.74 600.39,-147.42 832.77,-89.19"/>
<polygon fill="black" stroke="black" stroke-width="0.5" points="833.33,-92.66 842.15,-86.78 831.59,-85.87 833.33,-92.66"/>
</g>
<!-- warp_graph&#45;&gt;logger_port -->
<g id="edge11" class="edge">
<title>warp_graph&#45;&gt;logger_port</title>
<path fill="none" stroke="black" stroke-width="0.5" d="M288.35,-127.94C291.24,-126.99 294.15,-126.16 297,-125.5 557.89,-65.5 640.85,-152.96 904.44,-89.3"/>
<polygon fill="black" stroke="black" stroke-width="0.5" points="905.09,-92.74 913.96,-86.95 903.42,-85.95 905.09,-92.74"/>
</g>
<!-- reducer -->
<g id="node15" class="node">
<title>reducer</title>
<path fill="#d0d0d0" stroke="black" stroke-width="0.8" d="M274.12,-89.5C274.12,-89.5 237.88,-89.5 237.88,-89.5 231.88,-89.5 225.88,-83.5 225.88,-77.5 225.88,-77.5 225.88,-65.5 225.88,-65.5 225.88,-59.5 231.88,-53.5 237.88,-53.5 237.88,-53.5 274.12,-53.5 274.12,-53.5 280.12,-53.5 286.12,-59.5 286.12,-65.5 286.12,-65.5 286.12,-77.5 286.12,-77.5 286.12,-83.5 280.12,-89.5 274.12,-89.5"/>
<text xml:space="preserve" text-anchor="start" x="233.88" y="-68.2" font-family="Times,serif" font-size="9.00">JoinReducer</text>
</g>
<!-- warp_graph&#45;&gt;reducer -->
<!-- patch_builder -->
<g id="node16" class="node">
<title>patch_builder</title>
<path fill="#d0d0d0" stroke="black" stroke-width="0.8" d="M365.5,-89.5C365.5,-89.5 316.5,-89.5 316.5,-89.5 310.5,-89.5 304.5,-83.5 304.5,-77.5 304.5,-77.5 304.5,-65.5 304.5,-65.5 304.5,-59.5 310.5,-53.5 316.5,-53.5 316.5,-53.5 365.5,-53.5 365.5,-53.5 371.5,-53.5 377.5,-59.5 377.5,-65.5 377.5,-65.5 377.5,-77.5 377.5,-77.5 377.5,-83.5 371.5,-89.5 365.5,-89.5"/>
<text xml:space="preserve" text-anchor="start" x="312.5" y="-68.2" font-family="Times,serif" font-size="9.00">PatchBuilderV2</text>
</g>
<!-- warp_graph&#45;&gt;patch_builder -->
<!-- checkpoint_svc -->
<g id="node17" class="node">
<title>checkpoint_svc</title>
<path fill="#d0d0d0" stroke="black" stroke-width="0.8" d="M376.38,-161.5C376.38,-161.5 317.62,-161.5 317.62,-161.5 311.62,-161.5 305.62,-155.5 305.62,-149.5 305.62,-149.5 305.62,-137.5 305.62,-137.5 305.62,-131.5 311.62,-125.5 317.62,-125.5 317.62,-125.5 376.38,-125.5 376.38,-125.5 382.38,-125.5 388.38,-131.5 388.38,-137.5 388.38,-137.5 388.38,-149.5 388.38,-149.5 388.38,-155.5 382.38,-161.5 376.38,-161.5"/>
<text xml:space="preserve" text-anchor="start" x="313.62" y="-140.2" font-family="Times,serif" font-size="9.00">CheckpointService</text>
</g>
<!-- query_builder -->
<g id="node18" class="node">
<title>query_builder</title>
<path fill="#d0d0d0" stroke="black" stroke-width="0.8" d="M459.38,-161.5C459.38,-161.5 418.62,-161.5 418.62,-161.5 412.62,-161.5 406.62,-155.5 406.62,-149.5 406.62,-149.5 406.62,-137.5 406.62,-137.5 406.62,-131.5 412.62,-125.5 418.62,-125.5 418.62,-125.5 459.38,-125.5 459.38,-125.5 465.38,-125.5 471.38,-131.5 471.38,-137.5 471.38,-137.5 471.38,-149.5 471.38,-149.5 471.38,-155.5 465.38,-161.5 459.38,-161.5"/>
<text xml:space="preserve" text-anchor="start" x="414.62" y="-140.2" font-family="Times,serif" font-size="9.00">QueryBuilder</text>
</g>
<!-- traversal -->
<g id="node19" class="node">
<title>traversal</title>
<path fill="#d0d0d0" stroke="black" stroke-width="0.8" d="M552.62,-161.5C552.62,-161.5 501.38,-161.5 501.38,-161.5 495.38,-161.5 489.38,-155.5 489.38,-149.5 489.38,-149.5 489.38,-137.5 489.38,-137.5 489.38,-131.5 495.38,-125.5 501.38,-125.5 501.38,-125.5 552.62,-125.5 552.62,-125.5 558.62,-125.5 564.62,-131.5 564.62,-137.5 564.62,-137.5 564.62,-149.5 564.62,-149.5 564.62,-155.5 558.62,-161.5 552.62,-161.5"/>
<text xml:space="preserve" text-anchor="start" x="497.38" y="-140.2" font-family="Times,serif" font-size="9.00">LogicalTraversal</text>
</g>
<!-- crdt -->
<g id="node20" class="node">
<title>crdt</title>
<path fill="#d0d0d0" stroke="black" stroke-width="0.8" d="M669.25,-161.5C669.25,-161.5 594.75,-161.5 594.75,-161.5 588.75,-161.5 582.75,-155.5 582.75,-149.5 582.75,-149.5 582.75,-137.5 582.75,-137.5 582.75,-131.5 588.75,-125.5 594.75,-125.5 594.75,-125.5 669.25,-125.5 669.25,-125.5 675.25,-125.5 681.25,-131.5 681.25,-137.5 681.25,-137.5 681.25,-149.5 681.25,-149.5 681.25,-155.5 675.25,-161.5 669.25,-161.5"/>
<text xml:space="preserve" text-anchor="start" x="618.5" y="-143.95" font-family="Times,serif" font-size="9.00">CRDTs</text>
<text xml:space="preserve" text-anchor="start" x="590.75" y="-136.85" font-family="Times,serif" font-size="7.00">VersionVector, ORSet, LWW</text>
</g>
</g>
</svg>
