<?xml version="1.0" encoding="UTF-8" standalone="no"?>
<!DOCTYPE svg PUBLIC "-//W3C//DTD SVG 1.1//EN"
 "http://www.w3.org/Graphics/SVG/1.1/DTD/svg11.dtd">
<!-- Generated by graphviz version 14.1.2 (20260124.0452)
 -->
<!-- Title: two_plane Pages: 1 -->
<svg width="656pt" height="433pt"
 viewBox="0.00 0.00 656.00 433.00" xmlns="http://www.w3.org/2000/svg" xmlns:xlink="http://www.w3.org/1999/xlink">
<g id="graph0" class="graph" transform="scale(1 1) rotate(0) translate(4 428.75)">
<title>two_plane</title>
<text xml:space="preserve" text-anchor="start" x="163.5" y="-8.05" font-family="Times,serif" font-style="italic" font-size="11.00">Fig. 2. &#160;Two&#45;Plane State Model — skeleton topology + attachment fibres</text>
<g id="clust1" class="cluster">
<title>cluster_skeleton</title>
<path fill="none" stroke="#606060" stroke-width="0.8" d="M59,-138.75C59,-138.75 277,-138.75 277,-138.75 283,-138.75 289,-144.75 289,-150.75 289,-150.75 289,-404.75 289,-404.75 289,-410.75 283,-416.75 277,-416.75 277,-416.75 59,-416.75 59,-416.75 53,-416.75 47,-410.75 47,-404.75 47,-404.75 47,-150.75 47,-150.75 47,-144.75 53,-138.75 59,-138.75"/>
<text xml:space="preserve" text-anchor="start" x="55.12" y="-405.2" font-family="Times,serif" font-weight="bold" font-size="9.00">Skeleton plane G</text>
<text xml:space="preserve" text-anchor="start" x="120.38" y="-405.2" font-family="Times,serif" font-size="9.00"> &#160;(OR&#45;Set: add wins over concurrent remove)</text>
</g>
<g id="clust2" class="cluster">
<title>cluster_attach</title>
<path fill="none" stroke="#606060" stroke-width="0.8" d="M20,-29.5C20,-29.5 628,-29.5 628,-29.5 634,-29.5 640,-35.5 640,-41.5 640,-41.5 640,-88 640,-88 640,-94 634,-100 628,-100 628,-100 20,-100 20,-100 14,-100 8,-94 8,-88 8,-88 8,-41.5 8,-41.5 8,-35.5 14,-29.5 20,-29.5"/>
<text xml:space="preserve" text-anchor="start" x="215.25" y="-88.45" font-family="Times,serif" font-weight="bold" font-size="9.00">Attachment fibres α, β</text>
<text xml:space="preserve" text-anchor="start" x="301.5" y="-88.45" font-family="Times,serif" font-size="9.00"> &#160;(LWW registers, keyed by EventId)</text>
</g>
<!-- v1 -->
<g id="node1" class="node">
<title>v1</title>
<ellipse fill="#d0d0d0" stroke="black" cx="262" cy="-372.25" rx="18" ry="18"/>
<text xml:space="preserve" text-anchor="start" x="257.12" y="-369.38" font-family="Times,serif" font-size="10.00">v</text>
<text xml:space="preserve" text-anchor="start" x="262.38" y="-369.38" font-family="Times,serif" baseline-shift="sub" font-size="10.00">1</text>
</g>
<!-- v2 -->
<g id="node2" class="node">
<title>v2</title>
<ellipse fill="#d0d0d0" stroke="black" cx="262" cy="-268.5" rx="18" ry="18"/>
<text xml:space="preserve" text-anchor="start" x="257.12" y="-265.62" font-family="Times,serif" font-size="10.00">v</text>
<text xml:space="preserve" text-anchor="start" x="262.38" y="-265.62" font-family="Times,serif" baseline-shift="sub" font-size="10.00">2</text>
</g>
<!-- v1&#45;&gt;v2 -->
<g id="edge1" class="edge">
<title>v1&#45;&gt;v2</title>
<path fill="none" stroke="black" stroke-width="1.2" d="M262,-353.99C262,-338.86 262,-316.55 262,-298.66"/>
<polygon fill="black" stroke="black" stroke-width="1.2" points="265.5,-298.66 262,-288.66 258.5,-298.66 265.5,-298.66"/>
<text xml:space="preserve" text-anchor="start" x="262" y="-318.65" font-family="Times,serif" font-size="8.00">e</text>
<text xml:space="preserve" text-anchor="start" x="265.75" y="-318.65" font-family="Times,serif" baseline-shift="sub" font-size="8.00">12</text>
</g>
<!-- a_v1 -->
<g id="node4" class="node">
<title>a_v1</title>
<polygon fill="#f0f0f0" stroke="black" stroke-width="0.8" stroke-dasharray="5,2" points="426,-73.5 362,-73.5 362,-37.5 426,-37.5 426,-73.5"/>
<text xml:space="preserve" text-anchor="start" x="383.5" y="-60" font-family="Times,serif" font-size="10.00">α(v</text>
<text xml:space="preserve" text-anchor="start" x="397" y="-60" font-family="Times,serif" baseline-shift="sub" font-size="10.00">1</text>
<text xml:space="preserve" text-anchor="start" x="401.5" y="-60" font-family="Times,serif" font-size="10.00">)</text>
<text xml:space="preserve" text-anchor="start" x="370" y="-51.9" font-family="Times,serif" font-size="8.00">name = &quot;alice&quot;</text>
<text xml:space="preserve" text-anchor="start" x="370.38" y="-43.9" font-family="Times,serif" font-size="8.00">role = &quot;admin&quot;</text>
</g>
<!-- v1&#45;&gt;a_v1 -->
<g id="edge6" class="edge">
<title>v1&#45;&gt;a_v1</title>
<path fill="none" stroke="#606060" stroke-width="0.5" stroke-dasharray="5,2" d="M272.47,-357.17C284.26,-340.83 303.4,-312.77 316,-286.5 349.61,-216.4 375.27,-127.97 386.99,-83.98"/>
<polygon fill="#606060" stroke="#606060" stroke-width="0.5" points="390.32,-85.08 389.48,-74.52 383.55,-83.3 390.32,-85.08"/>
<text xml:space="preserve" text-anchor="middle" x="348.8" y="-213.9" font-family="Times,serif" font-size="8.00">α</text>
</g>
<!-- b_e12 -->
<g id="node7" class="node">
<title>b_e12</title>
<polygon fill="#f0f0f0" stroke="black" stroke-width="0.8" stroke-dasharray="5,2" points="632.25,-73.5 575.75,-73.5 575.75,-37.5 632.25,-37.5 632.25,-73.5"/>
<text xml:space="preserve" text-anchor="start" x="591.62" y="-56" font-family="Times,serif" font-size="10.00">β(e</text>
<text xml:space="preserve" text-anchor="start" x="604.38" y="-56" font-family="Times,serif" baseline-shift="sub" font-size="10.00">12</text>
<text xml:space="preserve" text-anchor="start" x="613.38" y="-56" font-family="Times,serif" font-size="10.00">)</text>
<text xml:space="preserve" text-anchor="start" x="583.75" y="-47.9" font-family="Times,serif" font-size="8.00">weight = 1.0</text>
</g>
<!-- v1&#45;&gt;b_e12 -->
<g id="edge9" class="edge">
<title>v1&#45;&gt;b_e12</title>
<path fill="none" stroke="#606060" stroke-width="0.5" stroke-dasharray="5,2" d="M289,-360.4C307.65,-352.22 332.51,-339.92 352,-325.25 451.56,-250.34 545.52,-133.82 584.75,-82.39"/>
<polygon fill="#606060" stroke="#606060" stroke-width="0.5" points="587.51,-84.54 590.76,-74.45 581.93,-80.31 587.51,-84.54"/>
<text xml:space="preserve" text-anchor="start" x="474.62" y="-214.9" font-family="Times,serif" font-size="8.00">β(e</text>
<text xml:space="preserve" text-anchor="start" x="485.12" y="-214.9" font-family="Times,serif" baseline-shift="sub" font-size="8.00">12</text>
<text xml:space="preserve" text-anchor="start" x="491.12" y="-214.9" font-family="Times,serif" font-size="8.00">)</text>
</g>
<!-- v3 -->
<g id="node3" class="node">
<title>v3</title>
<ellipse fill="#d0d0d0" stroke="black" cx="100" cy="-164.75" rx="18" ry="18"/>
<text xml:space="preserve" text-anchor="start" x="95.12" y="-161.88" font-family="Times,serif" font-size="10.00">v</text>
<text xml:space="preserve" text-anchor="start" x="100.38" y="-161.88" font-family="Times,serif" baseline-shift="sub" font-size="10.00">3</text>
</g>
<!-- v2&#45;&gt;v3 -->
<g id="edge2" class="edge">
<title>v2&#45;&gt;v3</title>
<path fill="none" stroke="black" stroke-width="1.2" d="M247.05,-258.11C219.08,-240.54 158.61,-202.56 124.56,-181.18"/>
<polygon fill="black" stroke="black" stroke-width="1.2" points="126.78,-178.44 116.45,-176.08 123.06,-184.37 126.78,-178.44"/>
<text xml:space="preserve" text-anchor="start" x="185.86" y="-214.9" font-family="Times,serif" font-size="8.00">e</text>
<text xml:space="preserve" text-anchor="start" x="189.61" y="-214.9" font-family="Times,serif" baseline-shift="sub" font-size="8.00">23</text>
</g>
<!-- a_v2 -->
<g id="node5" class="node">
<title>a_v2</title>
<polygon fill="#f0f0f0" stroke="black" stroke-width="0.8" stroke-dasharray="5,2" points="289.75,-73.5 230.25,-73.5 230.25,-37.5 289.75,-37.5 289.75,-73.5"/>
<text xml:space="preserve" text-anchor="start" x="249.5" y="-56" font-family="Times,serif" font-size="10.00">α(v</text>
<text xml:space="preserve" text-anchor="start" x="263" y="-56" font-family="Times,serif" baseline-shift="sub" font-size="10.00">2</text>
<text xml:space="preserve" text-anchor="start" x="267.5" y="-56" font-family="Times,serif" font-size="10.00">)</text>
<text xml:space="preserve" text-anchor="start" x="238.25" y="-47.9" font-family="Times,serif" font-size="8.00">name = &quot;bob&quot;</text>
</g>
<!-- v2&#45;&gt;a_v2 -->
<g id="edge7" class="edge">
<title>v2&#45;&gt;a_v2</title>
<path fill="none" stroke="#606060" stroke-width="0.5" stroke-dasharray="5,2" d="M261.84,-250.23C261.49,-213.74 260.68,-128.52 260.26,-84.27"/>
<polygon fill="#606060" stroke="#606060" stroke-width="0.5" points="263.77,-84.43 260.17,-74.47 256.77,-84.5 263.77,-84.43"/>
<text xml:space="preserve" text-anchor="middle" x="263.42" y="-162.03" font-family="Times,serif" font-size="8.00">α</text>
</g>
<!-- v3&#45;&gt;v1 -->
<g id="edge3" class="edge">
<title>v3&#45;&gt;v1</title>
<path fill="none" stroke="black" stroke-width="1.2" d="M110.83,-179.49C138.16,-214.16 210.13,-305.45 243.95,-348.35"/>
<polygon fill="black" stroke="black" stroke-width="1.2" points="241.06,-350.33 249.99,-356.02 246.55,-346 241.06,-350.33"/>
<text xml:space="preserve" text-anchor="start" x="194.44" y="-266.77" font-family="Times,serif" font-size="8.00">e</text>
<text xml:space="preserve" text-anchor="start" x="198.19" y="-266.77" font-family="Times,serif" baseline-shift="sub" font-size="8.00">31</text>
</g>
<!-- a_v3 -->
<g id="node6" class="node">
<title>a_v3</title>
<polygon fill="#f0f0f0" stroke="black" stroke-width="0.8" stroke-dasharray="5,2" points="80.38,-73.5 15.62,-73.5 15.62,-37.5 80.38,-37.5 80.38,-73.5"/>
<text xml:space="preserve" text-anchor="start" x="37.5" y="-56" font-family="Times,serif" font-size="10.00">α(v</text>
<text xml:space="preserve" text-anchor="start" x="51" y="-56" font-family="Times,serif" baseline-shift="sub" font-size="10.00">3</text>
<text xml:space="preserve" text-anchor="start" x="55.5" y="-56" font-family="Times,serif" font-size="10.00">)</text>
<text xml:space="preserve" text-anchor="start" x="23.62" y="-47.9" font-family="Times,serif" font-size="8.00">name = &quot;carol&quot;</text>
</g>
<!-- v3&#45;&gt;a_v3 -->
<g id="edge8" class="edge">
<title>v3&#45;&gt;a_v3</title>
<path fill="none" stroke="#606060" stroke-width="0.5" stroke-dasharray="5,2" d="M92.33,-147.92C84.11,-130.98 70.92,-103.78 61.07,-83.45"/>
<polygon fill="#606060" stroke="#606060" stroke-width="0.5" points="64.24,-81.97 56.72,-74.49 57.94,-85.02 64.24,-81.97"/>
<text xml:space="preserve" text-anchor="middle" x="79.36" y="-110.15" font-family="Times,serif" font-size="8.00">α</text>
</g>
<!-- atom1 -->
<g id="node8" class="node">
<title>atom1</title>
<ellipse fill="#a0a0a0" stroke="#a0a0a0" stroke-width="0.8" cx="501" cy="-55.5" rx="2.88" ry="2.88"/>
</g>
<!-- a_v1&#45;&gt;atom1 -->
<!-- atom2 -->
<g id="node9" class="node">
<title>atom2</title>
<ellipse fill="#a0a0a0" stroke="#a0a0a0" stroke-width="0.8" cx="155" cy="-55.5" rx="2.88" ry="2.88"/>
</g>
<!-- a_v3&#45;&gt;atom2 -->
</g>
</svg>
